G04 #@! TF.GenerationSoftware,KiCad,Pcbnew,(5.1.4)-1*
G04 #@! TF.CreationDate,2021-01-09T17:41:00+01:00*
G04 #@! TF.ProjectId,numpad,6e756d70-6164-42e6-9b69-6361645f7063,1.1*
G04 #@! TF.SameCoordinates,Original*
G04 #@! TF.FileFunction,Copper,L1,Top*
G04 #@! TF.FilePolarity,Positive*
%FSLAX46Y46*%
G04 Gerber Fmt 4.6, Leading zero omitted, Abs format (unit mm)*
G04 Created by KiCad (PCBNEW (5.1.4)-1) date 2021-01-09 17:41:00*
%MOMM*%
%LPD*%
G04 APERTURE LIST*
%ADD10C,2.250000*%
%ADD11O,1.000000X2.100000*%
%ADD12O,1.000000X1.600000*%
%ADD13C,0.800000*%
%ADD14C,0.250000*%
%ADD15C,0.254000*%
G04 APERTURE END LIST*
D10*
X66040000Y-118745000D03*
X59690000Y-121285000D03*
D11*
X78250000Y-42920000D03*
X86890000Y-42920000D03*
D12*
X78250000Y-38740000D03*
X86890000Y-38740000D03*
D10*
X106045000Y-111760000D03*
X108585000Y-118110000D03*
X94615000Y-118745000D03*
X88265000Y-121285000D03*
X56515000Y-99695000D03*
X50165000Y-102235000D03*
X56515000Y-80645000D03*
X50165000Y-83185000D03*
X56515000Y-61595000D03*
X50165000Y-64135000D03*
X75565000Y-99695000D03*
X69215000Y-102235000D03*
X113665000Y-80645000D03*
X107315000Y-83185000D03*
X113665000Y-61595000D03*
X107315000Y-64135000D03*
X113665000Y-42545000D03*
X107315000Y-45085000D03*
X94615000Y-80645000D03*
X88265000Y-83185000D03*
X88265000Y-64135000D03*
X94615000Y-61595000D03*
X94615000Y-42545000D03*
X88265000Y-45085000D03*
X94615000Y-99695000D03*
X88265000Y-102235000D03*
X75565000Y-80645000D03*
X69215000Y-83185000D03*
X75565000Y-61595000D03*
X69215000Y-64135000D03*
X75565000Y-42545000D03*
X69215000Y-45085000D03*
X56515000Y-42545000D03*
X50165000Y-45085000D03*
D13*
X111430000Y-97820000D03*
X84170000Y-49330000D03*
X80850000Y-49340000D03*
X85570000Y-56360000D03*
X119110000Y-85840000D03*
X64470000Y-68960000D03*
X64460000Y-87280000D03*
X102550000Y-86860000D03*
X80950000Y-52670000D03*
X93440000Y-52740000D03*
X85080000Y-72430000D03*
X78180000Y-72430000D03*
X69410000Y-72430000D03*
X64850000Y-72430000D03*
X65176250Y-90693750D03*
X68446250Y-90693750D03*
X80370000Y-109740000D03*
X84566250Y-109743750D03*
X98930000Y-100670000D03*
X107320000Y-103710000D03*
X112520000Y-103070000D03*
X104510000Y-92210000D03*
X115710000Y-90360000D03*
X115960000Y-101940000D03*
X111125000Y-94456250D03*
X114995179Y-92661570D03*
D14*
X66470000Y-64135000D02*
X69215000Y-64135000D01*
X66470000Y-64135000D02*
X66273965Y-64144630D01*
X66273965Y-64144630D02*
X66079819Y-64173429D01*
X66079819Y-64173429D02*
X65889430Y-64221119D01*
X65889430Y-64221119D02*
X65704633Y-64287240D01*
X65704633Y-64287240D02*
X65527206Y-64371157D01*
X65527206Y-64371157D02*
X65358859Y-64472060D01*
X65358859Y-64472060D02*
X65201213Y-64588979D01*
X65201213Y-64588979D02*
X65055786Y-64720786D01*
X65055786Y-64720786D02*
X64923979Y-64866213D01*
X64923979Y-64866213D02*
X64807060Y-65023859D01*
X64807060Y-65023859D02*
X64706157Y-65192206D01*
X64706157Y-65192206D02*
X64622240Y-65369633D01*
X64622240Y-65369633D02*
X64556119Y-65554430D01*
X64556119Y-65554430D02*
X64508429Y-65744819D01*
X64508429Y-65744819D02*
X64479630Y-65938965D01*
X64479630Y-65938965D02*
X64470000Y-66135000D01*
X64470000Y-66135000D02*
X64470000Y-68960000D01*
X64460000Y-85185000D02*
X64460000Y-87280000D01*
X64460000Y-85185000D02*
X64469630Y-84988965D01*
X64469630Y-84988965D02*
X64498429Y-84794819D01*
X64498429Y-84794819D02*
X64546119Y-84604430D01*
X64546119Y-84604430D02*
X64612240Y-84419633D01*
X64612240Y-84419633D02*
X64696157Y-84242206D01*
X64696157Y-84242206D02*
X64797060Y-84073859D01*
X64797060Y-84073859D02*
X64913979Y-83916213D01*
X64913979Y-83916213D02*
X65045786Y-83770786D01*
X65045786Y-83770786D02*
X65191213Y-83638979D01*
X65191213Y-83638979D02*
X65348859Y-83522060D01*
X65348859Y-83522060D02*
X65517206Y-83421157D01*
X65517206Y-83421157D02*
X65694633Y-83337240D01*
X65694633Y-83337240D02*
X65879430Y-83271119D01*
X65879430Y-83271119D02*
X66069819Y-83223429D01*
X66069819Y-83223429D02*
X66263965Y-83194630D01*
X66263965Y-83194630D02*
X66460000Y-83185000D01*
X66460000Y-83185000D02*
X69215000Y-83185000D01*
X102550000Y-85185000D02*
X102550000Y-86860000D01*
X102550000Y-85185000D02*
X102559630Y-84988965D01*
X102559630Y-84988965D02*
X102588429Y-84794819D01*
X102588429Y-84794819D02*
X102636119Y-84604430D01*
X102636119Y-84604430D02*
X102702240Y-84419633D01*
X102702240Y-84419633D02*
X102786157Y-84242206D01*
X102786157Y-84242206D02*
X102887060Y-84073859D01*
X102887060Y-84073859D02*
X103003979Y-83916213D01*
X103003979Y-83916213D02*
X103135786Y-83770786D01*
X103135786Y-83770786D02*
X103281213Y-83638979D01*
X103281213Y-83638979D02*
X103438859Y-83522060D01*
X103438859Y-83522060D02*
X103607206Y-83421157D01*
X103607206Y-83421157D02*
X103784633Y-83337240D01*
X103784633Y-83337240D02*
X103969430Y-83271119D01*
X103969430Y-83271119D02*
X104159819Y-83223429D01*
X104159819Y-83223429D02*
X104353965Y-83194630D01*
X104353965Y-83194630D02*
X104550000Y-83185000D01*
X104550000Y-83185000D02*
X107315000Y-83185000D01*
X80950000Y-52670000D02*
X93370000Y-52670000D01*
X93370000Y-52670000D02*
X93440000Y-52740000D01*
X85080000Y-72430000D02*
X78180000Y-72430000D01*
X69410000Y-72430000D02*
X64850000Y-72430000D01*
X65176250Y-90693750D02*
X68446250Y-90693750D01*
X80373750Y-109743750D02*
X80370000Y-109740000D01*
X84566250Y-109743750D02*
X80373750Y-109743750D01*
X56515000Y-63185990D02*
X56515000Y-80645000D01*
X56515000Y-61595000D02*
X56515000Y-63185990D01*
X56515000Y-82235990D02*
X56515000Y-99695000D01*
X56515000Y-80645000D02*
X56515000Y-82235990D01*
X56515000Y-109220000D02*
X66040000Y-118745000D01*
X56515000Y-99695000D02*
X56515000Y-109220000D01*
X56515000Y-44135990D02*
X56515000Y-61595000D01*
X56515000Y-42545000D02*
X56515000Y-44135990D01*
X75565000Y-42545000D02*
X75565000Y-61595000D01*
X75565000Y-61595000D02*
X75565000Y-80645000D01*
X75565000Y-82235990D02*
X75565000Y-99695000D01*
X75565000Y-80645000D02*
X75565000Y-82235990D01*
X76689999Y-100819999D02*
X94615000Y-118745000D01*
X75565000Y-99695000D02*
X76689999Y-100819999D01*
X94615000Y-44135990D02*
X94615000Y-61595000D01*
X94615000Y-42545000D02*
X94615000Y-44135990D01*
X94615000Y-61595000D02*
X94615000Y-80645000D01*
X94615000Y-80645000D02*
X94615000Y-99695000D01*
X113665000Y-42545000D02*
X113665000Y-61595000D01*
X113665000Y-63185990D02*
X113665000Y-80645000D01*
X113665000Y-61595000D02*
X113665000Y-63185990D01*
X113665000Y-80645000D02*
X101885000Y-80645000D01*
X101885000Y-80645000D02*
X98930000Y-83600000D01*
X98930000Y-104645000D02*
X106045000Y-111760000D01*
X98930000Y-83600000D02*
X98930000Y-100670000D01*
X98930000Y-100670000D02*
X98930000Y-104645000D01*
X107320000Y-103710000D02*
X111880000Y-103710000D01*
X111880000Y-103710000D02*
X112520000Y-103070000D01*
X104510000Y-92210000D02*
X104510000Y-100190000D01*
X107320000Y-103000000D02*
X107320000Y-103710000D01*
X104510000Y-100190000D02*
X107320000Y-103000000D01*
X115710000Y-90925685D02*
X116120000Y-91335685D01*
X115710000Y-90360000D02*
X115710000Y-90925685D01*
X116120000Y-91335685D02*
X116120000Y-101780000D01*
X116120000Y-101780000D02*
X115960000Y-101940000D01*
X111125000Y-94456250D02*
X113200499Y-94456250D01*
X113200499Y-94456250D02*
X114995179Y-92661570D01*
D15*
G36*
X77115000Y-39167000D02*
G01*
X77161585Y-39385987D01*
X77249997Y-39591678D01*
X77376839Y-39776169D01*
X77537236Y-39932369D01*
X77725024Y-40054276D01*
X77948126Y-40134119D01*
X78123000Y-40007954D01*
X78123000Y-38867000D01*
X78103000Y-38867000D01*
X78103000Y-38810000D01*
X78397000Y-38810000D01*
X78397000Y-38867000D01*
X78377000Y-38867000D01*
X78377000Y-40007954D01*
X78551874Y-40134119D01*
X78774976Y-40054276D01*
X78962764Y-39932369D01*
X79123161Y-39776169D01*
X79250003Y-39591678D01*
X79338415Y-39385987D01*
X79385000Y-39167000D01*
X79385000Y-38810000D01*
X85755000Y-38810000D01*
X85755000Y-39167000D01*
X85801585Y-39385987D01*
X85889997Y-39591678D01*
X86016839Y-39776169D01*
X86177236Y-39932369D01*
X86365024Y-40054276D01*
X86588126Y-40134119D01*
X86763000Y-40007954D01*
X86763000Y-38867000D01*
X86743000Y-38867000D01*
X86743000Y-38810000D01*
X87037000Y-38810000D01*
X87037000Y-38867000D01*
X87017000Y-38867000D01*
X87017000Y-40007954D01*
X87191874Y-40134119D01*
X87414976Y-40054276D01*
X87602764Y-39932369D01*
X87763161Y-39776169D01*
X87890003Y-39591678D01*
X87978415Y-39385987D01*
X88025000Y-39167000D01*
X88025000Y-38810000D01*
X118234029Y-38810000D01*
X118592701Y-38845168D01*
X118904319Y-38939252D01*
X119191720Y-39092065D01*
X119443968Y-39297793D01*
X119651456Y-39548603D01*
X119806275Y-39834935D01*
X119902529Y-40145879D01*
X119940001Y-40502401D01*
X119940000Y-101246442D01*
X119787004Y-101017468D01*
X119486282Y-100716746D01*
X119132670Y-100480469D01*
X118739757Y-100317720D01*
X118322643Y-100234750D01*
X117897357Y-100234750D01*
X117480243Y-100317720D01*
X117087330Y-100480469D01*
X116880000Y-100619003D01*
X116880000Y-91373018D01*
X116883677Y-91335685D01*
X116869003Y-91186699D01*
X116825546Y-91043438D01*
X116800001Y-90995648D01*
X116754974Y-90911409D01*
X116660001Y-90795684D01*
X116652395Y-90789442D01*
X116705226Y-90661898D01*
X116745000Y-90461939D01*
X116745000Y-90258061D01*
X116705226Y-90058102D01*
X116627205Y-89869744D01*
X116513937Y-89700226D01*
X116369774Y-89556063D01*
X116200256Y-89442795D01*
X116011898Y-89364774D01*
X115811939Y-89325000D01*
X115608061Y-89325000D01*
X115408102Y-89364774D01*
X115219744Y-89442795D01*
X115050226Y-89556063D01*
X114906063Y-89700226D01*
X114792795Y-89869744D01*
X114714774Y-90058102D01*
X114675000Y-90258061D01*
X114675000Y-90461939D01*
X114714774Y-90661898D01*
X114792795Y-90850256D01*
X114906063Y-91019774D01*
X114961013Y-91074724D01*
X115004454Y-91217932D01*
X115012910Y-91233751D01*
X115075026Y-91349961D01*
X115146201Y-91436687D01*
X115170000Y-91465686D01*
X115198998Y-91489484D01*
X115360000Y-91650486D01*
X115360000Y-91692408D01*
X115297077Y-91666344D01*
X115097118Y-91626570D01*
X114893240Y-91626570D01*
X114693281Y-91666344D01*
X114504923Y-91744365D01*
X114335405Y-91857633D01*
X114191242Y-92001796D01*
X114077974Y-92171314D01*
X113999953Y-92359672D01*
X113960179Y-92559631D01*
X113960179Y-92621768D01*
X112885698Y-93696250D01*
X111828711Y-93696250D01*
X111784774Y-93652313D01*
X111615256Y-93539045D01*
X111426898Y-93461024D01*
X111226939Y-93421250D01*
X111023061Y-93421250D01*
X110823102Y-93461024D01*
X110634744Y-93539045D01*
X110465226Y-93652313D01*
X110321063Y-93796476D01*
X110207795Y-93965994D01*
X110129774Y-94154352D01*
X110090000Y-94354311D01*
X110090000Y-94558189D01*
X110129774Y-94758148D01*
X110207795Y-94946506D01*
X110321063Y-95116024D01*
X110465226Y-95260187D01*
X110634744Y-95373455D01*
X110823102Y-95451476D01*
X111023061Y-95491250D01*
X111226939Y-95491250D01*
X111426898Y-95451476D01*
X111615256Y-95373455D01*
X111784774Y-95260187D01*
X111828711Y-95216250D01*
X113163177Y-95216250D01*
X113200499Y-95219926D01*
X113237821Y-95216250D01*
X113237832Y-95216250D01*
X113349485Y-95205253D01*
X113492746Y-95161796D01*
X113624775Y-95091224D01*
X113740500Y-94996251D01*
X113764303Y-94967247D01*
X115034981Y-93696570D01*
X115097118Y-93696570D01*
X115297077Y-93656796D01*
X115360000Y-93630732D01*
X115360001Y-101096123D01*
X115300226Y-101136063D01*
X115156063Y-101280226D01*
X115042795Y-101449744D01*
X114964774Y-101638102D01*
X114925000Y-101838061D01*
X114925000Y-102041939D01*
X114964774Y-102241898D01*
X115042795Y-102430256D01*
X115156063Y-102599774D01*
X115300226Y-102743937D01*
X115469744Y-102857205D01*
X115658102Y-102935226D01*
X115858061Y-102975000D01*
X116024321Y-102975000D01*
X116033970Y-103023507D01*
X116196719Y-103416420D01*
X116432996Y-103770032D01*
X116733718Y-104070754D01*
X117087330Y-104307031D01*
X117480243Y-104469780D01*
X117897357Y-104552750D01*
X118322643Y-104552750D01*
X118739757Y-104469780D01*
X119132670Y-104307031D01*
X119486282Y-104070754D01*
X119787004Y-103770032D01*
X119940000Y-103541058D01*
X119940000Y-125058942D01*
X119787004Y-124829968D01*
X119486282Y-124529246D01*
X119132670Y-124292969D01*
X118739757Y-124130220D01*
X118322643Y-124047250D01*
X117897357Y-124047250D01*
X117480243Y-124130220D01*
X117087330Y-124292969D01*
X116733718Y-124529246D01*
X116432996Y-124829968D01*
X116196719Y-125183580D01*
X116033970Y-125576493D01*
X115951000Y-125993607D01*
X115951000Y-126418893D01*
X116033970Y-126836007D01*
X116196719Y-127228920D01*
X116432996Y-127582532D01*
X116733718Y-127883254D01*
X117087330Y-128119531D01*
X117480243Y-128282280D01*
X117897357Y-128365250D01*
X118322643Y-128365250D01*
X118739757Y-128282280D01*
X119132670Y-128119531D01*
X119486282Y-127883254D01*
X119787004Y-127582532D01*
X119940000Y-127353558D01*
X119940000Y-130934029D01*
X119904832Y-131292701D01*
X119810749Y-131604318D01*
X119657934Y-131891722D01*
X119452203Y-132143972D01*
X119201397Y-132351456D01*
X118915066Y-132506275D01*
X118604117Y-132602530D01*
X118247609Y-132640000D01*
X76553558Y-132640000D01*
X76782532Y-132487004D01*
X77083254Y-132186282D01*
X77319531Y-131832670D01*
X77482280Y-131439757D01*
X77565250Y-131022643D01*
X77565250Y-130597357D01*
X77482280Y-130180243D01*
X77319531Y-129787330D01*
X77083254Y-129433718D01*
X76782532Y-129132996D01*
X76428920Y-128896719D01*
X76036007Y-128733970D01*
X75618893Y-128651000D01*
X75193607Y-128651000D01*
X74776493Y-128733970D01*
X74383580Y-128896719D01*
X74029968Y-129132996D01*
X73729246Y-129433718D01*
X73492969Y-129787330D01*
X73330220Y-130180243D01*
X73247250Y-130597357D01*
X73247250Y-131022643D01*
X73330220Y-131439757D01*
X73492969Y-131832670D01*
X73729246Y-132186282D01*
X74029968Y-132487004D01*
X74258942Y-132640000D01*
X52741058Y-132640000D01*
X52970032Y-132487004D01*
X53270754Y-132186282D01*
X53507031Y-131832670D01*
X53669780Y-131439757D01*
X53752750Y-131022643D01*
X53752750Y-130597357D01*
X53669780Y-130180243D01*
X53507031Y-129787330D01*
X53270754Y-129433718D01*
X52970032Y-129132996D01*
X52616420Y-128896719D01*
X52223507Y-128733970D01*
X51806393Y-128651000D01*
X51381107Y-128651000D01*
X50963993Y-128733970D01*
X50571080Y-128896719D01*
X50217468Y-129132996D01*
X49916746Y-129433718D01*
X49680469Y-129787330D01*
X49517720Y-130180243D01*
X49434750Y-130597357D01*
X49434750Y-131022643D01*
X49517720Y-131439757D01*
X49680469Y-131832670D01*
X49916746Y-132186282D01*
X50217468Y-132487004D01*
X50446442Y-132640000D01*
X46865971Y-132640000D01*
X46507299Y-132604832D01*
X46195682Y-132510749D01*
X45908278Y-132357934D01*
X45656028Y-132152203D01*
X45448544Y-131901397D01*
X45293725Y-131615066D01*
X45197470Y-131304117D01*
X45160000Y-130947609D01*
X45160000Y-123676278D01*
X56910000Y-123676278D01*
X56910000Y-123973722D01*
X56968029Y-124265451D01*
X57081856Y-124540253D01*
X57247107Y-124787569D01*
X57457431Y-124997893D01*
X57704747Y-125163144D01*
X57979549Y-125276971D01*
X58271278Y-125335000D01*
X58568722Y-125335000D01*
X58860451Y-125276971D01*
X59135253Y-125163144D01*
X59382569Y-124997893D01*
X59592893Y-124787569D01*
X59758144Y-124540253D01*
X59871971Y-124265451D01*
X59930000Y-123973722D01*
X59930000Y-123676278D01*
X59908080Y-123566076D01*
X60871100Y-123566076D01*
X60871100Y-124083924D01*
X60972127Y-124591822D01*
X61170299Y-125070251D01*
X61458000Y-125500826D01*
X61824174Y-125867000D01*
X62254749Y-126154701D01*
X62733178Y-126352873D01*
X63241076Y-126453900D01*
X63758924Y-126453900D01*
X64266822Y-126352873D01*
X64745251Y-126154701D01*
X65175826Y-125867000D01*
X65542000Y-125500826D01*
X65829701Y-125070251D01*
X66027873Y-124591822D01*
X66128900Y-124083924D01*
X66128900Y-123676278D01*
X67070000Y-123676278D01*
X67070000Y-123973722D01*
X67128029Y-124265451D01*
X67241856Y-124540253D01*
X67407107Y-124787569D01*
X67617431Y-124997893D01*
X67864747Y-125163144D01*
X68139549Y-125276971D01*
X68431278Y-125335000D01*
X68728722Y-125335000D01*
X69020451Y-125276971D01*
X69295253Y-125163144D01*
X69542569Y-124997893D01*
X69752893Y-124787569D01*
X69918144Y-124540253D01*
X70031971Y-124265451D01*
X70090000Y-123973722D01*
X70090000Y-123676278D01*
X85485000Y-123676278D01*
X85485000Y-123973722D01*
X85543029Y-124265451D01*
X85656856Y-124540253D01*
X85822107Y-124787569D01*
X86032431Y-124997893D01*
X86279747Y-125163144D01*
X86554549Y-125276971D01*
X86846278Y-125335000D01*
X87143722Y-125335000D01*
X87435451Y-125276971D01*
X87710253Y-125163144D01*
X87957569Y-124997893D01*
X88167893Y-124787569D01*
X88333144Y-124540253D01*
X88446971Y-124265451D01*
X88505000Y-123973722D01*
X88505000Y-123676278D01*
X88483080Y-123566076D01*
X89446100Y-123566076D01*
X89446100Y-124083924D01*
X89547127Y-124591822D01*
X89745299Y-125070251D01*
X90033000Y-125500826D01*
X90399174Y-125867000D01*
X90829749Y-126154701D01*
X91308178Y-126352873D01*
X91816076Y-126453900D01*
X92333924Y-126453900D01*
X92841822Y-126352873D01*
X93320251Y-126154701D01*
X93630609Y-125947326D01*
X100241100Y-125947326D01*
X100241100Y-126465174D01*
X100342127Y-126973072D01*
X100540299Y-127451501D01*
X100828000Y-127882076D01*
X101194174Y-128248250D01*
X101624749Y-128535951D01*
X102103178Y-128734123D01*
X102611076Y-128835150D01*
X103128924Y-128835150D01*
X103636822Y-128734123D01*
X104115251Y-128535951D01*
X104545826Y-128248250D01*
X104912000Y-127882076D01*
X105199701Y-127451501D01*
X105397873Y-126973072D01*
X105498900Y-126465174D01*
X105498900Y-125947326D01*
X105397873Y-125439428D01*
X105199701Y-124960999D01*
X104912000Y-124530424D01*
X104545826Y-124164250D01*
X104115251Y-123876549D01*
X103636822Y-123678377D01*
X103128924Y-123577350D01*
X102611076Y-123577350D01*
X102103178Y-123678377D01*
X101624749Y-123876549D01*
X101194174Y-124164250D01*
X100828000Y-124530424D01*
X100540299Y-124960999D01*
X100342127Y-125439428D01*
X100241100Y-125947326D01*
X93630609Y-125947326D01*
X93750826Y-125867000D01*
X94117000Y-125500826D01*
X94404701Y-125070251D01*
X94602873Y-124591822D01*
X94703900Y-124083924D01*
X94703900Y-123676278D01*
X95645000Y-123676278D01*
X95645000Y-123973722D01*
X95703029Y-124265451D01*
X95816856Y-124540253D01*
X95982107Y-124787569D01*
X96192431Y-124997893D01*
X96439747Y-125163144D01*
X96714549Y-125276971D01*
X97006278Y-125335000D01*
X97303722Y-125335000D01*
X97595451Y-125276971D01*
X97870253Y-125163144D01*
X98117569Y-124997893D01*
X98327893Y-124787569D01*
X98493144Y-124540253D01*
X98606971Y-124265451D01*
X98665000Y-123973722D01*
X98665000Y-123676278D01*
X98606971Y-123384549D01*
X98493144Y-123109747D01*
X98327893Y-122862431D01*
X98117569Y-122652107D01*
X97870253Y-122486856D01*
X97595451Y-122373029D01*
X97303722Y-122315000D01*
X97006278Y-122315000D01*
X96714549Y-122373029D01*
X96439747Y-122486856D01*
X96192431Y-122652107D01*
X95982107Y-122862431D01*
X95816856Y-123109747D01*
X95703029Y-123384549D01*
X95645000Y-123676278D01*
X94703900Y-123676278D01*
X94703900Y-123566076D01*
X94602873Y-123058178D01*
X94404701Y-122579749D01*
X94117000Y-122149174D01*
X93750826Y-121783000D01*
X93320251Y-121495299D01*
X92841822Y-121297127D01*
X92333924Y-121196100D01*
X91816076Y-121196100D01*
X91308178Y-121297127D01*
X90829749Y-121495299D01*
X90399174Y-121783000D01*
X90033000Y-122149174D01*
X89745299Y-122579749D01*
X89547127Y-123058178D01*
X89446100Y-123566076D01*
X88483080Y-123566076D01*
X88446971Y-123384549D01*
X88333144Y-123109747D01*
X88289882Y-123045000D01*
X88438345Y-123045000D01*
X88778373Y-122977364D01*
X89098673Y-122844692D01*
X89386935Y-122652081D01*
X89632081Y-122406935D01*
X89824692Y-122118673D01*
X89957364Y-121798373D01*
X90025000Y-121458345D01*
X90025000Y-121111655D01*
X89957364Y-120771627D01*
X89824692Y-120451327D01*
X89632081Y-120163065D01*
X89386935Y-119917919D01*
X89098673Y-119725308D01*
X88778373Y-119592636D01*
X88438345Y-119525000D01*
X88091655Y-119525000D01*
X87751627Y-119592636D01*
X87431327Y-119725308D01*
X87143065Y-119917919D01*
X86897919Y-120163065D01*
X86705308Y-120451327D01*
X86572636Y-120771627D01*
X86505000Y-121111655D01*
X86505000Y-121458345D01*
X86572636Y-121798373D01*
X86705308Y-122118673D01*
X86837638Y-122316719D01*
X86554549Y-122373029D01*
X86279747Y-122486856D01*
X86032431Y-122652107D01*
X85822107Y-122862431D01*
X85656856Y-123109747D01*
X85543029Y-123384549D01*
X85485000Y-123676278D01*
X70090000Y-123676278D01*
X70031971Y-123384549D01*
X69918144Y-123109747D01*
X69752893Y-122862431D01*
X69542569Y-122652107D01*
X69295253Y-122486856D01*
X69020451Y-122373029D01*
X68728722Y-122315000D01*
X68431278Y-122315000D01*
X68139549Y-122373029D01*
X67864747Y-122486856D01*
X67617431Y-122652107D01*
X67407107Y-122862431D01*
X67241856Y-123109747D01*
X67128029Y-123384549D01*
X67070000Y-123676278D01*
X66128900Y-123676278D01*
X66128900Y-123566076D01*
X66027873Y-123058178D01*
X65829701Y-122579749D01*
X65542000Y-122149174D01*
X65175826Y-121783000D01*
X64745251Y-121495299D01*
X64266822Y-121297127D01*
X63758924Y-121196100D01*
X63241076Y-121196100D01*
X62733178Y-121297127D01*
X62254749Y-121495299D01*
X61824174Y-121783000D01*
X61458000Y-122149174D01*
X61170299Y-122579749D01*
X60972127Y-123058178D01*
X60871100Y-123566076D01*
X59908080Y-123566076D01*
X59871971Y-123384549D01*
X59758144Y-123109747D01*
X59714882Y-123045000D01*
X59863345Y-123045000D01*
X60203373Y-122977364D01*
X60523673Y-122844692D01*
X60811935Y-122652081D01*
X61057081Y-122406935D01*
X61249692Y-122118673D01*
X61382364Y-121798373D01*
X61450000Y-121458345D01*
X61450000Y-121111655D01*
X61382364Y-120771627D01*
X61249692Y-120451327D01*
X61057081Y-120163065D01*
X60811935Y-119917919D01*
X60523673Y-119725308D01*
X60203373Y-119592636D01*
X59863345Y-119525000D01*
X59516655Y-119525000D01*
X59176627Y-119592636D01*
X58856327Y-119725308D01*
X58568065Y-119917919D01*
X58322919Y-120163065D01*
X58130308Y-120451327D01*
X57997636Y-120771627D01*
X57930000Y-121111655D01*
X57930000Y-121458345D01*
X57997636Y-121798373D01*
X58130308Y-122118673D01*
X58262638Y-122316719D01*
X57979549Y-122373029D01*
X57704747Y-122486856D01*
X57457431Y-122652107D01*
X57247107Y-122862431D01*
X57081856Y-123109747D01*
X56968029Y-123384549D01*
X56910000Y-123676278D01*
X45160000Y-123676278D01*
X45160000Y-115311076D01*
X48964850Y-115311076D01*
X48964850Y-115828924D01*
X49065877Y-116336822D01*
X49264049Y-116815251D01*
X49551750Y-117245826D01*
X49917924Y-117612000D01*
X50348499Y-117899701D01*
X50826928Y-118097873D01*
X51334826Y-118198900D01*
X51852674Y-118198900D01*
X52360572Y-118097873D01*
X52839001Y-117899701D01*
X53269576Y-117612000D01*
X53635750Y-117245826D01*
X53923451Y-116815251D01*
X54121623Y-116336822D01*
X54222650Y-115828924D01*
X54222650Y-115311076D01*
X54121623Y-114803178D01*
X53923451Y-114324749D01*
X53635750Y-113894174D01*
X53269576Y-113528000D01*
X52839001Y-113240299D01*
X52360572Y-113042127D01*
X51852674Y-112941100D01*
X51334826Y-112941100D01*
X50826928Y-113042127D01*
X50348499Y-113240299D01*
X49917924Y-113528000D01*
X49551750Y-113894174D01*
X49264049Y-114324749D01*
X49065877Y-114803178D01*
X48964850Y-115311076D01*
X45160000Y-115311076D01*
X45160000Y-104626278D01*
X47385000Y-104626278D01*
X47385000Y-104923722D01*
X47443029Y-105215451D01*
X47556856Y-105490253D01*
X47722107Y-105737569D01*
X47932431Y-105947893D01*
X48179747Y-106113144D01*
X48454549Y-106226971D01*
X48746278Y-106285000D01*
X49043722Y-106285000D01*
X49335451Y-106226971D01*
X49610253Y-106113144D01*
X49857569Y-105947893D01*
X50067893Y-105737569D01*
X50233144Y-105490253D01*
X50346971Y-105215451D01*
X50405000Y-104923722D01*
X50405000Y-104626278D01*
X50346971Y-104334549D01*
X50233144Y-104059747D01*
X50189882Y-103995000D01*
X50338345Y-103995000D01*
X50678373Y-103927364D01*
X50998673Y-103794692D01*
X51286935Y-103602081D01*
X51532081Y-103356935D01*
X51724692Y-103068673D01*
X51857364Y-102748373D01*
X51925000Y-102408345D01*
X51925000Y-102061655D01*
X51857364Y-101721627D01*
X51724692Y-101401327D01*
X51532081Y-101113065D01*
X51286935Y-100867919D01*
X50998673Y-100675308D01*
X50678373Y-100542636D01*
X50338345Y-100475000D01*
X49991655Y-100475000D01*
X49651627Y-100542636D01*
X49331327Y-100675308D01*
X49043065Y-100867919D01*
X48797919Y-101113065D01*
X48605308Y-101401327D01*
X48472636Y-101721627D01*
X48405000Y-102061655D01*
X48405000Y-102408345D01*
X48472636Y-102748373D01*
X48605308Y-103068673D01*
X48737638Y-103266719D01*
X48454549Y-103323029D01*
X48179747Y-103436856D01*
X47932431Y-103602107D01*
X47722107Y-103812431D01*
X47556856Y-104059747D01*
X47443029Y-104334549D01*
X47385000Y-104626278D01*
X45160000Y-104626278D01*
X45160000Y-85576278D01*
X47385000Y-85576278D01*
X47385000Y-85873722D01*
X47443029Y-86165451D01*
X47556856Y-86440253D01*
X47722107Y-86687569D01*
X47932431Y-86897893D01*
X48179747Y-87063144D01*
X48454549Y-87176971D01*
X48746278Y-87235000D01*
X49043722Y-87235000D01*
X49335451Y-87176971D01*
X49610253Y-87063144D01*
X49857569Y-86897893D01*
X50067893Y-86687569D01*
X50233144Y-86440253D01*
X50346971Y-86165451D01*
X50405000Y-85873722D01*
X50405000Y-85576278D01*
X50346971Y-85284549D01*
X50233144Y-85009747D01*
X50189882Y-84945000D01*
X50338345Y-84945000D01*
X50678373Y-84877364D01*
X50998673Y-84744692D01*
X51286935Y-84552081D01*
X51532081Y-84306935D01*
X51724692Y-84018673D01*
X51857364Y-83698373D01*
X51925000Y-83358345D01*
X51925000Y-83011655D01*
X51857364Y-82671627D01*
X51724692Y-82351327D01*
X51532081Y-82063065D01*
X51286935Y-81817919D01*
X50998673Y-81625308D01*
X50678373Y-81492636D01*
X50338345Y-81425000D01*
X49991655Y-81425000D01*
X49651627Y-81492636D01*
X49331327Y-81625308D01*
X49043065Y-81817919D01*
X48797919Y-82063065D01*
X48605308Y-82351327D01*
X48472636Y-82671627D01*
X48405000Y-83011655D01*
X48405000Y-83358345D01*
X48472636Y-83698373D01*
X48605308Y-84018673D01*
X48737638Y-84216719D01*
X48454549Y-84273029D01*
X48179747Y-84386856D01*
X47932431Y-84552107D01*
X47722107Y-84762431D01*
X47556856Y-85009747D01*
X47443029Y-85284549D01*
X47385000Y-85576278D01*
X45160000Y-85576278D01*
X45160000Y-66526278D01*
X47385000Y-66526278D01*
X47385000Y-66823722D01*
X47443029Y-67115451D01*
X47556856Y-67390253D01*
X47722107Y-67637569D01*
X47932431Y-67847893D01*
X48179747Y-68013144D01*
X48454549Y-68126971D01*
X48746278Y-68185000D01*
X49043722Y-68185000D01*
X49335451Y-68126971D01*
X49610253Y-68013144D01*
X49857569Y-67847893D01*
X50067893Y-67637569D01*
X50233144Y-67390253D01*
X50346971Y-67115451D01*
X50405000Y-66823722D01*
X50405000Y-66526278D01*
X50346971Y-66234549D01*
X50233144Y-65959747D01*
X50189882Y-65895000D01*
X50338345Y-65895000D01*
X50678373Y-65827364D01*
X50998673Y-65694692D01*
X51286935Y-65502081D01*
X51532081Y-65256935D01*
X51724692Y-64968673D01*
X51857364Y-64648373D01*
X51925000Y-64308345D01*
X51925000Y-63961655D01*
X51857364Y-63621627D01*
X51724692Y-63301327D01*
X51532081Y-63013065D01*
X51286935Y-62767919D01*
X50998673Y-62575308D01*
X50678373Y-62442636D01*
X50338345Y-62375000D01*
X49991655Y-62375000D01*
X49651627Y-62442636D01*
X49331327Y-62575308D01*
X49043065Y-62767919D01*
X48797919Y-63013065D01*
X48605308Y-63301327D01*
X48472636Y-63621627D01*
X48405000Y-63961655D01*
X48405000Y-64308345D01*
X48472636Y-64648373D01*
X48605308Y-64968673D01*
X48737638Y-65166719D01*
X48454549Y-65223029D01*
X48179747Y-65336856D01*
X47932431Y-65502107D01*
X47722107Y-65712431D01*
X47556856Y-65959747D01*
X47443029Y-66234549D01*
X47385000Y-66526278D01*
X45160000Y-66526278D01*
X45160000Y-47476278D01*
X47385000Y-47476278D01*
X47385000Y-47773722D01*
X47443029Y-48065451D01*
X47556856Y-48340253D01*
X47722107Y-48587569D01*
X47932431Y-48797893D01*
X48179747Y-48963144D01*
X48454549Y-49076971D01*
X48746278Y-49135000D01*
X49043722Y-49135000D01*
X49335451Y-49076971D01*
X49610253Y-48963144D01*
X49857569Y-48797893D01*
X50067893Y-48587569D01*
X50233144Y-48340253D01*
X50346971Y-48065451D01*
X50405000Y-47773722D01*
X50405000Y-47476278D01*
X50383080Y-47366076D01*
X51346100Y-47366076D01*
X51346100Y-47883924D01*
X51447127Y-48391822D01*
X51645299Y-48870251D01*
X51933000Y-49300826D01*
X52299174Y-49667000D01*
X52729749Y-49954701D01*
X53208178Y-50152873D01*
X53716076Y-50253900D01*
X54233924Y-50253900D01*
X54741822Y-50152873D01*
X55220251Y-49954701D01*
X55650826Y-49667000D01*
X55755000Y-49562826D01*
X55755001Y-60004791D01*
X55681327Y-60035308D01*
X55393065Y-60227919D01*
X55147919Y-60473065D01*
X54955308Y-60761327D01*
X54822636Y-61081627D01*
X54755000Y-61421655D01*
X54755000Y-61768345D01*
X54822636Y-62108373D01*
X54955308Y-62428673D01*
X55147919Y-62716935D01*
X55393065Y-62962081D01*
X55681327Y-63154692D01*
X55755000Y-63185208D01*
X55755000Y-64737174D01*
X55650826Y-64633000D01*
X55220251Y-64345299D01*
X54741822Y-64147127D01*
X54233924Y-64046100D01*
X53716076Y-64046100D01*
X53208178Y-64147127D01*
X52729749Y-64345299D01*
X52299174Y-64633000D01*
X51933000Y-64999174D01*
X51645299Y-65429749D01*
X51447127Y-65908178D01*
X51346100Y-66416076D01*
X51346100Y-66933924D01*
X51447127Y-67441822D01*
X51645299Y-67920251D01*
X51933000Y-68350826D01*
X52299174Y-68717000D01*
X52729749Y-69004701D01*
X53208178Y-69202873D01*
X53716076Y-69303900D01*
X54233924Y-69303900D01*
X54741822Y-69202873D01*
X55220251Y-69004701D01*
X55650826Y-68717000D01*
X55755000Y-68612826D01*
X55755001Y-79054791D01*
X55681327Y-79085308D01*
X55393065Y-79277919D01*
X55147919Y-79523065D01*
X54955308Y-79811327D01*
X54822636Y-80131627D01*
X54755000Y-80471655D01*
X54755000Y-80818345D01*
X54822636Y-81158373D01*
X54955308Y-81478673D01*
X55147919Y-81766935D01*
X55393065Y-82012081D01*
X55681327Y-82204692D01*
X55755000Y-82235208D01*
X55755000Y-83787174D01*
X55650826Y-83683000D01*
X55220251Y-83395299D01*
X54741822Y-83197127D01*
X54233924Y-83096100D01*
X53716076Y-83096100D01*
X53208178Y-83197127D01*
X52729749Y-83395299D01*
X52299174Y-83683000D01*
X51933000Y-84049174D01*
X51645299Y-84479749D01*
X51447127Y-84958178D01*
X51346100Y-85466076D01*
X51346100Y-85983924D01*
X51447127Y-86491822D01*
X51645299Y-86970251D01*
X51933000Y-87400826D01*
X52299174Y-87767000D01*
X52729749Y-88054701D01*
X53208178Y-88252873D01*
X53716076Y-88353900D01*
X54233924Y-88353900D01*
X54741822Y-88252873D01*
X55220251Y-88054701D01*
X55650826Y-87767000D01*
X55755000Y-87662826D01*
X55755001Y-98104791D01*
X55681327Y-98135308D01*
X55393065Y-98327919D01*
X55147919Y-98573065D01*
X54955308Y-98861327D01*
X54822636Y-99181627D01*
X54755000Y-99521655D01*
X54755000Y-99868345D01*
X54822636Y-100208373D01*
X54955308Y-100528673D01*
X55147919Y-100816935D01*
X55393065Y-101062081D01*
X55681327Y-101254692D01*
X55755000Y-101285208D01*
X55755000Y-102837174D01*
X55650826Y-102733000D01*
X55220251Y-102445299D01*
X54741822Y-102247127D01*
X54233924Y-102146100D01*
X53716076Y-102146100D01*
X53208178Y-102247127D01*
X52729749Y-102445299D01*
X52299174Y-102733000D01*
X51933000Y-103099174D01*
X51645299Y-103529749D01*
X51447127Y-104008178D01*
X51346100Y-104516076D01*
X51346100Y-105033924D01*
X51447127Y-105541822D01*
X51645299Y-106020251D01*
X51933000Y-106450826D01*
X52299174Y-106817000D01*
X52729749Y-107104701D01*
X53208178Y-107302873D01*
X53716076Y-107403900D01*
X54233924Y-107403900D01*
X54741822Y-107302873D01*
X55220251Y-107104701D01*
X55650826Y-106817000D01*
X55755001Y-106712825D01*
X55755001Y-109182668D01*
X55751324Y-109220000D01*
X55755001Y-109257333D01*
X55761122Y-109319474D01*
X55765998Y-109368985D01*
X55809454Y-109512246D01*
X55880026Y-109644276D01*
X55893301Y-109660451D01*
X55975000Y-109760001D01*
X56003998Y-109783799D01*
X64378152Y-118157954D01*
X64347636Y-118231627D01*
X64280000Y-118571655D01*
X64280000Y-118918345D01*
X64347636Y-119258373D01*
X64480308Y-119578673D01*
X64672919Y-119866935D01*
X64918065Y-120112081D01*
X65206327Y-120304692D01*
X65526627Y-120437364D01*
X65866655Y-120505000D01*
X66213345Y-120505000D01*
X66553373Y-120437364D01*
X66873673Y-120304692D01*
X67161935Y-120112081D01*
X67407081Y-119866935D01*
X67599692Y-119578673D01*
X67732364Y-119258373D01*
X67800000Y-118918345D01*
X67800000Y-118571655D01*
X67732364Y-118231627D01*
X67599692Y-117911327D01*
X67407081Y-117623065D01*
X67161935Y-117377919D01*
X66873673Y-117185308D01*
X66553373Y-117052636D01*
X66213345Y-116985000D01*
X65866655Y-116985000D01*
X65526627Y-117052636D01*
X65452954Y-117083152D01*
X63680878Y-115311076D01*
X72777350Y-115311076D01*
X72777350Y-115828924D01*
X72878377Y-116336822D01*
X73076549Y-116815251D01*
X73364250Y-117245826D01*
X73730424Y-117612000D01*
X74160999Y-117899701D01*
X74639428Y-118097873D01*
X75147326Y-118198900D01*
X75665174Y-118198900D01*
X76173072Y-118097873D01*
X76651501Y-117899701D01*
X77082076Y-117612000D01*
X77448250Y-117245826D01*
X77735951Y-116815251D01*
X77934123Y-116336822D01*
X78035150Y-115828924D01*
X78035150Y-115311076D01*
X77934123Y-114803178D01*
X77735951Y-114324749D01*
X77448250Y-113894174D01*
X77082076Y-113528000D01*
X76651501Y-113240299D01*
X76173072Y-113042127D01*
X75665174Y-112941100D01*
X75147326Y-112941100D01*
X74639428Y-113042127D01*
X74160999Y-113240299D01*
X73730424Y-113528000D01*
X73364250Y-113894174D01*
X73076549Y-114324749D01*
X72878377Y-114803178D01*
X72777350Y-115311076D01*
X63680878Y-115311076D01*
X57275000Y-108905199D01*
X57275000Y-104626278D01*
X57545000Y-104626278D01*
X57545000Y-104923722D01*
X57603029Y-105215451D01*
X57716856Y-105490253D01*
X57882107Y-105737569D01*
X58092431Y-105947893D01*
X58339747Y-106113144D01*
X58614549Y-106226971D01*
X58906278Y-106285000D01*
X59203722Y-106285000D01*
X59495451Y-106226971D01*
X59770253Y-106113144D01*
X60017569Y-105947893D01*
X60227893Y-105737569D01*
X60393144Y-105490253D01*
X60506971Y-105215451D01*
X60565000Y-104923722D01*
X60565000Y-104626278D01*
X66435000Y-104626278D01*
X66435000Y-104923722D01*
X66493029Y-105215451D01*
X66606856Y-105490253D01*
X66772107Y-105737569D01*
X66982431Y-105947893D01*
X67229747Y-106113144D01*
X67504549Y-106226971D01*
X67796278Y-106285000D01*
X68093722Y-106285000D01*
X68385451Y-106226971D01*
X68660253Y-106113144D01*
X68907569Y-105947893D01*
X69117893Y-105737569D01*
X69283144Y-105490253D01*
X69396971Y-105215451D01*
X69455000Y-104923722D01*
X69455000Y-104626278D01*
X69433080Y-104516076D01*
X70396100Y-104516076D01*
X70396100Y-105033924D01*
X70497127Y-105541822D01*
X70695299Y-106020251D01*
X70983000Y-106450826D01*
X71349174Y-106817000D01*
X71779749Y-107104701D01*
X72258178Y-107302873D01*
X72766076Y-107403900D01*
X73283924Y-107403900D01*
X73791822Y-107302873D01*
X74270251Y-107104701D01*
X74700826Y-106817000D01*
X75067000Y-106450826D01*
X75354701Y-106020251D01*
X75552873Y-105541822D01*
X75653900Y-105033924D01*
X75653900Y-104516076D01*
X75552873Y-104008178D01*
X75354701Y-103529749D01*
X75067000Y-103099174D01*
X74700826Y-102733000D01*
X74270251Y-102445299D01*
X73791822Y-102247127D01*
X73283924Y-102146100D01*
X72766076Y-102146100D01*
X72258178Y-102247127D01*
X71779749Y-102445299D01*
X71349174Y-102733000D01*
X70983000Y-103099174D01*
X70695299Y-103529749D01*
X70497127Y-104008178D01*
X70396100Y-104516076D01*
X69433080Y-104516076D01*
X69396971Y-104334549D01*
X69283144Y-104059747D01*
X69239882Y-103995000D01*
X69388345Y-103995000D01*
X69728373Y-103927364D01*
X70048673Y-103794692D01*
X70336935Y-103602081D01*
X70582081Y-103356935D01*
X70774692Y-103068673D01*
X70907364Y-102748373D01*
X70975000Y-102408345D01*
X70975000Y-102061655D01*
X70907364Y-101721627D01*
X70774692Y-101401327D01*
X70582081Y-101113065D01*
X70336935Y-100867919D01*
X70048673Y-100675308D01*
X69728373Y-100542636D01*
X69388345Y-100475000D01*
X69041655Y-100475000D01*
X68701627Y-100542636D01*
X68381327Y-100675308D01*
X68093065Y-100867919D01*
X67847919Y-101113065D01*
X67655308Y-101401327D01*
X67522636Y-101721627D01*
X67455000Y-102061655D01*
X67455000Y-102408345D01*
X67522636Y-102748373D01*
X67655308Y-103068673D01*
X67787638Y-103266719D01*
X67504549Y-103323029D01*
X67229747Y-103436856D01*
X66982431Y-103602107D01*
X66772107Y-103812431D01*
X66606856Y-104059747D01*
X66493029Y-104334549D01*
X66435000Y-104626278D01*
X60565000Y-104626278D01*
X60506971Y-104334549D01*
X60393144Y-104059747D01*
X60227893Y-103812431D01*
X60017569Y-103602107D01*
X59770253Y-103436856D01*
X59495451Y-103323029D01*
X59203722Y-103265000D01*
X58906278Y-103265000D01*
X58614549Y-103323029D01*
X58339747Y-103436856D01*
X58092431Y-103602107D01*
X57882107Y-103812431D01*
X57716856Y-104059747D01*
X57603029Y-104334549D01*
X57545000Y-104626278D01*
X57275000Y-104626278D01*
X57275000Y-101285208D01*
X57348673Y-101254692D01*
X57636935Y-101062081D01*
X57882081Y-100816935D01*
X58074692Y-100528673D01*
X58207364Y-100208373D01*
X58275000Y-99868345D01*
X58275000Y-99521655D01*
X58207364Y-99181627D01*
X58074692Y-98861327D01*
X57882081Y-98573065D01*
X57636935Y-98327919D01*
X57348673Y-98135308D01*
X57275000Y-98104792D01*
X57275000Y-90591811D01*
X64141250Y-90591811D01*
X64141250Y-90795689D01*
X64181024Y-90995648D01*
X64259045Y-91184006D01*
X64372313Y-91353524D01*
X64516476Y-91497687D01*
X64685994Y-91610955D01*
X64874352Y-91688976D01*
X65074311Y-91728750D01*
X65278189Y-91728750D01*
X65478148Y-91688976D01*
X65666506Y-91610955D01*
X65836024Y-91497687D01*
X65879961Y-91453750D01*
X67742539Y-91453750D01*
X67786476Y-91497687D01*
X67955994Y-91610955D01*
X68144352Y-91688976D01*
X68344311Y-91728750D01*
X68548189Y-91728750D01*
X68748148Y-91688976D01*
X68936506Y-91610955D01*
X69106024Y-91497687D01*
X69250187Y-91353524D01*
X69363455Y-91184006D01*
X69441476Y-90995648D01*
X69481250Y-90795689D01*
X69481250Y-90591811D01*
X69441476Y-90391852D01*
X69363455Y-90203494D01*
X69250187Y-90033976D01*
X69106024Y-89889813D01*
X68936506Y-89776545D01*
X68748148Y-89698524D01*
X68548189Y-89658750D01*
X68344311Y-89658750D01*
X68144352Y-89698524D01*
X67955994Y-89776545D01*
X67786476Y-89889813D01*
X67742539Y-89933750D01*
X65879961Y-89933750D01*
X65836024Y-89889813D01*
X65666506Y-89776545D01*
X65478148Y-89698524D01*
X65278189Y-89658750D01*
X65074311Y-89658750D01*
X64874352Y-89698524D01*
X64685994Y-89776545D01*
X64516476Y-89889813D01*
X64372313Y-90033976D01*
X64259045Y-90203494D01*
X64181024Y-90391852D01*
X64141250Y-90591811D01*
X57275000Y-90591811D01*
X57275000Y-85576278D01*
X57545000Y-85576278D01*
X57545000Y-85873722D01*
X57603029Y-86165451D01*
X57716856Y-86440253D01*
X57882107Y-86687569D01*
X58092431Y-86897893D01*
X58339747Y-87063144D01*
X58614549Y-87176971D01*
X58906278Y-87235000D01*
X59203722Y-87235000D01*
X59489971Y-87178061D01*
X63425000Y-87178061D01*
X63425000Y-87381939D01*
X63464774Y-87581898D01*
X63542795Y-87770256D01*
X63656063Y-87939774D01*
X63800226Y-88083937D01*
X63969744Y-88197205D01*
X64158102Y-88275226D01*
X64358061Y-88315000D01*
X64561939Y-88315000D01*
X64761898Y-88275226D01*
X64950256Y-88197205D01*
X65119774Y-88083937D01*
X65263937Y-87939774D01*
X65377205Y-87770256D01*
X65455226Y-87581898D01*
X65495000Y-87381939D01*
X65495000Y-87178061D01*
X65455226Y-86978102D01*
X65377205Y-86789744D01*
X65263937Y-86620226D01*
X65220000Y-86576289D01*
X65220000Y-85203639D01*
X65226882Y-85063548D01*
X65244724Y-84943267D01*
X65274270Y-84825311D01*
X65315236Y-84710821D01*
X65367226Y-84600898D01*
X65429740Y-84496598D01*
X65502172Y-84398937D01*
X65583836Y-84308834D01*
X65673933Y-84227174D01*
X65771597Y-84154741D01*
X65875901Y-84092224D01*
X65985821Y-84040236D01*
X66100313Y-83999270D01*
X66218268Y-83969724D01*
X66338548Y-83951882D01*
X66478638Y-83945000D01*
X67624792Y-83945000D01*
X67655308Y-84018673D01*
X67787638Y-84216719D01*
X67504549Y-84273029D01*
X67229747Y-84386856D01*
X66982431Y-84552107D01*
X66772107Y-84762431D01*
X66606856Y-85009747D01*
X66493029Y-85284549D01*
X66435000Y-85576278D01*
X66435000Y-85873722D01*
X66493029Y-86165451D01*
X66606856Y-86440253D01*
X66772107Y-86687569D01*
X66982431Y-86897893D01*
X67229747Y-87063144D01*
X67504549Y-87176971D01*
X67796278Y-87235000D01*
X68093722Y-87235000D01*
X68385451Y-87176971D01*
X68660253Y-87063144D01*
X68907569Y-86897893D01*
X69117893Y-86687569D01*
X69283144Y-86440253D01*
X69396971Y-86165451D01*
X69455000Y-85873722D01*
X69455000Y-85576278D01*
X69396971Y-85284549D01*
X69283144Y-85009747D01*
X69239882Y-84945000D01*
X69388345Y-84945000D01*
X69728373Y-84877364D01*
X70048673Y-84744692D01*
X70336935Y-84552081D01*
X70582081Y-84306935D01*
X70774692Y-84018673D01*
X70907364Y-83698373D01*
X70975000Y-83358345D01*
X70975000Y-83011655D01*
X70907364Y-82671627D01*
X70774692Y-82351327D01*
X70582081Y-82063065D01*
X70336935Y-81817919D01*
X70048673Y-81625308D01*
X69728373Y-81492636D01*
X69388345Y-81425000D01*
X69041655Y-81425000D01*
X68701627Y-81492636D01*
X68381327Y-81625308D01*
X68093065Y-81817919D01*
X67847919Y-82063065D01*
X67655308Y-82351327D01*
X67624792Y-82425000D01*
X66478640Y-82425000D01*
X66459998Y-82424084D01*
X66441352Y-82425000D01*
X66422667Y-82425000D01*
X66404073Y-82426831D01*
X66189388Y-82437378D01*
X66189383Y-82437379D01*
X66189377Y-82437379D01*
X65921375Y-82477133D01*
X65844579Y-82496370D01*
X65727217Y-82525767D01*
X65658546Y-82542968D01*
X65509075Y-82596450D01*
X65509074Y-82596450D01*
X65403439Y-82634247D01*
X65158515Y-82750088D01*
X65158511Y-82750090D01*
X64926121Y-82889379D01*
X64926117Y-82889382D01*
X64926112Y-82889385D01*
X64728408Y-83036014D01*
X64708491Y-83050785D01*
X64507740Y-83232734D01*
X64481955Y-83261184D01*
X64325785Y-83433491D01*
X64293333Y-83477247D01*
X64206362Y-83594513D01*
X64164379Y-83651120D01*
X64029545Y-83876079D01*
X64025088Y-83883515D01*
X63909247Y-84128439D01*
X63886101Y-84193127D01*
X63817968Y-84383546D01*
X63817967Y-84383551D01*
X63779394Y-84537544D01*
X63752133Y-84646375D01*
X63712379Y-84914379D01*
X63712378Y-84914389D01*
X63701831Y-85129074D01*
X63700000Y-85147668D01*
X63700000Y-85166353D01*
X63699084Y-85184999D01*
X63700000Y-85203642D01*
X63700001Y-86576288D01*
X63656063Y-86620226D01*
X63542795Y-86789744D01*
X63464774Y-86978102D01*
X63425000Y-87178061D01*
X59489971Y-87178061D01*
X59495451Y-87176971D01*
X59770253Y-87063144D01*
X60017569Y-86897893D01*
X60227893Y-86687569D01*
X60393144Y-86440253D01*
X60506971Y-86165451D01*
X60565000Y-85873722D01*
X60565000Y-85576278D01*
X60506971Y-85284549D01*
X60393144Y-85009747D01*
X60227893Y-84762431D01*
X60017569Y-84552107D01*
X59770253Y-84386856D01*
X59495451Y-84273029D01*
X59203722Y-84215000D01*
X58906278Y-84215000D01*
X58614549Y-84273029D01*
X58339747Y-84386856D01*
X58092431Y-84552107D01*
X57882107Y-84762431D01*
X57716856Y-85009747D01*
X57603029Y-85284549D01*
X57545000Y-85576278D01*
X57275000Y-85576278D01*
X57275000Y-82235208D01*
X57348673Y-82204692D01*
X57636935Y-82012081D01*
X57882081Y-81766935D01*
X58074692Y-81478673D01*
X58207364Y-81158373D01*
X58275000Y-80818345D01*
X58275000Y-80471655D01*
X58207364Y-80131627D01*
X58074692Y-79811327D01*
X57882081Y-79523065D01*
X57636935Y-79277919D01*
X57348673Y-79085308D01*
X57275000Y-79054792D01*
X57275000Y-72328061D01*
X63815000Y-72328061D01*
X63815000Y-72531939D01*
X63854774Y-72731898D01*
X63932795Y-72920256D01*
X64046063Y-73089774D01*
X64190226Y-73233937D01*
X64359744Y-73347205D01*
X64548102Y-73425226D01*
X64748061Y-73465000D01*
X64951939Y-73465000D01*
X65151898Y-73425226D01*
X65340256Y-73347205D01*
X65509774Y-73233937D01*
X65553711Y-73190000D01*
X68706289Y-73190000D01*
X68750226Y-73233937D01*
X68919744Y-73347205D01*
X69108102Y-73425226D01*
X69308061Y-73465000D01*
X69511939Y-73465000D01*
X69711898Y-73425226D01*
X69900256Y-73347205D01*
X70069774Y-73233937D01*
X70213937Y-73089774D01*
X70327205Y-72920256D01*
X70405226Y-72731898D01*
X70445000Y-72531939D01*
X70445000Y-72328061D01*
X70405226Y-72128102D01*
X70327205Y-71939744D01*
X70213937Y-71770226D01*
X70069774Y-71626063D01*
X69900256Y-71512795D01*
X69711898Y-71434774D01*
X69511939Y-71395000D01*
X69308061Y-71395000D01*
X69108102Y-71434774D01*
X68919744Y-71512795D01*
X68750226Y-71626063D01*
X68706289Y-71670000D01*
X65553711Y-71670000D01*
X65509774Y-71626063D01*
X65340256Y-71512795D01*
X65151898Y-71434774D01*
X64951939Y-71395000D01*
X64748061Y-71395000D01*
X64548102Y-71434774D01*
X64359744Y-71512795D01*
X64190226Y-71626063D01*
X64046063Y-71770226D01*
X63932795Y-71939744D01*
X63854774Y-72128102D01*
X63815000Y-72328061D01*
X57275000Y-72328061D01*
X57275000Y-68858061D01*
X63435000Y-68858061D01*
X63435000Y-69061939D01*
X63474774Y-69261898D01*
X63552795Y-69450256D01*
X63666063Y-69619774D01*
X63810226Y-69763937D01*
X63979744Y-69877205D01*
X64168102Y-69955226D01*
X64368061Y-69995000D01*
X64571939Y-69995000D01*
X64771898Y-69955226D01*
X64960256Y-69877205D01*
X65129774Y-69763937D01*
X65273937Y-69619774D01*
X65387205Y-69450256D01*
X65465226Y-69261898D01*
X65505000Y-69061939D01*
X65505000Y-68858061D01*
X65465226Y-68658102D01*
X65387205Y-68469744D01*
X65273937Y-68300226D01*
X65230000Y-68256289D01*
X65230000Y-66153639D01*
X65236882Y-66013548D01*
X65254724Y-65893267D01*
X65284270Y-65775311D01*
X65325236Y-65660821D01*
X65377226Y-65550898D01*
X65439740Y-65446598D01*
X65512172Y-65348937D01*
X65593836Y-65258834D01*
X65683933Y-65177174D01*
X65781597Y-65104741D01*
X65885901Y-65042224D01*
X65995821Y-64990236D01*
X66110313Y-64949270D01*
X66228268Y-64919724D01*
X66348548Y-64901882D01*
X66488638Y-64895000D01*
X67624792Y-64895000D01*
X67655308Y-64968673D01*
X67787638Y-65166719D01*
X67504549Y-65223029D01*
X67229747Y-65336856D01*
X66982431Y-65502107D01*
X66772107Y-65712431D01*
X66606856Y-65959747D01*
X66493029Y-66234549D01*
X66435000Y-66526278D01*
X66435000Y-66823722D01*
X66493029Y-67115451D01*
X66606856Y-67390253D01*
X66772107Y-67637569D01*
X66982431Y-67847893D01*
X67229747Y-68013144D01*
X67504549Y-68126971D01*
X67796278Y-68185000D01*
X68093722Y-68185000D01*
X68385451Y-68126971D01*
X68660253Y-68013144D01*
X68907569Y-67847893D01*
X69117893Y-67637569D01*
X69283144Y-67390253D01*
X69396971Y-67115451D01*
X69455000Y-66823722D01*
X69455000Y-66526278D01*
X69396971Y-66234549D01*
X69283144Y-65959747D01*
X69239882Y-65895000D01*
X69388345Y-65895000D01*
X69728373Y-65827364D01*
X70048673Y-65694692D01*
X70336935Y-65502081D01*
X70582081Y-65256935D01*
X70774692Y-64968673D01*
X70907364Y-64648373D01*
X70975000Y-64308345D01*
X70975000Y-63961655D01*
X70907364Y-63621627D01*
X70774692Y-63301327D01*
X70582081Y-63013065D01*
X70336935Y-62767919D01*
X70048673Y-62575308D01*
X69728373Y-62442636D01*
X69388345Y-62375000D01*
X69041655Y-62375000D01*
X68701627Y-62442636D01*
X68381327Y-62575308D01*
X68093065Y-62767919D01*
X67847919Y-63013065D01*
X67655308Y-63301327D01*
X67624792Y-63375000D01*
X66488640Y-63375000D01*
X66469998Y-63374084D01*
X66451352Y-63375000D01*
X66432667Y-63375000D01*
X66414073Y-63376831D01*
X66199388Y-63387378D01*
X66199383Y-63387379D01*
X66199377Y-63387379D01*
X65931375Y-63427133D01*
X65854579Y-63446370D01*
X65737217Y-63475767D01*
X65668546Y-63492968D01*
X65519075Y-63546450D01*
X65519074Y-63546450D01*
X65413439Y-63584247D01*
X65168515Y-63700088D01*
X65168511Y-63700090D01*
X64936121Y-63839379D01*
X64936117Y-63839382D01*
X64936112Y-63839385D01*
X64738408Y-63986014D01*
X64718491Y-64000785D01*
X64517740Y-64182734D01*
X64491955Y-64211184D01*
X64335785Y-64383491D01*
X64303333Y-64427247D01*
X64216362Y-64544513D01*
X64174379Y-64601120D01*
X64039545Y-64826079D01*
X64035088Y-64833515D01*
X63919247Y-65078439D01*
X63896101Y-65143127D01*
X63827968Y-65333546D01*
X63827967Y-65333551D01*
X63789394Y-65487544D01*
X63762133Y-65596375D01*
X63722379Y-65864379D01*
X63722378Y-65864389D01*
X63711831Y-66079074D01*
X63710000Y-66097668D01*
X63710000Y-66116353D01*
X63709084Y-66134999D01*
X63710000Y-66153642D01*
X63710001Y-68256288D01*
X63666063Y-68300226D01*
X63552795Y-68469744D01*
X63474774Y-68658102D01*
X63435000Y-68858061D01*
X57275000Y-68858061D01*
X57275000Y-66526278D01*
X57545000Y-66526278D01*
X57545000Y-66823722D01*
X57603029Y-67115451D01*
X57716856Y-67390253D01*
X57882107Y-67637569D01*
X58092431Y-67847893D01*
X58339747Y-68013144D01*
X58614549Y-68126971D01*
X58906278Y-68185000D01*
X59203722Y-68185000D01*
X59495451Y-68126971D01*
X59770253Y-68013144D01*
X60017569Y-67847893D01*
X60227893Y-67637569D01*
X60393144Y-67390253D01*
X60506971Y-67115451D01*
X60565000Y-66823722D01*
X60565000Y-66526278D01*
X60506971Y-66234549D01*
X60393144Y-65959747D01*
X60227893Y-65712431D01*
X60017569Y-65502107D01*
X59770253Y-65336856D01*
X59495451Y-65223029D01*
X59203722Y-65165000D01*
X58906278Y-65165000D01*
X58614549Y-65223029D01*
X58339747Y-65336856D01*
X58092431Y-65502107D01*
X57882107Y-65712431D01*
X57716856Y-65959747D01*
X57603029Y-66234549D01*
X57545000Y-66526278D01*
X57275000Y-66526278D01*
X57275000Y-63185208D01*
X57348673Y-63154692D01*
X57636935Y-62962081D01*
X57882081Y-62716935D01*
X58074692Y-62428673D01*
X58207364Y-62108373D01*
X58275000Y-61768345D01*
X58275000Y-61421655D01*
X58207364Y-61081627D01*
X58074692Y-60761327D01*
X57882081Y-60473065D01*
X57636935Y-60227919D01*
X57348673Y-60035308D01*
X57275000Y-60004792D01*
X57275000Y-47476278D01*
X57545000Y-47476278D01*
X57545000Y-47773722D01*
X57603029Y-48065451D01*
X57716856Y-48340253D01*
X57882107Y-48587569D01*
X58092431Y-48797893D01*
X58339747Y-48963144D01*
X58614549Y-49076971D01*
X58906278Y-49135000D01*
X59203722Y-49135000D01*
X59495451Y-49076971D01*
X59770253Y-48963144D01*
X60017569Y-48797893D01*
X60227893Y-48587569D01*
X60393144Y-48340253D01*
X60506971Y-48065451D01*
X60565000Y-47773722D01*
X60565000Y-47476278D01*
X66435000Y-47476278D01*
X66435000Y-47773722D01*
X66493029Y-48065451D01*
X66606856Y-48340253D01*
X66772107Y-48587569D01*
X66982431Y-48797893D01*
X67229747Y-48963144D01*
X67504549Y-49076971D01*
X67796278Y-49135000D01*
X68093722Y-49135000D01*
X68385451Y-49076971D01*
X68660253Y-48963144D01*
X68907569Y-48797893D01*
X69117893Y-48587569D01*
X69283144Y-48340253D01*
X69396971Y-48065451D01*
X69455000Y-47773722D01*
X69455000Y-47476278D01*
X69433080Y-47366076D01*
X70396100Y-47366076D01*
X70396100Y-47883924D01*
X70497127Y-48391822D01*
X70695299Y-48870251D01*
X70983000Y-49300826D01*
X71349174Y-49667000D01*
X71779749Y-49954701D01*
X72258178Y-50152873D01*
X72766076Y-50253900D01*
X73283924Y-50253900D01*
X73791822Y-50152873D01*
X74270251Y-49954701D01*
X74700826Y-49667000D01*
X74805000Y-49562826D01*
X74805001Y-60004791D01*
X74731327Y-60035308D01*
X74443065Y-60227919D01*
X74197919Y-60473065D01*
X74005308Y-60761327D01*
X73872636Y-61081627D01*
X73805000Y-61421655D01*
X73805000Y-61768345D01*
X73872636Y-62108373D01*
X74005308Y-62428673D01*
X74197919Y-62716935D01*
X74443065Y-62962081D01*
X74731327Y-63154692D01*
X74805000Y-63185208D01*
X74805000Y-64737174D01*
X74700826Y-64633000D01*
X74270251Y-64345299D01*
X73791822Y-64147127D01*
X73283924Y-64046100D01*
X72766076Y-64046100D01*
X72258178Y-64147127D01*
X71779749Y-64345299D01*
X71349174Y-64633000D01*
X70983000Y-64999174D01*
X70695299Y-65429749D01*
X70497127Y-65908178D01*
X70396100Y-66416076D01*
X70396100Y-66933924D01*
X70497127Y-67441822D01*
X70695299Y-67920251D01*
X70983000Y-68350826D01*
X71349174Y-68717000D01*
X71779749Y-69004701D01*
X72258178Y-69202873D01*
X72766076Y-69303900D01*
X73283924Y-69303900D01*
X73791822Y-69202873D01*
X74270251Y-69004701D01*
X74700826Y-68717000D01*
X74805000Y-68612826D01*
X74805001Y-79054791D01*
X74731327Y-79085308D01*
X74443065Y-79277919D01*
X74197919Y-79523065D01*
X74005308Y-79811327D01*
X73872636Y-80131627D01*
X73805000Y-80471655D01*
X73805000Y-80818345D01*
X73872636Y-81158373D01*
X74005308Y-81478673D01*
X74197919Y-81766935D01*
X74443065Y-82012081D01*
X74731327Y-82204692D01*
X74805000Y-82235208D01*
X74805000Y-83787174D01*
X74700826Y-83683000D01*
X74270251Y-83395299D01*
X73791822Y-83197127D01*
X73283924Y-83096100D01*
X72766076Y-83096100D01*
X72258178Y-83197127D01*
X71779749Y-83395299D01*
X71349174Y-83683000D01*
X70983000Y-84049174D01*
X70695299Y-84479749D01*
X70497127Y-84958178D01*
X70396100Y-85466076D01*
X70396100Y-85983924D01*
X70497127Y-86491822D01*
X70695299Y-86970251D01*
X70983000Y-87400826D01*
X71349174Y-87767000D01*
X71779749Y-88054701D01*
X72258178Y-88252873D01*
X72766076Y-88353900D01*
X73283924Y-88353900D01*
X73791822Y-88252873D01*
X74270251Y-88054701D01*
X74700826Y-87767000D01*
X74805000Y-87662826D01*
X74805001Y-98104791D01*
X74731327Y-98135308D01*
X74443065Y-98327919D01*
X74197919Y-98573065D01*
X74005308Y-98861327D01*
X73872636Y-99181627D01*
X73805000Y-99521655D01*
X73805000Y-99868345D01*
X73872636Y-100208373D01*
X74005308Y-100528673D01*
X74197919Y-100816935D01*
X74443065Y-101062081D01*
X74731327Y-101254692D01*
X75051627Y-101387364D01*
X75391655Y-101455000D01*
X75738345Y-101455000D01*
X76078373Y-101387364D01*
X76152046Y-101356848D01*
X76178996Y-101383798D01*
X76179002Y-101383803D01*
X78060199Y-103265000D01*
X77956278Y-103265000D01*
X77664549Y-103323029D01*
X77389747Y-103436856D01*
X77142431Y-103602107D01*
X76932107Y-103812431D01*
X76766856Y-104059747D01*
X76653029Y-104334549D01*
X76595000Y-104626278D01*
X76595000Y-104923722D01*
X76653029Y-105215451D01*
X76766856Y-105490253D01*
X76932107Y-105737569D01*
X77142431Y-105947893D01*
X77389747Y-106113144D01*
X77664549Y-106226971D01*
X77956278Y-106285000D01*
X78253722Y-106285000D01*
X78545451Y-106226971D01*
X78820253Y-106113144D01*
X79067569Y-105947893D01*
X79277893Y-105737569D01*
X79443144Y-105490253D01*
X79556971Y-105215451D01*
X79615000Y-104923722D01*
X79615000Y-104819801D01*
X83778949Y-108983750D01*
X81077461Y-108983750D01*
X81029774Y-108936063D01*
X80860256Y-108822795D01*
X80671898Y-108744774D01*
X80471939Y-108705000D01*
X80268061Y-108705000D01*
X80068102Y-108744774D01*
X79879744Y-108822795D01*
X79710226Y-108936063D01*
X79566063Y-109080226D01*
X79452795Y-109249744D01*
X79374774Y-109438102D01*
X79335000Y-109638061D01*
X79335000Y-109841939D01*
X79374774Y-110041898D01*
X79452795Y-110230256D01*
X79566063Y-110399774D01*
X79710226Y-110543937D01*
X79879744Y-110657205D01*
X80068102Y-110735226D01*
X80268061Y-110775000D01*
X80471939Y-110775000D01*
X80671898Y-110735226D01*
X80860256Y-110657205D01*
X81029774Y-110543937D01*
X81069961Y-110503750D01*
X83862539Y-110503750D01*
X83906476Y-110547687D01*
X84075994Y-110660955D01*
X84264352Y-110738976D01*
X84464311Y-110778750D01*
X84668189Y-110778750D01*
X84868148Y-110738976D01*
X85056506Y-110660955D01*
X85226024Y-110547687D01*
X85284455Y-110489256D01*
X92953152Y-118157954D01*
X92922636Y-118231627D01*
X92855000Y-118571655D01*
X92855000Y-118918345D01*
X92922636Y-119258373D01*
X93055308Y-119578673D01*
X93247919Y-119866935D01*
X93493065Y-120112081D01*
X93781327Y-120304692D01*
X94101627Y-120437364D01*
X94441655Y-120505000D01*
X94788345Y-120505000D01*
X95128373Y-120437364D01*
X95448673Y-120304692D01*
X95736935Y-120112081D01*
X95982081Y-119866935D01*
X96174692Y-119578673D01*
X96307364Y-119258373D01*
X96375000Y-118918345D01*
X96375000Y-118571655D01*
X96307364Y-118231627D01*
X96185184Y-117936655D01*
X106825000Y-117936655D01*
X106825000Y-118283345D01*
X106892636Y-118623373D01*
X107025308Y-118943673D01*
X107217919Y-119231935D01*
X107463065Y-119477081D01*
X107751327Y-119669692D01*
X108071627Y-119802364D01*
X108411655Y-119870000D01*
X108758345Y-119870000D01*
X109098373Y-119802364D01*
X109418673Y-119669692D01*
X109616719Y-119537362D01*
X109673029Y-119820451D01*
X109786856Y-120095253D01*
X109952107Y-120342569D01*
X110162431Y-120552893D01*
X110409747Y-120718144D01*
X110684549Y-120831971D01*
X110976278Y-120890000D01*
X111273722Y-120890000D01*
X111565451Y-120831971D01*
X111840253Y-120718144D01*
X112087569Y-120552893D01*
X112297893Y-120342569D01*
X112463144Y-120095253D01*
X112576971Y-119820451D01*
X112635000Y-119528722D01*
X112635000Y-119231278D01*
X112576971Y-118939549D01*
X112463144Y-118664747D01*
X112297893Y-118417431D01*
X112087569Y-118207107D01*
X111840253Y-118041856D01*
X111565451Y-117928029D01*
X111273722Y-117870000D01*
X110976278Y-117870000D01*
X110684549Y-117928029D01*
X110409747Y-118041856D01*
X110345000Y-118085118D01*
X110345000Y-117936655D01*
X110277364Y-117596627D01*
X110144692Y-117276327D01*
X109952081Y-116988065D01*
X109706935Y-116742919D01*
X109418673Y-116550308D01*
X109098373Y-116417636D01*
X108758345Y-116350000D01*
X108411655Y-116350000D01*
X108071627Y-116417636D01*
X107751327Y-116550308D01*
X107463065Y-116742919D01*
X107217919Y-116988065D01*
X107025308Y-117276327D01*
X106892636Y-117596627D01*
X106825000Y-117936655D01*
X96185184Y-117936655D01*
X96174692Y-117911327D01*
X95982081Y-117623065D01*
X95736935Y-117377919D01*
X95448673Y-117185308D01*
X95128373Y-117052636D01*
X94788345Y-116985000D01*
X94441655Y-116985000D01*
X94101627Y-117052636D01*
X94027954Y-117083152D01*
X90985878Y-114041076D01*
X108496100Y-114041076D01*
X108496100Y-114558924D01*
X108597127Y-115066822D01*
X108795299Y-115545251D01*
X109083000Y-115975826D01*
X109449174Y-116342000D01*
X109879749Y-116629701D01*
X110358178Y-116827873D01*
X110866076Y-116928900D01*
X111383924Y-116928900D01*
X111891822Y-116827873D01*
X112370251Y-116629701D01*
X112800826Y-116342000D01*
X113167000Y-115975826D01*
X113454701Y-115545251D01*
X113652873Y-115066822D01*
X113753900Y-114558924D01*
X113753900Y-114041076D01*
X113652873Y-113533178D01*
X113454701Y-113054749D01*
X113167000Y-112624174D01*
X112800826Y-112258000D01*
X112370251Y-111970299D01*
X111891822Y-111772127D01*
X111383924Y-111671100D01*
X110866076Y-111671100D01*
X110358178Y-111772127D01*
X109879749Y-111970299D01*
X109449174Y-112258000D01*
X109083000Y-112624174D01*
X108795299Y-113054749D01*
X108597127Y-113533178D01*
X108496100Y-114041076D01*
X90985878Y-114041076D01*
X81571080Y-104626278D01*
X85485000Y-104626278D01*
X85485000Y-104923722D01*
X85543029Y-105215451D01*
X85656856Y-105490253D01*
X85822107Y-105737569D01*
X86032431Y-105947893D01*
X86279747Y-106113144D01*
X86554549Y-106226971D01*
X86846278Y-106285000D01*
X87143722Y-106285000D01*
X87435451Y-106226971D01*
X87710253Y-106113144D01*
X87957569Y-105947893D01*
X88167893Y-105737569D01*
X88333144Y-105490253D01*
X88446971Y-105215451D01*
X88505000Y-104923722D01*
X88505000Y-104626278D01*
X88483080Y-104516076D01*
X89446100Y-104516076D01*
X89446100Y-105033924D01*
X89547127Y-105541822D01*
X89745299Y-106020251D01*
X90033000Y-106450826D01*
X90399174Y-106817000D01*
X90829749Y-107104701D01*
X91308178Y-107302873D01*
X91816076Y-107403900D01*
X92333924Y-107403900D01*
X92841822Y-107302873D01*
X93320251Y-107104701D01*
X93750826Y-106817000D01*
X94117000Y-106450826D01*
X94404701Y-106020251D01*
X94602873Y-105541822D01*
X94703900Y-105033924D01*
X94703900Y-104516076D01*
X94602873Y-104008178D01*
X94404701Y-103529749D01*
X94117000Y-103099174D01*
X93750826Y-102733000D01*
X93320251Y-102445299D01*
X92841822Y-102247127D01*
X92333924Y-102146100D01*
X91816076Y-102146100D01*
X91308178Y-102247127D01*
X90829749Y-102445299D01*
X90399174Y-102733000D01*
X90033000Y-103099174D01*
X89745299Y-103529749D01*
X89547127Y-104008178D01*
X89446100Y-104516076D01*
X88483080Y-104516076D01*
X88446971Y-104334549D01*
X88333144Y-104059747D01*
X88289882Y-103995000D01*
X88438345Y-103995000D01*
X88778373Y-103927364D01*
X89098673Y-103794692D01*
X89386935Y-103602081D01*
X89632081Y-103356935D01*
X89824692Y-103068673D01*
X89957364Y-102748373D01*
X90025000Y-102408345D01*
X90025000Y-102061655D01*
X89957364Y-101721627D01*
X89824692Y-101401327D01*
X89632081Y-101113065D01*
X89386935Y-100867919D01*
X89098673Y-100675308D01*
X88778373Y-100542636D01*
X88438345Y-100475000D01*
X88091655Y-100475000D01*
X87751627Y-100542636D01*
X87431327Y-100675308D01*
X87143065Y-100867919D01*
X86897919Y-101113065D01*
X86705308Y-101401327D01*
X86572636Y-101721627D01*
X86505000Y-102061655D01*
X86505000Y-102408345D01*
X86572636Y-102748373D01*
X86705308Y-103068673D01*
X86837638Y-103266719D01*
X86554549Y-103323029D01*
X86279747Y-103436856D01*
X86032431Y-103602107D01*
X85822107Y-103812431D01*
X85656856Y-104059747D01*
X85543029Y-104334549D01*
X85485000Y-104626278D01*
X81571080Y-104626278D01*
X77253803Y-100309002D01*
X77253798Y-100308996D01*
X77226848Y-100282046D01*
X77257364Y-100208373D01*
X77325000Y-99868345D01*
X77325000Y-99521655D01*
X77257364Y-99181627D01*
X77124692Y-98861327D01*
X76932081Y-98573065D01*
X76686935Y-98327919D01*
X76398673Y-98135308D01*
X76325000Y-98104792D01*
X76325000Y-85576278D01*
X76595000Y-85576278D01*
X76595000Y-85873722D01*
X76653029Y-86165451D01*
X76766856Y-86440253D01*
X76932107Y-86687569D01*
X77142431Y-86897893D01*
X77389747Y-87063144D01*
X77664549Y-87176971D01*
X77956278Y-87235000D01*
X78253722Y-87235000D01*
X78545451Y-87176971D01*
X78820253Y-87063144D01*
X79067569Y-86897893D01*
X79277893Y-86687569D01*
X79443144Y-86440253D01*
X79556971Y-86165451D01*
X79615000Y-85873722D01*
X79615000Y-85576278D01*
X85485000Y-85576278D01*
X85485000Y-85873722D01*
X85543029Y-86165451D01*
X85656856Y-86440253D01*
X85822107Y-86687569D01*
X86032431Y-86897893D01*
X86279747Y-87063144D01*
X86554549Y-87176971D01*
X86846278Y-87235000D01*
X87143722Y-87235000D01*
X87435451Y-87176971D01*
X87710253Y-87063144D01*
X87957569Y-86897893D01*
X88167893Y-86687569D01*
X88333144Y-86440253D01*
X88446971Y-86165451D01*
X88505000Y-85873722D01*
X88505000Y-85576278D01*
X88446971Y-85284549D01*
X88333144Y-85009747D01*
X88289882Y-84945000D01*
X88438345Y-84945000D01*
X88778373Y-84877364D01*
X89098673Y-84744692D01*
X89386935Y-84552081D01*
X89632081Y-84306935D01*
X89824692Y-84018673D01*
X89957364Y-83698373D01*
X90025000Y-83358345D01*
X90025000Y-83011655D01*
X89957364Y-82671627D01*
X89824692Y-82351327D01*
X89632081Y-82063065D01*
X89386935Y-81817919D01*
X89098673Y-81625308D01*
X88778373Y-81492636D01*
X88438345Y-81425000D01*
X88091655Y-81425000D01*
X87751627Y-81492636D01*
X87431327Y-81625308D01*
X87143065Y-81817919D01*
X86897919Y-82063065D01*
X86705308Y-82351327D01*
X86572636Y-82671627D01*
X86505000Y-83011655D01*
X86505000Y-83358345D01*
X86572636Y-83698373D01*
X86705308Y-84018673D01*
X86837638Y-84216719D01*
X86554549Y-84273029D01*
X86279747Y-84386856D01*
X86032431Y-84552107D01*
X85822107Y-84762431D01*
X85656856Y-85009747D01*
X85543029Y-85284549D01*
X85485000Y-85576278D01*
X79615000Y-85576278D01*
X79556971Y-85284549D01*
X79443144Y-85009747D01*
X79277893Y-84762431D01*
X79067569Y-84552107D01*
X78820253Y-84386856D01*
X78545451Y-84273029D01*
X78253722Y-84215000D01*
X77956278Y-84215000D01*
X77664549Y-84273029D01*
X77389747Y-84386856D01*
X77142431Y-84552107D01*
X76932107Y-84762431D01*
X76766856Y-85009747D01*
X76653029Y-85284549D01*
X76595000Y-85576278D01*
X76325000Y-85576278D01*
X76325000Y-82235208D01*
X76398673Y-82204692D01*
X76686935Y-82012081D01*
X76932081Y-81766935D01*
X77124692Y-81478673D01*
X77257364Y-81158373D01*
X77325000Y-80818345D01*
X77325000Y-80471655D01*
X77257364Y-80131627D01*
X77124692Y-79811327D01*
X76932081Y-79523065D01*
X76686935Y-79277919D01*
X76398673Y-79085308D01*
X76325000Y-79054792D01*
X76325000Y-72328061D01*
X77145000Y-72328061D01*
X77145000Y-72531939D01*
X77184774Y-72731898D01*
X77262795Y-72920256D01*
X77376063Y-73089774D01*
X77520226Y-73233937D01*
X77689744Y-73347205D01*
X77878102Y-73425226D01*
X78078061Y-73465000D01*
X78281939Y-73465000D01*
X78481898Y-73425226D01*
X78670256Y-73347205D01*
X78839774Y-73233937D01*
X78883711Y-73190000D01*
X84376289Y-73190000D01*
X84420226Y-73233937D01*
X84589744Y-73347205D01*
X84778102Y-73425226D01*
X84978061Y-73465000D01*
X85181939Y-73465000D01*
X85381898Y-73425226D01*
X85570256Y-73347205D01*
X85739774Y-73233937D01*
X85883937Y-73089774D01*
X85997205Y-72920256D01*
X86075226Y-72731898D01*
X86115000Y-72531939D01*
X86115000Y-72328061D01*
X86075226Y-72128102D01*
X85997205Y-71939744D01*
X85883937Y-71770226D01*
X85739774Y-71626063D01*
X85570256Y-71512795D01*
X85381898Y-71434774D01*
X85181939Y-71395000D01*
X84978061Y-71395000D01*
X84778102Y-71434774D01*
X84589744Y-71512795D01*
X84420226Y-71626063D01*
X84376289Y-71670000D01*
X78883711Y-71670000D01*
X78839774Y-71626063D01*
X78670256Y-71512795D01*
X78481898Y-71434774D01*
X78281939Y-71395000D01*
X78078061Y-71395000D01*
X77878102Y-71434774D01*
X77689744Y-71512795D01*
X77520226Y-71626063D01*
X77376063Y-71770226D01*
X77262795Y-71939744D01*
X77184774Y-72128102D01*
X77145000Y-72328061D01*
X76325000Y-72328061D01*
X76325000Y-66526278D01*
X76595000Y-66526278D01*
X76595000Y-66823722D01*
X76653029Y-67115451D01*
X76766856Y-67390253D01*
X76932107Y-67637569D01*
X77142431Y-67847893D01*
X77389747Y-68013144D01*
X77664549Y-68126971D01*
X77956278Y-68185000D01*
X78253722Y-68185000D01*
X78545451Y-68126971D01*
X78820253Y-68013144D01*
X79067569Y-67847893D01*
X79277893Y-67637569D01*
X79443144Y-67390253D01*
X79556971Y-67115451D01*
X79615000Y-66823722D01*
X79615000Y-66526278D01*
X85485000Y-66526278D01*
X85485000Y-66823722D01*
X85543029Y-67115451D01*
X85656856Y-67390253D01*
X85822107Y-67637569D01*
X86032431Y-67847893D01*
X86279747Y-68013144D01*
X86554549Y-68126971D01*
X86846278Y-68185000D01*
X87143722Y-68185000D01*
X87435451Y-68126971D01*
X87710253Y-68013144D01*
X87957569Y-67847893D01*
X88167893Y-67637569D01*
X88333144Y-67390253D01*
X88446971Y-67115451D01*
X88505000Y-66823722D01*
X88505000Y-66526278D01*
X88446971Y-66234549D01*
X88333144Y-65959747D01*
X88289882Y-65895000D01*
X88438345Y-65895000D01*
X88778373Y-65827364D01*
X89098673Y-65694692D01*
X89386935Y-65502081D01*
X89632081Y-65256935D01*
X89824692Y-64968673D01*
X89957364Y-64648373D01*
X90025000Y-64308345D01*
X90025000Y-63961655D01*
X89957364Y-63621627D01*
X89824692Y-63301327D01*
X89632081Y-63013065D01*
X89386935Y-62767919D01*
X89098673Y-62575308D01*
X88778373Y-62442636D01*
X88438345Y-62375000D01*
X88091655Y-62375000D01*
X87751627Y-62442636D01*
X87431327Y-62575308D01*
X87143065Y-62767919D01*
X86897919Y-63013065D01*
X86705308Y-63301327D01*
X86572636Y-63621627D01*
X86505000Y-63961655D01*
X86505000Y-64308345D01*
X86572636Y-64648373D01*
X86705308Y-64968673D01*
X86837638Y-65166719D01*
X86554549Y-65223029D01*
X86279747Y-65336856D01*
X86032431Y-65502107D01*
X85822107Y-65712431D01*
X85656856Y-65959747D01*
X85543029Y-66234549D01*
X85485000Y-66526278D01*
X79615000Y-66526278D01*
X79556971Y-66234549D01*
X79443144Y-65959747D01*
X79277893Y-65712431D01*
X79067569Y-65502107D01*
X78820253Y-65336856D01*
X78545451Y-65223029D01*
X78253722Y-65165000D01*
X77956278Y-65165000D01*
X77664549Y-65223029D01*
X77389747Y-65336856D01*
X77142431Y-65502107D01*
X76932107Y-65712431D01*
X76766856Y-65959747D01*
X76653029Y-66234549D01*
X76595000Y-66526278D01*
X76325000Y-66526278D01*
X76325000Y-63185208D01*
X76398673Y-63154692D01*
X76686935Y-62962081D01*
X76932081Y-62716935D01*
X77124692Y-62428673D01*
X77257364Y-62108373D01*
X77325000Y-61768345D01*
X77325000Y-61421655D01*
X77257364Y-61081627D01*
X77124692Y-60761327D01*
X76932081Y-60473065D01*
X76686935Y-60227919D01*
X76398673Y-60035308D01*
X76325000Y-60004792D01*
X76325000Y-52568061D01*
X79915000Y-52568061D01*
X79915000Y-52771939D01*
X79954774Y-52971898D01*
X80032795Y-53160256D01*
X80146063Y-53329774D01*
X80290226Y-53473937D01*
X80459744Y-53587205D01*
X80648102Y-53665226D01*
X80848061Y-53705000D01*
X81051939Y-53705000D01*
X81251898Y-53665226D01*
X81440256Y-53587205D01*
X81609774Y-53473937D01*
X81653711Y-53430000D01*
X92666289Y-53430000D01*
X92780226Y-53543937D01*
X92949744Y-53657205D01*
X93138102Y-53735226D01*
X93338061Y-53775000D01*
X93541939Y-53775000D01*
X93741898Y-53735226D01*
X93855001Y-53688377D01*
X93855001Y-60004791D01*
X93781327Y-60035308D01*
X93493065Y-60227919D01*
X93247919Y-60473065D01*
X93055308Y-60761327D01*
X92922636Y-61081627D01*
X92855000Y-61421655D01*
X92855000Y-61768345D01*
X92922636Y-62108373D01*
X93055308Y-62428673D01*
X93247919Y-62716935D01*
X93493065Y-62962081D01*
X93781327Y-63154692D01*
X93855000Y-63185208D01*
X93855000Y-64737174D01*
X93750826Y-64633000D01*
X93320251Y-64345299D01*
X92841822Y-64147127D01*
X92333924Y-64046100D01*
X91816076Y-64046100D01*
X91308178Y-64147127D01*
X90829749Y-64345299D01*
X90399174Y-64633000D01*
X90033000Y-64999174D01*
X89745299Y-65429749D01*
X89547127Y-65908178D01*
X89446100Y-66416076D01*
X89446100Y-66933924D01*
X89547127Y-67441822D01*
X89745299Y-67920251D01*
X90033000Y-68350826D01*
X90399174Y-68717000D01*
X90829749Y-69004701D01*
X91308178Y-69202873D01*
X91816076Y-69303900D01*
X92333924Y-69303900D01*
X92841822Y-69202873D01*
X93320251Y-69004701D01*
X93750826Y-68717000D01*
X93855000Y-68612826D01*
X93855001Y-79054791D01*
X93781327Y-79085308D01*
X93493065Y-79277919D01*
X93247919Y-79523065D01*
X93055308Y-79811327D01*
X92922636Y-80131627D01*
X92855000Y-80471655D01*
X92855000Y-80818345D01*
X92922636Y-81158373D01*
X93055308Y-81478673D01*
X93247919Y-81766935D01*
X93493065Y-82012081D01*
X93781327Y-82204692D01*
X93855000Y-82235208D01*
X93855000Y-83787174D01*
X93750826Y-83683000D01*
X93320251Y-83395299D01*
X92841822Y-83197127D01*
X92333924Y-83096100D01*
X91816076Y-83096100D01*
X91308178Y-83197127D01*
X90829749Y-83395299D01*
X90399174Y-83683000D01*
X90033000Y-84049174D01*
X89745299Y-84479749D01*
X89547127Y-84958178D01*
X89446100Y-85466076D01*
X89446100Y-85983924D01*
X89547127Y-86491822D01*
X89745299Y-86970251D01*
X90033000Y-87400826D01*
X90399174Y-87767000D01*
X90829749Y-88054701D01*
X91308178Y-88252873D01*
X91816076Y-88353900D01*
X92333924Y-88353900D01*
X92841822Y-88252873D01*
X93320251Y-88054701D01*
X93750826Y-87767000D01*
X93855000Y-87662826D01*
X93855001Y-98104791D01*
X93781327Y-98135308D01*
X93493065Y-98327919D01*
X93247919Y-98573065D01*
X93055308Y-98861327D01*
X92922636Y-99181627D01*
X92855000Y-99521655D01*
X92855000Y-99868345D01*
X92922636Y-100208373D01*
X93055308Y-100528673D01*
X93247919Y-100816935D01*
X93493065Y-101062081D01*
X93781327Y-101254692D01*
X94101627Y-101387364D01*
X94441655Y-101455000D01*
X94788345Y-101455000D01*
X95128373Y-101387364D01*
X95448673Y-101254692D01*
X95736935Y-101062081D01*
X95982081Y-100816935D01*
X96174692Y-100528673D01*
X96307364Y-100208373D01*
X96375000Y-99868345D01*
X96375000Y-99521655D01*
X96307364Y-99181627D01*
X96174692Y-98861327D01*
X95982081Y-98573065D01*
X95736935Y-98327919D01*
X95448673Y-98135308D01*
X95375000Y-98104792D01*
X95375000Y-85576278D01*
X95645000Y-85576278D01*
X95645000Y-85873722D01*
X95703029Y-86165451D01*
X95816856Y-86440253D01*
X95982107Y-86687569D01*
X96192431Y-86897893D01*
X96439747Y-87063144D01*
X96714549Y-87176971D01*
X97006278Y-87235000D01*
X97303722Y-87235000D01*
X97595451Y-87176971D01*
X97870253Y-87063144D01*
X98117569Y-86897893D01*
X98170000Y-86845462D01*
X98170001Y-99966288D01*
X98126063Y-100010226D01*
X98012795Y-100179744D01*
X97934774Y-100368102D01*
X97895000Y-100568061D01*
X97895000Y-100771939D01*
X97934774Y-100971898D01*
X98012795Y-101160256D01*
X98126063Y-101329774D01*
X98170000Y-101373711D01*
X98170001Y-103654539D01*
X98117569Y-103602107D01*
X97870253Y-103436856D01*
X97595451Y-103323029D01*
X97303722Y-103265000D01*
X97006278Y-103265000D01*
X96714549Y-103323029D01*
X96439747Y-103436856D01*
X96192431Y-103602107D01*
X95982107Y-103812431D01*
X95816856Y-104059747D01*
X95703029Y-104334549D01*
X95645000Y-104626278D01*
X95645000Y-104923722D01*
X95703029Y-105215451D01*
X95816856Y-105490253D01*
X95982107Y-105737569D01*
X96192431Y-105947893D01*
X96439747Y-106113144D01*
X96714549Y-106226971D01*
X97006278Y-106285000D01*
X97303722Y-106285000D01*
X97595451Y-106226971D01*
X97870253Y-106113144D01*
X98117569Y-105947893D01*
X98327893Y-105737569D01*
X98493144Y-105490253D01*
X98553863Y-105343664D01*
X104383152Y-111172955D01*
X104352636Y-111246627D01*
X104285000Y-111586655D01*
X104285000Y-111933345D01*
X104352636Y-112273373D01*
X104485308Y-112593673D01*
X104677919Y-112881935D01*
X104923065Y-113127081D01*
X105211327Y-113319692D01*
X105531627Y-113452364D01*
X105871655Y-113520000D01*
X106218345Y-113520000D01*
X106558373Y-113452364D01*
X106878673Y-113319692D01*
X107166935Y-113127081D01*
X107412081Y-112881935D01*
X107604692Y-112593673D01*
X107737364Y-112273373D01*
X107805000Y-111933345D01*
X107805000Y-111586655D01*
X107737364Y-111246627D01*
X107604692Y-110926327D01*
X107412081Y-110638065D01*
X107166935Y-110392919D01*
X106878673Y-110200308D01*
X106558373Y-110067636D01*
X106218345Y-110000000D01*
X105871655Y-110000000D01*
X105531627Y-110067636D01*
X105457955Y-110098152D01*
X104431081Y-109071278D01*
X109615000Y-109071278D01*
X109615000Y-109368722D01*
X109673029Y-109660451D01*
X109786856Y-109935253D01*
X109952107Y-110182569D01*
X110162431Y-110392893D01*
X110409747Y-110558144D01*
X110684549Y-110671971D01*
X110976278Y-110730000D01*
X111273722Y-110730000D01*
X111565451Y-110671971D01*
X111840253Y-110558144D01*
X112087569Y-110392893D01*
X112297893Y-110182569D01*
X112463144Y-109935253D01*
X112576971Y-109660451D01*
X112635000Y-109368722D01*
X112635000Y-109071278D01*
X112576971Y-108779549D01*
X112463144Y-108504747D01*
X112297893Y-108257431D01*
X112087569Y-108047107D01*
X111840253Y-107881856D01*
X111565451Y-107768029D01*
X111273722Y-107710000D01*
X110976278Y-107710000D01*
X110684549Y-107768029D01*
X110409747Y-107881856D01*
X110162431Y-108047107D01*
X109952107Y-108257431D01*
X109786856Y-108504747D01*
X109673029Y-108779549D01*
X109615000Y-109071278D01*
X104431081Y-109071278D01*
X99690000Y-104330199D01*
X99690000Y-102134826D01*
X100241100Y-102134826D01*
X100241100Y-102652674D01*
X100342127Y-103160572D01*
X100540299Y-103639001D01*
X100828000Y-104069576D01*
X101194174Y-104435750D01*
X101624749Y-104723451D01*
X102103178Y-104921623D01*
X102611076Y-105022650D01*
X103128924Y-105022650D01*
X103636822Y-104921623D01*
X104115251Y-104723451D01*
X104545826Y-104435750D01*
X104912000Y-104069576D01*
X105199701Y-103639001D01*
X105397873Y-103160572D01*
X105498900Y-102652674D01*
X105498900Y-102253702D01*
X106427688Y-103182489D01*
X106402795Y-103219744D01*
X106324774Y-103408102D01*
X106285000Y-103608061D01*
X106285000Y-103811939D01*
X106324774Y-104011898D01*
X106402795Y-104200256D01*
X106516063Y-104369774D01*
X106660226Y-104513937D01*
X106829744Y-104627205D01*
X107018102Y-104705226D01*
X107218061Y-104745000D01*
X107421939Y-104745000D01*
X107621898Y-104705226D01*
X107810256Y-104627205D01*
X107979774Y-104513937D01*
X108023711Y-104470000D01*
X111842678Y-104470000D01*
X111880000Y-104473676D01*
X111917322Y-104470000D01*
X111917333Y-104470000D01*
X112028986Y-104459003D01*
X112172247Y-104415546D01*
X112304276Y-104344974D01*
X112420001Y-104250001D01*
X112443803Y-104220998D01*
X112559801Y-104105000D01*
X112621939Y-104105000D01*
X112821898Y-104065226D01*
X113010256Y-103987205D01*
X113179774Y-103873937D01*
X113323937Y-103729774D01*
X113437205Y-103560256D01*
X113515226Y-103371898D01*
X113555000Y-103171939D01*
X113555000Y-102968061D01*
X113515226Y-102768102D01*
X113437205Y-102579744D01*
X113323937Y-102410226D01*
X113179774Y-102266063D01*
X113010256Y-102152795D01*
X112821898Y-102074774D01*
X112621939Y-102035000D01*
X112418061Y-102035000D01*
X112218102Y-102074774D01*
X112029744Y-102152795D01*
X111860226Y-102266063D01*
X111716063Y-102410226D01*
X111602795Y-102579744D01*
X111524774Y-102768102D01*
X111488593Y-102950000D01*
X108078752Y-102950000D01*
X108069003Y-102851014D01*
X108025546Y-102707753D01*
X107996105Y-102652674D01*
X107954974Y-102575723D01*
X107883799Y-102488997D01*
X107860001Y-102459999D01*
X107831004Y-102436202D01*
X105270000Y-99875199D01*
X105270000Y-92913711D01*
X105313937Y-92869774D01*
X105427205Y-92700256D01*
X105505226Y-92511898D01*
X105545000Y-92311939D01*
X105545000Y-92108061D01*
X105505226Y-91908102D01*
X105427205Y-91719744D01*
X105313937Y-91550226D01*
X105169774Y-91406063D01*
X105000256Y-91292795D01*
X104811898Y-91214774D01*
X104611939Y-91175000D01*
X104408061Y-91175000D01*
X104208102Y-91214774D01*
X104019744Y-91292795D01*
X103850226Y-91406063D01*
X103706063Y-91550226D01*
X103592795Y-91719744D01*
X103514774Y-91908102D01*
X103475000Y-92108061D01*
X103475000Y-92311939D01*
X103514774Y-92511898D01*
X103592795Y-92700256D01*
X103706063Y-92869774D01*
X103750000Y-92913711D01*
X103750001Y-99912757D01*
X103636822Y-99865877D01*
X103128924Y-99764850D01*
X102611076Y-99764850D01*
X102103178Y-99865877D01*
X101624749Y-100064049D01*
X101194174Y-100351750D01*
X100828000Y-100717924D01*
X100540299Y-101148499D01*
X100342127Y-101626928D01*
X100241100Y-102134826D01*
X99690000Y-102134826D01*
X99690000Y-101373711D01*
X99733937Y-101329774D01*
X99847205Y-101160256D01*
X99925226Y-100971898D01*
X99965000Y-100771939D01*
X99965000Y-100568061D01*
X99925226Y-100368102D01*
X99847205Y-100179744D01*
X99733937Y-100010226D01*
X99690000Y-99966289D01*
X99690000Y-86758061D01*
X101515000Y-86758061D01*
X101515000Y-86961939D01*
X101554774Y-87161898D01*
X101632795Y-87350256D01*
X101746063Y-87519774D01*
X101890226Y-87663937D01*
X102059744Y-87777205D01*
X102248102Y-87855226D01*
X102448061Y-87895000D01*
X102651939Y-87895000D01*
X102851898Y-87855226D01*
X103040256Y-87777205D01*
X103209774Y-87663937D01*
X103353937Y-87519774D01*
X103467205Y-87350256D01*
X103545226Y-87161898D01*
X103585000Y-86961939D01*
X103585000Y-86758061D01*
X103545226Y-86558102D01*
X103467205Y-86369744D01*
X103353937Y-86200226D01*
X103310000Y-86156289D01*
X103310000Y-85203639D01*
X103316882Y-85063548D01*
X103334724Y-84943267D01*
X103364270Y-84825311D01*
X103405236Y-84710821D01*
X103457226Y-84600898D01*
X103519740Y-84496598D01*
X103592172Y-84398937D01*
X103673836Y-84308834D01*
X103763933Y-84227174D01*
X103861597Y-84154741D01*
X103965901Y-84092224D01*
X104075821Y-84040236D01*
X104190313Y-83999270D01*
X104308268Y-83969724D01*
X104428548Y-83951882D01*
X104568638Y-83945000D01*
X105724792Y-83945000D01*
X105755308Y-84018673D01*
X105887638Y-84216719D01*
X105604549Y-84273029D01*
X105329747Y-84386856D01*
X105082431Y-84552107D01*
X104872107Y-84762431D01*
X104706856Y-85009747D01*
X104593029Y-85284549D01*
X104535000Y-85576278D01*
X104535000Y-85873722D01*
X104593029Y-86165451D01*
X104706856Y-86440253D01*
X104872107Y-86687569D01*
X105082431Y-86897893D01*
X105329747Y-87063144D01*
X105604549Y-87176971D01*
X105896278Y-87235000D01*
X106193722Y-87235000D01*
X106485451Y-87176971D01*
X106760253Y-87063144D01*
X107007569Y-86897893D01*
X107217893Y-86687569D01*
X107383144Y-86440253D01*
X107496971Y-86165451D01*
X107555000Y-85873722D01*
X107555000Y-85576278D01*
X107533080Y-85466076D01*
X108496100Y-85466076D01*
X108496100Y-85983924D01*
X108597127Y-86491822D01*
X108795299Y-86970251D01*
X109083000Y-87400826D01*
X109449174Y-87767000D01*
X109879749Y-88054701D01*
X110358178Y-88252873D01*
X110866076Y-88353900D01*
X111383924Y-88353900D01*
X111891822Y-88252873D01*
X112370251Y-88054701D01*
X112800826Y-87767000D01*
X113167000Y-87400826D01*
X113454701Y-86970251D01*
X113652873Y-86491822D01*
X113753900Y-85983924D01*
X113753900Y-85576278D01*
X114695000Y-85576278D01*
X114695000Y-85873722D01*
X114753029Y-86165451D01*
X114866856Y-86440253D01*
X115032107Y-86687569D01*
X115242431Y-86897893D01*
X115489747Y-87063144D01*
X115764549Y-87176971D01*
X116056278Y-87235000D01*
X116353722Y-87235000D01*
X116645451Y-87176971D01*
X116920253Y-87063144D01*
X117167569Y-86897893D01*
X117377893Y-86687569D01*
X117543144Y-86440253D01*
X117656971Y-86165451D01*
X117715000Y-85873722D01*
X117715000Y-85576278D01*
X117656971Y-85284549D01*
X117543144Y-85009747D01*
X117377893Y-84762431D01*
X117167569Y-84552107D01*
X116920253Y-84386856D01*
X116645451Y-84273029D01*
X116353722Y-84215000D01*
X116056278Y-84215000D01*
X115764549Y-84273029D01*
X115489747Y-84386856D01*
X115242431Y-84552107D01*
X115032107Y-84762431D01*
X114866856Y-85009747D01*
X114753029Y-85284549D01*
X114695000Y-85576278D01*
X113753900Y-85576278D01*
X113753900Y-85466076D01*
X113652873Y-84958178D01*
X113454701Y-84479749D01*
X113167000Y-84049174D01*
X112800826Y-83683000D01*
X112370251Y-83395299D01*
X111891822Y-83197127D01*
X111383924Y-83096100D01*
X110866076Y-83096100D01*
X110358178Y-83197127D01*
X109879749Y-83395299D01*
X109449174Y-83683000D01*
X109083000Y-84049174D01*
X108795299Y-84479749D01*
X108597127Y-84958178D01*
X108496100Y-85466076D01*
X107533080Y-85466076D01*
X107496971Y-85284549D01*
X107383144Y-85009747D01*
X107339882Y-84945000D01*
X107488345Y-84945000D01*
X107828373Y-84877364D01*
X108148673Y-84744692D01*
X108436935Y-84552081D01*
X108682081Y-84306935D01*
X108874692Y-84018673D01*
X109007364Y-83698373D01*
X109075000Y-83358345D01*
X109075000Y-83011655D01*
X109007364Y-82671627D01*
X108874692Y-82351327D01*
X108682081Y-82063065D01*
X108436935Y-81817919D01*
X108148673Y-81625308D01*
X107828373Y-81492636D01*
X107488345Y-81425000D01*
X107141655Y-81425000D01*
X106801627Y-81492636D01*
X106481327Y-81625308D01*
X106193065Y-81817919D01*
X105947919Y-82063065D01*
X105755308Y-82351327D01*
X105724792Y-82425000D01*
X104568640Y-82425000D01*
X104549998Y-82424084D01*
X104531352Y-82425000D01*
X104512667Y-82425000D01*
X104494073Y-82426831D01*
X104279388Y-82437378D01*
X104279383Y-82437379D01*
X104279377Y-82437379D01*
X104011375Y-82477133D01*
X103934579Y-82496370D01*
X103817217Y-82525767D01*
X103748546Y-82542968D01*
X103599075Y-82596450D01*
X103599074Y-82596450D01*
X103493439Y-82634247D01*
X103248515Y-82750088D01*
X103248511Y-82750090D01*
X103016121Y-82889379D01*
X103016117Y-82889382D01*
X103016112Y-82889385D01*
X102818408Y-83036014D01*
X102798491Y-83050785D01*
X102597740Y-83232734D01*
X102571955Y-83261184D01*
X102415785Y-83433491D01*
X102383333Y-83477247D01*
X102296362Y-83594513D01*
X102254379Y-83651120D01*
X102119545Y-83876079D01*
X102115088Y-83883515D01*
X101999247Y-84128439D01*
X101976101Y-84193127D01*
X101907968Y-84383546D01*
X101907967Y-84383551D01*
X101869394Y-84537544D01*
X101842133Y-84646375D01*
X101802379Y-84914379D01*
X101802378Y-84914389D01*
X101791831Y-85129074D01*
X101790000Y-85147668D01*
X101790000Y-85166353D01*
X101789084Y-85184999D01*
X101790000Y-85203642D01*
X101790001Y-86156288D01*
X101746063Y-86200226D01*
X101632795Y-86369744D01*
X101554774Y-86558102D01*
X101515000Y-86758061D01*
X99690000Y-86758061D01*
X99690000Y-83914801D01*
X102199802Y-81405000D01*
X112074792Y-81405000D01*
X112105308Y-81478673D01*
X112297919Y-81766935D01*
X112543065Y-82012081D01*
X112831327Y-82204692D01*
X113151627Y-82337364D01*
X113491655Y-82405000D01*
X113838345Y-82405000D01*
X114178373Y-82337364D01*
X114498673Y-82204692D01*
X114786935Y-82012081D01*
X115032081Y-81766935D01*
X115224692Y-81478673D01*
X115357364Y-81158373D01*
X115425000Y-80818345D01*
X115425000Y-80471655D01*
X115357364Y-80131627D01*
X115224692Y-79811327D01*
X115032081Y-79523065D01*
X114786935Y-79277919D01*
X114498673Y-79085308D01*
X114425000Y-79054792D01*
X114425000Y-66526278D01*
X114695000Y-66526278D01*
X114695000Y-66823722D01*
X114753029Y-67115451D01*
X114866856Y-67390253D01*
X115032107Y-67637569D01*
X115242431Y-67847893D01*
X115489747Y-68013144D01*
X115764549Y-68126971D01*
X116056278Y-68185000D01*
X116353722Y-68185000D01*
X116645451Y-68126971D01*
X116920253Y-68013144D01*
X117167569Y-67847893D01*
X117377893Y-67637569D01*
X117543144Y-67390253D01*
X117656971Y-67115451D01*
X117715000Y-66823722D01*
X117715000Y-66526278D01*
X117656971Y-66234549D01*
X117543144Y-65959747D01*
X117377893Y-65712431D01*
X117167569Y-65502107D01*
X116920253Y-65336856D01*
X116645451Y-65223029D01*
X116353722Y-65165000D01*
X116056278Y-65165000D01*
X115764549Y-65223029D01*
X115489747Y-65336856D01*
X115242431Y-65502107D01*
X115032107Y-65712431D01*
X114866856Y-65959747D01*
X114753029Y-66234549D01*
X114695000Y-66526278D01*
X114425000Y-66526278D01*
X114425000Y-63185208D01*
X114498673Y-63154692D01*
X114786935Y-62962081D01*
X115032081Y-62716935D01*
X115224692Y-62428673D01*
X115357364Y-62108373D01*
X115425000Y-61768345D01*
X115425000Y-61421655D01*
X115357364Y-61081627D01*
X115224692Y-60761327D01*
X115032081Y-60473065D01*
X114786935Y-60227919D01*
X114498673Y-60035308D01*
X114425000Y-60004792D01*
X114425000Y-47476278D01*
X114695000Y-47476278D01*
X114695000Y-47773722D01*
X114753029Y-48065451D01*
X114866856Y-48340253D01*
X115032107Y-48587569D01*
X115242431Y-48797893D01*
X115489747Y-48963144D01*
X115764549Y-49076971D01*
X116056278Y-49135000D01*
X116353722Y-49135000D01*
X116645451Y-49076971D01*
X116920253Y-48963144D01*
X117167569Y-48797893D01*
X117377893Y-48587569D01*
X117543144Y-48340253D01*
X117656971Y-48065451D01*
X117715000Y-47773722D01*
X117715000Y-47476278D01*
X117656971Y-47184549D01*
X117543144Y-46909747D01*
X117377893Y-46662431D01*
X117167569Y-46452107D01*
X116920253Y-46286856D01*
X116645451Y-46173029D01*
X116353722Y-46115000D01*
X116056278Y-46115000D01*
X115764549Y-46173029D01*
X115489747Y-46286856D01*
X115242431Y-46452107D01*
X115032107Y-46662431D01*
X114866856Y-46909747D01*
X114753029Y-47184549D01*
X114695000Y-47476278D01*
X114425000Y-47476278D01*
X114425000Y-44135208D01*
X114498673Y-44104692D01*
X114786935Y-43912081D01*
X115032081Y-43666935D01*
X115224692Y-43378673D01*
X115357364Y-43058373D01*
X115425000Y-42718345D01*
X115425000Y-42371655D01*
X115357364Y-42031627D01*
X115224692Y-41711327D01*
X115032081Y-41423065D01*
X114786935Y-41177919D01*
X114498673Y-40985308D01*
X114178373Y-40852636D01*
X113838345Y-40785000D01*
X113491655Y-40785000D01*
X113151627Y-40852636D01*
X112831327Y-40985308D01*
X112543065Y-41177919D01*
X112297919Y-41423065D01*
X112105308Y-41711327D01*
X111972636Y-42031627D01*
X111905000Y-42371655D01*
X111905000Y-42718345D01*
X111972636Y-43058373D01*
X112105308Y-43378673D01*
X112297919Y-43666935D01*
X112543065Y-43912081D01*
X112831327Y-44104692D01*
X112905000Y-44135208D01*
X112905000Y-45687174D01*
X112800826Y-45583000D01*
X112370251Y-45295299D01*
X111891822Y-45097127D01*
X111383924Y-44996100D01*
X110866076Y-44996100D01*
X110358178Y-45097127D01*
X109879749Y-45295299D01*
X109449174Y-45583000D01*
X109083000Y-45949174D01*
X108795299Y-46379749D01*
X108597127Y-46858178D01*
X108496100Y-47366076D01*
X108496100Y-47883924D01*
X108597127Y-48391822D01*
X108795299Y-48870251D01*
X109083000Y-49300826D01*
X109449174Y-49667000D01*
X109879749Y-49954701D01*
X110358178Y-50152873D01*
X110866076Y-50253900D01*
X111383924Y-50253900D01*
X111891822Y-50152873D01*
X112370251Y-49954701D01*
X112800826Y-49667000D01*
X112905000Y-49562826D01*
X112905001Y-60004791D01*
X112831327Y-60035308D01*
X112543065Y-60227919D01*
X112297919Y-60473065D01*
X112105308Y-60761327D01*
X111972636Y-61081627D01*
X111905000Y-61421655D01*
X111905000Y-61768345D01*
X111972636Y-62108373D01*
X112105308Y-62428673D01*
X112297919Y-62716935D01*
X112543065Y-62962081D01*
X112831327Y-63154692D01*
X112905000Y-63185208D01*
X112905000Y-64737174D01*
X112800826Y-64633000D01*
X112370251Y-64345299D01*
X111891822Y-64147127D01*
X111383924Y-64046100D01*
X110866076Y-64046100D01*
X110358178Y-64147127D01*
X109879749Y-64345299D01*
X109449174Y-64633000D01*
X109083000Y-64999174D01*
X108795299Y-65429749D01*
X108597127Y-65908178D01*
X108496100Y-66416076D01*
X108496100Y-66933924D01*
X108597127Y-67441822D01*
X108795299Y-67920251D01*
X109083000Y-68350826D01*
X109449174Y-68717000D01*
X109879749Y-69004701D01*
X110358178Y-69202873D01*
X110866076Y-69303900D01*
X111383924Y-69303900D01*
X111891822Y-69202873D01*
X112370251Y-69004701D01*
X112800826Y-68717000D01*
X112905000Y-68612826D01*
X112905001Y-79054791D01*
X112831327Y-79085308D01*
X112543065Y-79277919D01*
X112297919Y-79523065D01*
X112105308Y-79811327D01*
X112074792Y-79885000D01*
X101922322Y-79885000D01*
X101884999Y-79881324D01*
X101847676Y-79885000D01*
X101847667Y-79885000D01*
X101736014Y-79895997D01*
X101592753Y-79939454D01*
X101460723Y-80010026D01*
X101377083Y-80078668D01*
X101344999Y-80104999D01*
X101321201Y-80133997D01*
X98419003Y-83036196D01*
X98389999Y-83059999D01*
X98335730Y-83126126D01*
X98295026Y-83175724D01*
X98230172Y-83297056D01*
X98224454Y-83307754D01*
X98180997Y-83451015D01*
X98170000Y-83562668D01*
X98170000Y-83562678D01*
X98166324Y-83600000D01*
X98170000Y-83637322D01*
X98170000Y-84604538D01*
X98117569Y-84552107D01*
X97870253Y-84386856D01*
X97595451Y-84273029D01*
X97303722Y-84215000D01*
X97006278Y-84215000D01*
X96714549Y-84273029D01*
X96439747Y-84386856D01*
X96192431Y-84552107D01*
X95982107Y-84762431D01*
X95816856Y-85009747D01*
X95703029Y-85284549D01*
X95645000Y-85576278D01*
X95375000Y-85576278D01*
X95375000Y-82235208D01*
X95448673Y-82204692D01*
X95736935Y-82012081D01*
X95982081Y-81766935D01*
X96174692Y-81478673D01*
X96307364Y-81158373D01*
X96375000Y-80818345D01*
X96375000Y-80471655D01*
X96307364Y-80131627D01*
X96174692Y-79811327D01*
X95982081Y-79523065D01*
X95736935Y-79277919D01*
X95448673Y-79085308D01*
X95375000Y-79054792D01*
X95375000Y-66526278D01*
X95645000Y-66526278D01*
X95645000Y-66823722D01*
X95703029Y-67115451D01*
X95816856Y-67390253D01*
X95982107Y-67637569D01*
X96192431Y-67847893D01*
X96439747Y-68013144D01*
X96714549Y-68126971D01*
X97006278Y-68185000D01*
X97303722Y-68185000D01*
X97595451Y-68126971D01*
X97870253Y-68013144D01*
X98117569Y-67847893D01*
X98327893Y-67637569D01*
X98493144Y-67390253D01*
X98606971Y-67115451D01*
X98665000Y-66823722D01*
X98665000Y-66526278D01*
X104535000Y-66526278D01*
X104535000Y-66823722D01*
X104593029Y-67115451D01*
X104706856Y-67390253D01*
X104872107Y-67637569D01*
X105082431Y-67847893D01*
X105329747Y-68013144D01*
X105604549Y-68126971D01*
X105896278Y-68185000D01*
X106193722Y-68185000D01*
X106485451Y-68126971D01*
X106760253Y-68013144D01*
X107007569Y-67847893D01*
X107217893Y-67637569D01*
X107383144Y-67390253D01*
X107496971Y-67115451D01*
X107555000Y-66823722D01*
X107555000Y-66526278D01*
X107496971Y-66234549D01*
X107383144Y-65959747D01*
X107339882Y-65895000D01*
X107488345Y-65895000D01*
X107828373Y-65827364D01*
X108148673Y-65694692D01*
X108436935Y-65502081D01*
X108682081Y-65256935D01*
X108874692Y-64968673D01*
X109007364Y-64648373D01*
X109075000Y-64308345D01*
X109075000Y-63961655D01*
X109007364Y-63621627D01*
X108874692Y-63301327D01*
X108682081Y-63013065D01*
X108436935Y-62767919D01*
X108148673Y-62575308D01*
X107828373Y-62442636D01*
X107488345Y-62375000D01*
X107141655Y-62375000D01*
X106801627Y-62442636D01*
X106481327Y-62575308D01*
X106193065Y-62767919D01*
X105947919Y-63013065D01*
X105755308Y-63301327D01*
X105622636Y-63621627D01*
X105555000Y-63961655D01*
X105555000Y-64308345D01*
X105622636Y-64648373D01*
X105755308Y-64968673D01*
X105887638Y-65166719D01*
X105604549Y-65223029D01*
X105329747Y-65336856D01*
X105082431Y-65502107D01*
X104872107Y-65712431D01*
X104706856Y-65959747D01*
X104593029Y-66234549D01*
X104535000Y-66526278D01*
X98665000Y-66526278D01*
X98606971Y-66234549D01*
X98493144Y-65959747D01*
X98327893Y-65712431D01*
X98117569Y-65502107D01*
X97870253Y-65336856D01*
X97595451Y-65223029D01*
X97303722Y-65165000D01*
X97006278Y-65165000D01*
X96714549Y-65223029D01*
X96439747Y-65336856D01*
X96192431Y-65502107D01*
X95982107Y-65712431D01*
X95816856Y-65959747D01*
X95703029Y-66234549D01*
X95645000Y-66526278D01*
X95375000Y-66526278D01*
X95375000Y-63185208D01*
X95448673Y-63154692D01*
X95736935Y-62962081D01*
X95982081Y-62716935D01*
X96174692Y-62428673D01*
X96307364Y-62108373D01*
X96375000Y-61768345D01*
X96375000Y-61421655D01*
X96307364Y-61081627D01*
X96174692Y-60761327D01*
X95982081Y-60473065D01*
X95736935Y-60227919D01*
X95448673Y-60035308D01*
X95375000Y-60004792D01*
X95375000Y-47476278D01*
X95645000Y-47476278D01*
X95645000Y-47773722D01*
X95703029Y-48065451D01*
X95816856Y-48340253D01*
X95982107Y-48587569D01*
X96192431Y-48797893D01*
X96439747Y-48963144D01*
X96714549Y-49076971D01*
X97006278Y-49135000D01*
X97303722Y-49135000D01*
X97595451Y-49076971D01*
X97870253Y-48963144D01*
X98117569Y-48797893D01*
X98327893Y-48587569D01*
X98493144Y-48340253D01*
X98606971Y-48065451D01*
X98665000Y-47773722D01*
X98665000Y-47476278D01*
X104535000Y-47476278D01*
X104535000Y-47773722D01*
X104593029Y-48065451D01*
X104706856Y-48340253D01*
X104872107Y-48587569D01*
X105082431Y-48797893D01*
X105329747Y-48963144D01*
X105604549Y-49076971D01*
X105896278Y-49135000D01*
X106193722Y-49135000D01*
X106485451Y-49076971D01*
X106760253Y-48963144D01*
X107007569Y-48797893D01*
X107217893Y-48587569D01*
X107383144Y-48340253D01*
X107496971Y-48065451D01*
X107555000Y-47773722D01*
X107555000Y-47476278D01*
X107496971Y-47184549D01*
X107383144Y-46909747D01*
X107339882Y-46845000D01*
X107488345Y-46845000D01*
X107828373Y-46777364D01*
X108148673Y-46644692D01*
X108436935Y-46452081D01*
X108682081Y-46206935D01*
X108874692Y-45918673D01*
X109007364Y-45598373D01*
X109075000Y-45258345D01*
X109075000Y-44911655D01*
X109007364Y-44571627D01*
X108874692Y-44251327D01*
X108682081Y-43963065D01*
X108436935Y-43717919D01*
X108148673Y-43525308D01*
X107828373Y-43392636D01*
X107488345Y-43325000D01*
X107141655Y-43325000D01*
X106801627Y-43392636D01*
X106481327Y-43525308D01*
X106193065Y-43717919D01*
X105947919Y-43963065D01*
X105755308Y-44251327D01*
X105622636Y-44571627D01*
X105555000Y-44911655D01*
X105555000Y-45258345D01*
X105622636Y-45598373D01*
X105755308Y-45918673D01*
X105887638Y-46116719D01*
X105604549Y-46173029D01*
X105329747Y-46286856D01*
X105082431Y-46452107D01*
X104872107Y-46662431D01*
X104706856Y-46909747D01*
X104593029Y-47184549D01*
X104535000Y-47476278D01*
X98665000Y-47476278D01*
X98606971Y-47184549D01*
X98493144Y-46909747D01*
X98327893Y-46662431D01*
X98117569Y-46452107D01*
X97870253Y-46286856D01*
X97595451Y-46173029D01*
X97303722Y-46115000D01*
X97006278Y-46115000D01*
X96714549Y-46173029D01*
X96439747Y-46286856D01*
X96192431Y-46452107D01*
X95982107Y-46662431D01*
X95816856Y-46909747D01*
X95703029Y-47184549D01*
X95645000Y-47476278D01*
X95375000Y-47476278D01*
X95375000Y-44135208D01*
X95448673Y-44104692D01*
X95736935Y-43912081D01*
X95982081Y-43666935D01*
X96174692Y-43378673D01*
X96307364Y-43058373D01*
X96375000Y-42718345D01*
X96375000Y-42371655D01*
X96307364Y-42031627D01*
X96174692Y-41711327D01*
X95982081Y-41423065D01*
X95736935Y-41177919D01*
X95448673Y-40985308D01*
X95128373Y-40852636D01*
X94788345Y-40785000D01*
X94441655Y-40785000D01*
X94101627Y-40852636D01*
X93781327Y-40985308D01*
X93493065Y-41177919D01*
X93247919Y-41423065D01*
X93055308Y-41711327D01*
X92922636Y-42031627D01*
X92855000Y-42371655D01*
X92855000Y-42718345D01*
X92922636Y-43058373D01*
X93055308Y-43378673D01*
X93247919Y-43666935D01*
X93493065Y-43912081D01*
X93781327Y-44104692D01*
X93855000Y-44135208D01*
X93855000Y-45687174D01*
X93750826Y-45583000D01*
X93320251Y-45295299D01*
X92841822Y-45097127D01*
X92333924Y-44996100D01*
X91816076Y-44996100D01*
X91308178Y-45097127D01*
X90829749Y-45295299D01*
X90399174Y-45583000D01*
X90033000Y-45949174D01*
X89745299Y-46379749D01*
X89547127Y-46858178D01*
X89446100Y-47366076D01*
X89446100Y-47883924D01*
X89547127Y-48391822D01*
X89745299Y-48870251D01*
X90033000Y-49300826D01*
X90399174Y-49667000D01*
X90829749Y-49954701D01*
X91308178Y-50152873D01*
X91816076Y-50253900D01*
X92333924Y-50253900D01*
X92841822Y-50152873D01*
X93320251Y-49954701D01*
X93750826Y-49667000D01*
X93855000Y-49562826D01*
X93855000Y-51791623D01*
X93741898Y-51744774D01*
X93541939Y-51705000D01*
X93338061Y-51705000D01*
X93138102Y-51744774D01*
X92949744Y-51822795D01*
X92819232Y-51910000D01*
X81653711Y-51910000D01*
X81609774Y-51866063D01*
X81440256Y-51752795D01*
X81251898Y-51674774D01*
X81051939Y-51635000D01*
X80848061Y-51635000D01*
X80648102Y-51674774D01*
X80459744Y-51752795D01*
X80290226Y-51866063D01*
X80146063Y-52010226D01*
X80032795Y-52179744D01*
X79954774Y-52368102D01*
X79915000Y-52568061D01*
X76325000Y-52568061D01*
X76325000Y-47476278D01*
X76595000Y-47476278D01*
X76595000Y-47773722D01*
X76653029Y-48065451D01*
X76766856Y-48340253D01*
X76932107Y-48587569D01*
X77142431Y-48797893D01*
X77389747Y-48963144D01*
X77664549Y-49076971D01*
X77956278Y-49135000D01*
X78253722Y-49135000D01*
X78545451Y-49076971D01*
X78820253Y-48963144D01*
X79067569Y-48797893D01*
X79277893Y-48587569D01*
X79443144Y-48340253D01*
X79556971Y-48065451D01*
X79615000Y-47773722D01*
X79615000Y-47476278D01*
X79556971Y-47184549D01*
X79443144Y-46909747D01*
X79277893Y-46662431D01*
X79067569Y-46452107D01*
X78820253Y-46286856D01*
X78545451Y-46173029D01*
X78253722Y-46115000D01*
X77956278Y-46115000D01*
X77664549Y-46173029D01*
X77389747Y-46286856D01*
X77142431Y-46452107D01*
X76932107Y-46662431D01*
X76766856Y-46909747D01*
X76653029Y-47184549D01*
X76595000Y-47476278D01*
X76325000Y-47476278D01*
X76325000Y-44135208D01*
X76398673Y-44104692D01*
X76686935Y-43912081D01*
X76932081Y-43666935D01*
X77115000Y-43393178D01*
X77115000Y-43597000D01*
X77161585Y-43815987D01*
X77249997Y-44021678D01*
X77376839Y-44206169D01*
X77537236Y-44362369D01*
X77725024Y-44484276D01*
X77948126Y-44564119D01*
X78123000Y-44437954D01*
X78123000Y-43047000D01*
X78103000Y-43047000D01*
X78103000Y-42793000D01*
X78123000Y-42793000D01*
X78123000Y-41402046D01*
X78377000Y-41402046D01*
X78377000Y-42793000D01*
X78397000Y-42793000D01*
X78397000Y-43047000D01*
X78377000Y-43047000D01*
X78377000Y-44437954D01*
X78551874Y-44564119D01*
X78774976Y-44484276D01*
X78962764Y-44362369D01*
X79123161Y-44206169D01*
X79250003Y-44021678D01*
X79338415Y-43815987D01*
X79385000Y-43597000D01*
X79385000Y-43306904D01*
X79399978Y-43313108D01*
X79585448Y-43350000D01*
X79774552Y-43350000D01*
X79960022Y-43313108D01*
X80134731Y-43240741D01*
X80291964Y-43135681D01*
X80425681Y-43001964D01*
X80530741Y-42844731D01*
X80603108Y-42670022D01*
X80640000Y-42484552D01*
X80640000Y-42295448D01*
X84500000Y-42295448D01*
X84500000Y-42484552D01*
X84536892Y-42670022D01*
X84609259Y-42844731D01*
X84714319Y-43001964D01*
X84848036Y-43135681D01*
X85005269Y-43240741D01*
X85179978Y-43313108D01*
X85365448Y-43350000D01*
X85554552Y-43350000D01*
X85740022Y-43313108D01*
X85755000Y-43306904D01*
X85755000Y-43597000D01*
X85801585Y-43815987D01*
X85889997Y-44021678D01*
X86016839Y-44206169D01*
X86177236Y-44362369D01*
X86365024Y-44484276D01*
X86577344Y-44560260D01*
X86572636Y-44571627D01*
X86505000Y-44911655D01*
X86505000Y-45258345D01*
X86572636Y-45598373D01*
X86705308Y-45918673D01*
X86837638Y-46116719D01*
X86554549Y-46173029D01*
X86279747Y-46286856D01*
X86032431Y-46452107D01*
X85822107Y-46662431D01*
X85656856Y-46909747D01*
X85543029Y-47184549D01*
X85485000Y-47476278D01*
X85485000Y-47773722D01*
X85543029Y-48065451D01*
X85656856Y-48340253D01*
X85822107Y-48587569D01*
X86032431Y-48797893D01*
X86279747Y-48963144D01*
X86554549Y-49076971D01*
X86846278Y-49135000D01*
X87143722Y-49135000D01*
X87435451Y-49076971D01*
X87710253Y-48963144D01*
X87957569Y-48797893D01*
X88167893Y-48587569D01*
X88333144Y-48340253D01*
X88446971Y-48065451D01*
X88505000Y-47773722D01*
X88505000Y-47476278D01*
X88446971Y-47184549D01*
X88333144Y-46909747D01*
X88289882Y-46845000D01*
X88438345Y-46845000D01*
X88778373Y-46777364D01*
X89098673Y-46644692D01*
X89386935Y-46452081D01*
X89632081Y-46206935D01*
X89824692Y-45918673D01*
X89957364Y-45598373D01*
X90025000Y-45258345D01*
X90025000Y-44911655D01*
X89957364Y-44571627D01*
X89824692Y-44251327D01*
X89632081Y-43963065D01*
X89386935Y-43717919D01*
X89098673Y-43525308D01*
X88778373Y-43392636D01*
X88438345Y-43325000D01*
X88091655Y-43325000D01*
X88025000Y-43338259D01*
X88025000Y-43047000D01*
X87017000Y-43047000D01*
X87017000Y-43067000D01*
X86763000Y-43067000D01*
X86763000Y-43047000D01*
X86743000Y-43047000D01*
X86743000Y-42793000D01*
X86763000Y-42793000D01*
X86763000Y-41402046D01*
X87017000Y-41402046D01*
X87017000Y-42793000D01*
X88025000Y-42793000D01*
X88025000Y-42243000D01*
X87978415Y-42024013D01*
X87890003Y-41818322D01*
X87763161Y-41633831D01*
X87602764Y-41477631D01*
X87414976Y-41355724D01*
X87191874Y-41275881D01*
X87017000Y-41402046D01*
X86763000Y-41402046D01*
X86588126Y-41275881D01*
X86365024Y-41355724D01*
X86177236Y-41477631D01*
X86032884Y-41618206D01*
X85914731Y-41539259D01*
X85740022Y-41466892D01*
X85554552Y-41430000D01*
X85365448Y-41430000D01*
X85179978Y-41466892D01*
X85005269Y-41539259D01*
X84848036Y-41644319D01*
X84714319Y-41778036D01*
X84609259Y-41935269D01*
X84536892Y-42109978D01*
X84500000Y-42295448D01*
X80640000Y-42295448D01*
X80603108Y-42109978D01*
X80530741Y-41935269D01*
X80425681Y-41778036D01*
X80291964Y-41644319D01*
X80134731Y-41539259D01*
X79960022Y-41466892D01*
X79774552Y-41430000D01*
X79585448Y-41430000D01*
X79399978Y-41466892D01*
X79225269Y-41539259D01*
X79107116Y-41618206D01*
X78962764Y-41477631D01*
X78774976Y-41355724D01*
X78551874Y-41275881D01*
X78377000Y-41402046D01*
X78123000Y-41402046D01*
X77948126Y-41275881D01*
X77725024Y-41355724D01*
X77537236Y-41477631D01*
X77376839Y-41633831D01*
X77249997Y-41818322D01*
X77208755Y-41914273D01*
X77124692Y-41711327D01*
X76932081Y-41423065D01*
X76686935Y-41177919D01*
X76398673Y-40985308D01*
X76078373Y-40852636D01*
X75738345Y-40785000D01*
X75391655Y-40785000D01*
X75051627Y-40852636D01*
X74731327Y-40985308D01*
X74443065Y-41177919D01*
X74197919Y-41423065D01*
X74005308Y-41711327D01*
X73872636Y-42031627D01*
X73805000Y-42371655D01*
X73805000Y-42718345D01*
X73872636Y-43058373D01*
X74005308Y-43378673D01*
X74197919Y-43666935D01*
X74443065Y-43912081D01*
X74731327Y-44104692D01*
X74805000Y-44135208D01*
X74805000Y-45687174D01*
X74700826Y-45583000D01*
X74270251Y-45295299D01*
X73791822Y-45097127D01*
X73283924Y-44996100D01*
X72766076Y-44996100D01*
X72258178Y-45097127D01*
X71779749Y-45295299D01*
X71349174Y-45583000D01*
X70983000Y-45949174D01*
X70695299Y-46379749D01*
X70497127Y-46858178D01*
X70396100Y-47366076D01*
X69433080Y-47366076D01*
X69396971Y-47184549D01*
X69283144Y-46909747D01*
X69239882Y-46845000D01*
X69388345Y-46845000D01*
X69728373Y-46777364D01*
X70048673Y-46644692D01*
X70336935Y-46452081D01*
X70582081Y-46206935D01*
X70774692Y-45918673D01*
X70907364Y-45598373D01*
X70975000Y-45258345D01*
X70975000Y-44911655D01*
X70907364Y-44571627D01*
X70774692Y-44251327D01*
X70582081Y-43963065D01*
X70336935Y-43717919D01*
X70048673Y-43525308D01*
X69728373Y-43392636D01*
X69388345Y-43325000D01*
X69041655Y-43325000D01*
X68701627Y-43392636D01*
X68381327Y-43525308D01*
X68093065Y-43717919D01*
X67847919Y-43963065D01*
X67655308Y-44251327D01*
X67522636Y-44571627D01*
X67455000Y-44911655D01*
X67455000Y-45258345D01*
X67522636Y-45598373D01*
X67655308Y-45918673D01*
X67787638Y-46116719D01*
X67504549Y-46173029D01*
X67229747Y-46286856D01*
X66982431Y-46452107D01*
X66772107Y-46662431D01*
X66606856Y-46909747D01*
X66493029Y-47184549D01*
X66435000Y-47476278D01*
X60565000Y-47476278D01*
X60506971Y-47184549D01*
X60393144Y-46909747D01*
X60227893Y-46662431D01*
X60017569Y-46452107D01*
X59770253Y-46286856D01*
X59495451Y-46173029D01*
X59203722Y-46115000D01*
X58906278Y-46115000D01*
X58614549Y-46173029D01*
X58339747Y-46286856D01*
X58092431Y-46452107D01*
X57882107Y-46662431D01*
X57716856Y-46909747D01*
X57603029Y-47184549D01*
X57545000Y-47476278D01*
X57275000Y-47476278D01*
X57275000Y-44135208D01*
X57348673Y-44104692D01*
X57636935Y-43912081D01*
X57882081Y-43666935D01*
X58074692Y-43378673D01*
X58207364Y-43058373D01*
X58275000Y-42718345D01*
X58275000Y-42371655D01*
X58207364Y-42031627D01*
X58074692Y-41711327D01*
X57882081Y-41423065D01*
X57636935Y-41177919D01*
X57348673Y-40985308D01*
X57028373Y-40852636D01*
X56688345Y-40785000D01*
X56341655Y-40785000D01*
X56001627Y-40852636D01*
X55681327Y-40985308D01*
X55393065Y-41177919D01*
X55147919Y-41423065D01*
X54955308Y-41711327D01*
X54822636Y-42031627D01*
X54755000Y-42371655D01*
X54755000Y-42718345D01*
X54822636Y-43058373D01*
X54955308Y-43378673D01*
X55147919Y-43666935D01*
X55393065Y-43912081D01*
X55681327Y-44104692D01*
X55755000Y-44135208D01*
X55755000Y-45687174D01*
X55650826Y-45583000D01*
X55220251Y-45295299D01*
X54741822Y-45097127D01*
X54233924Y-44996100D01*
X53716076Y-44996100D01*
X53208178Y-45097127D01*
X52729749Y-45295299D01*
X52299174Y-45583000D01*
X51933000Y-45949174D01*
X51645299Y-46379749D01*
X51447127Y-46858178D01*
X51346100Y-47366076D01*
X50383080Y-47366076D01*
X50346971Y-47184549D01*
X50233144Y-46909747D01*
X50189882Y-46845000D01*
X50338345Y-46845000D01*
X50678373Y-46777364D01*
X50998673Y-46644692D01*
X51286935Y-46452081D01*
X51532081Y-46206935D01*
X51724692Y-45918673D01*
X51857364Y-45598373D01*
X51925000Y-45258345D01*
X51925000Y-44911655D01*
X51857364Y-44571627D01*
X51724692Y-44251327D01*
X51532081Y-43963065D01*
X51286935Y-43717919D01*
X50998673Y-43525308D01*
X50678373Y-43392636D01*
X50338345Y-43325000D01*
X49991655Y-43325000D01*
X49651627Y-43392636D01*
X49331327Y-43525308D01*
X49043065Y-43717919D01*
X48797919Y-43963065D01*
X48605308Y-44251327D01*
X48472636Y-44571627D01*
X48405000Y-44911655D01*
X48405000Y-45258345D01*
X48472636Y-45598373D01*
X48605308Y-45918673D01*
X48737638Y-46116719D01*
X48454549Y-46173029D01*
X48179747Y-46286856D01*
X47932431Y-46452107D01*
X47722107Y-46662431D01*
X47556856Y-46909747D01*
X47443029Y-47184549D01*
X47385000Y-47476278D01*
X45160000Y-47476278D01*
X45160000Y-40515971D01*
X45195168Y-40157299D01*
X45289252Y-39845681D01*
X45442065Y-39558280D01*
X45647793Y-39306032D01*
X45898603Y-39098544D01*
X46184935Y-38943725D01*
X46495879Y-38847471D01*
X46852391Y-38810000D01*
X77115000Y-38810000D01*
X77115000Y-39167000D01*
X77115000Y-39167000D01*
G37*
X77115000Y-39167000D02*
X77161585Y-39385987D01*
X77249997Y-39591678D01*
X77376839Y-39776169D01*
X77537236Y-39932369D01*
X77725024Y-40054276D01*
X77948126Y-40134119D01*
X78123000Y-40007954D01*
X78123000Y-38867000D01*
X78103000Y-38867000D01*
X78103000Y-38810000D01*
X78397000Y-38810000D01*
X78397000Y-38867000D01*
X78377000Y-38867000D01*
X78377000Y-40007954D01*
X78551874Y-40134119D01*
X78774976Y-40054276D01*
X78962764Y-39932369D01*
X79123161Y-39776169D01*
X79250003Y-39591678D01*
X79338415Y-39385987D01*
X79385000Y-39167000D01*
X79385000Y-38810000D01*
X85755000Y-38810000D01*
X85755000Y-39167000D01*
X85801585Y-39385987D01*
X85889997Y-39591678D01*
X86016839Y-39776169D01*
X86177236Y-39932369D01*
X86365024Y-40054276D01*
X86588126Y-40134119D01*
X86763000Y-40007954D01*
X86763000Y-38867000D01*
X86743000Y-38867000D01*
X86743000Y-38810000D01*
X87037000Y-38810000D01*
X87037000Y-38867000D01*
X87017000Y-38867000D01*
X87017000Y-40007954D01*
X87191874Y-40134119D01*
X87414976Y-40054276D01*
X87602764Y-39932369D01*
X87763161Y-39776169D01*
X87890003Y-39591678D01*
X87978415Y-39385987D01*
X88025000Y-39167000D01*
X88025000Y-38810000D01*
X118234029Y-38810000D01*
X118592701Y-38845168D01*
X118904319Y-38939252D01*
X119191720Y-39092065D01*
X119443968Y-39297793D01*
X119651456Y-39548603D01*
X119806275Y-39834935D01*
X119902529Y-40145879D01*
X119940001Y-40502401D01*
X119940000Y-101246442D01*
X119787004Y-101017468D01*
X119486282Y-100716746D01*
X119132670Y-100480469D01*
X118739757Y-100317720D01*
X118322643Y-100234750D01*
X117897357Y-100234750D01*
X117480243Y-100317720D01*
X117087330Y-100480469D01*
X116880000Y-100619003D01*
X116880000Y-91373018D01*
X116883677Y-91335685D01*
X116869003Y-91186699D01*
X116825546Y-91043438D01*
X116800001Y-90995648D01*
X116754974Y-90911409D01*
X116660001Y-90795684D01*
X116652395Y-90789442D01*
X116705226Y-90661898D01*
X116745000Y-90461939D01*
X116745000Y-90258061D01*
X116705226Y-90058102D01*
X116627205Y-89869744D01*
X116513937Y-89700226D01*
X116369774Y-89556063D01*
X116200256Y-89442795D01*
X116011898Y-89364774D01*
X115811939Y-89325000D01*
X115608061Y-89325000D01*
X115408102Y-89364774D01*
X115219744Y-89442795D01*
X115050226Y-89556063D01*
X114906063Y-89700226D01*
X114792795Y-89869744D01*
X114714774Y-90058102D01*
X114675000Y-90258061D01*
X114675000Y-90461939D01*
X114714774Y-90661898D01*
X114792795Y-90850256D01*
X114906063Y-91019774D01*
X114961013Y-91074724D01*
X115004454Y-91217932D01*
X115012910Y-91233751D01*
X115075026Y-91349961D01*
X115146201Y-91436687D01*
X115170000Y-91465686D01*
X115198998Y-91489484D01*
X115360000Y-91650486D01*
X115360000Y-91692408D01*
X115297077Y-91666344D01*
X115097118Y-91626570D01*
X114893240Y-91626570D01*
X114693281Y-91666344D01*
X114504923Y-91744365D01*
X114335405Y-91857633D01*
X114191242Y-92001796D01*
X114077974Y-92171314D01*
X113999953Y-92359672D01*
X113960179Y-92559631D01*
X113960179Y-92621768D01*
X112885698Y-93696250D01*
X111828711Y-93696250D01*
X111784774Y-93652313D01*
X111615256Y-93539045D01*
X111426898Y-93461024D01*
X111226939Y-93421250D01*
X111023061Y-93421250D01*
X110823102Y-93461024D01*
X110634744Y-93539045D01*
X110465226Y-93652313D01*
X110321063Y-93796476D01*
X110207795Y-93965994D01*
X110129774Y-94154352D01*
X110090000Y-94354311D01*
X110090000Y-94558189D01*
X110129774Y-94758148D01*
X110207795Y-94946506D01*
X110321063Y-95116024D01*
X110465226Y-95260187D01*
X110634744Y-95373455D01*
X110823102Y-95451476D01*
X111023061Y-95491250D01*
X111226939Y-95491250D01*
X111426898Y-95451476D01*
X111615256Y-95373455D01*
X111784774Y-95260187D01*
X111828711Y-95216250D01*
X113163177Y-95216250D01*
X113200499Y-95219926D01*
X113237821Y-95216250D01*
X113237832Y-95216250D01*
X113349485Y-95205253D01*
X113492746Y-95161796D01*
X113624775Y-95091224D01*
X113740500Y-94996251D01*
X113764303Y-94967247D01*
X115034981Y-93696570D01*
X115097118Y-93696570D01*
X115297077Y-93656796D01*
X115360000Y-93630732D01*
X115360001Y-101096123D01*
X115300226Y-101136063D01*
X115156063Y-101280226D01*
X115042795Y-101449744D01*
X114964774Y-101638102D01*
X114925000Y-101838061D01*
X114925000Y-102041939D01*
X114964774Y-102241898D01*
X115042795Y-102430256D01*
X115156063Y-102599774D01*
X115300226Y-102743937D01*
X115469744Y-102857205D01*
X115658102Y-102935226D01*
X115858061Y-102975000D01*
X116024321Y-102975000D01*
X116033970Y-103023507D01*
X116196719Y-103416420D01*
X116432996Y-103770032D01*
X116733718Y-104070754D01*
X117087330Y-104307031D01*
X117480243Y-104469780D01*
X117897357Y-104552750D01*
X118322643Y-104552750D01*
X118739757Y-104469780D01*
X119132670Y-104307031D01*
X119486282Y-104070754D01*
X119787004Y-103770032D01*
X119940000Y-103541058D01*
X119940000Y-125058942D01*
X119787004Y-124829968D01*
X119486282Y-124529246D01*
X119132670Y-124292969D01*
X118739757Y-124130220D01*
X118322643Y-124047250D01*
X117897357Y-124047250D01*
X117480243Y-124130220D01*
X117087330Y-124292969D01*
X116733718Y-124529246D01*
X116432996Y-124829968D01*
X116196719Y-125183580D01*
X116033970Y-125576493D01*
X115951000Y-125993607D01*
X115951000Y-126418893D01*
X116033970Y-126836007D01*
X116196719Y-127228920D01*
X116432996Y-127582532D01*
X116733718Y-127883254D01*
X117087330Y-128119531D01*
X117480243Y-128282280D01*
X117897357Y-128365250D01*
X118322643Y-128365250D01*
X118739757Y-128282280D01*
X119132670Y-128119531D01*
X119486282Y-127883254D01*
X119787004Y-127582532D01*
X119940000Y-127353558D01*
X119940000Y-130934029D01*
X119904832Y-131292701D01*
X119810749Y-131604318D01*
X119657934Y-131891722D01*
X119452203Y-132143972D01*
X119201397Y-132351456D01*
X118915066Y-132506275D01*
X118604117Y-132602530D01*
X118247609Y-132640000D01*
X76553558Y-132640000D01*
X76782532Y-132487004D01*
X77083254Y-132186282D01*
X77319531Y-131832670D01*
X77482280Y-131439757D01*
X77565250Y-131022643D01*
X77565250Y-130597357D01*
X77482280Y-130180243D01*
X77319531Y-129787330D01*
X77083254Y-129433718D01*
X76782532Y-129132996D01*
X76428920Y-128896719D01*
X76036007Y-128733970D01*
X75618893Y-128651000D01*
X75193607Y-128651000D01*
X74776493Y-128733970D01*
X74383580Y-128896719D01*
X74029968Y-129132996D01*
X73729246Y-129433718D01*
X73492969Y-129787330D01*
X73330220Y-130180243D01*
X73247250Y-130597357D01*
X73247250Y-131022643D01*
X73330220Y-131439757D01*
X73492969Y-131832670D01*
X73729246Y-132186282D01*
X74029968Y-132487004D01*
X74258942Y-132640000D01*
X52741058Y-132640000D01*
X52970032Y-132487004D01*
X53270754Y-132186282D01*
X53507031Y-131832670D01*
X53669780Y-131439757D01*
X53752750Y-131022643D01*
X53752750Y-130597357D01*
X53669780Y-130180243D01*
X53507031Y-129787330D01*
X53270754Y-129433718D01*
X52970032Y-129132996D01*
X52616420Y-128896719D01*
X52223507Y-128733970D01*
X51806393Y-128651000D01*
X51381107Y-128651000D01*
X50963993Y-128733970D01*
X50571080Y-128896719D01*
X50217468Y-129132996D01*
X49916746Y-129433718D01*
X49680469Y-129787330D01*
X49517720Y-130180243D01*
X49434750Y-130597357D01*
X49434750Y-131022643D01*
X49517720Y-131439757D01*
X49680469Y-131832670D01*
X49916746Y-132186282D01*
X50217468Y-132487004D01*
X50446442Y-132640000D01*
X46865971Y-132640000D01*
X46507299Y-132604832D01*
X46195682Y-132510749D01*
X45908278Y-132357934D01*
X45656028Y-132152203D01*
X45448544Y-131901397D01*
X45293725Y-131615066D01*
X45197470Y-131304117D01*
X45160000Y-130947609D01*
X45160000Y-123676278D01*
X56910000Y-123676278D01*
X56910000Y-123973722D01*
X56968029Y-124265451D01*
X57081856Y-124540253D01*
X57247107Y-124787569D01*
X57457431Y-124997893D01*
X57704747Y-125163144D01*
X57979549Y-125276971D01*
X58271278Y-125335000D01*
X58568722Y-125335000D01*
X58860451Y-125276971D01*
X59135253Y-125163144D01*
X59382569Y-124997893D01*
X59592893Y-124787569D01*
X59758144Y-124540253D01*
X59871971Y-124265451D01*
X59930000Y-123973722D01*
X59930000Y-123676278D01*
X59908080Y-123566076D01*
X60871100Y-123566076D01*
X60871100Y-124083924D01*
X60972127Y-124591822D01*
X61170299Y-125070251D01*
X61458000Y-125500826D01*
X61824174Y-125867000D01*
X62254749Y-126154701D01*
X62733178Y-126352873D01*
X63241076Y-126453900D01*
X63758924Y-126453900D01*
X64266822Y-126352873D01*
X64745251Y-126154701D01*
X65175826Y-125867000D01*
X65542000Y-125500826D01*
X65829701Y-125070251D01*
X66027873Y-124591822D01*
X66128900Y-124083924D01*
X66128900Y-123676278D01*
X67070000Y-123676278D01*
X67070000Y-123973722D01*
X67128029Y-124265451D01*
X67241856Y-124540253D01*
X67407107Y-124787569D01*
X67617431Y-124997893D01*
X67864747Y-125163144D01*
X68139549Y-125276971D01*
X68431278Y-125335000D01*
X68728722Y-125335000D01*
X69020451Y-125276971D01*
X69295253Y-125163144D01*
X69542569Y-124997893D01*
X69752893Y-124787569D01*
X69918144Y-124540253D01*
X70031971Y-124265451D01*
X70090000Y-123973722D01*
X70090000Y-123676278D01*
X85485000Y-123676278D01*
X85485000Y-123973722D01*
X85543029Y-124265451D01*
X85656856Y-124540253D01*
X85822107Y-124787569D01*
X86032431Y-124997893D01*
X86279747Y-125163144D01*
X86554549Y-125276971D01*
X86846278Y-125335000D01*
X87143722Y-125335000D01*
X87435451Y-125276971D01*
X87710253Y-125163144D01*
X87957569Y-124997893D01*
X88167893Y-124787569D01*
X88333144Y-124540253D01*
X88446971Y-124265451D01*
X88505000Y-123973722D01*
X88505000Y-123676278D01*
X88483080Y-123566076D01*
X89446100Y-123566076D01*
X89446100Y-124083924D01*
X89547127Y-124591822D01*
X89745299Y-125070251D01*
X90033000Y-125500826D01*
X90399174Y-125867000D01*
X90829749Y-126154701D01*
X91308178Y-126352873D01*
X91816076Y-126453900D01*
X92333924Y-126453900D01*
X92841822Y-126352873D01*
X93320251Y-126154701D01*
X93630609Y-125947326D01*
X100241100Y-125947326D01*
X100241100Y-126465174D01*
X100342127Y-126973072D01*
X100540299Y-127451501D01*
X100828000Y-127882076D01*
X101194174Y-128248250D01*
X101624749Y-128535951D01*
X102103178Y-128734123D01*
X102611076Y-128835150D01*
X103128924Y-128835150D01*
X103636822Y-128734123D01*
X104115251Y-128535951D01*
X104545826Y-128248250D01*
X104912000Y-127882076D01*
X105199701Y-127451501D01*
X105397873Y-126973072D01*
X105498900Y-126465174D01*
X105498900Y-125947326D01*
X105397873Y-125439428D01*
X105199701Y-124960999D01*
X104912000Y-124530424D01*
X104545826Y-124164250D01*
X104115251Y-123876549D01*
X103636822Y-123678377D01*
X103128924Y-123577350D01*
X102611076Y-123577350D01*
X102103178Y-123678377D01*
X101624749Y-123876549D01*
X101194174Y-124164250D01*
X100828000Y-124530424D01*
X100540299Y-124960999D01*
X100342127Y-125439428D01*
X100241100Y-125947326D01*
X93630609Y-125947326D01*
X93750826Y-125867000D01*
X94117000Y-125500826D01*
X94404701Y-125070251D01*
X94602873Y-124591822D01*
X94703900Y-124083924D01*
X94703900Y-123676278D01*
X95645000Y-123676278D01*
X95645000Y-123973722D01*
X95703029Y-124265451D01*
X95816856Y-124540253D01*
X95982107Y-124787569D01*
X96192431Y-124997893D01*
X96439747Y-125163144D01*
X96714549Y-125276971D01*
X97006278Y-125335000D01*
X97303722Y-125335000D01*
X97595451Y-125276971D01*
X97870253Y-125163144D01*
X98117569Y-124997893D01*
X98327893Y-124787569D01*
X98493144Y-124540253D01*
X98606971Y-124265451D01*
X98665000Y-123973722D01*
X98665000Y-123676278D01*
X98606971Y-123384549D01*
X98493144Y-123109747D01*
X98327893Y-122862431D01*
X98117569Y-122652107D01*
X97870253Y-122486856D01*
X97595451Y-122373029D01*
X97303722Y-122315000D01*
X97006278Y-122315000D01*
X96714549Y-122373029D01*
X96439747Y-122486856D01*
X96192431Y-122652107D01*
X95982107Y-122862431D01*
X95816856Y-123109747D01*
X95703029Y-123384549D01*
X95645000Y-123676278D01*
X94703900Y-123676278D01*
X94703900Y-123566076D01*
X94602873Y-123058178D01*
X94404701Y-122579749D01*
X94117000Y-122149174D01*
X93750826Y-121783000D01*
X93320251Y-121495299D01*
X92841822Y-121297127D01*
X92333924Y-121196100D01*
X91816076Y-121196100D01*
X91308178Y-121297127D01*
X90829749Y-121495299D01*
X90399174Y-121783000D01*
X90033000Y-122149174D01*
X89745299Y-122579749D01*
X89547127Y-123058178D01*
X89446100Y-123566076D01*
X88483080Y-123566076D01*
X88446971Y-123384549D01*
X88333144Y-123109747D01*
X88289882Y-123045000D01*
X88438345Y-123045000D01*
X88778373Y-122977364D01*
X89098673Y-122844692D01*
X89386935Y-122652081D01*
X89632081Y-122406935D01*
X89824692Y-122118673D01*
X89957364Y-121798373D01*
X90025000Y-121458345D01*
X90025000Y-121111655D01*
X89957364Y-120771627D01*
X89824692Y-120451327D01*
X89632081Y-120163065D01*
X89386935Y-119917919D01*
X89098673Y-119725308D01*
X88778373Y-119592636D01*
X88438345Y-119525000D01*
X88091655Y-119525000D01*
X87751627Y-119592636D01*
X87431327Y-119725308D01*
X87143065Y-119917919D01*
X86897919Y-120163065D01*
X86705308Y-120451327D01*
X86572636Y-120771627D01*
X86505000Y-121111655D01*
X86505000Y-121458345D01*
X86572636Y-121798373D01*
X86705308Y-122118673D01*
X86837638Y-122316719D01*
X86554549Y-122373029D01*
X86279747Y-122486856D01*
X86032431Y-122652107D01*
X85822107Y-122862431D01*
X85656856Y-123109747D01*
X85543029Y-123384549D01*
X85485000Y-123676278D01*
X70090000Y-123676278D01*
X70031971Y-123384549D01*
X69918144Y-123109747D01*
X69752893Y-122862431D01*
X69542569Y-122652107D01*
X69295253Y-122486856D01*
X69020451Y-122373029D01*
X68728722Y-122315000D01*
X68431278Y-122315000D01*
X68139549Y-122373029D01*
X67864747Y-122486856D01*
X67617431Y-122652107D01*
X67407107Y-122862431D01*
X67241856Y-123109747D01*
X67128029Y-123384549D01*
X67070000Y-123676278D01*
X66128900Y-123676278D01*
X66128900Y-123566076D01*
X66027873Y-123058178D01*
X65829701Y-122579749D01*
X65542000Y-122149174D01*
X65175826Y-121783000D01*
X64745251Y-121495299D01*
X64266822Y-121297127D01*
X63758924Y-121196100D01*
X63241076Y-121196100D01*
X62733178Y-121297127D01*
X62254749Y-121495299D01*
X61824174Y-121783000D01*
X61458000Y-122149174D01*
X61170299Y-122579749D01*
X60972127Y-123058178D01*
X60871100Y-123566076D01*
X59908080Y-123566076D01*
X59871971Y-123384549D01*
X59758144Y-123109747D01*
X59714882Y-123045000D01*
X59863345Y-123045000D01*
X60203373Y-122977364D01*
X60523673Y-122844692D01*
X60811935Y-122652081D01*
X61057081Y-122406935D01*
X61249692Y-122118673D01*
X61382364Y-121798373D01*
X61450000Y-121458345D01*
X61450000Y-121111655D01*
X61382364Y-120771627D01*
X61249692Y-120451327D01*
X61057081Y-120163065D01*
X60811935Y-119917919D01*
X60523673Y-119725308D01*
X60203373Y-119592636D01*
X59863345Y-119525000D01*
X59516655Y-119525000D01*
X59176627Y-119592636D01*
X58856327Y-119725308D01*
X58568065Y-119917919D01*
X58322919Y-120163065D01*
X58130308Y-120451327D01*
X57997636Y-120771627D01*
X57930000Y-121111655D01*
X57930000Y-121458345D01*
X57997636Y-121798373D01*
X58130308Y-122118673D01*
X58262638Y-122316719D01*
X57979549Y-122373029D01*
X57704747Y-122486856D01*
X57457431Y-122652107D01*
X57247107Y-122862431D01*
X57081856Y-123109747D01*
X56968029Y-123384549D01*
X56910000Y-123676278D01*
X45160000Y-123676278D01*
X45160000Y-115311076D01*
X48964850Y-115311076D01*
X48964850Y-115828924D01*
X49065877Y-116336822D01*
X49264049Y-116815251D01*
X49551750Y-117245826D01*
X49917924Y-117612000D01*
X50348499Y-117899701D01*
X50826928Y-118097873D01*
X51334826Y-118198900D01*
X51852674Y-118198900D01*
X52360572Y-118097873D01*
X52839001Y-117899701D01*
X53269576Y-117612000D01*
X53635750Y-117245826D01*
X53923451Y-116815251D01*
X54121623Y-116336822D01*
X54222650Y-115828924D01*
X54222650Y-115311076D01*
X54121623Y-114803178D01*
X53923451Y-114324749D01*
X53635750Y-113894174D01*
X53269576Y-113528000D01*
X52839001Y-113240299D01*
X52360572Y-113042127D01*
X51852674Y-112941100D01*
X51334826Y-112941100D01*
X50826928Y-113042127D01*
X50348499Y-113240299D01*
X49917924Y-113528000D01*
X49551750Y-113894174D01*
X49264049Y-114324749D01*
X49065877Y-114803178D01*
X48964850Y-115311076D01*
X45160000Y-115311076D01*
X45160000Y-104626278D01*
X47385000Y-104626278D01*
X47385000Y-104923722D01*
X47443029Y-105215451D01*
X47556856Y-105490253D01*
X47722107Y-105737569D01*
X47932431Y-105947893D01*
X48179747Y-106113144D01*
X48454549Y-106226971D01*
X48746278Y-106285000D01*
X49043722Y-106285000D01*
X49335451Y-106226971D01*
X49610253Y-106113144D01*
X49857569Y-105947893D01*
X50067893Y-105737569D01*
X50233144Y-105490253D01*
X50346971Y-105215451D01*
X50405000Y-104923722D01*
X50405000Y-104626278D01*
X50346971Y-104334549D01*
X50233144Y-104059747D01*
X50189882Y-103995000D01*
X50338345Y-103995000D01*
X50678373Y-103927364D01*
X50998673Y-103794692D01*
X51286935Y-103602081D01*
X51532081Y-103356935D01*
X51724692Y-103068673D01*
X51857364Y-102748373D01*
X51925000Y-102408345D01*
X51925000Y-102061655D01*
X51857364Y-101721627D01*
X51724692Y-101401327D01*
X51532081Y-101113065D01*
X51286935Y-100867919D01*
X50998673Y-100675308D01*
X50678373Y-100542636D01*
X50338345Y-100475000D01*
X49991655Y-100475000D01*
X49651627Y-100542636D01*
X49331327Y-100675308D01*
X49043065Y-100867919D01*
X48797919Y-101113065D01*
X48605308Y-101401327D01*
X48472636Y-101721627D01*
X48405000Y-102061655D01*
X48405000Y-102408345D01*
X48472636Y-102748373D01*
X48605308Y-103068673D01*
X48737638Y-103266719D01*
X48454549Y-103323029D01*
X48179747Y-103436856D01*
X47932431Y-103602107D01*
X47722107Y-103812431D01*
X47556856Y-104059747D01*
X47443029Y-104334549D01*
X47385000Y-104626278D01*
X45160000Y-104626278D01*
X45160000Y-85576278D01*
X47385000Y-85576278D01*
X47385000Y-85873722D01*
X47443029Y-86165451D01*
X47556856Y-86440253D01*
X47722107Y-86687569D01*
X47932431Y-86897893D01*
X48179747Y-87063144D01*
X48454549Y-87176971D01*
X48746278Y-87235000D01*
X49043722Y-87235000D01*
X49335451Y-87176971D01*
X49610253Y-87063144D01*
X49857569Y-86897893D01*
X50067893Y-86687569D01*
X50233144Y-86440253D01*
X50346971Y-86165451D01*
X50405000Y-85873722D01*
X50405000Y-85576278D01*
X50346971Y-85284549D01*
X50233144Y-85009747D01*
X50189882Y-84945000D01*
X50338345Y-84945000D01*
X50678373Y-84877364D01*
X50998673Y-84744692D01*
X51286935Y-84552081D01*
X51532081Y-84306935D01*
X51724692Y-84018673D01*
X51857364Y-83698373D01*
X51925000Y-83358345D01*
X51925000Y-83011655D01*
X51857364Y-82671627D01*
X51724692Y-82351327D01*
X51532081Y-82063065D01*
X51286935Y-81817919D01*
X50998673Y-81625308D01*
X50678373Y-81492636D01*
X50338345Y-81425000D01*
X49991655Y-81425000D01*
X49651627Y-81492636D01*
X49331327Y-81625308D01*
X49043065Y-81817919D01*
X48797919Y-82063065D01*
X48605308Y-82351327D01*
X48472636Y-82671627D01*
X48405000Y-83011655D01*
X48405000Y-83358345D01*
X48472636Y-83698373D01*
X48605308Y-84018673D01*
X48737638Y-84216719D01*
X48454549Y-84273029D01*
X48179747Y-84386856D01*
X47932431Y-84552107D01*
X47722107Y-84762431D01*
X47556856Y-85009747D01*
X47443029Y-85284549D01*
X47385000Y-85576278D01*
X45160000Y-85576278D01*
X45160000Y-66526278D01*
X47385000Y-66526278D01*
X47385000Y-66823722D01*
X47443029Y-67115451D01*
X47556856Y-67390253D01*
X47722107Y-67637569D01*
X47932431Y-67847893D01*
X48179747Y-68013144D01*
X48454549Y-68126971D01*
X48746278Y-68185000D01*
X49043722Y-68185000D01*
X49335451Y-68126971D01*
X49610253Y-68013144D01*
X49857569Y-67847893D01*
X50067893Y-67637569D01*
X50233144Y-67390253D01*
X50346971Y-67115451D01*
X50405000Y-66823722D01*
X50405000Y-66526278D01*
X50346971Y-66234549D01*
X50233144Y-65959747D01*
X50189882Y-65895000D01*
X50338345Y-65895000D01*
X50678373Y-65827364D01*
X50998673Y-65694692D01*
X51286935Y-65502081D01*
X51532081Y-65256935D01*
X51724692Y-64968673D01*
X51857364Y-64648373D01*
X51925000Y-64308345D01*
X51925000Y-63961655D01*
X51857364Y-63621627D01*
X51724692Y-63301327D01*
X51532081Y-63013065D01*
X51286935Y-62767919D01*
X50998673Y-62575308D01*
X50678373Y-62442636D01*
X50338345Y-62375000D01*
X49991655Y-62375000D01*
X49651627Y-62442636D01*
X49331327Y-62575308D01*
X49043065Y-62767919D01*
X48797919Y-63013065D01*
X48605308Y-63301327D01*
X48472636Y-63621627D01*
X48405000Y-63961655D01*
X48405000Y-64308345D01*
X48472636Y-64648373D01*
X48605308Y-64968673D01*
X48737638Y-65166719D01*
X48454549Y-65223029D01*
X48179747Y-65336856D01*
X47932431Y-65502107D01*
X47722107Y-65712431D01*
X47556856Y-65959747D01*
X47443029Y-66234549D01*
X47385000Y-66526278D01*
X45160000Y-66526278D01*
X45160000Y-47476278D01*
X47385000Y-47476278D01*
X47385000Y-47773722D01*
X47443029Y-48065451D01*
X47556856Y-48340253D01*
X47722107Y-48587569D01*
X47932431Y-48797893D01*
X48179747Y-48963144D01*
X48454549Y-49076971D01*
X48746278Y-49135000D01*
X49043722Y-49135000D01*
X49335451Y-49076971D01*
X49610253Y-48963144D01*
X49857569Y-48797893D01*
X50067893Y-48587569D01*
X50233144Y-48340253D01*
X50346971Y-48065451D01*
X50405000Y-47773722D01*
X50405000Y-47476278D01*
X50383080Y-47366076D01*
X51346100Y-47366076D01*
X51346100Y-47883924D01*
X51447127Y-48391822D01*
X51645299Y-48870251D01*
X51933000Y-49300826D01*
X52299174Y-49667000D01*
X52729749Y-49954701D01*
X53208178Y-50152873D01*
X53716076Y-50253900D01*
X54233924Y-50253900D01*
X54741822Y-50152873D01*
X55220251Y-49954701D01*
X55650826Y-49667000D01*
X55755000Y-49562826D01*
X55755001Y-60004791D01*
X55681327Y-60035308D01*
X55393065Y-60227919D01*
X55147919Y-60473065D01*
X54955308Y-60761327D01*
X54822636Y-61081627D01*
X54755000Y-61421655D01*
X54755000Y-61768345D01*
X54822636Y-62108373D01*
X54955308Y-62428673D01*
X55147919Y-62716935D01*
X55393065Y-62962081D01*
X55681327Y-63154692D01*
X55755000Y-63185208D01*
X55755000Y-64737174D01*
X55650826Y-64633000D01*
X55220251Y-64345299D01*
X54741822Y-64147127D01*
X54233924Y-64046100D01*
X53716076Y-64046100D01*
X53208178Y-64147127D01*
X52729749Y-64345299D01*
X52299174Y-64633000D01*
X51933000Y-64999174D01*
X51645299Y-65429749D01*
X51447127Y-65908178D01*
X51346100Y-66416076D01*
X51346100Y-66933924D01*
X51447127Y-67441822D01*
X51645299Y-67920251D01*
X51933000Y-68350826D01*
X52299174Y-68717000D01*
X52729749Y-69004701D01*
X53208178Y-69202873D01*
X53716076Y-69303900D01*
X54233924Y-69303900D01*
X54741822Y-69202873D01*
X55220251Y-69004701D01*
X55650826Y-68717000D01*
X55755000Y-68612826D01*
X55755001Y-79054791D01*
X55681327Y-79085308D01*
X55393065Y-79277919D01*
X55147919Y-79523065D01*
X54955308Y-79811327D01*
X54822636Y-80131627D01*
X54755000Y-80471655D01*
X54755000Y-80818345D01*
X54822636Y-81158373D01*
X54955308Y-81478673D01*
X55147919Y-81766935D01*
X55393065Y-82012081D01*
X55681327Y-82204692D01*
X55755000Y-82235208D01*
X55755000Y-83787174D01*
X55650826Y-83683000D01*
X55220251Y-83395299D01*
X54741822Y-83197127D01*
X54233924Y-83096100D01*
X53716076Y-83096100D01*
X53208178Y-83197127D01*
X52729749Y-83395299D01*
X52299174Y-83683000D01*
X51933000Y-84049174D01*
X51645299Y-84479749D01*
X51447127Y-84958178D01*
X51346100Y-85466076D01*
X51346100Y-85983924D01*
X51447127Y-86491822D01*
X51645299Y-86970251D01*
X51933000Y-87400826D01*
X52299174Y-87767000D01*
X52729749Y-88054701D01*
X53208178Y-88252873D01*
X53716076Y-88353900D01*
X54233924Y-88353900D01*
X54741822Y-88252873D01*
X55220251Y-88054701D01*
X55650826Y-87767000D01*
X55755000Y-87662826D01*
X55755001Y-98104791D01*
X55681327Y-98135308D01*
X55393065Y-98327919D01*
X55147919Y-98573065D01*
X54955308Y-98861327D01*
X54822636Y-99181627D01*
X54755000Y-99521655D01*
X54755000Y-99868345D01*
X54822636Y-100208373D01*
X54955308Y-100528673D01*
X55147919Y-100816935D01*
X55393065Y-101062081D01*
X55681327Y-101254692D01*
X55755000Y-101285208D01*
X55755000Y-102837174D01*
X55650826Y-102733000D01*
X55220251Y-102445299D01*
X54741822Y-102247127D01*
X54233924Y-102146100D01*
X53716076Y-102146100D01*
X53208178Y-102247127D01*
X52729749Y-102445299D01*
X52299174Y-102733000D01*
X51933000Y-103099174D01*
X51645299Y-103529749D01*
X51447127Y-104008178D01*
X51346100Y-104516076D01*
X51346100Y-105033924D01*
X51447127Y-105541822D01*
X51645299Y-106020251D01*
X51933000Y-106450826D01*
X52299174Y-106817000D01*
X52729749Y-107104701D01*
X53208178Y-107302873D01*
X53716076Y-107403900D01*
X54233924Y-107403900D01*
X54741822Y-107302873D01*
X55220251Y-107104701D01*
X55650826Y-106817000D01*
X55755001Y-106712825D01*
X55755001Y-109182668D01*
X55751324Y-109220000D01*
X55755001Y-109257333D01*
X55761122Y-109319474D01*
X55765998Y-109368985D01*
X55809454Y-109512246D01*
X55880026Y-109644276D01*
X55893301Y-109660451D01*
X55975000Y-109760001D01*
X56003998Y-109783799D01*
X64378152Y-118157954D01*
X64347636Y-118231627D01*
X64280000Y-118571655D01*
X64280000Y-118918345D01*
X64347636Y-119258373D01*
X64480308Y-119578673D01*
X64672919Y-119866935D01*
X64918065Y-120112081D01*
X65206327Y-120304692D01*
X65526627Y-120437364D01*
X65866655Y-120505000D01*
X66213345Y-120505000D01*
X66553373Y-120437364D01*
X66873673Y-120304692D01*
X67161935Y-120112081D01*
X67407081Y-119866935D01*
X67599692Y-119578673D01*
X67732364Y-119258373D01*
X67800000Y-118918345D01*
X67800000Y-118571655D01*
X67732364Y-118231627D01*
X67599692Y-117911327D01*
X67407081Y-117623065D01*
X67161935Y-117377919D01*
X66873673Y-117185308D01*
X66553373Y-117052636D01*
X66213345Y-116985000D01*
X65866655Y-116985000D01*
X65526627Y-117052636D01*
X65452954Y-117083152D01*
X63680878Y-115311076D01*
X72777350Y-115311076D01*
X72777350Y-115828924D01*
X72878377Y-116336822D01*
X73076549Y-116815251D01*
X73364250Y-117245826D01*
X73730424Y-117612000D01*
X74160999Y-117899701D01*
X74639428Y-118097873D01*
X75147326Y-118198900D01*
X75665174Y-118198900D01*
X76173072Y-118097873D01*
X76651501Y-117899701D01*
X77082076Y-117612000D01*
X77448250Y-117245826D01*
X77735951Y-116815251D01*
X77934123Y-116336822D01*
X78035150Y-115828924D01*
X78035150Y-115311076D01*
X77934123Y-114803178D01*
X77735951Y-114324749D01*
X77448250Y-113894174D01*
X77082076Y-113528000D01*
X76651501Y-113240299D01*
X76173072Y-113042127D01*
X75665174Y-112941100D01*
X75147326Y-112941100D01*
X74639428Y-113042127D01*
X74160999Y-113240299D01*
X73730424Y-113528000D01*
X73364250Y-113894174D01*
X73076549Y-114324749D01*
X72878377Y-114803178D01*
X72777350Y-115311076D01*
X63680878Y-115311076D01*
X57275000Y-108905199D01*
X57275000Y-104626278D01*
X57545000Y-104626278D01*
X57545000Y-104923722D01*
X57603029Y-105215451D01*
X57716856Y-105490253D01*
X57882107Y-105737569D01*
X58092431Y-105947893D01*
X58339747Y-106113144D01*
X58614549Y-106226971D01*
X58906278Y-106285000D01*
X59203722Y-106285000D01*
X59495451Y-106226971D01*
X59770253Y-106113144D01*
X60017569Y-105947893D01*
X60227893Y-105737569D01*
X60393144Y-105490253D01*
X60506971Y-105215451D01*
X60565000Y-104923722D01*
X60565000Y-104626278D01*
X66435000Y-104626278D01*
X66435000Y-104923722D01*
X66493029Y-105215451D01*
X66606856Y-105490253D01*
X66772107Y-105737569D01*
X66982431Y-105947893D01*
X67229747Y-106113144D01*
X67504549Y-106226971D01*
X67796278Y-106285000D01*
X68093722Y-106285000D01*
X68385451Y-106226971D01*
X68660253Y-106113144D01*
X68907569Y-105947893D01*
X69117893Y-105737569D01*
X69283144Y-105490253D01*
X69396971Y-105215451D01*
X69455000Y-104923722D01*
X69455000Y-104626278D01*
X69433080Y-104516076D01*
X70396100Y-104516076D01*
X70396100Y-105033924D01*
X70497127Y-105541822D01*
X70695299Y-106020251D01*
X70983000Y-106450826D01*
X71349174Y-106817000D01*
X71779749Y-107104701D01*
X72258178Y-107302873D01*
X72766076Y-107403900D01*
X73283924Y-107403900D01*
X73791822Y-107302873D01*
X74270251Y-107104701D01*
X74700826Y-106817000D01*
X75067000Y-106450826D01*
X75354701Y-106020251D01*
X75552873Y-105541822D01*
X75653900Y-105033924D01*
X75653900Y-104516076D01*
X75552873Y-104008178D01*
X75354701Y-103529749D01*
X75067000Y-103099174D01*
X74700826Y-102733000D01*
X74270251Y-102445299D01*
X73791822Y-102247127D01*
X73283924Y-102146100D01*
X72766076Y-102146100D01*
X72258178Y-102247127D01*
X71779749Y-102445299D01*
X71349174Y-102733000D01*
X70983000Y-103099174D01*
X70695299Y-103529749D01*
X70497127Y-104008178D01*
X70396100Y-104516076D01*
X69433080Y-104516076D01*
X69396971Y-104334549D01*
X69283144Y-104059747D01*
X69239882Y-103995000D01*
X69388345Y-103995000D01*
X69728373Y-103927364D01*
X70048673Y-103794692D01*
X70336935Y-103602081D01*
X70582081Y-103356935D01*
X70774692Y-103068673D01*
X70907364Y-102748373D01*
X70975000Y-102408345D01*
X70975000Y-102061655D01*
X70907364Y-101721627D01*
X70774692Y-101401327D01*
X70582081Y-101113065D01*
X70336935Y-100867919D01*
X70048673Y-100675308D01*
X69728373Y-100542636D01*
X69388345Y-100475000D01*
X69041655Y-100475000D01*
X68701627Y-100542636D01*
X68381327Y-100675308D01*
X68093065Y-100867919D01*
X67847919Y-101113065D01*
X67655308Y-101401327D01*
X67522636Y-101721627D01*
X67455000Y-102061655D01*
X67455000Y-102408345D01*
X67522636Y-102748373D01*
X67655308Y-103068673D01*
X67787638Y-103266719D01*
X67504549Y-103323029D01*
X67229747Y-103436856D01*
X66982431Y-103602107D01*
X66772107Y-103812431D01*
X66606856Y-104059747D01*
X66493029Y-104334549D01*
X66435000Y-104626278D01*
X60565000Y-104626278D01*
X60506971Y-104334549D01*
X60393144Y-104059747D01*
X60227893Y-103812431D01*
X60017569Y-103602107D01*
X59770253Y-103436856D01*
X59495451Y-103323029D01*
X59203722Y-103265000D01*
X58906278Y-103265000D01*
X58614549Y-103323029D01*
X58339747Y-103436856D01*
X58092431Y-103602107D01*
X57882107Y-103812431D01*
X57716856Y-104059747D01*
X57603029Y-104334549D01*
X57545000Y-104626278D01*
X57275000Y-104626278D01*
X57275000Y-101285208D01*
X57348673Y-101254692D01*
X57636935Y-101062081D01*
X57882081Y-100816935D01*
X58074692Y-100528673D01*
X58207364Y-100208373D01*
X58275000Y-99868345D01*
X58275000Y-99521655D01*
X58207364Y-99181627D01*
X58074692Y-98861327D01*
X57882081Y-98573065D01*
X57636935Y-98327919D01*
X57348673Y-98135308D01*
X57275000Y-98104792D01*
X57275000Y-90591811D01*
X64141250Y-90591811D01*
X64141250Y-90795689D01*
X64181024Y-90995648D01*
X64259045Y-91184006D01*
X64372313Y-91353524D01*
X64516476Y-91497687D01*
X64685994Y-91610955D01*
X64874352Y-91688976D01*
X65074311Y-91728750D01*
X65278189Y-91728750D01*
X65478148Y-91688976D01*
X65666506Y-91610955D01*
X65836024Y-91497687D01*
X65879961Y-91453750D01*
X67742539Y-91453750D01*
X67786476Y-91497687D01*
X67955994Y-91610955D01*
X68144352Y-91688976D01*
X68344311Y-91728750D01*
X68548189Y-91728750D01*
X68748148Y-91688976D01*
X68936506Y-91610955D01*
X69106024Y-91497687D01*
X69250187Y-91353524D01*
X69363455Y-91184006D01*
X69441476Y-90995648D01*
X69481250Y-90795689D01*
X69481250Y-90591811D01*
X69441476Y-90391852D01*
X69363455Y-90203494D01*
X69250187Y-90033976D01*
X69106024Y-89889813D01*
X68936506Y-89776545D01*
X68748148Y-89698524D01*
X68548189Y-89658750D01*
X68344311Y-89658750D01*
X68144352Y-89698524D01*
X67955994Y-89776545D01*
X67786476Y-89889813D01*
X67742539Y-89933750D01*
X65879961Y-89933750D01*
X65836024Y-89889813D01*
X65666506Y-89776545D01*
X65478148Y-89698524D01*
X65278189Y-89658750D01*
X65074311Y-89658750D01*
X64874352Y-89698524D01*
X64685994Y-89776545D01*
X64516476Y-89889813D01*
X64372313Y-90033976D01*
X64259045Y-90203494D01*
X64181024Y-90391852D01*
X64141250Y-90591811D01*
X57275000Y-90591811D01*
X57275000Y-85576278D01*
X57545000Y-85576278D01*
X57545000Y-85873722D01*
X57603029Y-86165451D01*
X57716856Y-86440253D01*
X57882107Y-86687569D01*
X58092431Y-86897893D01*
X58339747Y-87063144D01*
X58614549Y-87176971D01*
X58906278Y-87235000D01*
X59203722Y-87235000D01*
X59489971Y-87178061D01*
X63425000Y-87178061D01*
X63425000Y-87381939D01*
X63464774Y-87581898D01*
X63542795Y-87770256D01*
X63656063Y-87939774D01*
X63800226Y-88083937D01*
X63969744Y-88197205D01*
X64158102Y-88275226D01*
X64358061Y-88315000D01*
X64561939Y-88315000D01*
X64761898Y-88275226D01*
X64950256Y-88197205D01*
X65119774Y-88083937D01*
X65263937Y-87939774D01*
X65377205Y-87770256D01*
X65455226Y-87581898D01*
X65495000Y-87381939D01*
X65495000Y-87178061D01*
X65455226Y-86978102D01*
X65377205Y-86789744D01*
X65263937Y-86620226D01*
X65220000Y-86576289D01*
X65220000Y-85203639D01*
X65226882Y-85063548D01*
X65244724Y-84943267D01*
X65274270Y-84825311D01*
X65315236Y-84710821D01*
X65367226Y-84600898D01*
X65429740Y-84496598D01*
X65502172Y-84398937D01*
X65583836Y-84308834D01*
X65673933Y-84227174D01*
X65771597Y-84154741D01*
X65875901Y-84092224D01*
X65985821Y-84040236D01*
X66100313Y-83999270D01*
X66218268Y-83969724D01*
X66338548Y-83951882D01*
X66478638Y-83945000D01*
X67624792Y-83945000D01*
X67655308Y-84018673D01*
X67787638Y-84216719D01*
X67504549Y-84273029D01*
X67229747Y-84386856D01*
X66982431Y-84552107D01*
X66772107Y-84762431D01*
X66606856Y-85009747D01*
X66493029Y-85284549D01*
X66435000Y-85576278D01*
X66435000Y-85873722D01*
X66493029Y-86165451D01*
X66606856Y-86440253D01*
X66772107Y-86687569D01*
X66982431Y-86897893D01*
X67229747Y-87063144D01*
X67504549Y-87176971D01*
X67796278Y-87235000D01*
X68093722Y-87235000D01*
X68385451Y-87176971D01*
X68660253Y-87063144D01*
X68907569Y-86897893D01*
X69117893Y-86687569D01*
X69283144Y-86440253D01*
X69396971Y-86165451D01*
X69455000Y-85873722D01*
X69455000Y-85576278D01*
X69396971Y-85284549D01*
X69283144Y-85009747D01*
X69239882Y-84945000D01*
X69388345Y-84945000D01*
X69728373Y-84877364D01*
X70048673Y-84744692D01*
X70336935Y-84552081D01*
X70582081Y-84306935D01*
X70774692Y-84018673D01*
X70907364Y-83698373D01*
X70975000Y-83358345D01*
X70975000Y-83011655D01*
X70907364Y-82671627D01*
X70774692Y-82351327D01*
X70582081Y-82063065D01*
X70336935Y-81817919D01*
X70048673Y-81625308D01*
X69728373Y-81492636D01*
X69388345Y-81425000D01*
X69041655Y-81425000D01*
X68701627Y-81492636D01*
X68381327Y-81625308D01*
X68093065Y-81817919D01*
X67847919Y-82063065D01*
X67655308Y-82351327D01*
X67624792Y-82425000D01*
X66478640Y-82425000D01*
X66459998Y-82424084D01*
X66441352Y-82425000D01*
X66422667Y-82425000D01*
X66404073Y-82426831D01*
X66189388Y-82437378D01*
X66189383Y-82437379D01*
X66189377Y-82437379D01*
X65921375Y-82477133D01*
X65844579Y-82496370D01*
X65727217Y-82525767D01*
X65658546Y-82542968D01*
X65509075Y-82596450D01*
X65509074Y-82596450D01*
X65403439Y-82634247D01*
X65158515Y-82750088D01*
X65158511Y-82750090D01*
X64926121Y-82889379D01*
X64926117Y-82889382D01*
X64926112Y-82889385D01*
X64728408Y-83036014D01*
X64708491Y-83050785D01*
X64507740Y-83232734D01*
X64481955Y-83261184D01*
X64325785Y-83433491D01*
X64293333Y-83477247D01*
X64206362Y-83594513D01*
X64164379Y-83651120D01*
X64029545Y-83876079D01*
X64025088Y-83883515D01*
X63909247Y-84128439D01*
X63886101Y-84193127D01*
X63817968Y-84383546D01*
X63817967Y-84383551D01*
X63779394Y-84537544D01*
X63752133Y-84646375D01*
X63712379Y-84914379D01*
X63712378Y-84914389D01*
X63701831Y-85129074D01*
X63700000Y-85147668D01*
X63700000Y-85166353D01*
X63699084Y-85184999D01*
X63700000Y-85203642D01*
X63700001Y-86576288D01*
X63656063Y-86620226D01*
X63542795Y-86789744D01*
X63464774Y-86978102D01*
X63425000Y-87178061D01*
X59489971Y-87178061D01*
X59495451Y-87176971D01*
X59770253Y-87063144D01*
X60017569Y-86897893D01*
X60227893Y-86687569D01*
X60393144Y-86440253D01*
X60506971Y-86165451D01*
X60565000Y-85873722D01*
X60565000Y-85576278D01*
X60506971Y-85284549D01*
X60393144Y-85009747D01*
X60227893Y-84762431D01*
X60017569Y-84552107D01*
X59770253Y-84386856D01*
X59495451Y-84273029D01*
X59203722Y-84215000D01*
X58906278Y-84215000D01*
X58614549Y-84273029D01*
X58339747Y-84386856D01*
X58092431Y-84552107D01*
X57882107Y-84762431D01*
X57716856Y-85009747D01*
X57603029Y-85284549D01*
X57545000Y-85576278D01*
X57275000Y-85576278D01*
X57275000Y-82235208D01*
X57348673Y-82204692D01*
X57636935Y-82012081D01*
X57882081Y-81766935D01*
X58074692Y-81478673D01*
X58207364Y-81158373D01*
X58275000Y-80818345D01*
X58275000Y-80471655D01*
X58207364Y-80131627D01*
X58074692Y-79811327D01*
X57882081Y-79523065D01*
X57636935Y-79277919D01*
X57348673Y-79085308D01*
X57275000Y-79054792D01*
X57275000Y-72328061D01*
X63815000Y-72328061D01*
X63815000Y-72531939D01*
X63854774Y-72731898D01*
X63932795Y-72920256D01*
X64046063Y-73089774D01*
X64190226Y-73233937D01*
X64359744Y-73347205D01*
X64548102Y-73425226D01*
X64748061Y-73465000D01*
X64951939Y-73465000D01*
X65151898Y-73425226D01*
X65340256Y-73347205D01*
X65509774Y-73233937D01*
X65553711Y-73190000D01*
X68706289Y-73190000D01*
X68750226Y-73233937D01*
X68919744Y-73347205D01*
X69108102Y-73425226D01*
X69308061Y-73465000D01*
X69511939Y-73465000D01*
X69711898Y-73425226D01*
X69900256Y-73347205D01*
X70069774Y-73233937D01*
X70213937Y-73089774D01*
X70327205Y-72920256D01*
X70405226Y-72731898D01*
X70445000Y-72531939D01*
X70445000Y-72328061D01*
X70405226Y-72128102D01*
X70327205Y-71939744D01*
X70213937Y-71770226D01*
X70069774Y-71626063D01*
X69900256Y-71512795D01*
X69711898Y-71434774D01*
X69511939Y-71395000D01*
X69308061Y-71395000D01*
X69108102Y-71434774D01*
X68919744Y-71512795D01*
X68750226Y-71626063D01*
X68706289Y-71670000D01*
X65553711Y-71670000D01*
X65509774Y-71626063D01*
X65340256Y-71512795D01*
X65151898Y-71434774D01*
X64951939Y-71395000D01*
X64748061Y-71395000D01*
X64548102Y-71434774D01*
X64359744Y-71512795D01*
X64190226Y-71626063D01*
X64046063Y-71770226D01*
X63932795Y-71939744D01*
X63854774Y-72128102D01*
X63815000Y-72328061D01*
X57275000Y-72328061D01*
X57275000Y-68858061D01*
X63435000Y-68858061D01*
X63435000Y-69061939D01*
X63474774Y-69261898D01*
X63552795Y-69450256D01*
X63666063Y-69619774D01*
X63810226Y-69763937D01*
X63979744Y-69877205D01*
X64168102Y-69955226D01*
X64368061Y-69995000D01*
X64571939Y-69995000D01*
X64771898Y-69955226D01*
X64960256Y-69877205D01*
X65129774Y-69763937D01*
X65273937Y-69619774D01*
X65387205Y-69450256D01*
X65465226Y-69261898D01*
X65505000Y-69061939D01*
X65505000Y-68858061D01*
X65465226Y-68658102D01*
X65387205Y-68469744D01*
X65273937Y-68300226D01*
X65230000Y-68256289D01*
X65230000Y-66153639D01*
X65236882Y-66013548D01*
X65254724Y-65893267D01*
X65284270Y-65775311D01*
X65325236Y-65660821D01*
X65377226Y-65550898D01*
X65439740Y-65446598D01*
X65512172Y-65348937D01*
X65593836Y-65258834D01*
X65683933Y-65177174D01*
X65781597Y-65104741D01*
X65885901Y-65042224D01*
X65995821Y-64990236D01*
X66110313Y-64949270D01*
X66228268Y-64919724D01*
X66348548Y-64901882D01*
X66488638Y-64895000D01*
X67624792Y-64895000D01*
X67655308Y-64968673D01*
X67787638Y-65166719D01*
X67504549Y-65223029D01*
X67229747Y-65336856D01*
X66982431Y-65502107D01*
X66772107Y-65712431D01*
X66606856Y-65959747D01*
X66493029Y-66234549D01*
X66435000Y-66526278D01*
X66435000Y-66823722D01*
X66493029Y-67115451D01*
X66606856Y-67390253D01*
X66772107Y-67637569D01*
X66982431Y-67847893D01*
X67229747Y-68013144D01*
X67504549Y-68126971D01*
X67796278Y-68185000D01*
X68093722Y-68185000D01*
X68385451Y-68126971D01*
X68660253Y-68013144D01*
X68907569Y-67847893D01*
X69117893Y-67637569D01*
X69283144Y-67390253D01*
X69396971Y-67115451D01*
X69455000Y-66823722D01*
X69455000Y-66526278D01*
X69396971Y-66234549D01*
X69283144Y-65959747D01*
X69239882Y-65895000D01*
X69388345Y-65895000D01*
X69728373Y-65827364D01*
X70048673Y-65694692D01*
X70336935Y-65502081D01*
X70582081Y-65256935D01*
X70774692Y-64968673D01*
X70907364Y-64648373D01*
X70975000Y-64308345D01*
X70975000Y-63961655D01*
X70907364Y-63621627D01*
X70774692Y-63301327D01*
X70582081Y-63013065D01*
X70336935Y-62767919D01*
X70048673Y-62575308D01*
X69728373Y-62442636D01*
X69388345Y-62375000D01*
X69041655Y-62375000D01*
X68701627Y-62442636D01*
X68381327Y-62575308D01*
X68093065Y-62767919D01*
X67847919Y-63013065D01*
X67655308Y-63301327D01*
X67624792Y-63375000D01*
X66488640Y-63375000D01*
X66469998Y-63374084D01*
X66451352Y-63375000D01*
X66432667Y-63375000D01*
X66414073Y-63376831D01*
X66199388Y-63387378D01*
X66199383Y-63387379D01*
X66199377Y-63387379D01*
X65931375Y-63427133D01*
X65854579Y-63446370D01*
X65737217Y-63475767D01*
X65668546Y-63492968D01*
X65519075Y-63546450D01*
X65519074Y-63546450D01*
X65413439Y-63584247D01*
X65168515Y-63700088D01*
X65168511Y-63700090D01*
X64936121Y-63839379D01*
X64936117Y-63839382D01*
X64936112Y-63839385D01*
X64738408Y-63986014D01*
X64718491Y-64000785D01*
X64517740Y-64182734D01*
X64491955Y-64211184D01*
X64335785Y-64383491D01*
X64303333Y-64427247D01*
X64216362Y-64544513D01*
X64174379Y-64601120D01*
X64039545Y-64826079D01*
X64035088Y-64833515D01*
X63919247Y-65078439D01*
X63896101Y-65143127D01*
X63827968Y-65333546D01*
X63827967Y-65333551D01*
X63789394Y-65487544D01*
X63762133Y-65596375D01*
X63722379Y-65864379D01*
X63722378Y-65864389D01*
X63711831Y-66079074D01*
X63710000Y-66097668D01*
X63710000Y-66116353D01*
X63709084Y-66134999D01*
X63710000Y-66153642D01*
X63710001Y-68256288D01*
X63666063Y-68300226D01*
X63552795Y-68469744D01*
X63474774Y-68658102D01*
X63435000Y-68858061D01*
X57275000Y-68858061D01*
X57275000Y-66526278D01*
X57545000Y-66526278D01*
X57545000Y-66823722D01*
X57603029Y-67115451D01*
X57716856Y-67390253D01*
X57882107Y-67637569D01*
X58092431Y-67847893D01*
X58339747Y-68013144D01*
X58614549Y-68126971D01*
X58906278Y-68185000D01*
X59203722Y-68185000D01*
X59495451Y-68126971D01*
X59770253Y-68013144D01*
X60017569Y-67847893D01*
X60227893Y-67637569D01*
X60393144Y-67390253D01*
X60506971Y-67115451D01*
X60565000Y-66823722D01*
X60565000Y-66526278D01*
X60506971Y-66234549D01*
X60393144Y-65959747D01*
X60227893Y-65712431D01*
X60017569Y-65502107D01*
X59770253Y-65336856D01*
X59495451Y-65223029D01*
X59203722Y-65165000D01*
X58906278Y-65165000D01*
X58614549Y-65223029D01*
X58339747Y-65336856D01*
X58092431Y-65502107D01*
X57882107Y-65712431D01*
X57716856Y-65959747D01*
X57603029Y-66234549D01*
X57545000Y-66526278D01*
X57275000Y-66526278D01*
X57275000Y-63185208D01*
X57348673Y-63154692D01*
X57636935Y-62962081D01*
X57882081Y-62716935D01*
X58074692Y-62428673D01*
X58207364Y-62108373D01*
X58275000Y-61768345D01*
X58275000Y-61421655D01*
X58207364Y-61081627D01*
X58074692Y-60761327D01*
X57882081Y-60473065D01*
X57636935Y-60227919D01*
X57348673Y-60035308D01*
X57275000Y-60004792D01*
X57275000Y-47476278D01*
X57545000Y-47476278D01*
X57545000Y-47773722D01*
X57603029Y-48065451D01*
X57716856Y-48340253D01*
X57882107Y-48587569D01*
X58092431Y-48797893D01*
X58339747Y-48963144D01*
X58614549Y-49076971D01*
X58906278Y-49135000D01*
X59203722Y-49135000D01*
X59495451Y-49076971D01*
X59770253Y-48963144D01*
X60017569Y-48797893D01*
X60227893Y-48587569D01*
X60393144Y-48340253D01*
X60506971Y-48065451D01*
X60565000Y-47773722D01*
X60565000Y-47476278D01*
X66435000Y-47476278D01*
X66435000Y-47773722D01*
X66493029Y-48065451D01*
X66606856Y-48340253D01*
X66772107Y-48587569D01*
X66982431Y-48797893D01*
X67229747Y-48963144D01*
X67504549Y-49076971D01*
X67796278Y-49135000D01*
X68093722Y-49135000D01*
X68385451Y-49076971D01*
X68660253Y-48963144D01*
X68907569Y-48797893D01*
X69117893Y-48587569D01*
X69283144Y-48340253D01*
X69396971Y-48065451D01*
X69455000Y-47773722D01*
X69455000Y-47476278D01*
X69433080Y-47366076D01*
X70396100Y-47366076D01*
X70396100Y-47883924D01*
X70497127Y-48391822D01*
X70695299Y-48870251D01*
X70983000Y-49300826D01*
X71349174Y-49667000D01*
X71779749Y-49954701D01*
X72258178Y-50152873D01*
X72766076Y-50253900D01*
X73283924Y-50253900D01*
X73791822Y-50152873D01*
X74270251Y-49954701D01*
X74700826Y-49667000D01*
X74805000Y-49562826D01*
X74805001Y-60004791D01*
X74731327Y-60035308D01*
X74443065Y-60227919D01*
X74197919Y-60473065D01*
X74005308Y-60761327D01*
X73872636Y-61081627D01*
X73805000Y-61421655D01*
X73805000Y-61768345D01*
X73872636Y-62108373D01*
X74005308Y-62428673D01*
X74197919Y-62716935D01*
X74443065Y-62962081D01*
X74731327Y-63154692D01*
X74805000Y-63185208D01*
X74805000Y-64737174D01*
X74700826Y-64633000D01*
X74270251Y-64345299D01*
X73791822Y-64147127D01*
X73283924Y-64046100D01*
X72766076Y-64046100D01*
X72258178Y-64147127D01*
X71779749Y-64345299D01*
X71349174Y-64633000D01*
X70983000Y-64999174D01*
X70695299Y-65429749D01*
X70497127Y-65908178D01*
X70396100Y-66416076D01*
X70396100Y-66933924D01*
X70497127Y-67441822D01*
X70695299Y-67920251D01*
X70983000Y-68350826D01*
X71349174Y-68717000D01*
X71779749Y-69004701D01*
X72258178Y-69202873D01*
X72766076Y-69303900D01*
X73283924Y-69303900D01*
X73791822Y-69202873D01*
X74270251Y-69004701D01*
X74700826Y-68717000D01*
X74805000Y-68612826D01*
X74805001Y-79054791D01*
X74731327Y-79085308D01*
X74443065Y-79277919D01*
X74197919Y-79523065D01*
X74005308Y-79811327D01*
X73872636Y-80131627D01*
X73805000Y-80471655D01*
X73805000Y-80818345D01*
X73872636Y-81158373D01*
X74005308Y-81478673D01*
X74197919Y-81766935D01*
X74443065Y-82012081D01*
X74731327Y-82204692D01*
X74805000Y-82235208D01*
X74805000Y-83787174D01*
X74700826Y-83683000D01*
X74270251Y-83395299D01*
X73791822Y-83197127D01*
X73283924Y-83096100D01*
X72766076Y-83096100D01*
X72258178Y-83197127D01*
X71779749Y-83395299D01*
X71349174Y-83683000D01*
X70983000Y-84049174D01*
X70695299Y-84479749D01*
X70497127Y-84958178D01*
X70396100Y-85466076D01*
X70396100Y-85983924D01*
X70497127Y-86491822D01*
X70695299Y-86970251D01*
X70983000Y-87400826D01*
X71349174Y-87767000D01*
X71779749Y-88054701D01*
X72258178Y-88252873D01*
X72766076Y-88353900D01*
X73283924Y-88353900D01*
X73791822Y-88252873D01*
X74270251Y-88054701D01*
X74700826Y-87767000D01*
X74805000Y-87662826D01*
X74805001Y-98104791D01*
X74731327Y-98135308D01*
X74443065Y-98327919D01*
X74197919Y-98573065D01*
X74005308Y-98861327D01*
X73872636Y-99181627D01*
X73805000Y-99521655D01*
X73805000Y-99868345D01*
X73872636Y-100208373D01*
X74005308Y-100528673D01*
X74197919Y-100816935D01*
X74443065Y-101062081D01*
X74731327Y-101254692D01*
X75051627Y-101387364D01*
X75391655Y-101455000D01*
X75738345Y-101455000D01*
X76078373Y-101387364D01*
X76152046Y-101356848D01*
X76178996Y-101383798D01*
X76179002Y-101383803D01*
X78060199Y-103265000D01*
X77956278Y-103265000D01*
X77664549Y-103323029D01*
X77389747Y-103436856D01*
X77142431Y-103602107D01*
X76932107Y-103812431D01*
X76766856Y-104059747D01*
X76653029Y-104334549D01*
X76595000Y-104626278D01*
X76595000Y-104923722D01*
X76653029Y-105215451D01*
X76766856Y-105490253D01*
X76932107Y-105737569D01*
X77142431Y-105947893D01*
X77389747Y-106113144D01*
X77664549Y-106226971D01*
X77956278Y-106285000D01*
X78253722Y-106285000D01*
X78545451Y-106226971D01*
X78820253Y-106113144D01*
X79067569Y-105947893D01*
X79277893Y-105737569D01*
X79443144Y-105490253D01*
X79556971Y-105215451D01*
X79615000Y-104923722D01*
X79615000Y-104819801D01*
X83778949Y-108983750D01*
X81077461Y-108983750D01*
X81029774Y-108936063D01*
X80860256Y-108822795D01*
X80671898Y-108744774D01*
X80471939Y-108705000D01*
X80268061Y-108705000D01*
X80068102Y-108744774D01*
X79879744Y-108822795D01*
X79710226Y-108936063D01*
X79566063Y-109080226D01*
X79452795Y-109249744D01*
X79374774Y-109438102D01*
X79335000Y-109638061D01*
X79335000Y-109841939D01*
X79374774Y-110041898D01*
X79452795Y-110230256D01*
X79566063Y-110399774D01*
X79710226Y-110543937D01*
X79879744Y-110657205D01*
X80068102Y-110735226D01*
X80268061Y-110775000D01*
X80471939Y-110775000D01*
X80671898Y-110735226D01*
X80860256Y-110657205D01*
X81029774Y-110543937D01*
X81069961Y-110503750D01*
X83862539Y-110503750D01*
X83906476Y-110547687D01*
X84075994Y-110660955D01*
X84264352Y-110738976D01*
X84464311Y-110778750D01*
X84668189Y-110778750D01*
X84868148Y-110738976D01*
X85056506Y-110660955D01*
X85226024Y-110547687D01*
X85284455Y-110489256D01*
X92953152Y-118157954D01*
X92922636Y-118231627D01*
X92855000Y-118571655D01*
X92855000Y-118918345D01*
X92922636Y-119258373D01*
X93055308Y-119578673D01*
X93247919Y-119866935D01*
X93493065Y-120112081D01*
X93781327Y-120304692D01*
X94101627Y-120437364D01*
X94441655Y-120505000D01*
X94788345Y-120505000D01*
X95128373Y-120437364D01*
X95448673Y-120304692D01*
X95736935Y-120112081D01*
X95982081Y-119866935D01*
X96174692Y-119578673D01*
X96307364Y-119258373D01*
X96375000Y-118918345D01*
X96375000Y-118571655D01*
X96307364Y-118231627D01*
X96185184Y-117936655D01*
X106825000Y-117936655D01*
X106825000Y-118283345D01*
X106892636Y-118623373D01*
X107025308Y-118943673D01*
X107217919Y-119231935D01*
X107463065Y-119477081D01*
X107751327Y-119669692D01*
X108071627Y-119802364D01*
X108411655Y-119870000D01*
X108758345Y-119870000D01*
X109098373Y-119802364D01*
X109418673Y-119669692D01*
X109616719Y-119537362D01*
X109673029Y-119820451D01*
X109786856Y-120095253D01*
X109952107Y-120342569D01*
X110162431Y-120552893D01*
X110409747Y-120718144D01*
X110684549Y-120831971D01*
X110976278Y-120890000D01*
X111273722Y-120890000D01*
X111565451Y-120831971D01*
X111840253Y-120718144D01*
X112087569Y-120552893D01*
X112297893Y-120342569D01*
X112463144Y-120095253D01*
X112576971Y-119820451D01*
X112635000Y-119528722D01*
X112635000Y-119231278D01*
X112576971Y-118939549D01*
X112463144Y-118664747D01*
X112297893Y-118417431D01*
X112087569Y-118207107D01*
X111840253Y-118041856D01*
X111565451Y-117928029D01*
X111273722Y-117870000D01*
X110976278Y-117870000D01*
X110684549Y-117928029D01*
X110409747Y-118041856D01*
X110345000Y-118085118D01*
X110345000Y-117936655D01*
X110277364Y-117596627D01*
X110144692Y-117276327D01*
X109952081Y-116988065D01*
X109706935Y-116742919D01*
X109418673Y-116550308D01*
X109098373Y-116417636D01*
X108758345Y-116350000D01*
X108411655Y-116350000D01*
X108071627Y-116417636D01*
X107751327Y-116550308D01*
X107463065Y-116742919D01*
X107217919Y-116988065D01*
X107025308Y-117276327D01*
X106892636Y-117596627D01*
X106825000Y-117936655D01*
X96185184Y-117936655D01*
X96174692Y-117911327D01*
X95982081Y-117623065D01*
X95736935Y-117377919D01*
X95448673Y-117185308D01*
X95128373Y-117052636D01*
X94788345Y-116985000D01*
X94441655Y-116985000D01*
X94101627Y-117052636D01*
X94027954Y-117083152D01*
X90985878Y-114041076D01*
X108496100Y-114041076D01*
X108496100Y-114558924D01*
X108597127Y-115066822D01*
X108795299Y-115545251D01*
X109083000Y-115975826D01*
X109449174Y-116342000D01*
X109879749Y-116629701D01*
X110358178Y-116827873D01*
X110866076Y-116928900D01*
X111383924Y-116928900D01*
X111891822Y-116827873D01*
X112370251Y-116629701D01*
X112800826Y-116342000D01*
X113167000Y-115975826D01*
X113454701Y-115545251D01*
X113652873Y-115066822D01*
X113753900Y-114558924D01*
X113753900Y-114041076D01*
X113652873Y-113533178D01*
X113454701Y-113054749D01*
X113167000Y-112624174D01*
X112800826Y-112258000D01*
X112370251Y-111970299D01*
X111891822Y-111772127D01*
X111383924Y-111671100D01*
X110866076Y-111671100D01*
X110358178Y-111772127D01*
X109879749Y-111970299D01*
X109449174Y-112258000D01*
X109083000Y-112624174D01*
X108795299Y-113054749D01*
X108597127Y-113533178D01*
X108496100Y-114041076D01*
X90985878Y-114041076D01*
X81571080Y-104626278D01*
X85485000Y-104626278D01*
X85485000Y-104923722D01*
X85543029Y-105215451D01*
X85656856Y-105490253D01*
X85822107Y-105737569D01*
X86032431Y-105947893D01*
X86279747Y-106113144D01*
X86554549Y-106226971D01*
X86846278Y-106285000D01*
X87143722Y-106285000D01*
X87435451Y-106226971D01*
X87710253Y-106113144D01*
X87957569Y-105947893D01*
X88167893Y-105737569D01*
X88333144Y-105490253D01*
X88446971Y-105215451D01*
X88505000Y-104923722D01*
X88505000Y-104626278D01*
X88483080Y-104516076D01*
X89446100Y-104516076D01*
X89446100Y-105033924D01*
X89547127Y-105541822D01*
X89745299Y-106020251D01*
X90033000Y-106450826D01*
X90399174Y-106817000D01*
X90829749Y-107104701D01*
X91308178Y-107302873D01*
X91816076Y-107403900D01*
X92333924Y-107403900D01*
X92841822Y-107302873D01*
X93320251Y-107104701D01*
X93750826Y-106817000D01*
X94117000Y-106450826D01*
X94404701Y-106020251D01*
X94602873Y-105541822D01*
X94703900Y-105033924D01*
X94703900Y-104516076D01*
X94602873Y-104008178D01*
X94404701Y-103529749D01*
X94117000Y-103099174D01*
X93750826Y-102733000D01*
X93320251Y-102445299D01*
X92841822Y-102247127D01*
X92333924Y-102146100D01*
X91816076Y-102146100D01*
X91308178Y-102247127D01*
X90829749Y-102445299D01*
X90399174Y-102733000D01*
X90033000Y-103099174D01*
X89745299Y-103529749D01*
X89547127Y-104008178D01*
X89446100Y-104516076D01*
X88483080Y-104516076D01*
X88446971Y-104334549D01*
X88333144Y-104059747D01*
X88289882Y-103995000D01*
X88438345Y-103995000D01*
X88778373Y-103927364D01*
X89098673Y-103794692D01*
X89386935Y-103602081D01*
X89632081Y-103356935D01*
X89824692Y-103068673D01*
X89957364Y-102748373D01*
X90025000Y-102408345D01*
X90025000Y-102061655D01*
X89957364Y-101721627D01*
X89824692Y-101401327D01*
X89632081Y-101113065D01*
X89386935Y-100867919D01*
X89098673Y-100675308D01*
X88778373Y-100542636D01*
X88438345Y-100475000D01*
X88091655Y-100475000D01*
X87751627Y-100542636D01*
X87431327Y-100675308D01*
X87143065Y-100867919D01*
X86897919Y-101113065D01*
X86705308Y-101401327D01*
X86572636Y-101721627D01*
X86505000Y-102061655D01*
X86505000Y-102408345D01*
X86572636Y-102748373D01*
X86705308Y-103068673D01*
X86837638Y-103266719D01*
X86554549Y-103323029D01*
X86279747Y-103436856D01*
X86032431Y-103602107D01*
X85822107Y-103812431D01*
X85656856Y-104059747D01*
X85543029Y-104334549D01*
X85485000Y-104626278D01*
X81571080Y-104626278D01*
X77253803Y-100309002D01*
X77253798Y-100308996D01*
X77226848Y-100282046D01*
X77257364Y-100208373D01*
X77325000Y-99868345D01*
X77325000Y-99521655D01*
X77257364Y-99181627D01*
X77124692Y-98861327D01*
X76932081Y-98573065D01*
X76686935Y-98327919D01*
X76398673Y-98135308D01*
X76325000Y-98104792D01*
X76325000Y-85576278D01*
X76595000Y-85576278D01*
X76595000Y-85873722D01*
X76653029Y-86165451D01*
X76766856Y-86440253D01*
X76932107Y-86687569D01*
X77142431Y-86897893D01*
X77389747Y-87063144D01*
X77664549Y-87176971D01*
X77956278Y-87235000D01*
X78253722Y-87235000D01*
X78545451Y-87176971D01*
X78820253Y-87063144D01*
X79067569Y-86897893D01*
X79277893Y-86687569D01*
X79443144Y-86440253D01*
X79556971Y-86165451D01*
X79615000Y-85873722D01*
X79615000Y-85576278D01*
X85485000Y-85576278D01*
X85485000Y-85873722D01*
X85543029Y-86165451D01*
X85656856Y-86440253D01*
X85822107Y-86687569D01*
X86032431Y-86897893D01*
X86279747Y-87063144D01*
X86554549Y-87176971D01*
X86846278Y-87235000D01*
X87143722Y-87235000D01*
X87435451Y-87176971D01*
X87710253Y-87063144D01*
X87957569Y-86897893D01*
X88167893Y-86687569D01*
X88333144Y-86440253D01*
X88446971Y-86165451D01*
X88505000Y-85873722D01*
X88505000Y-85576278D01*
X88446971Y-85284549D01*
X88333144Y-85009747D01*
X88289882Y-84945000D01*
X88438345Y-84945000D01*
X88778373Y-84877364D01*
X89098673Y-84744692D01*
X89386935Y-84552081D01*
X89632081Y-84306935D01*
X89824692Y-84018673D01*
X89957364Y-83698373D01*
X90025000Y-83358345D01*
X90025000Y-83011655D01*
X89957364Y-82671627D01*
X89824692Y-82351327D01*
X89632081Y-82063065D01*
X89386935Y-81817919D01*
X89098673Y-81625308D01*
X88778373Y-81492636D01*
X88438345Y-81425000D01*
X88091655Y-81425000D01*
X87751627Y-81492636D01*
X87431327Y-81625308D01*
X87143065Y-81817919D01*
X86897919Y-82063065D01*
X86705308Y-82351327D01*
X86572636Y-82671627D01*
X86505000Y-83011655D01*
X86505000Y-83358345D01*
X86572636Y-83698373D01*
X86705308Y-84018673D01*
X86837638Y-84216719D01*
X86554549Y-84273029D01*
X86279747Y-84386856D01*
X86032431Y-84552107D01*
X85822107Y-84762431D01*
X85656856Y-85009747D01*
X85543029Y-85284549D01*
X85485000Y-85576278D01*
X79615000Y-85576278D01*
X79556971Y-85284549D01*
X79443144Y-85009747D01*
X79277893Y-84762431D01*
X79067569Y-84552107D01*
X78820253Y-84386856D01*
X78545451Y-84273029D01*
X78253722Y-84215000D01*
X77956278Y-84215000D01*
X77664549Y-84273029D01*
X77389747Y-84386856D01*
X77142431Y-84552107D01*
X76932107Y-84762431D01*
X76766856Y-85009747D01*
X76653029Y-85284549D01*
X76595000Y-85576278D01*
X76325000Y-85576278D01*
X76325000Y-82235208D01*
X76398673Y-82204692D01*
X76686935Y-82012081D01*
X76932081Y-81766935D01*
X77124692Y-81478673D01*
X77257364Y-81158373D01*
X77325000Y-80818345D01*
X77325000Y-80471655D01*
X77257364Y-80131627D01*
X77124692Y-79811327D01*
X76932081Y-79523065D01*
X76686935Y-79277919D01*
X76398673Y-79085308D01*
X76325000Y-79054792D01*
X76325000Y-72328061D01*
X77145000Y-72328061D01*
X77145000Y-72531939D01*
X77184774Y-72731898D01*
X77262795Y-72920256D01*
X77376063Y-73089774D01*
X77520226Y-73233937D01*
X77689744Y-73347205D01*
X77878102Y-73425226D01*
X78078061Y-73465000D01*
X78281939Y-73465000D01*
X78481898Y-73425226D01*
X78670256Y-73347205D01*
X78839774Y-73233937D01*
X78883711Y-73190000D01*
X84376289Y-73190000D01*
X84420226Y-73233937D01*
X84589744Y-73347205D01*
X84778102Y-73425226D01*
X84978061Y-73465000D01*
X85181939Y-73465000D01*
X85381898Y-73425226D01*
X85570256Y-73347205D01*
X85739774Y-73233937D01*
X85883937Y-73089774D01*
X85997205Y-72920256D01*
X86075226Y-72731898D01*
X86115000Y-72531939D01*
X86115000Y-72328061D01*
X86075226Y-72128102D01*
X85997205Y-71939744D01*
X85883937Y-71770226D01*
X85739774Y-71626063D01*
X85570256Y-71512795D01*
X85381898Y-71434774D01*
X85181939Y-71395000D01*
X84978061Y-71395000D01*
X84778102Y-71434774D01*
X84589744Y-71512795D01*
X84420226Y-71626063D01*
X84376289Y-71670000D01*
X78883711Y-71670000D01*
X78839774Y-71626063D01*
X78670256Y-71512795D01*
X78481898Y-71434774D01*
X78281939Y-71395000D01*
X78078061Y-71395000D01*
X77878102Y-71434774D01*
X77689744Y-71512795D01*
X77520226Y-71626063D01*
X77376063Y-71770226D01*
X77262795Y-71939744D01*
X77184774Y-72128102D01*
X77145000Y-72328061D01*
X76325000Y-72328061D01*
X76325000Y-66526278D01*
X76595000Y-66526278D01*
X76595000Y-66823722D01*
X76653029Y-67115451D01*
X76766856Y-67390253D01*
X76932107Y-67637569D01*
X77142431Y-67847893D01*
X77389747Y-68013144D01*
X77664549Y-68126971D01*
X77956278Y-68185000D01*
X78253722Y-68185000D01*
X78545451Y-68126971D01*
X78820253Y-68013144D01*
X79067569Y-67847893D01*
X79277893Y-67637569D01*
X79443144Y-67390253D01*
X79556971Y-67115451D01*
X79615000Y-66823722D01*
X79615000Y-66526278D01*
X85485000Y-66526278D01*
X85485000Y-66823722D01*
X85543029Y-67115451D01*
X85656856Y-67390253D01*
X85822107Y-67637569D01*
X86032431Y-67847893D01*
X86279747Y-68013144D01*
X86554549Y-68126971D01*
X86846278Y-68185000D01*
X87143722Y-68185000D01*
X87435451Y-68126971D01*
X87710253Y-68013144D01*
X87957569Y-67847893D01*
X88167893Y-67637569D01*
X88333144Y-67390253D01*
X88446971Y-67115451D01*
X88505000Y-66823722D01*
X88505000Y-66526278D01*
X88446971Y-66234549D01*
X88333144Y-65959747D01*
X88289882Y-65895000D01*
X88438345Y-65895000D01*
X88778373Y-65827364D01*
X89098673Y-65694692D01*
X89386935Y-65502081D01*
X89632081Y-65256935D01*
X89824692Y-64968673D01*
X89957364Y-64648373D01*
X90025000Y-64308345D01*
X90025000Y-63961655D01*
X89957364Y-63621627D01*
X89824692Y-63301327D01*
X89632081Y-63013065D01*
X89386935Y-62767919D01*
X89098673Y-62575308D01*
X88778373Y-62442636D01*
X88438345Y-62375000D01*
X88091655Y-62375000D01*
X87751627Y-62442636D01*
X87431327Y-62575308D01*
X87143065Y-62767919D01*
X86897919Y-63013065D01*
X86705308Y-63301327D01*
X86572636Y-63621627D01*
X86505000Y-63961655D01*
X86505000Y-64308345D01*
X86572636Y-64648373D01*
X86705308Y-64968673D01*
X86837638Y-65166719D01*
X86554549Y-65223029D01*
X86279747Y-65336856D01*
X86032431Y-65502107D01*
X85822107Y-65712431D01*
X85656856Y-65959747D01*
X85543029Y-66234549D01*
X85485000Y-66526278D01*
X79615000Y-66526278D01*
X79556971Y-66234549D01*
X79443144Y-65959747D01*
X79277893Y-65712431D01*
X79067569Y-65502107D01*
X78820253Y-65336856D01*
X78545451Y-65223029D01*
X78253722Y-65165000D01*
X77956278Y-65165000D01*
X77664549Y-65223029D01*
X77389747Y-65336856D01*
X77142431Y-65502107D01*
X76932107Y-65712431D01*
X76766856Y-65959747D01*
X76653029Y-66234549D01*
X76595000Y-66526278D01*
X76325000Y-66526278D01*
X76325000Y-63185208D01*
X76398673Y-63154692D01*
X76686935Y-62962081D01*
X76932081Y-62716935D01*
X77124692Y-62428673D01*
X77257364Y-62108373D01*
X77325000Y-61768345D01*
X77325000Y-61421655D01*
X77257364Y-61081627D01*
X77124692Y-60761327D01*
X76932081Y-60473065D01*
X76686935Y-60227919D01*
X76398673Y-60035308D01*
X76325000Y-60004792D01*
X76325000Y-52568061D01*
X79915000Y-52568061D01*
X79915000Y-52771939D01*
X79954774Y-52971898D01*
X80032795Y-53160256D01*
X80146063Y-53329774D01*
X80290226Y-53473937D01*
X80459744Y-53587205D01*
X80648102Y-53665226D01*
X80848061Y-53705000D01*
X81051939Y-53705000D01*
X81251898Y-53665226D01*
X81440256Y-53587205D01*
X81609774Y-53473937D01*
X81653711Y-53430000D01*
X92666289Y-53430000D01*
X92780226Y-53543937D01*
X92949744Y-53657205D01*
X93138102Y-53735226D01*
X93338061Y-53775000D01*
X93541939Y-53775000D01*
X93741898Y-53735226D01*
X93855001Y-53688377D01*
X93855001Y-60004791D01*
X93781327Y-60035308D01*
X93493065Y-60227919D01*
X93247919Y-60473065D01*
X93055308Y-60761327D01*
X92922636Y-61081627D01*
X92855000Y-61421655D01*
X92855000Y-61768345D01*
X92922636Y-62108373D01*
X93055308Y-62428673D01*
X93247919Y-62716935D01*
X93493065Y-62962081D01*
X93781327Y-63154692D01*
X93855000Y-63185208D01*
X93855000Y-64737174D01*
X93750826Y-64633000D01*
X93320251Y-64345299D01*
X92841822Y-64147127D01*
X92333924Y-64046100D01*
X91816076Y-64046100D01*
X91308178Y-64147127D01*
X90829749Y-64345299D01*
X90399174Y-64633000D01*
X90033000Y-64999174D01*
X89745299Y-65429749D01*
X89547127Y-65908178D01*
X89446100Y-66416076D01*
X89446100Y-66933924D01*
X89547127Y-67441822D01*
X89745299Y-67920251D01*
X90033000Y-68350826D01*
X90399174Y-68717000D01*
X90829749Y-69004701D01*
X91308178Y-69202873D01*
X91816076Y-69303900D01*
X92333924Y-69303900D01*
X92841822Y-69202873D01*
X93320251Y-69004701D01*
X93750826Y-68717000D01*
X93855000Y-68612826D01*
X93855001Y-79054791D01*
X93781327Y-79085308D01*
X93493065Y-79277919D01*
X93247919Y-79523065D01*
X93055308Y-79811327D01*
X92922636Y-80131627D01*
X92855000Y-80471655D01*
X92855000Y-80818345D01*
X92922636Y-81158373D01*
X93055308Y-81478673D01*
X93247919Y-81766935D01*
X93493065Y-82012081D01*
X93781327Y-82204692D01*
X93855000Y-82235208D01*
X93855000Y-83787174D01*
X93750826Y-83683000D01*
X93320251Y-83395299D01*
X92841822Y-83197127D01*
X92333924Y-83096100D01*
X91816076Y-83096100D01*
X91308178Y-83197127D01*
X90829749Y-83395299D01*
X90399174Y-83683000D01*
X90033000Y-84049174D01*
X89745299Y-84479749D01*
X89547127Y-84958178D01*
X89446100Y-85466076D01*
X89446100Y-85983924D01*
X89547127Y-86491822D01*
X89745299Y-86970251D01*
X90033000Y-87400826D01*
X90399174Y-87767000D01*
X90829749Y-88054701D01*
X91308178Y-88252873D01*
X91816076Y-88353900D01*
X92333924Y-88353900D01*
X92841822Y-88252873D01*
X93320251Y-88054701D01*
X93750826Y-87767000D01*
X93855000Y-87662826D01*
X93855001Y-98104791D01*
X93781327Y-98135308D01*
X93493065Y-98327919D01*
X93247919Y-98573065D01*
X93055308Y-98861327D01*
X92922636Y-99181627D01*
X92855000Y-99521655D01*
X92855000Y-99868345D01*
X92922636Y-100208373D01*
X93055308Y-100528673D01*
X93247919Y-100816935D01*
X93493065Y-101062081D01*
X93781327Y-101254692D01*
X94101627Y-101387364D01*
X94441655Y-101455000D01*
X94788345Y-101455000D01*
X95128373Y-101387364D01*
X95448673Y-101254692D01*
X95736935Y-101062081D01*
X95982081Y-100816935D01*
X96174692Y-100528673D01*
X96307364Y-100208373D01*
X96375000Y-99868345D01*
X96375000Y-99521655D01*
X96307364Y-99181627D01*
X96174692Y-98861327D01*
X95982081Y-98573065D01*
X95736935Y-98327919D01*
X95448673Y-98135308D01*
X95375000Y-98104792D01*
X95375000Y-85576278D01*
X95645000Y-85576278D01*
X95645000Y-85873722D01*
X95703029Y-86165451D01*
X95816856Y-86440253D01*
X95982107Y-86687569D01*
X96192431Y-86897893D01*
X96439747Y-87063144D01*
X96714549Y-87176971D01*
X97006278Y-87235000D01*
X97303722Y-87235000D01*
X97595451Y-87176971D01*
X97870253Y-87063144D01*
X98117569Y-86897893D01*
X98170000Y-86845462D01*
X98170001Y-99966288D01*
X98126063Y-100010226D01*
X98012795Y-100179744D01*
X97934774Y-100368102D01*
X97895000Y-100568061D01*
X97895000Y-100771939D01*
X97934774Y-100971898D01*
X98012795Y-101160256D01*
X98126063Y-101329774D01*
X98170000Y-101373711D01*
X98170001Y-103654539D01*
X98117569Y-103602107D01*
X97870253Y-103436856D01*
X97595451Y-103323029D01*
X97303722Y-103265000D01*
X97006278Y-103265000D01*
X96714549Y-103323029D01*
X96439747Y-103436856D01*
X96192431Y-103602107D01*
X95982107Y-103812431D01*
X95816856Y-104059747D01*
X95703029Y-104334549D01*
X95645000Y-104626278D01*
X95645000Y-104923722D01*
X95703029Y-105215451D01*
X95816856Y-105490253D01*
X95982107Y-105737569D01*
X96192431Y-105947893D01*
X96439747Y-106113144D01*
X96714549Y-106226971D01*
X97006278Y-106285000D01*
X97303722Y-106285000D01*
X97595451Y-106226971D01*
X97870253Y-106113144D01*
X98117569Y-105947893D01*
X98327893Y-105737569D01*
X98493144Y-105490253D01*
X98553863Y-105343664D01*
X104383152Y-111172955D01*
X104352636Y-111246627D01*
X104285000Y-111586655D01*
X104285000Y-111933345D01*
X104352636Y-112273373D01*
X104485308Y-112593673D01*
X104677919Y-112881935D01*
X104923065Y-113127081D01*
X105211327Y-113319692D01*
X105531627Y-113452364D01*
X105871655Y-113520000D01*
X106218345Y-113520000D01*
X106558373Y-113452364D01*
X106878673Y-113319692D01*
X107166935Y-113127081D01*
X107412081Y-112881935D01*
X107604692Y-112593673D01*
X107737364Y-112273373D01*
X107805000Y-111933345D01*
X107805000Y-111586655D01*
X107737364Y-111246627D01*
X107604692Y-110926327D01*
X107412081Y-110638065D01*
X107166935Y-110392919D01*
X106878673Y-110200308D01*
X106558373Y-110067636D01*
X106218345Y-110000000D01*
X105871655Y-110000000D01*
X105531627Y-110067636D01*
X105457955Y-110098152D01*
X104431081Y-109071278D01*
X109615000Y-109071278D01*
X109615000Y-109368722D01*
X109673029Y-109660451D01*
X109786856Y-109935253D01*
X109952107Y-110182569D01*
X110162431Y-110392893D01*
X110409747Y-110558144D01*
X110684549Y-110671971D01*
X110976278Y-110730000D01*
X111273722Y-110730000D01*
X111565451Y-110671971D01*
X111840253Y-110558144D01*
X112087569Y-110392893D01*
X112297893Y-110182569D01*
X112463144Y-109935253D01*
X112576971Y-109660451D01*
X112635000Y-109368722D01*
X112635000Y-109071278D01*
X112576971Y-108779549D01*
X112463144Y-108504747D01*
X112297893Y-108257431D01*
X112087569Y-108047107D01*
X111840253Y-107881856D01*
X111565451Y-107768029D01*
X111273722Y-107710000D01*
X110976278Y-107710000D01*
X110684549Y-107768029D01*
X110409747Y-107881856D01*
X110162431Y-108047107D01*
X109952107Y-108257431D01*
X109786856Y-108504747D01*
X109673029Y-108779549D01*
X109615000Y-109071278D01*
X104431081Y-109071278D01*
X99690000Y-104330199D01*
X99690000Y-102134826D01*
X100241100Y-102134826D01*
X100241100Y-102652674D01*
X100342127Y-103160572D01*
X100540299Y-103639001D01*
X100828000Y-104069576D01*
X101194174Y-104435750D01*
X101624749Y-104723451D01*
X102103178Y-104921623D01*
X102611076Y-105022650D01*
X103128924Y-105022650D01*
X103636822Y-104921623D01*
X104115251Y-104723451D01*
X104545826Y-104435750D01*
X104912000Y-104069576D01*
X105199701Y-103639001D01*
X105397873Y-103160572D01*
X105498900Y-102652674D01*
X105498900Y-102253702D01*
X106427688Y-103182489D01*
X106402795Y-103219744D01*
X106324774Y-103408102D01*
X106285000Y-103608061D01*
X106285000Y-103811939D01*
X106324774Y-104011898D01*
X106402795Y-104200256D01*
X106516063Y-104369774D01*
X106660226Y-104513937D01*
X106829744Y-104627205D01*
X107018102Y-104705226D01*
X107218061Y-104745000D01*
X107421939Y-104745000D01*
X107621898Y-104705226D01*
X107810256Y-104627205D01*
X107979774Y-104513937D01*
X108023711Y-104470000D01*
X111842678Y-104470000D01*
X111880000Y-104473676D01*
X111917322Y-104470000D01*
X111917333Y-104470000D01*
X112028986Y-104459003D01*
X112172247Y-104415546D01*
X112304276Y-104344974D01*
X112420001Y-104250001D01*
X112443803Y-104220998D01*
X112559801Y-104105000D01*
X112621939Y-104105000D01*
X112821898Y-104065226D01*
X113010256Y-103987205D01*
X113179774Y-103873937D01*
X113323937Y-103729774D01*
X113437205Y-103560256D01*
X113515226Y-103371898D01*
X113555000Y-103171939D01*
X113555000Y-102968061D01*
X113515226Y-102768102D01*
X113437205Y-102579744D01*
X113323937Y-102410226D01*
X113179774Y-102266063D01*
X113010256Y-102152795D01*
X112821898Y-102074774D01*
X112621939Y-102035000D01*
X112418061Y-102035000D01*
X112218102Y-102074774D01*
X112029744Y-102152795D01*
X111860226Y-102266063D01*
X111716063Y-102410226D01*
X111602795Y-102579744D01*
X111524774Y-102768102D01*
X111488593Y-102950000D01*
X108078752Y-102950000D01*
X108069003Y-102851014D01*
X108025546Y-102707753D01*
X107996105Y-102652674D01*
X107954974Y-102575723D01*
X107883799Y-102488997D01*
X107860001Y-102459999D01*
X107831004Y-102436202D01*
X105270000Y-99875199D01*
X105270000Y-92913711D01*
X105313937Y-92869774D01*
X105427205Y-92700256D01*
X105505226Y-92511898D01*
X105545000Y-92311939D01*
X105545000Y-92108061D01*
X105505226Y-91908102D01*
X105427205Y-91719744D01*
X105313937Y-91550226D01*
X105169774Y-91406063D01*
X105000256Y-91292795D01*
X104811898Y-91214774D01*
X104611939Y-91175000D01*
X104408061Y-91175000D01*
X104208102Y-91214774D01*
X104019744Y-91292795D01*
X103850226Y-91406063D01*
X103706063Y-91550226D01*
X103592795Y-91719744D01*
X103514774Y-91908102D01*
X103475000Y-92108061D01*
X103475000Y-92311939D01*
X103514774Y-92511898D01*
X103592795Y-92700256D01*
X103706063Y-92869774D01*
X103750000Y-92913711D01*
X103750001Y-99912757D01*
X103636822Y-99865877D01*
X103128924Y-99764850D01*
X102611076Y-99764850D01*
X102103178Y-99865877D01*
X101624749Y-100064049D01*
X101194174Y-100351750D01*
X100828000Y-100717924D01*
X100540299Y-101148499D01*
X100342127Y-101626928D01*
X100241100Y-102134826D01*
X99690000Y-102134826D01*
X99690000Y-101373711D01*
X99733937Y-101329774D01*
X99847205Y-101160256D01*
X99925226Y-100971898D01*
X99965000Y-100771939D01*
X99965000Y-100568061D01*
X99925226Y-100368102D01*
X99847205Y-100179744D01*
X99733937Y-100010226D01*
X99690000Y-99966289D01*
X99690000Y-86758061D01*
X101515000Y-86758061D01*
X101515000Y-86961939D01*
X101554774Y-87161898D01*
X101632795Y-87350256D01*
X101746063Y-87519774D01*
X101890226Y-87663937D01*
X102059744Y-87777205D01*
X102248102Y-87855226D01*
X102448061Y-87895000D01*
X102651939Y-87895000D01*
X102851898Y-87855226D01*
X103040256Y-87777205D01*
X103209774Y-87663937D01*
X103353937Y-87519774D01*
X103467205Y-87350256D01*
X103545226Y-87161898D01*
X103585000Y-86961939D01*
X103585000Y-86758061D01*
X103545226Y-86558102D01*
X103467205Y-86369744D01*
X103353937Y-86200226D01*
X103310000Y-86156289D01*
X103310000Y-85203639D01*
X103316882Y-85063548D01*
X103334724Y-84943267D01*
X103364270Y-84825311D01*
X103405236Y-84710821D01*
X103457226Y-84600898D01*
X103519740Y-84496598D01*
X103592172Y-84398937D01*
X103673836Y-84308834D01*
X103763933Y-84227174D01*
X103861597Y-84154741D01*
X103965901Y-84092224D01*
X104075821Y-84040236D01*
X104190313Y-83999270D01*
X104308268Y-83969724D01*
X104428548Y-83951882D01*
X104568638Y-83945000D01*
X105724792Y-83945000D01*
X105755308Y-84018673D01*
X105887638Y-84216719D01*
X105604549Y-84273029D01*
X105329747Y-84386856D01*
X105082431Y-84552107D01*
X104872107Y-84762431D01*
X104706856Y-85009747D01*
X104593029Y-85284549D01*
X104535000Y-85576278D01*
X104535000Y-85873722D01*
X104593029Y-86165451D01*
X104706856Y-86440253D01*
X104872107Y-86687569D01*
X105082431Y-86897893D01*
X105329747Y-87063144D01*
X105604549Y-87176971D01*
X105896278Y-87235000D01*
X106193722Y-87235000D01*
X106485451Y-87176971D01*
X106760253Y-87063144D01*
X107007569Y-86897893D01*
X107217893Y-86687569D01*
X107383144Y-86440253D01*
X107496971Y-86165451D01*
X107555000Y-85873722D01*
X107555000Y-85576278D01*
X107533080Y-85466076D01*
X108496100Y-85466076D01*
X108496100Y-85983924D01*
X108597127Y-86491822D01*
X108795299Y-86970251D01*
X109083000Y-87400826D01*
X109449174Y-87767000D01*
X109879749Y-88054701D01*
X110358178Y-88252873D01*
X110866076Y-88353900D01*
X111383924Y-88353900D01*
X111891822Y-88252873D01*
X112370251Y-88054701D01*
X112800826Y-87767000D01*
X113167000Y-87400826D01*
X113454701Y-86970251D01*
X113652873Y-86491822D01*
X113753900Y-85983924D01*
X113753900Y-85576278D01*
X114695000Y-85576278D01*
X114695000Y-85873722D01*
X114753029Y-86165451D01*
X114866856Y-86440253D01*
X115032107Y-86687569D01*
X115242431Y-86897893D01*
X115489747Y-87063144D01*
X115764549Y-87176971D01*
X116056278Y-87235000D01*
X116353722Y-87235000D01*
X116645451Y-87176971D01*
X116920253Y-87063144D01*
X117167569Y-86897893D01*
X117377893Y-86687569D01*
X117543144Y-86440253D01*
X117656971Y-86165451D01*
X117715000Y-85873722D01*
X117715000Y-85576278D01*
X117656971Y-85284549D01*
X117543144Y-85009747D01*
X117377893Y-84762431D01*
X117167569Y-84552107D01*
X116920253Y-84386856D01*
X116645451Y-84273029D01*
X116353722Y-84215000D01*
X116056278Y-84215000D01*
X115764549Y-84273029D01*
X115489747Y-84386856D01*
X115242431Y-84552107D01*
X115032107Y-84762431D01*
X114866856Y-85009747D01*
X114753029Y-85284549D01*
X114695000Y-85576278D01*
X113753900Y-85576278D01*
X113753900Y-85466076D01*
X113652873Y-84958178D01*
X113454701Y-84479749D01*
X113167000Y-84049174D01*
X112800826Y-83683000D01*
X112370251Y-83395299D01*
X111891822Y-83197127D01*
X111383924Y-83096100D01*
X110866076Y-83096100D01*
X110358178Y-83197127D01*
X109879749Y-83395299D01*
X109449174Y-83683000D01*
X109083000Y-84049174D01*
X108795299Y-84479749D01*
X108597127Y-84958178D01*
X108496100Y-85466076D01*
X107533080Y-85466076D01*
X107496971Y-85284549D01*
X107383144Y-85009747D01*
X107339882Y-84945000D01*
X107488345Y-84945000D01*
X107828373Y-84877364D01*
X108148673Y-84744692D01*
X108436935Y-84552081D01*
X108682081Y-84306935D01*
X108874692Y-84018673D01*
X109007364Y-83698373D01*
X109075000Y-83358345D01*
X109075000Y-83011655D01*
X109007364Y-82671627D01*
X108874692Y-82351327D01*
X108682081Y-82063065D01*
X108436935Y-81817919D01*
X108148673Y-81625308D01*
X107828373Y-81492636D01*
X107488345Y-81425000D01*
X107141655Y-81425000D01*
X106801627Y-81492636D01*
X106481327Y-81625308D01*
X106193065Y-81817919D01*
X105947919Y-82063065D01*
X105755308Y-82351327D01*
X105724792Y-82425000D01*
X104568640Y-82425000D01*
X104549998Y-82424084D01*
X104531352Y-82425000D01*
X104512667Y-82425000D01*
X104494073Y-82426831D01*
X104279388Y-82437378D01*
X104279383Y-82437379D01*
X104279377Y-82437379D01*
X104011375Y-82477133D01*
X103934579Y-82496370D01*
X103817217Y-82525767D01*
X103748546Y-82542968D01*
X103599075Y-82596450D01*
X103599074Y-82596450D01*
X103493439Y-82634247D01*
X103248515Y-82750088D01*
X103248511Y-82750090D01*
X103016121Y-82889379D01*
X103016117Y-82889382D01*
X103016112Y-82889385D01*
X102818408Y-83036014D01*
X102798491Y-83050785D01*
X102597740Y-83232734D01*
X102571955Y-83261184D01*
X102415785Y-83433491D01*
X102383333Y-83477247D01*
X102296362Y-83594513D01*
X102254379Y-83651120D01*
X102119545Y-83876079D01*
X102115088Y-83883515D01*
X101999247Y-84128439D01*
X101976101Y-84193127D01*
X101907968Y-84383546D01*
X101907967Y-84383551D01*
X101869394Y-84537544D01*
X101842133Y-84646375D01*
X101802379Y-84914379D01*
X101802378Y-84914389D01*
X101791831Y-85129074D01*
X101790000Y-85147668D01*
X101790000Y-85166353D01*
X101789084Y-85184999D01*
X101790000Y-85203642D01*
X101790001Y-86156288D01*
X101746063Y-86200226D01*
X101632795Y-86369744D01*
X101554774Y-86558102D01*
X101515000Y-86758061D01*
X99690000Y-86758061D01*
X99690000Y-83914801D01*
X102199802Y-81405000D01*
X112074792Y-81405000D01*
X112105308Y-81478673D01*
X112297919Y-81766935D01*
X112543065Y-82012081D01*
X112831327Y-82204692D01*
X113151627Y-82337364D01*
X113491655Y-82405000D01*
X113838345Y-82405000D01*
X114178373Y-82337364D01*
X114498673Y-82204692D01*
X114786935Y-82012081D01*
X115032081Y-81766935D01*
X115224692Y-81478673D01*
X115357364Y-81158373D01*
X115425000Y-80818345D01*
X115425000Y-80471655D01*
X115357364Y-80131627D01*
X115224692Y-79811327D01*
X115032081Y-79523065D01*
X114786935Y-79277919D01*
X114498673Y-79085308D01*
X114425000Y-79054792D01*
X114425000Y-66526278D01*
X114695000Y-66526278D01*
X114695000Y-66823722D01*
X114753029Y-67115451D01*
X114866856Y-67390253D01*
X115032107Y-67637569D01*
X115242431Y-67847893D01*
X115489747Y-68013144D01*
X115764549Y-68126971D01*
X116056278Y-68185000D01*
X116353722Y-68185000D01*
X116645451Y-68126971D01*
X116920253Y-68013144D01*
X117167569Y-67847893D01*
X117377893Y-67637569D01*
X117543144Y-67390253D01*
X117656971Y-67115451D01*
X117715000Y-66823722D01*
X117715000Y-66526278D01*
X117656971Y-66234549D01*
X117543144Y-65959747D01*
X117377893Y-65712431D01*
X117167569Y-65502107D01*
X116920253Y-65336856D01*
X116645451Y-65223029D01*
X116353722Y-65165000D01*
X116056278Y-65165000D01*
X115764549Y-65223029D01*
X115489747Y-65336856D01*
X115242431Y-65502107D01*
X115032107Y-65712431D01*
X114866856Y-65959747D01*
X114753029Y-66234549D01*
X114695000Y-66526278D01*
X114425000Y-66526278D01*
X114425000Y-63185208D01*
X114498673Y-63154692D01*
X114786935Y-62962081D01*
X115032081Y-62716935D01*
X115224692Y-62428673D01*
X115357364Y-62108373D01*
X115425000Y-61768345D01*
X115425000Y-61421655D01*
X115357364Y-61081627D01*
X115224692Y-60761327D01*
X115032081Y-60473065D01*
X114786935Y-60227919D01*
X114498673Y-60035308D01*
X114425000Y-60004792D01*
X114425000Y-47476278D01*
X114695000Y-47476278D01*
X114695000Y-47773722D01*
X114753029Y-48065451D01*
X114866856Y-48340253D01*
X115032107Y-48587569D01*
X115242431Y-48797893D01*
X115489747Y-48963144D01*
X115764549Y-49076971D01*
X116056278Y-49135000D01*
X116353722Y-49135000D01*
X116645451Y-49076971D01*
X116920253Y-48963144D01*
X117167569Y-48797893D01*
X117377893Y-48587569D01*
X117543144Y-48340253D01*
X117656971Y-48065451D01*
X117715000Y-47773722D01*
X117715000Y-47476278D01*
X117656971Y-47184549D01*
X117543144Y-46909747D01*
X117377893Y-46662431D01*
X117167569Y-46452107D01*
X116920253Y-46286856D01*
X116645451Y-46173029D01*
X116353722Y-46115000D01*
X116056278Y-46115000D01*
X115764549Y-46173029D01*
X115489747Y-46286856D01*
X115242431Y-46452107D01*
X115032107Y-46662431D01*
X114866856Y-46909747D01*
X114753029Y-47184549D01*
X114695000Y-47476278D01*
X114425000Y-47476278D01*
X114425000Y-44135208D01*
X114498673Y-44104692D01*
X114786935Y-43912081D01*
X115032081Y-43666935D01*
X115224692Y-43378673D01*
X115357364Y-43058373D01*
X115425000Y-42718345D01*
X115425000Y-42371655D01*
X115357364Y-42031627D01*
X115224692Y-41711327D01*
X115032081Y-41423065D01*
X114786935Y-41177919D01*
X114498673Y-40985308D01*
X114178373Y-40852636D01*
X113838345Y-40785000D01*
X113491655Y-40785000D01*
X113151627Y-40852636D01*
X112831327Y-40985308D01*
X112543065Y-41177919D01*
X112297919Y-41423065D01*
X112105308Y-41711327D01*
X111972636Y-42031627D01*
X111905000Y-42371655D01*
X111905000Y-42718345D01*
X111972636Y-43058373D01*
X112105308Y-43378673D01*
X112297919Y-43666935D01*
X112543065Y-43912081D01*
X112831327Y-44104692D01*
X112905000Y-44135208D01*
X112905000Y-45687174D01*
X112800826Y-45583000D01*
X112370251Y-45295299D01*
X111891822Y-45097127D01*
X111383924Y-44996100D01*
X110866076Y-44996100D01*
X110358178Y-45097127D01*
X109879749Y-45295299D01*
X109449174Y-45583000D01*
X109083000Y-45949174D01*
X108795299Y-46379749D01*
X108597127Y-46858178D01*
X108496100Y-47366076D01*
X108496100Y-47883924D01*
X108597127Y-48391822D01*
X108795299Y-48870251D01*
X109083000Y-49300826D01*
X109449174Y-49667000D01*
X109879749Y-49954701D01*
X110358178Y-50152873D01*
X110866076Y-50253900D01*
X111383924Y-50253900D01*
X111891822Y-50152873D01*
X112370251Y-49954701D01*
X112800826Y-49667000D01*
X112905000Y-49562826D01*
X112905001Y-60004791D01*
X112831327Y-60035308D01*
X112543065Y-60227919D01*
X112297919Y-60473065D01*
X112105308Y-60761327D01*
X111972636Y-61081627D01*
X111905000Y-61421655D01*
X111905000Y-61768345D01*
X111972636Y-62108373D01*
X112105308Y-62428673D01*
X112297919Y-62716935D01*
X112543065Y-62962081D01*
X112831327Y-63154692D01*
X112905000Y-63185208D01*
X112905000Y-64737174D01*
X112800826Y-64633000D01*
X112370251Y-64345299D01*
X111891822Y-64147127D01*
X111383924Y-64046100D01*
X110866076Y-64046100D01*
X110358178Y-64147127D01*
X109879749Y-64345299D01*
X109449174Y-64633000D01*
X109083000Y-64999174D01*
X108795299Y-65429749D01*
X108597127Y-65908178D01*
X108496100Y-66416076D01*
X108496100Y-66933924D01*
X108597127Y-67441822D01*
X108795299Y-67920251D01*
X109083000Y-68350826D01*
X109449174Y-68717000D01*
X109879749Y-69004701D01*
X110358178Y-69202873D01*
X110866076Y-69303900D01*
X111383924Y-69303900D01*
X111891822Y-69202873D01*
X112370251Y-69004701D01*
X112800826Y-68717000D01*
X112905000Y-68612826D01*
X112905001Y-79054791D01*
X112831327Y-79085308D01*
X112543065Y-79277919D01*
X112297919Y-79523065D01*
X112105308Y-79811327D01*
X112074792Y-79885000D01*
X101922322Y-79885000D01*
X101884999Y-79881324D01*
X101847676Y-79885000D01*
X101847667Y-79885000D01*
X101736014Y-79895997D01*
X101592753Y-79939454D01*
X101460723Y-80010026D01*
X101377083Y-80078668D01*
X101344999Y-80104999D01*
X101321201Y-80133997D01*
X98419003Y-83036196D01*
X98389999Y-83059999D01*
X98335730Y-83126126D01*
X98295026Y-83175724D01*
X98230172Y-83297056D01*
X98224454Y-83307754D01*
X98180997Y-83451015D01*
X98170000Y-83562668D01*
X98170000Y-83562678D01*
X98166324Y-83600000D01*
X98170000Y-83637322D01*
X98170000Y-84604538D01*
X98117569Y-84552107D01*
X97870253Y-84386856D01*
X97595451Y-84273029D01*
X97303722Y-84215000D01*
X97006278Y-84215000D01*
X96714549Y-84273029D01*
X96439747Y-84386856D01*
X96192431Y-84552107D01*
X95982107Y-84762431D01*
X95816856Y-85009747D01*
X95703029Y-85284549D01*
X95645000Y-85576278D01*
X95375000Y-85576278D01*
X95375000Y-82235208D01*
X95448673Y-82204692D01*
X95736935Y-82012081D01*
X95982081Y-81766935D01*
X96174692Y-81478673D01*
X96307364Y-81158373D01*
X96375000Y-80818345D01*
X96375000Y-80471655D01*
X96307364Y-80131627D01*
X96174692Y-79811327D01*
X95982081Y-79523065D01*
X95736935Y-79277919D01*
X95448673Y-79085308D01*
X95375000Y-79054792D01*
X95375000Y-66526278D01*
X95645000Y-66526278D01*
X95645000Y-66823722D01*
X95703029Y-67115451D01*
X95816856Y-67390253D01*
X95982107Y-67637569D01*
X96192431Y-67847893D01*
X96439747Y-68013144D01*
X96714549Y-68126971D01*
X97006278Y-68185000D01*
X97303722Y-68185000D01*
X97595451Y-68126971D01*
X97870253Y-68013144D01*
X98117569Y-67847893D01*
X98327893Y-67637569D01*
X98493144Y-67390253D01*
X98606971Y-67115451D01*
X98665000Y-66823722D01*
X98665000Y-66526278D01*
X104535000Y-66526278D01*
X104535000Y-66823722D01*
X104593029Y-67115451D01*
X104706856Y-67390253D01*
X104872107Y-67637569D01*
X105082431Y-67847893D01*
X105329747Y-68013144D01*
X105604549Y-68126971D01*
X105896278Y-68185000D01*
X106193722Y-68185000D01*
X106485451Y-68126971D01*
X106760253Y-68013144D01*
X107007569Y-67847893D01*
X107217893Y-67637569D01*
X107383144Y-67390253D01*
X107496971Y-67115451D01*
X107555000Y-66823722D01*
X107555000Y-66526278D01*
X107496971Y-66234549D01*
X107383144Y-65959747D01*
X107339882Y-65895000D01*
X107488345Y-65895000D01*
X107828373Y-65827364D01*
X108148673Y-65694692D01*
X108436935Y-65502081D01*
X108682081Y-65256935D01*
X108874692Y-64968673D01*
X109007364Y-64648373D01*
X109075000Y-64308345D01*
X109075000Y-63961655D01*
X109007364Y-63621627D01*
X108874692Y-63301327D01*
X108682081Y-63013065D01*
X108436935Y-62767919D01*
X108148673Y-62575308D01*
X107828373Y-62442636D01*
X107488345Y-62375000D01*
X107141655Y-62375000D01*
X106801627Y-62442636D01*
X106481327Y-62575308D01*
X106193065Y-62767919D01*
X105947919Y-63013065D01*
X105755308Y-63301327D01*
X105622636Y-63621627D01*
X105555000Y-63961655D01*
X105555000Y-64308345D01*
X105622636Y-64648373D01*
X105755308Y-64968673D01*
X105887638Y-65166719D01*
X105604549Y-65223029D01*
X105329747Y-65336856D01*
X105082431Y-65502107D01*
X104872107Y-65712431D01*
X104706856Y-65959747D01*
X104593029Y-66234549D01*
X104535000Y-66526278D01*
X98665000Y-66526278D01*
X98606971Y-66234549D01*
X98493144Y-65959747D01*
X98327893Y-65712431D01*
X98117569Y-65502107D01*
X97870253Y-65336856D01*
X97595451Y-65223029D01*
X97303722Y-65165000D01*
X97006278Y-65165000D01*
X96714549Y-65223029D01*
X96439747Y-65336856D01*
X96192431Y-65502107D01*
X95982107Y-65712431D01*
X95816856Y-65959747D01*
X95703029Y-66234549D01*
X95645000Y-66526278D01*
X95375000Y-66526278D01*
X95375000Y-63185208D01*
X95448673Y-63154692D01*
X95736935Y-62962081D01*
X95982081Y-62716935D01*
X96174692Y-62428673D01*
X96307364Y-62108373D01*
X96375000Y-61768345D01*
X96375000Y-61421655D01*
X96307364Y-61081627D01*
X96174692Y-60761327D01*
X95982081Y-60473065D01*
X95736935Y-60227919D01*
X95448673Y-60035308D01*
X95375000Y-60004792D01*
X95375000Y-47476278D01*
X95645000Y-47476278D01*
X95645000Y-47773722D01*
X95703029Y-48065451D01*
X95816856Y-48340253D01*
X95982107Y-48587569D01*
X96192431Y-48797893D01*
X96439747Y-48963144D01*
X96714549Y-49076971D01*
X97006278Y-49135000D01*
X97303722Y-49135000D01*
X97595451Y-49076971D01*
X97870253Y-48963144D01*
X98117569Y-48797893D01*
X98327893Y-48587569D01*
X98493144Y-48340253D01*
X98606971Y-48065451D01*
X98665000Y-47773722D01*
X98665000Y-47476278D01*
X104535000Y-47476278D01*
X104535000Y-47773722D01*
X104593029Y-48065451D01*
X104706856Y-48340253D01*
X104872107Y-48587569D01*
X105082431Y-48797893D01*
X105329747Y-48963144D01*
X105604549Y-49076971D01*
X105896278Y-49135000D01*
X106193722Y-49135000D01*
X106485451Y-49076971D01*
X106760253Y-48963144D01*
X107007569Y-48797893D01*
X107217893Y-48587569D01*
X107383144Y-48340253D01*
X107496971Y-48065451D01*
X107555000Y-47773722D01*
X107555000Y-47476278D01*
X107496971Y-47184549D01*
X107383144Y-46909747D01*
X107339882Y-46845000D01*
X107488345Y-46845000D01*
X107828373Y-46777364D01*
X108148673Y-46644692D01*
X108436935Y-46452081D01*
X108682081Y-46206935D01*
X108874692Y-45918673D01*
X109007364Y-45598373D01*
X109075000Y-45258345D01*
X109075000Y-44911655D01*
X109007364Y-44571627D01*
X108874692Y-44251327D01*
X108682081Y-43963065D01*
X108436935Y-43717919D01*
X108148673Y-43525308D01*
X107828373Y-43392636D01*
X107488345Y-43325000D01*
X107141655Y-43325000D01*
X106801627Y-43392636D01*
X106481327Y-43525308D01*
X106193065Y-43717919D01*
X105947919Y-43963065D01*
X105755308Y-44251327D01*
X105622636Y-44571627D01*
X105555000Y-44911655D01*
X105555000Y-45258345D01*
X105622636Y-45598373D01*
X105755308Y-45918673D01*
X105887638Y-46116719D01*
X105604549Y-46173029D01*
X105329747Y-46286856D01*
X105082431Y-46452107D01*
X104872107Y-46662431D01*
X104706856Y-46909747D01*
X104593029Y-47184549D01*
X104535000Y-47476278D01*
X98665000Y-47476278D01*
X98606971Y-47184549D01*
X98493144Y-46909747D01*
X98327893Y-46662431D01*
X98117569Y-46452107D01*
X97870253Y-46286856D01*
X97595451Y-46173029D01*
X97303722Y-46115000D01*
X97006278Y-46115000D01*
X96714549Y-46173029D01*
X96439747Y-46286856D01*
X96192431Y-46452107D01*
X95982107Y-46662431D01*
X95816856Y-46909747D01*
X95703029Y-47184549D01*
X95645000Y-47476278D01*
X95375000Y-47476278D01*
X95375000Y-44135208D01*
X95448673Y-44104692D01*
X95736935Y-43912081D01*
X95982081Y-43666935D01*
X96174692Y-43378673D01*
X96307364Y-43058373D01*
X96375000Y-42718345D01*
X96375000Y-42371655D01*
X96307364Y-42031627D01*
X96174692Y-41711327D01*
X95982081Y-41423065D01*
X95736935Y-41177919D01*
X95448673Y-40985308D01*
X95128373Y-40852636D01*
X94788345Y-40785000D01*
X94441655Y-40785000D01*
X94101627Y-40852636D01*
X93781327Y-40985308D01*
X93493065Y-41177919D01*
X93247919Y-41423065D01*
X93055308Y-41711327D01*
X92922636Y-42031627D01*
X92855000Y-42371655D01*
X92855000Y-42718345D01*
X92922636Y-43058373D01*
X93055308Y-43378673D01*
X93247919Y-43666935D01*
X93493065Y-43912081D01*
X93781327Y-44104692D01*
X93855000Y-44135208D01*
X93855000Y-45687174D01*
X93750826Y-45583000D01*
X93320251Y-45295299D01*
X92841822Y-45097127D01*
X92333924Y-44996100D01*
X91816076Y-44996100D01*
X91308178Y-45097127D01*
X90829749Y-45295299D01*
X90399174Y-45583000D01*
X90033000Y-45949174D01*
X89745299Y-46379749D01*
X89547127Y-46858178D01*
X89446100Y-47366076D01*
X89446100Y-47883924D01*
X89547127Y-48391822D01*
X89745299Y-48870251D01*
X90033000Y-49300826D01*
X90399174Y-49667000D01*
X90829749Y-49954701D01*
X91308178Y-50152873D01*
X91816076Y-50253900D01*
X92333924Y-50253900D01*
X92841822Y-50152873D01*
X93320251Y-49954701D01*
X93750826Y-49667000D01*
X93855000Y-49562826D01*
X93855000Y-51791623D01*
X93741898Y-51744774D01*
X93541939Y-51705000D01*
X93338061Y-51705000D01*
X93138102Y-51744774D01*
X92949744Y-51822795D01*
X92819232Y-51910000D01*
X81653711Y-51910000D01*
X81609774Y-51866063D01*
X81440256Y-51752795D01*
X81251898Y-51674774D01*
X81051939Y-51635000D01*
X80848061Y-51635000D01*
X80648102Y-51674774D01*
X80459744Y-51752795D01*
X80290226Y-51866063D01*
X80146063Y-52010226D01*
X80032795Y-52179744D01*
X79954774Y-52368102D01*
X79915000Y-52568061D01*
X76325000Y-52568061D01*
X76325000Y-47476278D01*
X76595000Y-47476278D01*
X76595000Y-47773722D01*
X76653029Y-48065451D01*
X76766856Y-48340253D01*
X76932107Y-48587569D01*
X77142431Y-48797893D01*
X77389747Y-48963144D01*
X77664549Y-49076971D01*
X77956278Y-49135000D01*
X78253722Y-49135000D01*
X78545451Y-49076971D01*
X78820253Y-48963144D01*
X79067569Y-48797893D01*
X79277893Y-48587569D01*
X79443144Y-48340253D01*
X79556971Y-48065451D01*
X79615000Y-47773722D01*
X79615000Y-47476278D01*
X79556971Y-47184549D01*
X79443144Y-46909747D01*
X79277893Y-46662431D01*
X79067569Y-46452107D01*
X78820253Y-46286856D01*
X78545451Y-46173029D01*
X78253722Y-46115000D01*
X77956278Y-46115000D01*
X77664549Y-46173029D01*
X77389747Y-46286856D01*
X77142431Y-46452107D01*
X76932107Y-46662431D01*
X76766856Y-46909747D01*
X76653029Y-47184549D01*
X76595000Y-47476278D01*
X76325000Y-47476278D01*
X76325000Y-44135208D01*
X76398673Y-44104692D01*
X76686935Y-43912081D01*
X76932081Y-43666935D01*
X77115000Y-43393178D01*
X77115000Y-43597000D01*
X77161585Y-43815987D01*
X77249997Y-44021678D01*
X77376839Y-44206169D01*
X77537236Y-44362369D01*
X77725024Y-44484276D01*
X77948126Y-44564119D01*
X78123000Y-44437954D01*
X78123000Y-43047000D01*
X78103000Y-43047000D01*
X78103000Y-42793000D01*
X78123000Y-42793000D01*
X78123000Y-41402046D01*
X78377000Y-41402046D01*
X78377000Y-42793000D01*
X78397000Y-42793000D01*
X78397000Y-43047000D01*
X78377000Y-43047000D01*
X78377000Y-44437954D01*
X78551874Y-44564119D01*
X78774976Y-44484276D01*
X78962764Y-44362369D01*
X79123161Y-44206169D01*
X79250003Y-44021678D01*
X79338415Y-43815987D01*
X79385000Y-43597000D01*
X79385000Y-43306904D01*
X79399978Y-43313108D01*
X79585448Y-43350000D01*
X79774552Y-43350000D01*
X79960022Y-43313108D01*
X80134731Y-43240741D01*
X80291964Y-43135681D01*
X80425681Y-43001964D01*
X80530741Y-42844731D01*
X80603108Y-42670022D01*
X80640000Y-42484552D01*
X80640000Y-42295448D01*
X84500000Y-42295448D01*
X84500000Y-42484552D01*
X84536892Y-42670022D01*
X84609259Y-42844731D01*
X84714319Y-43001964D01*
X84848036Y-43135681D01*
X85005269Y-43240741D01*
X85179978Y-43313108D01*
X85365448Y-43350000D01*
X85554552Y-43350000D01*
X85740022Y-43313108D01*
X85755000Y-43306904D01*
X85755000Y-43597000D01*
X85801585Y-43815987D01*
X85889997Y-44021678D01*
X86016839Y-44206169D01*
X86177236Y-44362369D01*
X86365024Y-44484276D01*
X86577344Y-44560260D01*
X86572636Y-44571627D01*
X86505000Y-44911655D01*
X86505000Y-45258345D01*
X86572636Y-45598373D01*
X86705308Y-45918673D01*
X86837638Y-46116719D01*
X86554549Y-46173029D01*
X86279747Y-46286856D01*
X86032431Y-46452107D01*
X85822107Y-46662431D01*
X85656856Y-46909747D01*
X85543029Y-47184549D01*
X85485000Y-47476278D01*
X85485000Y-47773722D01*
X85543029Y-48065451D01*
X85656856Y-48340253D01*
X85822107Y-48587569D01*
X86032431Y-48797893D01*
X86279747Y-48963144D01*
X86554549Y-49076971D01*
X86846278Y-49135000D01*
X87143722Y-49135000D01*
X87435451Y-49076971D01*
X87710253Y-48963144D01*
X87957569Y-48797893D01*
X88167893Y-48587569D01*
X88333144Y-48340253D01*
X88446971Y-48065451D01*
X88505000Y-47773722D01*
X88505000Y-47476278D01*
X88446971Y-47184549D01*
X88333144Y-46909747D01*
X88289882Y-46845000D01*
X88438345Y-46845000D01*
X88778373Y-46777364D01*
X89098673Y-46644692D01*
X89386935Y-46452081D01*
X89632081Y-46206935D01*
X89824692Y-45918673D01*
X89957364Y-45598373D01*
X90025000Y-45258345D01*
X90025000Y-44911655D01*
X89957364Y-44571627D01*
X89824692Y-44251327D01*
X89632081Y-43963065D01*
X89386935Y-43717919D01*
X89098673Y-43525308D01*
X88778373Y-43392636D01*
X88438345Y-43325000D01*
X88091655Y-43325000D01*
X88025000Y-43338259D01*
X88025000Y-43047000D01*
X87017000Y-43047000D01*
X87017000Y-43067000D01*
X86763000Y-43067000D01*
X86763000Y-43047000D01*
X86743000Y-43047000D01*
X86743000Y-42793000D01*
X86763000Y-42793000D01*
X86763000Y-41402046D01*
X87017000Y-41402046D01*
X87017000Y-42793000D01*
X88025000Y-42793000D01*
X88025000Y-42243000D01*
X87978415Y-42024013D01*
X87890003Y-41818322D01*
X87763161Y-41633831D01*
X87602764Y-41477631D01*
X87414976Y-41355724D01*
X87191874Y-41275881D01*
X87017000Y-41402046D01*
X86763000Y-41402046D01*
X86588126Y-41275881D01*
X86365024Y-41355724D01*
X86177236Y-41477631D01*
X86032884Y-41618206D01*
X85914731Y-41539259D01*
X85740022Y-41466892D01*
X85554552Y-41430000D01*
X85365448Y-41430000D01*
X85179978Y-41466892D01*
X85005269Y-41539259D01*
X84848036Y-41644319D01*
X84714319Y-41778036D01*
X84609259Y-41935269D01*
X84536892Y-42109978D01*
X84500000Y-42295448D01*
X80640000Y-42295448D01*
X80603108Y-42109978D01*
X80530741Y-41935269D01*
X80425681Y-41778036D01*
X80291964Y-41644319D01*
X80134731Y-41539259D01*
X79960022Y-41466892D01*
X79774552Y-41430000D01*
X79585448Y-41430000D01*
X79399978Y-41466892D01*
X79225269Y-41539259D01*
X79107116Y-41618206D01*
X78962764Y-41477631D01*
X78774976Y-41355724D01*
X78551874Y-41275881D01*
X78377000Y-41402046D01*
X78123000Y-41402046D01*
X77948126Y-41275881D01*
X77725024Y-41355724D01*
X77537236Y-41477631D01*
X77376839Y-41633831D01*
X77249997Y-41818322D01*
X77208755Y-41914273D01*
X77124692Y-41711327D01*
X76932081Y-41423065D01*
X76686935Y-41177919D01*
X76398673Y-40985308D01*
X76078373Y-40852636D01*
X75738345Y-40785000D01*
X75391655Y-40785000D01*
X75051627Y-40852636D01*
X74731327Y-40985308D01*
X74443065Y-41177919D01*
X74197919Y-41423065D01*
X74005308Y-41711327D01*
X73872636Y-42031627D01*
X73805000Y-42371655D01*
X73805000Y-42718345D01*
X73872636Y-43058373D01*
X74005308Y-43378673D01*
X74197919Y-43666935D01*
X74443065Y-43912081D01*
X74731327Y-44104692D01*
X74805000Y-44135208D01*
X74805000Y-45687174D01*
X74700826Y-45583000D01*
X74270251Y-45295299D01*
X73791822Y-45097127D01*
X73283924Y-44996100D01*
X72766076Y-44996100D01*
X72258178Y-45097127D01*
X71779749Y-45295299D01*
X71349174Y-45583000D01*
X70983000Y-45949174D01*
X70695299Y-46379749D01*
X70497127Y-46858178D01*
X70396100Y-47366076D01*
X69433080Y-47366076D01*
X69396971Y-47184549D01*
X69283144Y-46909747D01*
X69239882Y-46845000D01*
X69388345Y-46845000D01*
X69728373Y-46777364D01*
X70048673Y-46644692D01*
X70336935Y-46452081D01*
X70582081Y-46206935D01*
X70774692Y-45918673D01*
X70907364Y-45598373D01*
X70975000Y-45258345D01*
X70975000Y-44911655D01*
X70907364Y-44571627D01*
X70774692Y-44251327D01*
X70582081Y-43963065D01*
X70336935Y-43717919D01*
X70048673Y-43525308D01*
X69728373Y-43392636D01*
X69388345Y-43325000D01*
X69041655Y-43325000D01*
X68701627Y-43392636D01*
X68381327Y-43525308D01*
X68093065Y-43717919D01*
X67847919Y-43963065D01*
X67655308Y-44251327D01*
X67522636Y-44571627D01*
X67455000Y-44911655D01*
X67455000Y-45258345D01*
X67522636Y-45598373D01*
X67655308Y-45918673D01*
X67787638Y-46116719D01*
X67504549Y-46173029D01*
X67229747Y-46286856D01*
X66982431Y-46452107D01*
X66772107Y-46662431D01*
X66606856Y-46909747D01*
X66493029Y-47184549D01*
X66435000Y-47476278D01*
X60565000Y-47476278D01*
X60506971Y-47184549D01*
X60393144Y-46909747D01*
X60227893Y-46662431D01*
X60017569Y-46452107D01*
X59770253Y-46286856D01*
X59495451Y-46173029D01*
X59203722Y-46115000D01*
X58906278Y-46115000D01*
X58614549Y-46173029D01*
X58339747Y-46286856D01*
X58092431Y-46452107D01*
X57882107Y-46662431D01*
X57716856Y-46909747D01*
X57603029Y-47184549D01*
X57545000Y-47476278D01*
X57275000Y-47476278D01*
X57275000Y-44135208D01*
X57348673Y-44104692D01*
X57636935Y-43912081D01*
X57882081Y-43666935D01*
X58074692Y-43378673D01*
X58207364Y-43058373D01*
X58275000Y-42718345D01*
X58275000Y-42371655D01*
X58207364Y-42031627D01*
X58074692Y-41711327D01*
X57882081Y-41423065D01*
X57636935Y-41177919D01*
X57348673Y-40985308D01*
X57028373Y-40852636D01*
X56688345Y-40785000D01*
X56341655Y-40785000D01*
X56001627Y-40852636D01*
X55681327Y-40985308D01*
X55393065Y-41177919D01*
X55147919Y-41423065D01*
X54955308Y-41711327D01*
X54822636Y-42031627D01*
X54755000Y-42371655D01*
X54755000Y-42718345D01*
X54822636Y-43058373D01*
X54955308Y-43378673D01*
X55147919Y-43666935D01*
X55393065Y-43912081D01*
X55681327Y-44104692D01*
X55755000Y-44135208D01*
X55755000Y-45687174D01*
X55650826Y-45583000D01*
X55220251Y-45295299D01*
X54741822Y-45097127D01*
X54233924Y-44996100D01*
X53716076Y-44996100D01*
X53208178Y-45097127D01*
X52729749Y-45295299D01*
X52299174Y-45583000D01*
X51933000Y-45949174D01*
X51645299Y-46379749D01*
X51447127Y-46858178D01*
X51346100Y-47366076D01*
X50383080Y-47366076D01*
X50346971Y-47184549D01*
X50233144Y-46909747D01*
X50189882Y-46845000D01*
X50338345Y-46845000D01*
X50678373Y-46777364D01*
X50998673Y-46644692D01*
X51286935Y-46452081D01*
X51532081Y-46206935D01*
X51724692Y-45918673D01*
X51857364Y-45598373D01*
X51925000Y-45258345D01*
X51925000Y-44911655D01*
X51857364Y-44571627D01*
X51724692Y-44251327D01*
X51532081Y-43963065D01*
X51286935Y-43717919D01*
X50998673Y-43525308D01*
X50678373Y-43392636D01*
X50338345Y-43325000D01*
X49991655Y-43325000D01*
X49651627Y-43392636D01*
X49331327Y-43525308D01*
X49043065Y-43717919D01*
X48797919Y-43963065D01*
X48605308Y-44251327D01*
X48472636Y-44571627D01*
X48405000Y-44911655D01*
X48405000Y-45258345D01*
X48472636Y-45598373D01*
X48605308Y-45918673D01*
X48737638Y-46116719D01*
X48454549Y-46173029D01*
X48179747Y-46286856D01*
X47932431Y-46452107D01*
X47722107Y-46662431D01*
X47556856Y-46909747D01*
X47443029Y-47184549D01*
X47385000Y-47476278D01*
X45160000Y-47476278D01*
X45160000Y-40515971D01*
X45195168Y-40157299D01*
X45289252Y-39845681D01*
X45442065Y-39558280D01*
X45647793Y-39306032D01*
X45898603Y-39098544D01*
X46184935Y-38943725D01*
X46495879Y-38847471D01*
X46852391Y-38810000D01*
X77115000Y-38810000D01*
X77115000Y-39167000D01*
M02*
