G04 #@! TF.GenerationSoftware,KiCad,Pcbnew,(5.1.4)-1*
G04 #@! TF.CreationDate,2021-01-09T17:41:00+01:00*
G04 #@! TF.ProjectId,numpad,6e756d70-6164-42e6-9b69-6361645f7063,1.1*
G04 #@! TF.SameCoordinates,Original*
G04 #@! TF.FileFunction,Legend,Top*
G04 #@! TF.FilePolarity,Positive*
%FSLAX46Y46*%
G04 Gerber Fmt 4.6, Leading zero omitted, Abs format (unit mm)*
G04 Created by KiCad (PCBNEW (5.1.4)-1) date 2021-01-09 17:41:00*
%MOMM*%
%LPD*%
G04 APERTURE LIST*
%ADD10C,2.352000*%
%ADD11C,4.089800*%
%ADD12C,1.852000*%
%ADD13C,3.150000*%
%ADD14C,0.752000*%
%ADD15O,1.102000X2.202000*%
%ADD16O,1.102000X1.702000*%
G04 APERTURE END LIST*
%LPC*%
D10*
X66040000Y-118745000D03*
D11*
X63500000Y-123825000D03*
D10*
X59690000Y-121285000D03*
D12*
X58420000Y-123825000D03*
X68580000Y-123825000D03*
D13*
X51593750Y-130810000D03*
X75406250Y-130810000D03*
D11*
X51593750Y-115570000D03*
X75406250Y-115570000D03*
D14*
X85460000Y-42390000D03*
X79680000Y-42390000D03*
D15*
X78250000Y-42920000D03*
X86890000Y-42920000D03*
D16*
X78250000Y-38740000D03*
X86890000Y-38740000D03*
D10*
X106045000Y-111760000D03*
D11*
X111125000Y-114300000D03*
D10*
X108585000Y-118110000D03*
D12*
X111125000Y-119380000D03*
X111125000Y-109220000D03*
D13*
X118110000Y-126206250D03*
X118110000Y-102393750D03*
D11*
X102870000Y-126206250D03*
X102870000Y-102393750D03*
D10*
X94615000Y-118745000D03*
D11*
X92075000Y-123825000D03*
D10*
X88265000Y-121285000D03*
D12*
X86995000Y-123825000D03*
X97155000Y-123825000D03*
D10*
X56515000Y-99695000D03*
D11*
X53975000Y-104775000D03*
D10*
X50165000Y-102235000D03*
D12*
X48895000Y-104775000D03*
X59055000Y-104775000D03*
D10*
X56515000Y-80645000D03*
D11*
X53975000Y-85725000D03*
D10*
X50165000Y-83185000D03*
D12*
X48895000Y-85725000D03*
X59055000Y-85725000D03*
D10*
X56515000Y-61595000D03*
D11*
X53975000Y-66675000D03*
D10*
X50165000Y-64135000D03*
D12*
X48895000Y-66675000D03*
X59055000Y-66675000D03*
D10*
X75565000Y-99695000D03*
D11*
X73025000Y-104775000D03*
D10*
X69215000Y-102235000D03*
D12*
X67945000Y-104775000D03*
X78105000Y-104775000D03*
D10*
X113665000Y-80645000D03*
D11*
X111125000Y-85725000D03*
D10*
X107315000Y-83185000D03*
D12*
X106045000Y-85725000D03*
X116205000Y-85725000D03*
D10*
X113665000Y-61595000D03*
D11*
X111125000Y-66675000D03*
D10*
X107315000Y-64135000D03*
D12*
X106045000Y-66675000D03*
X116205000Y-66675000D03*
D10*
X113665000Y-42545000D03*
D11*
X111125000Y-47625000D03*
D10*
X107315000Y-45085000D03*
D12*
X106045000Y-47625000D03*
X116205000Y-47625000D03*
D10*
X94615000Y-80645000D03*
D11*
X92075000Y-85725000D03*
D10*
X88265000Y-83185000D03*
D12*
X86995000Y-85725000D03*
X97155000Y-85725000D03*
X97155000Y-66675000D03*
X86995000Y-66675000D03*
D10*
X88265000Y-64135000D03*
D11*
X92075000Y-66675000D03*
D10*
X94615000Y-61595000D03*
X94615000Y-42545000D03*
D11*
X92075000Y-47625000D03*
D10*
X88265000Y-45085000D03*
D12*
X86995000Y-47625000D03*
X97155000Y-47625000D03*
D10*
X94615000Y-99695000D03*
D11*
X92075000Y-104775000D03*
D10*
X88265000Y-102235000D03*
D12*
X86995000Y-104775000D03*
X97155000Y-104775000D03*
D10*
X75565000Y-80645000D03*
D11*
X73025000Y-85725000D03*
D10*
X69215000Y-83185000D03*
D12*
X67945000Y-85725000D03*
X78105000Y-85725000D03*
D10*
X75565000Y-61595000D03*
D11*
X73025000Y-66675000D03*
D10*
X69215000Y-64135000D03*
D12*
X67945000Y-66675000D03*
X78105000Y-66675000D03*
D10*
X75565000Y-42545000D03*
D11*
X73025000Y-47625000D03*
D10*
X69215000Y-45085000D03*
D12*
X67945000Y-47625000D03*
X78105000Y-47625000D03*
D10*
X56515000Y-42545000D03*
D11*
X53975000Y-47625000D03*
D10*
X50165000Y-45085000D03*
D12*
X48895000Y-47625000D03*
X59055000Y-47625000D03*
M02*
