M48
; DRILL file {KiCad (5.1.4)-1} date 09.01.2021 17:41:02
; FORMAT={-:-/ absolute / metric / decimal}
; #@! TF.CreationDate,2021-01-09T17:41:02+01:00
; #@! TF.GenerationSoftware,Kicad,Pcbnew,(5.1.4)-1
; #@! TF.FileFunction,NonPlated,1,2,NPTH
FMAT,2
METRIC
T1C0.650
T2C1.750
T3C3.048
T4C3.988
%
G90
G05
T1
X79.68Y-42.39
X85.46Y-42.39
T2
X86.995Y-66.675
X97.155Y-66.675
X67.945Y-85.725
X78.105Y-85.725
X86.995Y-123.825
X97.155Y-123.825
X106.045Y-85.725
X116.205Y-85.725
X106.045Y-47.625
X116.205Y-47.625
X111.125Y-109.22
X111.125Y-119.38
X86.995Y-47.625
X97.155Y-47.625
X48.895Y-66.675
X59.055Y-66.675
X67.945Y-66.675
X78.105Y-66.675
X58.42Y-123.825
X68.58Y-123.825
X86.995Y-85.725
X97.155Y-85.725
X106.045Y-66.675
X116.205Y-66.675
X48.895Y-104.775
X59.055Y-104.775
X48.895Y-47.625
X59.055Y-47.625
X86.995Y-104.775
X97.155Y-104.775
X48.895Y-85.725
X59.055Y-85.725
X67.945Y-47.625
X78.105Y-47.625
X67.945Y-104.775
X78.105Y-104.775
T3
X118.11Y-102.394
X118.11Y-126.206
X51.594Y-130.81
X75.406Y-130.81
T4
X92.075Y-66.675
X73.025Y-85.725
X92.075Y-123.825
X111.125Y-85.725
X111.125Y-47.625
X102.87Y-102.394
X102.87Y-126.206
X111.125Y-114.3
X92.075Y-47.625
X53.975Y-66.675
X73.025Y-66.675
X51.594Y-115.57
X63.5Y-123.825
X75.406Y-115.57
X92.075Y-85.725
X111.125Y-66.675
X53.975Y-104.775
X53.975Y-47.625
X92.075Y-104.775
X53.975Y-85.725
X73.025Y-47.625
X73.025Y-104.775
T0
M30
