G04 #@! TF.GenerationSoftware,KiCad,Pcbnew,(5.1.4)-1*
G04 #@! TF.CreationDate,2021-01-09T17:41:00+01:00*
G04 #@! TF.ProjectId,numpad,6e756d70-6164-42e6-9b69-6361645f7063,1.1*
G04 #@! TF.SameCoordinates,Original*
G04 #@! TF.FileFunction,Soldermask,Top*
G04 #@! TF.FilePolarity,Negative*
%FSLAX46Y46*%
G04 Gerber Fmt 4.6, Leading zero omitted, Abs format (unit mm)*
G04 Created by KiCad (PCBNEW (5.1.4)-1) date 2021-01-09 17:41:00*
%MOMM*%
%LPD*%
G04 APERTURE LIST*
%ADD10C,0.100000*%
G04 APERTURE END LIST*
D10*
G36*
X75713517Y-129265263D02*
G01*
X75865661Y-129295526D01*
X75984387Y-129344704D01*
X76152291Y-129414252D01*
X76152292Y-129414253D01*
X76410254Y-129586617D01*
X76629633Y-129805996D01*
X76744803Y-129978361D01*
X76801998Y-130063959D01*
X76920724Y-130350590D01*
X76981250Y-130654875D01*
X76981250Y-130965125D01*
X76920724Y-131269410D01*
X76801998Y-131556041D01*
X76801997Y-131556042D01*
X76629633Y-131814004D01*
X76410254Y-132033383D01*
X76237889Y-132148553D01*
X76152291Y-132205748D01*
X75984387Y-132275296D01*
X75865661Y-132324474D01*
X75713517Y-132354737D01*
X75561375Y-132385000D01*
X75251125Y-132385000D01*
X75098983Y-132354737D01*
X74946839Y-132324474D01*
X74828113Y-132275296D01*
X74660209Y-132205748D01*
X74574611Y-132148553D01*
X74402246Y-132033383D01*
X74182867Y-131814004D01*
X74010503Y-131556042D01*
X74010502Y-131556041D01*
X73891776Y-131269410D01*
X73831250Y-130965125D01*
X73831250Y-130654875D01*
X73891776Y-130350590D01*
X74010502Y-130063959D01*
X74067697Y-129978361D01*
X74182867Y-129805996D01*
X74402246Y-129586617D01*
X74660208Y-129414253D01*
X74660209Y-129414252D01*
X74828113Y-129344704D01*
X74946839Y-129295526D01*
X75098983Y-129265263D01*
X75251125Y-129235000D01*
X75561375Y-129235000D01*
X75713517Y-129265263D01*
X75713517Y-129265263D01*
G37*
G36*
X51901017Y-129265263D02*
G01*
X52053161Y-129295526D01*
X52171887Y-129344704D01*
X52339791Y-129414252D01*
X52339792Y-129414253D01*
X52597754Y-129586617D01*
X52817133Y-129805996D01*
X52932303Y-129978361D01*
X52989498Y-130063959D01*
X53108224Y-130350590D01*
X53168750Y-130654875D01*
X53168750Y-130965125D01*
X53108224Y-131269410D01*
X52989498Y-131556041D01*
X52989497Y-131556042D01*
X52817133Y-131814004D01*
X52597754Y-132033383D01*
X52425389Y-132148553D01*
X52339791Y-132205748D01*
X52171887Y-132275296D01*
X52053161Y-132324474D01*
X51901017Y-132354737D01*
X51748875Y-132385000D01*
X51438625Y-132385000D01*
X51286483Y-132354737D01*
X51134339Y-132324474D01*
X51015613Y-132275296D01*
X50847709Y-132205748D01*
X50762111Y-132148553D01*
X50589746Y-132033383D01*
X50370367Y-131814004D01*
X50198003Y-131556042D01*
X50198002Y-131556041D01*
X50079276Y-131269410D01*
X50018750Y-130965125D01*
X50018750Y-130654875D01*
X50079276Y-130350590D01*
X50198002Y-130063959D01*
X50255197Y-129978361D01*
X50370367Y-129805996D01*
X50589746Y-129586617D01*
X50847708Y-129414253D01*
X50847709Y-129414252D01*
X51015613Y-129344704D01*
X51134339Y-129295526D01*
X51286483Y-129265263D01*
X51438625Y-129235000D01*
X51748875Y-129235000D01*
X51901017Y-129265263D01*
X51901017Y-129265263D01*
G37*
G36*
X103466474Y-124239934D02*
G01*
X103684474Y-124330233D01*
X103838623Y-124394083D01*
X104173548Y-124617873D01*
X104458377Y-124902702D01*
X104682167Y-125237627D01*
X104682167Y-125237628D01*
X104836316Y-125609776D01*
X104914900Y-126004844D01*
X104914900Y-126407656D01*
X104836316Y-126802724D01*
X104774363Y-126952291D01*
X104682167Y-127174873D01*
X104458377Y-127509798D01*
X104173548Y-127794627D01*
X103838623Y-128018417D01*
X103684474Y-128082267D01*
X103466474Y-128172566D01*
X103071406Y-128251150D01*
X102668594Y-128251150D01*
X102273526Y-128172566D01*
X102055526Y-128082267D01*
X101901377Y-128018417D01*
X101566452Y-127794627D01*
X101281623Y-127509798D01*
X101057833Y-127174873D01*
X100965637Y-126952291D01*
X100903684Y-126802724D01*
X100825100Y-126407656D01*
X100825100Y-126004844D01*
X100903684Y-125609776D01*
X101057833Y-125237628D01*
X101057833Y-125237627D01*
X101281623Y-124902702D01*
X101566452Y-124617873D01*
X101901377Y-124394083D01*
X102055526Y-124330233D01*
X102273526Y-124239934D01*
X102668594Y-124161350D01*
X103071406Y-124161350D01*
X103466474Y-124239934D01*
X103466474Y-124239934D01*
G37*
G36*
X118569411Y-124691776D02*
G01*
X118626480Y-124715415D01*
X118856041Y-124810502D01*
X118856042Y-124810503D01*
X119114004Y-124982867D01*
X119333383Y-125202246D01*
X119357024Y-125237628D01*
X119505748Y-125460209D01*
X119624474Y-125746840D01*
X119685000Y-126051125D01*
X119685000Y-126361375D01*
X119624474Y-126665660D01*
X119505748Y-126952291D01*
X119505747Y-126952292D01*
X119333383Y-127210254D01*
X119114004Y-127429633D01*
X118994028Y-127509798D01*
X118856041Y-127601998D01*
X118688137Y-127671546D01*
X118569411Y-127720724D01*
X118417267Y-127750987D01*
X118265125Y-127781250D01*
X117954875Y-127781250D01*
X117802733Y-127750987D01*
X117650589Y-127720724D01*
X117531863Y-127671546D01*
X117363959Y-127601998D01*
X117225972Y-127509798D01*
X117105996Y-127429633D01*
X116886617Y-127210254D01*
X116714253Y-126952292D01*
X116714252Y-126952291D01*
X116595526Y-126665660D01*
X116535000Y-126361375D01*
X116535000Y-126051125D01*
X116595526Y-125746840D01*
X116714252Y-125460209D01*
X116862976Y-125237628D01*
X116886617Y-125202246D01*
X117105996Y-124982867D01*
X117363958Y-124810503D01*
X117363959Y-124810502D01*
X117593520Y-124715415D01*
X117650589Y-124691776D01*
X117954875Y-124631250D01*
X118265125Y-124631250D01*
X118569411Y-124691776D01*
X118569411Y-124691776D01*
G37*
G36*
X92671474Y-121858684D02*
G01*
X92889474Y-121948983D01*
X93043623Y-122012833D01*
X93378548Y-122236623D01*
X93663377Y-122521452D01*
X93887167Y-122856377D01*
X93919562Y-122934586D01*
X94041316Y-123228526D01*
X94119900Y-123623594D01*
X94119900Y-124026406D01*
X94041316Y-124421474D01*
X93990451Y-124544272D01*
X93887167Y-124793623D01*
X93663377Y-125128548D01*
X93378548Y-125413377D01*
X93043623Y-125637167D01*
X92889474Y-125701017D01*
X92671474Y-125791316D01*
X92276406Y-125869900D01*
X91873594Y-125869900D01*
X91478526Y-125791316D01*
X91260526Y-125701017D01*
X91106377Y-125637167D01*
X90771452Y-125413377D01*
X90486623Y-125128548D01*
X90262833Y-124793623D01*
X90159549Y-124544272D01*
X90108684Y-124421474D01*
X90030100Y-124026406D01*
X90030100Y-123623594D01*
X90108684Y-123228526D01*
X90230438Y-122934586D01*
X90262833Y-122856377D01*
X90486623Y-122521452D01*
X90771452Y-122236623D01*
X91106377Y-122012833D01*
X91260526Y-121948983D01*
X91478526Y-121858684D01*
X91873594Y-121780100D01*
X92276406Y-121780100D01*
X92671474Y-121858684D01*
X92671474Y-121858684D01*
G37*
G36*
X64096474Y-121858684D02*
G01*
X64314474Y-121948983D01*
X64468623Y-122012833D01*
X64803548Y-122236623D01*
X65088377Y-122521452D01*
X65312167Y-122856377D01*
X65344562Y-122934586D01*
X65466316Y-123228526D01*
X65544900Y-123623594D01*
X65544900Y-124026406D01*
X65466316Y-124421474D01*
X65415451Y-124544272D01*
X65312167Y-124793623D01*
X65088377Y-125128548D01*
X64803548Y-125413377D01*
X64468623Y-125637167D01*
X64314474Y-125701017D01*
X64096474Y-125791316D01*
X63701406Y-125869900D01*
X63298594Y-125869900D01*
X62903526Y-125791316D01*
X62685526Y-125701017D01*
X62531377Y-125637167D01*
X62196452Y-125413377D01*
X61911623Y-125128548D01*
X61687833Y-124793623D01*
X61584549Y-124544272D01*
X61533684Y-124421474D01*
X61455100Y-124026406D01*
X61455100Y-123623594D01*
X61533684Y-123228526D01*
X61655438Y-122934586D01*
X61687833Y-122856377D01*
X61911623Y-122521452D01*
X62196452Y-122236623D01*
X62531377Y-122012833D01*
X62685526Y-121948983D01*
X62903526Y-121858684D01*
X63298594Y-121780100D01*
X63701406Y-121780100D01*
X64096474Y-121858684D01*
X64096474Y-121858684D01*
G37*
G36*
X97425104Y-122934585D02*
G01*
X97593626Y-123004389D01*
X97745291Y-123105728D01*
X97874272Y-123234709D01*
X97975611Y-123386374D01*
X98045415Y-123554896D01*
X98081000Y-123733797D01*
X98081000Y-123916203D01*
X98045415Y-124095104D01*
X97975611Y-124263626D01*
X97874272Y-124415291D01*
X97745291Y-124544272D01*
X97593626Y-124645611D01*
X97425104Y-124715415D01*
X97246203Y-124751000D01*
X97063797Y-124751000D01*
X96884896Y-124715415D01*
X96716374Y-124645611D01*
X96564709Y-124544272D01*
X96435728Y-124415291D01*
X96334389Y-124263626D01*
X96264585Y-124095104D01*
X96229000Y-123916203D01*
X96229000Y-123733797D01*
X96264585Y-123554896D01*
X96334389Y-123386374D01*
X96435728Y-123234709D01*
X96564709Y-123105728D01*
X96716374Y-123004389D01*
X96884896Y-122934585D01*
X97063797Y-122899000D01*
X97246203Y-122899000D01*
X97425104Y-122934585D01*
X97425104Y-122934585D01*
G37*
G36*
X87265104Y-122934585D02*
G01*
X87433626Y-123004389D01*
X87585291Y-123105728D01*
X87714272Y-123234709D01*
X87815611Y-123386374D01*
X87885415Y-123554896D01*
X87921000Y-123733797D01*
X87921000Y-123916203D01*
X87885415Y-124095104D01*
X87815611Y-124263626D01*
X87714272Y-124415291D01*
X87585291Y-124544272D01*
X87433626Y-124645611D01*
X87265104Y-124715415D01*
X87086203Y-124751000D01*
X86903797Y-124751000D01*
X86724896Y-124715415D01*
X86556374Y-124645611D01*
X86404709Y-124544272D01*
X86275728Y-124415291D01*
X86174389Y-124263626D01*
X86104585Y-124095104D01*
X86069000Y-123916203D01*
X86069000Y-123733797D01*
X86104585Y-123554896D01*
X86174389Y-123386374D01*
X86275728Y-123234709D01*
X86404709Y-123105728D01*
X86556374Y-123004389D01*
X86724896Y-122934585D01*
X86903797Y-122899000D01*
X87086203Y-122899000D01*
X87265104Y-122934585D01*
X87265104Y-122934585D01*
G37*
G36*
X58690104Y-122934585D02*
G01*
X58858626Y-123004389D01*
X59010291Y-123105728D01*
X59139272Y-123234709D01*
X59240611Y-123386374D01*
X59310415Y-123554896D01*
X59346000Y-123733797D01*
X59346000Y-123916203D01*
X59310415Y-124095104D01*
X59240611Y-124263626D01*
X59139272Y-124415291D01*
X59010291Y-124544272D01*
X58858626Y-124645611D01*
X58690104Y-124715415D01*
X58511203Y-124751000D01*
X58328797Y-124751000D01*
X58149896Y-124715415D01*
X57981374Y-124645611D01*
X57829709Y-124544272D01*
X57700728Y-124415291D01*
X57599389Y-124263626D01*
X57529585Y-124095104D01*
X57494000Y-123916203D01*
X57494000Y-123733797D01*
X57529585Y-123554896D01*
X57599389Y-123386374D01*
X57700728Y-123234709D01*
X57829709Y-123105728D01*
X57981374Y-123004389D01*
X58149896Y-122934585D01*
X58328797Y-122899000D01*
X58511203Y-122899000D01*
X58690104Y-122934585D01*
X58690104Y-122934585D01*
G37*
G36*
X68850104Y-122934585D02*
G01*
X69018626Y-123004389D01*
X69170291Y-123105728D01*
X69299272Y-123234709D01*
X69400611Y-123386374D01*
X69470415Y-123554896D01*
X69506000Y-123733797D01*
X69506000Y-123916203D01*
X69470415Y-124095104D01*
X69400611Y-124263626D01*
X69299272Y-124415291D01*
X69170291Y-124544272D01*
X69018626Y-124645611D01*
X68850104Y-124715415D01*
X68671203Y-124751000D01*
X68488797Y-124751000D01*
X68309896Y-124715415D01*
X68141374Y-124645611D01*
X67989709Y-124544272D01*
X67860728Y-124415291D01*
X67759389Y-124263626D01*
X67689585Y-124095104D01*
X67654000Y-123916203D01*
X67654000Y-123733797D01*
X67689585Y-123554896D01*
X67759389Y-123386374D01*
X67860728Y-123234709D01*
X67989709Y-123105728D01*
X68141374Y-123004389D01*
X68309896Y-122934585D01*
X68488797Y-122899000D01*
X68671203Y-122899000D01*
X68850104Y-122934585D01*
X68850104Y-122934585D01*
G37*
G36*
X59881560Y-120124064D02*
G01*
X60033027Y-120154193D01*
X60247045Y-120242842D01*
X60247046Y-120242843D01*
X60439654Y-120371539D01*
X60603461Y-120535346D01*
X60689258Y-120663751D01*
X60732158Y-120727955D01*
X60820807Y-120941973D01*
X60866000Y-121169174D01*
X60866000Y-121400826D01*
X60820807Y-121628027D01*
X60732158Y-121842045D01*
X60732157Y-121842046D01*
X60603461Y-122034654D01*
X60439654Y-122198461D01*
X60382540Y-122236623D01*
X60247045Y-122327158D01*
X60033027Y-122415807D01*
X59881560Y-122445936D01*
X59805827Y-122461000D01*
X59574173Y-122461000D01*
X59498440Y-122445936D01*
X59346973Y-122415807D01*
X59132955Y-122327158D01*
X58997460Y-122236623D01*
X58940346Y-122198461D01*
X58776539Y-122034654D01*
X58647843Y-121842046D01*
X58647842Y-121842045D01*
X58559193Y-121628027D01*
X58514000Y-121400826D01*
X58514000Y-121169174D01*
X58559193Y-120941973D01*
X58647842Y-120727955D01*
X58690742Y-120663751D01*
X58776539Y-120535346D01*
X58940346Y-120371539D01*
X59132954Y-120242843D01*
X59132955Y-120242842D01*
X59346973Y-120154193D01*
X59498440Y-120124064D01*
X59574173Y-120109000D01*
X59805827Y-120109000D01*
X59881560Y-120124064D01*
X59881560Y-120124064D01*
G37*
G36*
X88456560Y-120124064D02*
G01*
X88608027Y-120154193D01*
X88822045Y-120242842D01*
X88822046Y-120242843D01*
X89014654Y-120371539D01*
X89178461Y-120535346D01*
X89264258Y-120663751D01*
X89307158Y-120727955D01*
X89395807Y-120941973D01*
X89441000Y-121169174D01*
X89441000Y-121400826D01*
X89395807Y-121628027D01*
X89307158Y-121842045D01*
X89307157Y-121842046D01*
X89178461Y-122034654D01*
X89014654Y-122198461D01*
X88957540Y-122236623D01*
X88822045Y-122327158D01*
X88608027Y-122415807D01*
X88456560Y-122445936D01*
X88380827Y-122461000D01*
X88149173Y-122461000D01*
X88073440Y-122445936D01*
X87921973Y-122415807D01*
X87707955Y-122327158D01*
X87572460Y-122236623D01*
X87515346Y-122198461D01*
X87351539Y-122034654D01*
X87222843Y-121842046D01*
X87222842Y-121842045D01*
X87134193Y-121628027D01*
X87089000Y-121400826D01*
X87089000Y-121169174D01*
X87134193Y-120941973D01*
X87222842Y-120727955D01*
X87265742Y-120663751D01*
X87351539Y-120535346D01*
X87515346Y-120371539D01*
X87707954Y-120242843D01*
X87707955Y-120242842D01*
X87921973Y-120154193D01*
X88073440Y-120124064D01*
X88149173Y-120109000D01*
X88380827Y-120109000D01*
X88456560Y-120124064D01*
X88456560Y-120124064D01*
G37*
G36*
X111395104Y-118489585D02*
G01*
X111563626Y-118559389D01*
X111715291Y-118660728D01*
X111844272Y-118789709D01*
X111945611Y-118941374D01*
X112015415Y-119109896D01*
X112051000Y-119288797D01*
X112051000Y-119471203D01*
X112015415Y-119650104D01*
X111945611Y-119818626D01*
X111844272Y-119970291D01*
X111715291Y-120099272D01*
X111563626Y-120200611D01*
X111395104Y-120270415D01*
X111216203Y-120306000D01*
X111033797Y-120306000D01*
X110854896Y-120270415D01*
X110686374Y-120200611D01*
X110534709Y-120099272D01*
X110405728Y-119970291D01*
X110304389Y-119818626D01*
X110234585Y-119650104D01*
X110199000Y-119471203D01*
X110199000Y-119288797D01*
X110234585Y-119109896D01*
X110304389Y-118941374D01*
X110405728Y-118789709D01*
X110534709Y-118660728D01*
X110686374Y-118559389D01*
X110854896Y-118489585D01*
X111033797Y-118454000D01*
X111216203Y-118454000D01*
X111395104Y-118489585D01*
X111395104Y-118489585D01*
G37*
G36*
X94806560Y-117584064D02*
G01*
X94958027Y-117614193D01*
X95172045Y-117702842D01*
X95172046Y-117702843D01*
X95364654Y-117831539D01*
X95528461Y-117995346D01*
X95614258Y-118123751D01*
X95657158Y-118187955D01*
X95745807Y-118401973D01*
X95791000Y-118629174D01*
X95791000Y-118860826D01*
X95745807Y-119088027D01*
X95657158Y-119302045D01*
X95657157Y-119302046D01*
X95528461Y-119494654D01*
X95364654Y-119658461D01*
X95236249Y-119744258D01*
X95172045Y-119787158D01*
X94958027Y-119875807D01*
X94806560Y-119905936D01*
X94730827Y-119921000D01*
X94499173Y-119921000D01*
X94423440Y-119905936D01*
X94271973Y-119875807D01*
X94057955Y-119787158D01*
X93993751Y-119744258D01*
X93865346Y-119658461D01*
X93701539Y-119494654D01*
X93572843Y-119302046D01*
X93572842Y-119302045D01*
X93484193Y-119088027D01*
X93439000Y-118860826D01*
X93439000Y-118629174D01*
X93484193Y-118401973D01*
X93572842Y-118187955D01*
X93615742Y-118123751D01*
X93701539Y-117995346D01*
X93865346Y-117831539D01*
X94057954Y-117702843D01*
X94057955Y-117702842D01*
X94271973Y-117614193D01*
X94423440Y-117584064D01*
X94499173Y-117569000D01*
X94730827Y-117569000D01*
X94806560Y-117584064D01*
X94806560Y-117584064D01*
G37*
G36*
X66231560Y-117584064D02*
G01*
X66383027Y-117614193D01*
X66597045Y-117702842D01*
X66597046Y-117702843D01*
X66789654Y-117831539D01*
X66953461Y-117995346D01*
X67039258Y-118123751D01*
X67082158Y-118187955D01*
X67170807Y-118401973D01*
X67216000Y-118629174D01*
X67216000Y-118860826D01*
X67170807Y-119088027D01*
X67082158Y-119302045D01*
X67082157Y-119302046D01*
X66953461Y-119494654D01*
X66789654Y-119658461D01*
X66661249Y-119744258D01*
X66597045Y-119787158D01*
X66383027Y-119875807D01*
X66231560Y-119905936D01*
X66155827Y-119921000D01*
X65924173Y-119921000D01*
X65848440Y-119905936D01*
X65696973Y-119875807D01*
X65482955Y-119787158D01*
X65418751Y-119744258D01*
X65290346Y-119658461D01*
X65126539Y-119494654D01*
X64997843Y-119302046D01*
X64997842Y-119302045D01*
X64909193Y-119088027D01*
X64864000Y-118860826D01*
X64864000Y-118629174D01*
X64909193Y-118401973D01*
X64997842Y-118187955D01*
X65040742Y-118123751D01*
X65126539Y-117995346D01*
X65290346Y-117831539D01*
X65482954Y-117702843D01*
X65482955Y-117702842D01*
X65696973Y-117614193D01*
X65848440Y-117584064D01*
X65924173Y-117569000D01*
X66155827Y-117569000D01*
X66231560Y-117584064D01*
X66231560Y-117584064D01*
G37*
G36*
X108776560Y-116949064D02*
G01*
X108928027Y-116979193D01*
X109142045Y-117067842D01*
X109142046Y-117067843D01*
X109334654Y-117196539D01*
X109498461Y-117360346D01*
X109513041Y-117382167D01*
X109627158Y-117552955D01*
X109715807Y-117766973D01*
X109761000Y-117994174D01*
X109761000Y-118225826D01*
X109715807Y-118453027D01*
X109627158Y-118667045D01*
X109627157Y-118667046D01*
X109498461Y-118859654D01*
X109334654Y-119023461D01*
X109206249Y-119109258D01*
X109142045Y-119152158D01*
X108928027Y-119240807D01*
X108776560Y-119270936D01*
X108700827Y-119286000D01*
X108469173Y-119286000D01*
X108393440Y-119270936D01*
X108241973Y-119240807D01*
X108027955Y-119152158D01*
X107963751Y-119109258D01*
X107835346Y-119023461D01*
X107671539Y-118859654D01*
X107542843Y-118667046D01*
X107542842Y-118667045D01*
X107454193Y-118453027D01*
X107409000Y-118225826D01*
X107409000Y-117994174D01*
X107454193Y-117766973D01*
X107542842Y-117552955D01*
X107656959Y-117382167D01*
X107671539Y-117360346D01*
X107835346Y-117196539D01*
X108027954Y-117067843D01*
X108027955Y-117067842D01*
X108241973Y-116979193D01*
X108393440Y-116949064D01*
X108469173Y-116934000D01*
X108700827Y-116934000D01*
X108776560Y-116949064D01*
X108776560Y-116949064D01*
G37*
G36*
X52190224Y-113603684D02*
G01*
X52408224Y-113693983D01*
X52562373Y-113757833D01*
X52897298Y-113981623D01*
X53182127Y-114266452D01*
X53405917Y-114601377D01*
X53405917Y-114601378D01*
X53560066Y-114973526D01*
X53638650Y-115368594D01*
X53638650Y-115771406D01*
X53560066Y-116166474D01*
X53518710Y-116266315D01*
X53405917Y-116538623D01*
X53182127Y-116873548D01*
X52897298Y-117158377D01*
X52562373Y-117382167D01*
X52408224Y-117446017D01*
X52190224Y-117536316D01*
X51795156Y-117614900D01*
X51392344Y-117614900D01*
X50997276Y-117536316D01*
X50779276Y-117446017D01*
X50625127Y-117382167D01*
X50290202Y-117158377D01*
X50005373Y-116873548D01*
X49781583Y-116538623D01*
X49668790Y-116266315D01*
X49627434Y-116166474D01*
X49548850Y-115771406D01*
X49548850Y-115368594D01*
X49627434Y-114973526D01*
X49781583Y-114601378D01*
X49781583Y-114601377D01*
X50005373Y-114266452D01*
X50290202Y-113981623D01*
X50625127Y-113757833D01*
X50779276Y-113693983D01*
X50997276Y-113603684D01*
X51392344Y-113525100D01*
X51795156Y-113525100D01*
X52190224Y-113603684D01*
X52190224Y-113603684D01*
G37*
G36*
X76002724Y-113603684D02*
G01*
X76220724Y-113693983D01*
X76374873Y-113757833D01*
X76709798Y-113981623D01*
X76994627Y-114266452D01*
X77218417Y-114601377D01*
X77218417Y-114601378D01*
X77372566Y-114973526D01*
X77451150Y-115368594D01*
X77451150Y-115771406D01*
X77372566Y-116166474D01*
X77331210Y-116266315D01*
X77218417Y-116538623D01*
X76994627Y-116873548D01*
X76709798Y-117158377D01*
X76374873Y-117382167D01*
X76220724Y-117446017D01*
X76002724Y-117536316D01*
X75607656Y-117614900D01*
X75204844Y-117614900D01*
X74809776Y-117536316D01*
X74591776Y-117446017D01*
X74437627Y-117382167D01*
X74102702Y-117158377D01*
X73817873Y-116873548D01*
X73594083Y-116538623D01*
X73481290Y-116266315D01*
X73439934Y-116166474D01*
X73361350Y-115771406D01*
X73361350Y-115368594D01*
X73439934Y-114973526D01*
X73594083Y-114601378D01*
X73594083Y-114601377D01*
X73817873Y-114266452D01*
X74102702Y-113981623D01*
X74437627Y-113757833D01*
X74591776Y-113693983D01*
X74809776Y-113603684D01*
X75204844Y-113525100D01*
X75607656Y-113525100D01*
X76002724Y-113603684D01*
X76002724Y-113603684D01*
G37*
G36*
X111721474Y-112333684D02*
G01*
X111939474Y-112423983D01*
X112093623Y-112487833D01*
X112428548Y-112711623D01*
X112713377Y-112996452D01*
X112937167Y-113331377D01*
X112937167Y-113331378D01*
X113091316Y-113703526D01*
X113169900Y-114098594D01*
X113169900Y-114501406D01*
X113091316Y-114896474D01*
X113059400Y-114973525D01*
X112937167Y-115268623D01*
X112713377Y-115603548D01*
X112428548Y-115888377D01*
X112093623Y-116112167D01*
X111962514Y-116166474D01*
X111721474Y-116266316D01*
X111326406Y-116344900D01*
X110923594Y-116344900D01*
X110528526Y-116266316D01*
X110287486Y-116166474D01*
X110156377Y-116112167D01*
X109821452Y-115888377D01*
X109536623Y-115603548D01*
X109312833Y-115268623D01*
X109190600Y-114973525D01*
X109158684Y-114896474D01*
X109080100Y-114501406D01*
X109080100Y-114098594D01*
X109158684Y-113703526D01*
X109312833Y-113331378D01*
X109312833Y-113331377D01*
X109536623Y-112996452D01*
X109821452Y-112711623D01*
X110156377Y-112487833D01*
X110310526Y-112423983D01*
X110528526Y-112333684D01*
X110923594Y-112255100D01*
X111326406Y-112255100D01*
X111721474Y-112333684D01*
X111721474Y-112333684D01*
G37*
G36*
X106236560Y-110599064D02*
G01*
X106388027Y-110629193D01*
X106602045Y-110717842D01*
X106602046Y-110717843D01*
X106794654Y-110846539D01*
X106958461Y-111010346D01*
X107044258Y-111138751D01*
X107087158Y-111202955D01*
X107175807Y-111416973D01*
X107221000Y-111644174D01*
X107221000Y-111875826D01*
X107175807Y-112103027D01*
X107087158Y-112317045D01*
X107087157Y-112317046D01*
X106958461Y-112509654D01*
X106794654Y-112673461D01*
X106737540Y-112711623D01*
X106602045Y-112802158D01*
X106388027Y-112890807D01*
X106236560Y-112920936D01*
X106160827Y-112936000D01*
X105929173Y-112936000D01*
X105853440Y-112920936D01*
X105701973Y-112890807D01*
X105487955Y-112802158D01*
X105352460Y-112711623D01*
X105295346Y-112673461D01*
X105131539Y-112509654D01*
X105002843Y-112317046D01*
X105002842Y-112317045D01*
X104914193Y-112103027D01*
X104869000Y-111875826D01*
X104869000Y-111644174D01*
X104914193Y-111416973D01*
X105002842Y-111202955D01*
X105045742Y-111138751D01*
X105131539Y-111010346D01*
X105295346Y-110846539D01*
X105487954Y-110717843D01*
X105487955Y-110717842D01*
X105701973Y-110629193D01*
X105853440Y-110599064D01*
X105929173Y-110584000D01*
X106160827Y-110584000D01*
X106236560Y-110599064D01*
X106236560Y-110599064D01*
G37*
G36*
X111395104Y-108329585D02*
G01*
X111563626Y-108399389D01*
X111715291Y-108500728D01*
X111844272Y-108629709D01*
X111945611Y-108781374D01*
X112015415Y-108949896D01*
X112051000Y-109128797D01*
X112051000Y-109311203D01*
X112015415Y-109490104D01*
X111945611Y-109658626D01*
X111844272Y-109810291D01*
X111715291Y-109939272D01*
X111563626Y-110040611D01*
X111395104Y-110110415D01*
X111216203Y-110146000D01*
X111033797Y-110146000D01*
X110854896Y-110110415D01*
X110686374Y-110040611D01*
X110534709Y-109939272D01*
X110405728Y-109810291D01*
X110304389Y-109658626D01*
X110234585Y-109490104D01*
X110199000Y-109311203D01*
X110199000Y-109128797D01*
X110234585Y-108949896D01*
X110304389Y-108781374D01*
X110405728Y-108629709D01*
X110534709Y-108500728D01*
X110686374Y-108399389D01*
X110854896Y-108329585D01*
X111033797Y-108294000D01*
X111216203Y-108294000D01*
X111395104Y-108329585D01*
X111395104Y-108329585D01*
G37*
G36*
X73621474Y-102808684D02*
G01*
X73839474Y-102898983D01*
X73993623Y-102962833D01*
X74328548Y-103186623D01*
X74613377Y-103471452D01*
X74837167Y-103806377D01*
X74869562Y-103884586D01*
X74991316Y-104178526D01*
X75069900Y-104573594D01*
X75069900Y-104976406D01*
X74991316Y-105371474D01*
X74940451Y-105494272D01*
X74837167Y-105743623D01*
X74613377Y-106078548D01*
X74328548Y-106363377D01*
X73993623Y-106587167D01*
X73839474Y-106651017D01*
X73621474Y-106741316D01*
X73226406Y-106819900D01*
X72823594Y-106819900D01*
X72428526Y-106741316D01*
X72210526Y-106651017D01*
X72056377Y-106587167D01*
X71721452Y-106363377D01*
X71436623Y-106078548D01*
X71212833Y-105743623D01*
X71109549Y-105494272D01*
X71058684Y-105371474D01*
X70980100Y-104976406D01*
X70980100Y-104573594D01*
X71058684Y-104178526D01*
X71180438Y-103884586D01*
X71212833Y-103806377D01*
X71436623Y-103471452D01*
X71721452Y-103186623D01*
X72056377Y-102962833D01*
X72210526Y-102898983D01*
X72428526Y-102808684D01*
X72823594Y-102730100D01*
X73226406Y-102730100D01*
X73621474Y-102808684D01*
X73621474Y-102808684D01*
G37*
G36*
X92671474Y-102808684D02*
G01*
X92889474Y-102898983D01*
X93043623Y-102962833D01*
X93378548Y-103186623D01*
X93663377Y-103471452D01*
X93887167Y-103806377D01*
X93919562Y-103884586D01*
X94041316Y-104178526D01*
X94119900Y-104573594D01*
X94119900Y-104976406D01*
X94041316Y-105371474D01*
X93990451Y-105494272D01*
X93887167Y-105743623D01*
X93663377Y-106078548D01*
X93378548Y-106363377D01*
X93043623Y-106587167D01*
X92889474Y-106651017D01*
X92671474Y-106741316D01*
X92276406Y-106819900D01*
X91873594Y-106819900D01*
X91478526Y-106741316D01*
X91260526Y-106651017D01*
X91106377Y-106587167D01*
X90771452Y-106363377D01*
X90486623Y-106078548D01*
X90262833Y-105743623D01*
X90159549Y-105494272D01*
X90108684Y-105371474D01*
X90030100Y-104976406D01*
X90030100Y-104573594D01*
X90108684Y-104178526D01*
X90230438Y-103884586D01*
X90262833Y-103806377D01*
X90486623Y-103471452D01*
X90771452Y-103186623D01*
X91106377Y-102962833D01*
X91260526Y-102898983D01*
X91478526Y-102808684D01*
X91873594Y-102730100D01*
X92276406Y-102730100D01*
X92671474Y-102808684D01*
X92671474Y-102808684D01*
G37*
G36*
X54571474Y-102808684D02*
G01*
X54789474Y-102898983D01*
X54943623Y-102962833D01*
X55278548Y-103186623D01*
X55563377Y-103471452D01*
X55787167Y-103806377D01*
X55819562Y-103884586D01*
X55941316Y-104178526D01*
X56019900Y-104573594D01*
X56019900Y-104976406D01*
X55941316Y-105371474D01*
X55890451Y-105494272D01*
X55787167Y-105743623D01*
X55563377Y-106078548D01*
X55278548Y-106363377D01*
X54943623Y-106587167D01*
X54789474Y-106651017D01*
X54571474Y-106741316D01*
X54176406Y-106819900D01*
X53773594Y-106819900D01*
X53378526Y-106741316D01*
X53160526Y-106651017D01*
X53006377Y-106587167D01*
X52671452Y-106363377D01*
X52386623Y-106078548D01*
X52162833Y-105743623D01*
X52059549Y-105494272D01*
X52008684Y-105371474D01*
X51930100Y-104976406D01*
X51930100Y-104573594D01*
X52008684Y-104178526D01*
X52130438Y-103884586D01*
X52162833Y-103806377D01*
X52386623Y-103471452D01*
X52671452Y-103186623D01*
X53006377Y-102962833D01*
X53160526Y-102898983D01*
X53378526Y-102808684D01*
X53773594Y-102730100D01*
X54176406Y-102730100D01*
X54571474Y-102808684D01*
X54571474Y-102808684D01*
G37*
G36*
X49165104Y-103884585D02*
G01*
X49333626Y-103954389D01*
X49485291Y-104055728D01*
X49614272Y-104184709D01*
X49715611Y-104336374D01*
X49785415Y-104504896D01*
X49821000Y-104683797D01*
X49821000Y-104866203D01*
X49785415Y-105045104D01*
X49715611Y-105213626D01*
X49614272Y-105365291D01*
X49485291Y-105494272D01*
X49333626Y-105595611D01*
X49165104Y-105665415D01*
X48986203Y-105701000D01*
X48803797Y-105701000D01*
X48624896Y-105665415D01*
X48456374Y-105595611D01*
X48304709Y-105494272D01*
X48175728Y-105365291D01*
X48074389Y-105213626D01*
X48004585Y-105045104D01*
X47969000Y-104866203D01*
X47969000Y-104683797D01*
X48004585Y-104504896D01*
X48074389Y-104336374D01*
X48175728Y-104184709D01*
X48304709Y-104055728D01*
X48456374Y-103954389D01*
X48624896Y-103884585D01*
X48803797Y-103849000D01*
X48986203Y-103849000D01*
X49165104Y-103884585D01*
X49165104Y-103884585D01*
G37*
G36*
X97425104Y-103884585D02*
G01*
X97593626Y-103954389D01*
X97745291Y-104055728D01*
X97874272Y-104184709D01*
X97975611Y-104336374D01*
X98045415Y-104504896D01*
X98081000Y-104683797D01*
X98081000Y-104866203D01*
X98045415Y-105045104D01*
X97975611Y-105213626D01*
X97874272Y-105365291D01*
X97745291Y-105494272D01*
X97593626Y-105595611D01*
X97425104Y-105665415D01*
X97246203Y-105701000D01*
X97063797Y-105701000D01*
X96884896Y-105665415D01*
X96716374Y-105595611D01*
X96564709Y-105494272D01*
X96435728Y-105365291D01*
X96334389Y-105213626D01*
X96264585Y-105045104D01*
X96229000Y-104866203D01*
X96229000Y-104683797D01*
X96264585Y-104504896D01*
X96334389Y-104336374D01*
X96435728Y-104184709D01*
X96564709Y-104055728D01*
X96716374Y-103954389D01*
X96884896Y-103884585D01*
X97063797Y-103849000D01*
X97246203Y-103849000D01*
X97425104Y-103884585D01*
X97425104Y-103884585D01*
G37*
G36*
X87265104Y-103884585D02*
G01*
X87433626Y-103954389D01*
X87585291Y-104055728D01*
X87714272Y-104184709D01*
X87815611Y-104336374D01*
X87885415Y-104504896D01*
X87921000Y-104683797D01*
X87921000Y-104866203D01*
X87885415Y-105045104D01*
X87815611Y-105213626D01*
X87714272Y-105365291D01*
X87585291Y-105494272D01*
X87433626Y-105595611D01*
X87265104Y-105665415D01*
X87086203Y-105701000D01*
X86903797Y-105701000D01*
X86724896Y-105665415D01*
X86556374Y-105595611D01*
X86404709Y-105494272D01*
X86275728Y-105365291D01*
X86174389Y-105213626D01*
X86104585Y-105045104D01*
X86069000Y-104866203D01*
X86069000Y-104683797D01*
X86104585Y-104504896D01*
X86174389Y-104336374D01*
X86275728Y-104184709D01*
X86404709Y-104055728D01*
X86556374Y-103954389D01*
X86724896Y-103884585D01*
X86903797Y-103849000D01*
X87086203Y-103849000D01*
X87265104Y-103884585D01*
X87265104Y-103884585D01*
G37*
G36*
X59325104Y-103884585D02*
G01*
X59493626Y-103954389D01*
X59645291Y-104055728D01*
X59774272Y-104184709D01*
X59875611Y-104336374D01*
X59945415Y-104504896D01*
X59981000Y-104683797D01*
X59981000Y-104866203D01*
X59945415Y-105045104D01*
X59875611Y-105213626D01*
X59774272Y-105365291D01*
X59645291Y-105494272D01*
X59493626Y-105595611D01*
X59325104Y-105665415D01*
X59146203Y-105701000D01*
X58963797Y-105701000D01*
X58784896Y-105665415D01*
X58616374Y-105595611D01*
X58464709Y-105494272D01*
X58335728Y-105365291D01*
X58234389Y-105213626D01*
X58164585Y-105045104D01*
X58129000Y-104866203D01*
X58129000Y-104683797D01*
X58164585Y-104504896D01*
X58234389Y-104336374D01*
X58335728Y-104184709D01*
X58464709Y-104055728D01*
X58616374Y-103954389D01*
X58784896Y-103884585D01*
X58963797Y-103849000D01*
X59146203Y-103849000D01*
X59325104Y-103884585D01*
X59325104Y-103884585D01*
G37*
G36*
X68215104Y-103884585D02*
G01*
X68383626Y-103954389D01*
X68535291Y-104055728D01*
X68664272Y-104184709D01*
X68765611Y-104336374D01*
X68835415Y-104504896D01*
X68871000Y-104683797D01*
X68871000Y-104866203D01*
X68835415Y-105045104D01*
X68765611Y-105213626D01*
X68664272Y-105365291D01*
X68535291Y-105494272D01*
X68383626Y-105595611D01*
X68215104Y-105665415D01*
X68036203Y-105701000D01*
X67853797Y-105701000D01*
X67674896Y-105665415D01*
X67506374Y-105595611D01*
X67354709Y-105494272D01*
X67225728Y-105365291D01*
X67124389Y-105213626D01*
X67054585Y-105045104D01*
X67019000Y-104866203D01*
X67019000Y-104683797D01*
X67054585Y-104504896D01*
X67124389Y-104336374D01*
X67225728Y-104184709D01*
X67354709Y-104055728D01*
X67506374Y-103954389D01*
X67674896Y-103884585D01*
X67853797Y-103849000D01*
X68036203Y-103849000D01*
X68215104Y-103884585D01*
X68215104Y-103884585D01*
G37*
G36*
X78375104Y-103884585D02*
G01*
X78543626Y-103954389D01*
X78695291Y-104055728D01*
X78824272Y-104184709D01*
X78925611Y-104336374D01*
X78995415Y-104504896D01*
X79031000Y-104683797D01*
X79031000Y-104866203D01*
X78995415Y-105045104D01*
X78925611Y-105213626D01*
X78824272Y-105365291D01*
X78695291Y-105494272D01*
X78543626Y-105595611D01*
X78375104Y-105665415D01*
X78196203Y-105701000D01*
X78013797Y-105701000D01*
X77834896Y-105665415D01*
X77666374Y-105595611D01*
X77514709Y-105494272D01*
X77385728Y-105365291D01*
X77284389Y-105213626D01*
X77214585Y-105045104D01*
X77179000Y-104866203D01*
X77179000Y-104683797D01*
X77214585Y-104504896D01*
X77284389Y-104336374D01*
X77385728Y-104184709D01*
X77514709Y-104055728D01*
X77666374Y-103954389D01*
X77834896Y-103884585D01*
X78013797Y-103849000D01*
X78196203Y-103849000D01*
X78375104Y-103884585D01*
X78375104Y-103884585D01*
G37*
G36*
X103466474Y-100427434D02*
G01*
X103684474Y-100517733D01*
X103838623Y-100581583D01*
X104173548Y-100805373D01*
X104458377Y-101090202D01*
X104682167Y-101425127D01*
X104707110Y-101485346D01*
X104836316Y-101797276D01*
X104914900Y-102192344D01*
X104914900Y-102595156D01*
X104836316Y-102990224D01*
X104774363Y-103139791D01*
X104682167Y-103362373D01*
X104458377Y-103697298D01*
X104173548Y-103982127D01*
X103838623Y-104205917D01*
X103684474Y-104269767D01*
X103466474Y-104360066D01*
X103071406Y-104438650D01*
X102668594Y-104438650D01*
X102273526Y-104360066D01*
X102055526Y-104269767D01*
X101901377Y-104205917D01*
X101566452Y-103982127D01*
X101281623Y-103697298D01*
X101057833Y-103362373D01*
X100965637Y-103139791D01*
X100903684Y-102990224D01*
X100825100Y-102595156D01*
X100825100Y-102192344D01*
X100903684Y-101797276D01*
X101032890Y-101485346D01*
X101057833Y-101425127D01*
X101281623Y-101090202D01*
X101566452Y-100805373D01*
X101901377Y-100581583D01*
X102055526Y-100517733D01*
X102273526Y-100427434D01*
X102668594Y-100348850D01*
X103071406Y-100348850D01*
X103466474Y-100427434D01*
X103466474Y-100427434D01*
G37*
G36*
X118569411Y-100879276D02*
G01*
X118688137Y-100928454D01*
X118856041Y-100998002D01*
X118856042Y-100998003D01*
X119114004Y-101170367D01*
X119333383Y-101389746D01*
X119448553Y-101562111D01*
X119505748Y-101647709D01*
X119624474Y-101934340D01*
X119685000Y-102238625D01*
X119685000Y-102548875D01*
X119624474Y-102853160D01*
X119505748Y-103139791D01*
X119505747Y-103139792D01*
X119333383Y-103397754D01*
X119114004Y-103617133D01*
X118994028Y-103697298D01*
X118856041Y-103789498D01*
X118712390Y-103849000D01*
X118569411Y-103908224D01*
X118417267Y-103938487D01*
X118265125Y-103968750D01*
X117954875Y-103968750D01*
X117802733Y-103938487D01*
X117650589Y-103908224D01*
X117507610Y-103849000D01*
X117363959Y-103789498D01*
X117225972Y-103697298D01*
X117105996Y-103617133D01*
X116886617Y-103397754D01*
X116714253Y-103139792D01*
X116714252Y-103139791D01*
X116595526Y-102853160D01*
X116535000Y-102548875D01*
X116535000Y-102238625D01*
X116595526Y-101934340D01*
X116714252Y-101647709D01*
X116771447Y-101562111D01*
X116886617Y-101389746D01*
X117105996Y-101170367D01*
X117363958Y-100998003D01*
X117363959Y-100998002D01*
X117531863Y-100928454D01*
X117650589Y-100879276D01*
X117802733Y-100849013D01*
X117954875Y-100818750D01*
X118265125Y-100818750D01*
X118569411Y-100879276D01*
X118569411Y-100879276D01*
G37*
G36*
X88456560Y-101074064D02*
G01*
X88608027Y-101104193D01*
X88822045Y-101192842D01*
X88822046Y-101192843D01*
X89014654Y-101321539D01*
X89178461Y-101485346D01*
X89264258Y-101613751D01*
X89307158Y-101677955D01*
X89395807Y-101891973D01*
X89441000Y-102119174D01*
X89441000Y-102350826D01*
X89395807Y-102578027D01*
X89307158Y-102792045D01*
X89307157Y-102792046D01*
X89178461Y-102984654D01*
X89014654Y-103148461D01*
X88957540Y-103186623D01*
X88822045Y-103277158D01*
X88608027Y-103365807D01*
X88456560Y-103395936D01*
X88380827Y-103411000D01*
X88149173Y-103411000D01*
X88073440Y-103395936D01*
X87921973Y-103365807D01*
X87707955Y-103277158D01*
X87572460Y-103186623D01*
X87515346Y-103148461D01*
X87351539Y-102984654D01*
X87222843Y-102792046D01*
X87222842Y-102792045D01*
X87134193Y-102578027D01*
X87089000Y-102350826D01*
X87089000Y-102119174D01*
X87134193Y-101891973D01*
X87222842Y-101677955D01*
X87265742Y-101613751D01*
X87351539Y-101485346D01*
X87515346Y-101321539D01*
X87707954Y-101192843D01*
X87707955Y-101192842D01*
X87921973Y-101104193D01*
X88073440Y-101074064D01*
X88149173Y-101059000D01*
X88380827Y-101059000D01*
X88456560Y-101074064D01*
X88456560Y-101074064D01*
G37*
G36*
X69406560Y-101074064D02*
G01*
X69558027Y-101104193D01*
X69772045Y-101192842D01*
X69772046Y-101192843D01*
X69964654Y-101321539D01*
X70128461Y-101485346D01*
X70214258Y-101613751D01*
X70257158Y-101677955D01*
X70345807Y-101891973D01*
X70391000Y-102119174D01*
X70391000Y-102350826D01*
X70345807Y-102578027D01*
X70257158Y-102792045D01*
X70257157Y-102792046D01*
X70128461Y-102984654D01*
X69964654Y-103148461D01*
X69907540Y-103186623D01*
X69772045Y-103277158D01*
X69558027Y-103365807D01*
X69406560Y-103395936D01*
X69330827Y-103411000D01*
X69099173Y-103411000D01*
X69023440Y-103395936D01*
X68871973Y-103365807D01*
X68657955Y-103277158D01*
X68522460Y-103186623D01*
X68465346Y-103148461D01*
X68301539Y-102984654D01*
X68172843Y-102792046D01*
X68172842Y-102792045D01*
X68084193Y-102578027D01*
X68039000Y-102350826D01*
X68039000Y-102119174D01*
X68084193Y-101891973D01*
X68172842Y-101677955D01*
X68215742Y-101613751D01*
X68301539Y-101485346D01*
X68465346Y-101321539D01*
X68657954Y-101192843D01*
X68657955Y-101192842D01*
X68871973Y-101104193D01*
X69023440Y-101074064D01*
X69099173Y-101059000D01*
X69330827Y-101059000D01*
X69406560Y-101074064D01*
X69406560Y-101074064D01*
G37*
G36*
X50356560Y-101074064D02*
G01*
X50508027Y-101104193D01*
X50722045Y-101192842D01*
X50722046Y-101192843D01*
X50914654Y-101321539D01*
X51078461Y-101485346D01*
X51164258Y-101613751D01*
X51207158Y-101677955D01*
X51295807Y-101891973D01*
X51341000Y-102119174D01*
X51341000Y-102350826D01*
X51295807Y-102578027D01*
X51207158Y-102792045D01*
X51207157Y-102792046D01*
X51078461Y-102984654D01*
X50914654Y-103148461D01*
X50857540Y-103186623D01*
X50722045Y-103277158D01*
X50508027Y-103365807D01*
X50356560Y-103395936D01*
X50280827Y-103411000D01*
X50049173Y-103411000D01*
X49973440Y-103395936D01*
X49821973Y-103365807D01*
X49607955Y-103277158D01*
X49472460Y-103186623D01*
X49415346Y-103148461D01*
X49251539Y-102984654D01*
X49122843Y-102792046D01*
X49122842Y-102792045D01*
X49034193Y-102578027D01*
X48989000Y-102350826D01*
X48989000Y-102119174D01*
X49034193Y-101891973D01*
X49122842Y-101677955D01*
X49165742Y-101613751D01*
X49251539Y-101485346D01*
X49415346Y-101321539D01*
X49607954Y-101192843D01*
X49607955Y-101192842D01*
X49821973Y-101104193D01*
X49973440Y-101074064D01*
X50049173Y-101059000D01*
X50280827Y-101059000D01*
X50356560Y-101074064D01*
X50356560Y-101074064D01*
G37*
G36*
X75756560Y-98534064D02*
G01*
X75908027Y-98564193D01*
X76122045Y-98652842D01*
X76122046Y-98652843D01*
X76314654Y-98781539D01*
X76478461Y-98945346D01*
X76564258Y-99073751D01*
X76607158Y-99137955D01*
X76695807Y-99351973D01*
X76741000Y-99579174D01*
X76741000Y-99810826D01*
X76695807Y-100038027D01*
X76607158Y-100252045D01*
X76607157Y-100252046D01*
X76478461Y-100444654D01*
X76314654Y-100608461D01*
X76186249Y-100694258D01*
X76122045Y-100737158D01*
X75908027Y-100825807D01*
X75756560Y-100855936D01*
X75680827Y-100871000D01*
X75449173Y-100871000D01*
X75373440Y-100855936D01*
X75221973Y-100825807D01*
X75007955Y-100737158D01*
X74943751Y-100694258D01*
X74815346Y-100608461D01*
X74651539Y-100444654D01*
X74522843Y-100252046D01*
X74522842Y-100252045D01*
X74434193Y-100038027D01*
X74389000Y-99810826D01*
X74389000Y-99579174D01*
X74434193Y-99351973D01*
X74522842Y-99137955D01*
X74565742Y-99073751D01*
X74651539Y-98945346D01*
X74815346Y-98781539D01*
X75007954Y-98652843D01*
X75007955Y-98652842D01*
X75221973Y-98564193D01*
X75373440Y-98534064D01*
X75449173Y-98519000D01*
X75680827Y-98519000D01*
X75756560Y-98534064D01*
X75756560Y-98534064D01*
G37*
G36*
X56706560Y-98534064D02*
G01*
X56858027Y-98564193D01*
X57072045Y-98652842D01*
X57072046Y-98652843D01*
X57264654Y-98781539D01*
X57428461Y-98945346D01*
X57514258Y-99073751D01*
X57557158Y-99137955D01*
X57645807Y-99351973D01*
X57691000Y-99579174D01*
X57691000Y-99810826D01*
X57645807Y-100038027D01*
X57557158Y-100252045D01*
X57557157Y-100252046D01*
X57428461Y-100444654D01*
X57264654Y-100608461D01*
X57136249Y-100694258D01*
X57072045Y-100737158D01*
X56858027Y-100825807D01*
X56706560Y-100855936D01*
X56630827Y-100871000D01*
X56399173Y-100871000D01*
X56323440Y-100855936D01*
X56171973Y-100825807D01*
X55957955Y-100737158D01*
X55893751Y-100694258D01*
X55765346Y-100608461D01*
X55601539Y-100444654D01*
X55472843Y-100252046D01*
X55472842Y-100252045D01*
X55384193Y-100038027D01*
X55339000Y-99810826D01*
X55339000Y-99579174D01*
X55384193Y-99351973D01*
X55472842Y-99137955D01*
X55515742Y-99073751D01*
X55601539Y-98945346D01*
X55765346Y-98781539D01*
X55957954Y-98652843D01*
X55957955Y-98652842D01*
X56171973Y-98564193D01*
X56323440Y-98534064D01*
X56399173Y-98519000D01*
X56630827Y-98519000D01*
X56706560Y-98534064D01*
X56706560Y-98534064D01*
G37*
G36*
X94806560Y-98534064D02*
G01*
X94958027Y-98564193D01*
X95172045Y-98652842D01*
X95172046Y-98652843D01*
X95364654Y-98781539D01*
X95528461Y-98945346D01*
X95614258Y-99073751D01*
X95657158Y-99137955D01*
X95745807Y-99351973D01*
X95791000Y-99579174D01*
X95791000Y-99810826D01*
X95745807Y-100038027D01*
X95657158Y-100252045D01*
X95657157Y-100252046D01*
X95528461Y-100444654D01*
X95364654Y-100608461D01*
X95236249Y-100694258D01*
X95172045Y-100737158D01*
X94958027Y-100825807D01*
X94806560Y-100855936D01*
X94730827Y-100871000D01*
X94499173Y-100871000D01*
X94423440Y-100855936D01*
X94271973Y-100825807D01*
X94057955Y-100737158D01*
X93993751Y-100694258D01*
X93865346Y-100608461D01*
X93701539Y-100444654D01*
X93572843Y-100252046D01*
X93572842Y-100252045D01*
X93484193Y-100038027D01*
X93439000Y-99810826D01*
X93439000Y-99579174D01*
X93484193Y-99351973D01*
X93572842Y-99137955D01*
X93615742Y-99073751D01*
X93701539Y-98945346D01*
X93865346Y-98781539D01*
X94057954Y-98652843D01*
X94057955Y-98652842D01*
X94271973Y-98564193D01*
X94423440Y-98534064D01*
X94499173Y-98519000D01*
X94730827Y-98519000D01*
X94806560Y-98534064D01*
X94806560Y-98534064D01*
G37*
G36*
X111721474Y-83758684D02*
G01*
X111939474Y-83848983D01*
X112093623Y-83912833D01*
X112428548Y-84136623D01*
X112713377Y-84421452D01*
X112937167Y-84756377D01*
X112969562Y-84834586D01*
X113091316Y-85128526D01*
X113169900Y-85523594D01*
X113169900Y-85926406D01*
X113091316Y-86321474D01*
X113040451Y-86444272D01*
X112937167Y-86693623D01*
X112713377Y-87028548D01*
X112428548Y-87313377D01*
X112093623Y-87537167D01*
X111939474Y-87601017D01*
X111721474Y-87691316D01*
X111326406Y-87769900D01*
X110923594Y-87769900D01*
X110528526Y-87691316D01*
X110310526Y-87601017D01*
X110156377Y-87537167D01*
X109821452Y-87313377D01*
X109536623Y-87028548D01*
X109312833Y-86693623D01*
X109209549Y-86444272D01*
X109158684Y-86321474D01*
X109080100Y-85926406D01*
X109080100Y-85523594D01*
X109158684Y-85128526D01*
X109280438Y-84834586D01*
X109312833Y-84756377D01*
X109536623Y-84421452D01*
X109821452Y-84136623D01*
X110156377Y-83912833D01*
X110310526Y-83848983D01*
X110528526Y-83758684D01*
X110923594Y-83680100D01*
X111326406Y-83680100D01*
X111721474Y-83758684D01*
X111721474Y-83758684D01*
G37*
G36*
X54571474Y-83758684D02*
G01*
X54789474Y-83848983D01*
X54943623Y-83912833D01*
X55278548Y-84136623D01*
X55563377Y-84421452D01*
X55787167Y-84756377D01*
X55819562Y-84834586D01*
X55941316Y-85128526D01*
X56019900Y-85523594D01*
X56019900Y-85926406D01*
X55941316Y-86321474D01*
X55890451Y-86444272D01*
X55787167Y-86693623D01*
X55563377Y-87028548D01*
X55278548Y-87313377D01*
X54943623Y-87537167D01*
X54789474Y-87601017D01*
X54571474Y-87691316D01*
X54176406Y-87769900D01*
X53773594Y-87769900D01*
X53378526Y-87691316D01*
X53160526Y-87601017D01*
X53006377Y-87537167D01*
X52671452Y-87313377D01*
X52386623Y-87028548D01*
X52162833Y-86693623D01*
X52059549Y-86444272D01*
X52008684Y-86321474D01*
X51930100Y-85926406D01*
X51930100Y-85523594D01*
X52008684Y-85128526D01*
X52130438Y-84834586D01*
X52162833Y-84756377D01*
X52386623Y-84421452D01*
X52671452Y-84136623D01*
X53006377Y-83912833D01*
X53160526Y-83848983D01*
X53378526Y-83758684D01*
X53773594Y-83680100D01*
X54176406Y-83680100D01*
X54571474Y-83758684D01*
X54571474Y-83758684D01*
G37*
G36*
X73621474Y-83758684D02*
G01*
X73839474Y-83848983D01*
X73993623Y-83912833D01*
X74328548Y-84136623D01*
X74613377Y-84421452D01*
X74837167Y-84756377D01*
X74869562Y-84834586D01*
X74991316Y-85128526D01*
X75069900Y-85523594D01*
X75069900Y-85926406D01*
X74991316Y-86321474D01*
X74940451Y-86444272D01*
X74837167Y-86693623D01*
X74613377Y-87028548D01*
X74328548Y-87313377D01*
X73993623Y-87537167D01*
X73839474Y-87601017D01*
X73621474Y-87691316D01*
X73226406Y-87769900D01*
X72823594Y-87769900D01*
X72428526Y-87691316D01*
X72210526Y-87601017D01*
X72056377Y-87537167D01*
X71721452Y-87313377D01*
X71436623Y-87028548D01*
X71212833Y-86693623D01*
X71109549Y-86444272D01*
X71058684Y-86321474D01*
X70980100Y-85926406D01*
X70980100Y-85523594D01*
X71058684Y-85128526D01*
X71180438Y-84834586D01*
X71212833Y-84756377D01*
X71436623Y-84421452D01*
X71721452Y-84136623D01*
X72056377Y-83912833D01*
X72210526Y-83848983D01*
X72428526Y-83758684D01*
X72823594Y-83680100D01*
X73226406Y-83680100D01*
X73621474Y-83758684D01*
X73621474Y-83758684D01*
G37*
G36*
X92671474Y-83758684D02*
G01*
X92889474Y-83848983D01*
X93043623Y-83912833D01*
X93378548Y-84136623D01*
X93663377Y-84421452D01*
X93887167Y-84756377D01*
X93919562Y-84834586D01*
X94041316Y-85128526D01*
X94119900Y-85523594D01*
X94119900Y-85926406D01*
X94041316Y-86321474D01*
X93990451Y-86444272D01*
X93887167Y-86693623D01*
X93663377Y-87028548D01*
X93378548Y-87313377D01*
X93043623Y-87537167D01*
X92889474Y-87601017D01*
X92671474Y-87691316D01*
X92276406Y-87769900D01*
X91873594Y-87769900D01*
X91478526Y-87691316D01*
X91260526Y-87601017D01*
X91106377Y-87537167D01*
X90771452Y-87313377D01*
X90486623Y-87028548D01*
X90262833Y-86693623D01*
X90159549Y-86444272D01*
X90108684Y-86321474D01*
X90030100Y-85926406D01*
X90030100Y-85523594D01*
X90108684Y-85128526D01*
X90230438Y-84834586D01*
X90262833Y-84756377D01*
X90486623Y-84421452D01*
X90771452Y-84136623D01*
X91106377Y-83912833D01*
X91260526Y-83848983D01*
X91478526Y-83758684D01*
X91873594Y-83680100D01*
X92276406Y-83680100D01*
X92671474Y-83758684D01*
X92671474Y-83758684D01*
G37*
G36*
X78375104Y-84834585D02*
G01*
X78543626Y-84904389D01*
X78695291Y-85005728D01*
X78824272Y-85134709D01*
X78925611Y-85286374D01*
X78995415Y-85454896D01*
X79031000Y-85633797D01*
X79031000Y-85816203D01*
X78995415Y-85995104D01*
X78925611Y-86163626D01*
X78824272Y-86315291D01*
X78695291Y-86444272D01*
X78543626Y-86545611D01*
X78375104Y-86615415D01*
X78196203Y-86651000D01*
X78013797Y-86651000D01*
X77834896Y-86615415D01*
X77666374Y-86545611D01*
X77514709Y-86444272D01*
X77385728Y-86315291D01*
X77284389Y-86163626D01*
X77214585Y-85995104D01*
X77179000Y-85816203D01*
X77179000Y-85633797D01*
X77214585Y-85454896D01*
X77284389Y-85286374D01*
X77385728Y-85134709D01*
X77514709Y-85005728D01*
X77666374Y-84904389D01*
X77834896Y-84834585D01*
X78013797Y-84799000D01*
X78196203Y-84799000D01*
X78375104Y-84834585D01*
X78375104Y-84834585D01*
G37*
G36*
X87265104Y-84834585D02*
G01*
X87433626Y-84904389D01*
X87585291Y-85005728D01*
X87714272Y-85134709D01*
X87815611Y-85286374D01*
X87885415Y-85454896D01*
X87921000Y-85633797D01*
X87921000Y-85816203D01*
X87885415Y-85995104D01*
X87815611Y-86163626D01*
X87714272Y-86315291D01*
X87585291Y-86444272D01*
X87433626Y-86545611D01*
X87265104Y-86615415D01*
X87086203Y-86651000D01*
X86903797Y-86651000D01*
X86724896Y-86615415D01*
X86556374Y-86545611D01*
X86404709Y-86444272D01*
X86275728Y-86315291D01*
X86174389Y-86163626D01*
X86104585Y-85995104D01*
X86069000Y-85816203D01*
X86069000Y-85633797D01*
X86104585Y-85454896D01*
X86174389Y-85286374D01*
X86275728Y-85134709D01*
X86404709Y-85005728D01*
X86556374Y-84904389D01*
X86724896Y-84834585D01*
X86903797Y-84799000D01*
X87086203Y-84799000D01*
X87265104Y-84834585D01*
X87265104Y-84834585D01*
G37*
G36*
X97425104Y-84834585D02*
G01*
X97593626Y-84904389D01*
X97745291Y-85005728D01*
X97874272Y-85134709D01*
X97975611Y-85286374D01*
X98045415Y-85454896D01*
X98081000Y-85633797D01*
X98081000Y-85816203D01*
X98045415Y-85995104D01*
X97975611Y-86163626D01*
X97874272Y-86315291D01*
X97745291Y-86444272D01*
X97593626Y-86545611D01*
X97425104Y-86615415D01*
X97246203Y-86651000D01*
X97063797Y-86651000D01*
X96884896Y-86615415D01*
X96716374Y-86545611D01*
X96564709Y-86444272D01*
X96435728Y-86315291D01*
X96334389Y-86163626D01*
X96264585Y-85995104D01*
X96229000Y-85816203D01*
X96229000Y-85633797D01*
X96264585Y-85454896D01*
X96334389Y-85286374D01*
X96435728Y-85134709D01*
X96564709Y-85005728D01*
X96716374Y-84904389D01*
X96884896Y-84834585D01*
X97063797Y-84799000D01*
X97246203Y-84799000D01*
X97425104Y-84834585D01*
X97425104Y-84834585D01*
G37*
G36*
X106315104Y-84834585D02*
G01*
X106483626Y-84904389D01*
X106635291Y-85005728D01*
X106764272Y-85134709D01*
X106865611Y-85286374D01*
X106935415Y-85454896D01*
X106971000Y-85633797D01*
X106971000Y-85816203D01*
X106935415Y-85995104D01*
X106865611Y-86163626D01*
X106764272Y-86315291D01*
X106635291Y-86444272D01*
X106483626Y-86545611D01*
X106315104Y-86615415D01*
X106136203Y-86651000D01*
X105953797Y-86651000D01*
X105774896Y-86615415D01*
X105606374Y-86545611D01*
X105454709Y-86444272D01*
X105325728Y-86315291D01*
X105224389Y-86163626D01*
X105154585Y-85995104D01*
X105119000Y-85816203D01*
X105119000Y-85633797D01*
X105154585Y-85454896D01*
X105224389Y-85286374D01*
X105325728Y-85134709D01*
X105454709Y-85005728D01*
X105606374Y-84904389D01*
X105774896Y-84834585D01*
X105953797Y-84799000D01*
X106136203Y-84799000D01*
X106315104Y-84834585D01*
X106315104Y-84834585D01*
G37*
G36*
X116475104Y-84834585D02*
G01*
X116643626Y-84904389D01*
X116795291Y-85005728D01*
X116924272Y-85134709D01*
X117025611Y-85286374D01*
X117095415Y-85454896D01*
X117131000Y-85633797D01*
X117131000Y-85816203D01*
X117095415Y-85995104D01*
X117025611Y-86163626D01*
X116924272Y-86315291D01*
X116795291Y-86444272D01*
X116643626Y-86545611D01*
X116475104Y-86615415D01*
X116296203Y-86651000D01*
X116113797Y-86651000D01*
X115934896Y-86615415D01*
X115766374Y-86545611D01*
X115614709Y-86444272D01*
X115485728Y-86315291D01*
X115384389Y-86163626D01*
X115314585Y-85995104D01*
X115279000Y-85816203D01*
X115279000Y-85633797D01*
X115314585Y-85454896D01*
X115384389Y-85286374D01*
X115485728Y-85134709D01*
X115614709Y-85005728D01*
X115766374Y-84904389D01*
X115934896Y-84834585D01*
X116113797Y-84799000D01*
X116296203Y-84799000D01*
X116475104Y-84834585D01*
X116475104Y-84834585D01*
G37*
G36*
X68215104Y-84834585D02*
G01*
X68383626Y-84904389D01*
X68535291Y-85005728D01*
X68664272Y-85134709D01*
X68765611Y-85286374D01*
X68835415Y-85454896D01*
X68871000Y-85633797D01*
X68871000Y-85816203D01*
X68835415Y-85995104D01*
X68765611Y-86163626D01*
X68664272Y-86315291D01*
X68535291Y-86444272D01*
X68383626Y-86545611D01*
X68215104Y-86615415D01*
X68036203Y-86651000D01*
X67853797Y-86651000D01*
X67674896Y-86615415D01*
X67506374Y-86545611D01*
X67354709Y-86444272D01*
X67225728Y-86315291D01*
X67124389Y-86163626D01*
X67054585Y-85995104D01*
X67019000Y-85816203D01*
X67019000Y-85633797D01*
X67054585Y-85454896D01*
X67124389Y-85286374D01*
X67225728Y-85134709D01*
X67354709Y-85005728D01*
X67506374Y-84904389D01*
X67674896Y-84834585D01*
X67853797Y-84799000D01*
X68036203Y-84799000D01*
X68215104Y-84834585D01*
X68215104Y-84834585D01*
G37*
G36*
X59325104Y-84834585D02*
G01*
X59493626Y-84904389D01*
X59645291Y-85005728D01*
X59774272Y-85134709D01*
X59875611Y-85286374D01*
X59945415Y-85454896D01*
X59981000Y-85633797D01*
X59981000Y-85816203D01*
X59945415Y-85995104D01*
X59875611Y-86163626D01*
X59774272Y-86315291D01*
X59645291Y-86444272D01*
X59493626Y-86545611D01*
X59325104Y-86615415D01*
X59146203Y-86651000D01*
X58963797Y-86651000D01*
X58784896Y-86615415D01*
X58616374Y-86545611D01*
X58464709Y-86444272D01*
X58335728Y-86315291D01*
X58234389Y-86163626D01*
X58164585Y-85995104D01*
X58129000Y-85816203D01*
X58129000Y-85633797D01*
X58164585Y-85454896D01*
X58234389Y-85286374D01*
X58335728Y-85134709D01*
X58464709Y-85005728D01*
X58616374Y-84904389D01*
X58784896Y-84834585D01*
X58963797Y-84799000D01*
X59146203Y-84799000D01*
X59325104Y-84834585D01*
X59325104Y-84834585D01*
G37*
G36*
X49165104Y-84834585D02*
G01*
X49333626Y-84904389D01*
X49485291Y-85005728D01*
X49614272Y-85134709D01*
X49715611Y-85286374D01*
X49785415Y-85454896D01*
X49821000Y-85633797D01*
X49821000Y-85816203D01*
X49785415Y-85995104D01*
X49715611Y-86163626D01*
X49614272Y-86315291D01*
X49485291Y-86444272D01*
X49333626Y-86545611D01*
X49165104Y-86615415D01*
X48986203Y-86651000D01*
X48803797Y-86651000D01*
X48624896Y-86615415D01*
X48456374Y-86545611D01*
X48304709Y-86444272D01*
X48175728Y-86315291D01*
X48074389Y-86163626D01*
X48004585Y-85995104D01*
X47969000Y-85816203D01*
X47969000Y-85633797D01*
X48004585Y-85454896D01*
X48074389Y-85286374D01*
X48175728Y-85134709D01*
X48304709Y-85005728D01*
X48456374Y-84904389D01*
X48624896Y-84834585D01*
X48803797Y-84799000D01*
X48986203Y-84799000D01*
X49165104Y-84834585D01*
X49165104Y-84834585D01*
G37*
G36*
X88456560Y-82024064D02*
G01*
X88608027Y-82054193D01*
X88822045Y-82142842D01*
X88822046Y-82142843D01*
X89014654Y-82271539D01*
X89178461Y-82435346D01*
X89264258Y-82563751D01*
X89307158Y-82627955D01*
X89395807Y-82841973D01*
X89441000Y-83069174D01*
X89441000Y-83300826D01*
X89395807Y-83528027D01*
X89307158Y-83742045D01*
X89307157Y-83742046D01*
X89178461Y-83934654D01*
X89014654Y-84098461D01*
X88957540Y-84136623D01*
X88822045Y-84227158D01*
X88608027Y-84315807D01*
X88456560Y-84345936D01*
X88380827Y-84361000D01*
X88149173Y-84361000D01*
X88073440Y-84345936D01*
X87921973Y-84315807D01*
X87707955Y-84227158D01*
X87572460Y-84136623D01*
X87515346Y-84098461D01*
X87351539Y-83934654D01*
X87222843Y-83742046D01*
X87222842Y-83742045D01*
X87134193Y-83528027D01*
X87089000Y-83300826D01*
X87089000Y-83069174D01*
X87134193Y-82841973D01*
X87222842Y-82627955D01*
X87265742Y-82563751D01*
X87351539Y-82435346D01*
X87515346Y-82271539D01*
X87707954Y-82142843D01*
X87707955Y-82142842D01*
X87921973Y-82054193D01*
X88073440Y-82024064D01*
X88149173Y-82009000D01*
X88380827Y-82009000D01*
X88456560Y-82024064D01*
X88456560Y-82024064D01*
G37*
G36*
X107506560Y-82024064D02*
G01*
X107658027Y-82054193D01*
X107872045Y-82142842D01*
X107872046Y-82142843D01*
X108064654Y-82271539D01*
X108228461Y-82435346D01*
X108314258Y-82563751D01*
X108357158Y-82627955D01*
X108445807Y-82841973D01*
X108491000Y-83069174D01*
X108491000Y-83300826D01*
X108445807Y-83528027D01*
X108357158Y-83742045D01*
X108357157Y-83742046D01*
X108228461Y-83934654D01*
X108064654Y-84098461D01*
X108007540Y-84136623D01*
X107872045Y-84227158D01*
X107658027Y-84315807D01*
X107506560Y-84345936D01*
X107430827Y-84361000D01*
X107199173Y-84361000D01*
X107123440Y-84345936D01*
X106971973Y-84315807D01*
X106757955Y-84227158D01*
X106622460Y-84136623D01*
X106565346Y-84098461D01*
X106401539Y-83934654D01*
X106272843Y-83742046D01*
X106272842Y-83742045D01*
X106184193Y-83528027D01*
X106139000Y-83300826D01*
X106139000Y-83069174D01*
X106184193Y-82841973D01*
X106272842Y-82627955D01*
X106315742Y-82563751D01*
X106401539Y-82435346D01*
X106565346Y-82271539D01*
X106757954Y-82142843D01*
X106757955Y-82142842D01*
X106971973Y-82054193D01*
X107123440Y-82024064D01*
X107199173Y-82009000D01*
X107430827Y-82009000D01*
X107506560Y-82024064D01*
X107506560Y-82024064D01*
G37*
G36*
X69406560Y-82024064D02*
G01*
X69558027Y-82054193D01*
X69772045Y-82142842D01*
X69772046Y-82142843D01*
X69964654Y-82271539D01*
X70128461Y-82435346D01*
X70214258Y-82563751D01*
X70257158Y-82627955D01*
X70345807Y-82841973D01*
X70391000Y-83069174D01*
X70391000Y-83300826D01*
X70345807Y-83528027D01*
X70257158Y-83742045D01*
X70257157Y-83742046D01*
X70128461Y-83934654D01*
X69964654Y-84098461D01*
X69907540Y-84136623D01*
X69772045Y-84227158D01*
X69558027Y-84315807D01*
X69406560Y-84345936D01*
X69330827Y-84361000D01*
X69099173Y-84361000D01*
X69023440Y-84345936D01*
X68871973Y-84315807D01*
X68657955Y-84227158D01*
X68522460Y-84136623D01*
X68465346Y-84098461D01*
X68301539Y-83934654D01*
X68172843Y-83742046D01*
X68172842Y-83742045D01*
X68084193Y-83528027D01*
X68039000Y-83300826D01*
X68039000Y-83069174D01*
X68084193Y-82841973D01*
X68172842Y-82627955D01*
X68215742Y-82563751D01*
X68301539Y-82435346D01*
X68465346Y-82271539D01*
X68657954Y-82142843D01*
X68657955Y-82142842D01*
X68871973Y-82054193D01*
X69023440Y-82024064D01*
X69099173Y-82009000D01*
X69330827Y-82009000D01*
X69406560Y-82024064D01*
X69406560Y-82024064D01*
G37*
G36*
X50356560Y-82024064D02*
G01*
X50508027Y-82054193D01*
X50722045Y-82142842D01*
X50722046Y-82142843D01*
X50914654Y-82271539D01*
X51078461Y-82435346D01*
X51164258Y-82563751D01*
X51207158Y-82627955D01*
X51295807Y-82841973D01*
X51341000Y-83069174D01*
X51341000Y-83300826D01*
X51295807Y-83528027D01*
X51207158Y-83742045D01*
X51207157Y-83742046D01*
X51078461Y-83934654D01*
X50914654Y-84098461D01*
X50857540Y-84136623D01*
X50722045Y-84227158D01*
X50508027Y-84315807D01*
X50356560Y-84345936D01*
X50280827Y-84361000D01*
X50049173Y-84361000D01*
X49973440Y-84345936D01*
X49821973Y-84315807D01*
X49607955Y-84227158D01*
X49472460Y-84136623D01*
X49415346Y-84098461D01*
X49251539Y-83934654D01*
X49122843Y-83742046D01*
X49122842Y-83742045D01*
X49034193Y-83528027D01*
X48989000Y-83300826D01*
X48989000Y-83069174D01*
X49034193Y-82841973D01*
X49122842Y-82627955D01*
X49165742Y-82563751D01*
X49251539Y-82435346D01*
X49415346Y-82271539D01*
X49607954Y-82142843D01*
X49607955Y-82142842D01*
X49821973Y-82054193D01*
X49973440Y-82024064D01*
X50049173Y-82009000D01*
X50280827Y-82009000D01*
X50356560Y-82024064D01*
X50356560Y-82024064D01*
G37*
G36*
X113856560Y-79484064D02*
G01*
X114008027Y-79514193D01*
X114222045Y-79602842D01*
X114222046Y-79602843D01*
X114414654Y-79731539D01*
X114578461Y-79895346D01*
X114664258Y-80023751D01*
X114707158Y-80087955D01*
X114795807Y-80301973D01*
X114841000Y-80529174D01*
X114841000Y-80760826D01*
X114795807Y-80988027D01*
X114707158Y-81202045D01*
X114707157Y-81202046D01*
X114578461Y-81394654D01*
X114414654Y-81558461D01*
X114286249Y-81644258D01*
X114222045Y-81687158D01*
X114008027Y-81775807D01*
X113856560Y-81805936D01*
X113780827Y-81821000D01*
X113549173Y-81821000D01*
X113473440Y-81805936D01*
X113321973Y-81775807D01*
X113107955Y-81687158D01*
X113043751Y-81644258D01*
X112915346Y-81558461D01*
X112751539Y-81394654D01*
X112622843Y-81202046D01*
X112622842Y-81202045D01*
X112534193Y-80988027D01*
X112489000Y-80760826D01*
X112489000Y-80529174D01*
X112534193Y-80301973D01*
X112622842Y-80087955D01*
X112665742Y-80023751D01*
X112751539Y-79895346D01*
X112915346Y-79731539D01*
X113107954Y-79602843D01*
X113107955Y-79602842D01*
X113321973Y-79514193D01*
X113473440Y-79484064D01*
X113549173Y-79469000D01*
X113780827Y-79469000D01*
X113856560Y-79484064D01*
X113856560Y-79484064D01*
G37*
G36*
X94806560Y-79484064D02*
G01*
X94958027Y-79514193D01*
X95172045Y-79602842D01*
X95172046Y-79602843D01*
X95364654Y-79731539D01*
X95528461Y-79895346D01*
X95614258Y-80023751D01*
X95657158Y-80087955D01*
X95745807Y-80301973D01*
X95791000Y-80529174D01*
X95791000Y-80760826D01*
X95745807Y-80988027D01*
X95657158Y-81202045D01*
X95657157Y-81202046D01*
X95528461Y-81394654D01*
X95364654Y-81558461D01*
X95236249Y-81644258D01*
X95172045Y-81687158D01*
X94958027Y-81775807D01*
X94806560Y-81805936D01*
X94730827Y-81821000D01*
X94499173Y-81821000D01*
X94423440Y-81805936D01*
X94271973Y-81775807D01*
X94057955Y-81687158D01*
X93993751Y-81644258D01*
X93865346Y-81558461D01*
X93701539Y-81394654D01*
X93572843Y-81202046D01*
X93572842Y-81202045D01*
X93484193Y-80988027D01*
X93439000Y-80760826D01*
X93439000Y-80529174D01*
X93484193Y-80301973D01*
X93572842Y-80087955D01*
X93615742Y-80023751D01*
X93701539Y-79895346D01*
X93865346Y-79731539D01*
X94057954Y-79602843D01*
X94057955Y-79602842D01*
X94271973Y-79514193D01*
X94423440Y-79484064D01*
X94499173Y-79469000D01*
X94730827Y-79469000D01*
X94806560Y-79484064D01*
X94806560Y-79484064D01*
G37*
G36*
X75756560Y-79484064D02*
G01*
X75908027Y-79514193D01*
X76122045Y-79602842D01*
X76122046Y-79602843D01*
X76314654Y-79731539D01*
X76478461Y-79895346D01*
X76564258Y-80023751D01*
X76607158Y-80087955D01*
X76695807Y-80301973D01*
X76741000Y-80529174D01*
X76741000Y-80760826D01*
X76695807Y-80988027D01*
X76607158Y-81202045D01*
X76607157Y-81202046D01*
X76478461Y-81394654D01*
X76314654Y-81558461D01*
X76186249Y-81644258D01*
X76122045Y-81687158D01*
X75908027Y-81775807D01*
X75756560Y-81805936D01*
X75680827Y-81821000D01*
X75449173Y-81821000D01*
X75373440Y-81805936D01*
X75221973Y-81775807D01*
X75007955Y-81687158D01*
X74943751Y-81644258D01*
X74815346Y-81558461D01*
X74651539Y-81394654D01*
X74522843Y-81202046D01*
X74522842Y-81202045D01*
X74434193Y-80988027D01*
X74389000Y-80760826D01*
X74389000Y-80529174D01*
X74434193Y-80301973D01*
X74522842Y-80087955D01*
X74565742Y-80023751D01*
X74651539Y-79895346D01*
X74815346Y-79731539D01*
X75007954Y-79602843D01*
X75007955Y-79602842D01*
X75221973Y-79514193D01*
X75373440Y-79484064D01*
X75449173Y-79469000D01*
X75680827Y-79469000D01*
X75756560Y-79484064D01*
X75756560Y-79484064D01*
G37*
G36*
X56706560Y-79484064D02*
G01*
X56858027Y-79514193D01*
X57072045Y-79602842D01*
X57072046Y-79602843D01*
X57264654Y-79731539D01*
X57428461Y-79895346D01*
X57514258Y-80023751D01*
X57557158Y-80087955D01*
X57645807Y-80301973D01*
X57691000Y-80529174D01*
X57691000Y-80760826D01*
X57645807Y-80988027D01*
X57557158Y-81202045D01*
X57557157Y-81202046D01*
X57428461Y-81394654D01*
X57264654Y-81558461D01*
X57136249Y-81644258D01*
X57072045Y-81687158D01*
X56858027Y-81775807D01*
X56706560Y-81805936D01*
X56630827Y-81821000D01*
X56399173Y-81821000D01*
X56323440Y-81805936D01*
X56171973Y-81775807D01*
X55957955Y-81687158D01*
X55893751Y-81644258D01*
X55765346Y-81558461D01*
X55601539Y-81394654D01*
X55472843Y-81202046D01*
X55472842Y-81202045D01*
X55384193Y-80988027D01*
X55339000Y-80760826D01*
X55339000Y-80529174D01*
X55384193Y-80301973D01*
X55472842Y-80087955D01*
X55515742Y-80023751D01*
X55601539Y-79895346D01*
X55765346Y-79731539D01*
X55957954Y-79602843D01*
X55957955Y-79602842D01*
X56171973Y-79514193D01*
X56323440Y-79484064D01*
X56399173Y-79469000D01*
X56630827Y-79469000D01*
X56706560Y-79484064D01*
X56706560Y-79484064D01*
G37*
G36*
X54571474Y-64708684D02*
G01*
X54789474Y-64798983D01*
X54943623Y-64862833D01*
X55278548Y-65086623D01*
X55563377Y-65371452D01*
X55787167Y-65706377D01*
X55819562Y-65784586D01*
X55941316Y-66078526D01*
X56019900Y-66473594D01*
X56019900Y-66876406D01*
X55941316Y-67271474D01*
X55890451Y-67394272D01*
X55787167Y-67643623D01*
X55563377Y-67978548D01*
X55278548Y-68263377D01*
X54943623Y-68487167D01*
X54789474Y-68551017D01*
X54571474Y-68641316D01*
X54176406Y-68719900D01*
X53773594Y-68719900D01*
X53378526Y-68641316D01*
X53160526Y-68551017D01*
X53006377Y-68487167D01*
X52671452Y-68263377D01*
X52386623Y-67978548D01*
X52162833Y-67643623D01*
X52059549Y-67394272D01*
X52008684Y-67271474D01*
X51930100Y-66876406D01*
X51930100Y-66473594D01*
X52008684Y-66078526D01*
X52130438Y-65784586D01*
X52162833Y-65706377D01*
X52386623Y-65371452D01*
X52671452Y-65086623D01*
X53006377Y-64862833D01*
X53160526Y-64798983D01*
X53378526Y-64708684D01*
X53773594Y-64630100D01*
X54176406Y-64630100D01*
X54571474Y-64708684D01*
X54571474Y-64708684D01*
G37*
G36*
X111721474Y-64708684D02*
G01*
X111939474Y-64798983D01*
X112093623Y-64862833D01*
X112428548Y-65086623D01*
X112713377Y-65371452D01*
X112937167Y-65706377D01*
X112969562Y-65784586D01*
X113091316Y-66078526D01*
X113169900Y-66473594D01*
X113169900Y-66876406D01*
X113091316Y-67271474D01*
X113040451Y-67394272D01*
X112937167Y-67643623D01*
X112713377Y-67978548D01*
X112428548Y-68263377D01*
X112093623Y-68487167D01*
X111939474Y-68551017D01*
X111721474Y-68641316D01*
X111326406Y-68719900D01*
X110923594Y-68719900D01*
X110528526Y-68641316D01*
X110310526Y-68551017D01*
X110156377Y-68487167D01*
X109821452Y-68263377D01*
X109536623Y-67978548D01*
X109312833Y-67643623D01*
X109209549Y-67394272D01*
X109158684Y-67271474D01*
X109080100Y-66876406D01*
X109080100Y-66473594D01*
X109158684Y-66078526D01*
X109280438Y-65784586D01*
X109312833Y-65706377D01*
X109536623Y-65371452D01*
X109821452Y-65086623D01*
X110156377Y-64862833D01*
X110310526Y-64798983D01*
X110528526Y-64708684D01*
X110923594Y-64630100D01*
X111326406Y-64630100D01*
X111721474Y-64708684D01*
X111721474Y-64708684D01*
G37*
G36*
X92671474Y-64708684D02*
G01*
X92889474Y-64798983D01*
X93043623Y-64862833D01*
X93378548Y-65086623D01*
X93663377Y-65371452D01*
X93887167Y-65706377D01*
X93919562Y-65784586D01*
X94041316Y-66078526D01*
X94119900Y-66473594D01*
X94119900Y-66876406D01*
X94041316Y-67271474D01*
X93990451Y-67394272D01*
X93887167Y-67643623D01*
X93663377Y-67978548D01*
X93378548Y-68263377D01*
X93043623Y-68487167D01*
X92889474Y-68551017D01*
X92671474Y-68641316D01*
X92276406Y-68719900D01*
X91873594Y-68719900D01*
X91478526Y-68641316D01*
X91260526Y-68551017D01*
X91106377Y-68487167D01*
X90771452Y-68263377D01*
X90486623Y-67978548D01*
X90262833Y-67643623D01*
X90159549Y-67394272D01*
X90108684Y-67271474D01*
X90030100Y-66876406D01*
X90030100Y-66473594D01*
X90108684Y-66078526D01*
X90230438Y-65784586D01*
X90262833Y-65706377D01*
X90486623Y-65371452D01*
X90771452Y-65086623D01*
X91106377Y-64862833D01*
X91260526Y-64798983D01*
X91478526Y-64708684D01*
X91873594Y-64630100D01*
X92276406Y-64630100D01*
X92671474Y-64708684D01*
X92671474Y-64708684D01*
G37*
G36*
X73621474Y-64708684D02*
G01*
X73839474Y-64798983D01*
X73993623Y-64862833D01*
X74328548Y-65086623D01*
X74613377Y-65371452D01*
X74837167Y-65706377D01*
X74869562Y-65784586D01*
X74991316Y-66078526D01*
X75069900Y-66473594D01*
X75069900Y-66876406D01*
X74991316Y-67271474D01*
X74940451Y-67394272D01*
X74837167Y-67643623D01*
X74613377Y-67978548D01*
X74328548Y-68263377D01*
X73993623Y-68487167D01*
X73839474Y-68551017D01*
X73621474Y-68641316D01*
X73226406Y-68719900D01*
X72823594Y-68719900D01*
X72428526Y-68641316D01*
X72210526Y-68551017D01*
X72056377Y-68487167D01*
X71721452Y-68263377D01*
X71436623Y-67978548D01*
X71212833Y-67643623D01*
X71109549Y-67394272D01*
X71058684Y-67271474D01*
X70980100Y-66876406D01*
X70980100Y-66473594D01*
X71058684Y-66078526D01*
X71180438Y-65784586D01*
X71212833Y-65706377D01*
X71436623Y-65371452D01*
X71721452Y-65086623D01*
X72056377Y-64862833D01*
X72210526Y-64798983D01*
X72428526Y-64708684D01*
X72823594Y-64630100D01*
X73226406Y-64630100D01*
X73621474Y-64708684D01*
X73621474Y-64708684D01*
G37*
G36*
X78375104Y-65784585D02*
G01*
X78543626Y-65854389D01*
X78695291Y-65955728D01*
X78824272Y-66084709D01*
X78925611Y-66236374D01*
X78995415Y-66404896D01*
X79031000Y-66583797D01*
X79031000Y-66766203D01*
X78995415Y-66945104D01*
X78925611Y-67113626D01*
X78824272Y-67265291D01*
X78695291Y-67394272D01*
X78543626Y-67495611D01*
X78375104Y-67565415D01*
X78196203Y-67601000D01*
X78013797Y-67601000D01*
X77834896Y-67565415D01*
X77666374Y-67495611D01*
X77514709Y-67394272D01*
X77385728Y-67265291D01*
X77284389Y-67113626D01*
X77214585Y-66945104D01*
X77179000Y-66766203D01*
X77179000Y-66583797D01*
X77214585Y-66404896D01*
X77284389Y-66236374D01*
X77385728Y-66084709D01*
X77514709Y-65955728D01*
X77666374Y-65854389D01*
X77834896Y-65784585D01*
X78013797Y-65749000D01*
X78196203Y-65749000D01*
X78375104Y-65784585D01*
X78375104Y-65784585D01*
G37*
G36*
X87265104Y-65784585D02*
G01*
X87433626Y-65854389D01*
X87585291Y-65955728D01*
X87714272Y-66084709D01*
X87815611Y-66236374D01*
X87885415Y-66404896D01*
X87921000Y-66583797D01*
X87921000Y-66766203D01*
X87885415Y-66945104D01*
X87815611Y-67113626D01*
X87714272Y-67265291D01*
X87585291Y-67394272D01*
X87433626Y-67495611D01*
X87265104Y-67565415D01*
X87086203Y-67601000D01*
X86903797Y-67601000D01*
X86724896Y-67565415D01*
X86556374Y-67495611D01*
X86404709Y-67394272D01*
X86275728Y-67265291D01*
X86174389Y-67113626D01*
X86104585Y-66945104D01*
X86069000Y-66766203D01*
X86069000Y-66583797D01*
X86104585Y-66404896D01*
X86174389Y-66236374D01*
X86275728Y-66084709D01*
X86404709Y-65955728D01*
X86556374Y-65854389D01*
X86724896Y-65784585D01*
X86903797Y-65749000D01*
X87086203Y-65749000D01*
X87265104Y-65784585D01*
X87265104Y-65784585D01*
G37*
G36*
X97425104Y-65784585D02*
G01*
X97593626Y-65854389D01*
X97745291Y-65955728D01*
X97874272Y-66084709D01*
X97975611Y-66236374D01*
X98045415Y-66404896D01*
X98081000Y-66583797D01*
X98081000Y-66766203D01*
X98045415Y-66945104D01*
X97975611Y-67113626D01*
X97874272Y-67265291D01*
X97745291Y-67394272D01*
X97593626Y-67495611D01*
X97425104Y-67565415D01*
X97246203Y-67601000D01*
X97063797Y-67601000D01*
X96884896Y-67565415D01*
X96716374Y-67495611D01*
X96564709Y-67394272D01*
X96435728Y-67265291D01*
X96334389Y-67113626D01*
X96264585Y-66945104D01*
X96229000Y-66766203D01*
X96229000Y-66583797D01*
X96264585Y-66404896D01*
X96334389Y-66236374D01*
X96435728Y-66084709D01*
X96564709Y-65955728D01*
X96716374Y-65854389D01*
X96884896Y-65784585D01*
X97063797Y-65749000D01*
X97246203Y-65749000D01*
X97425104Y-65784585D01*
X97425104Y-65784585D01*
G37*
G36*
X106315104Y-65784585D02*
G01*
X106483626Y-65854389D01*
X106635291Y-65955728D01*
X106764272Y-66084709D01*
X106865611Y-66236374D01*
X106935415Y-66404896D01*
X106971000Y-66583797D01*
X106971000Y-66766203D01*
X106935415Y-66945104D01*
X106865611Y-67113626D01*
X106764272Y-67265291D01*
X106635291Y-67394272D01*
X106483626Y-67495611D01*
X106315104Y-67565415D01*
X106136203Y-67601000D01*
X105953797Y-67601000D01*
X105774896Y-67565415D01*
X105606374Y-67495611D01*
X105454709Y-67394272D01*
X105325728Y-67265291D01*
X105224389Y-67113626D01*
X105154585Y-66945104D01*
X105119000Y-66766203D01*
X105119000Y-66583797D01*
X105154585Y-66404896D01*
X105224389Y-66236374D01*
X105325728Y-66084709D01*
X105454709Y-65955728D01*
X105606374Y-65854389D01*
X105774896Y-65784585D01*
X105953797Y-65749000D01*
X106136203Y-65749000D01*
X106315104Y-65784585D01*
X106315104Y-65784585D01*
G37*
G36*
X68215104Y-65784585D02*
G01*
X68383626Y-65854389D01*
X68535291Y-65955728D01*
X68664272Y-66084709D01*
X68765611Y-66236374D01*
X68835415Y-66404896D01*
X68871000Y-66583797D01*
X68871000Y-66766203D01*
X68835415Y-66945104D01*
X68765611Y-67113626D01*
X68664272Y-67265291D01*
X68535291Y-67394272D01*
X68383626Y-67495611D01*
X68215104Y-67565415D01*
X68036203Y-67601000D01*
X67853797Y-67601000D01*
X67674896Y-67565415D01*
X67506374Y-67495611D01*
X67354709Y-67394272D01*
X67225728Y-67265291D01*
X67124389Y-67113626D01*
X67054585Y-66945104D01*
X67019000Y-66766203D01*
X67019000Y-66583797D01*
X67054585Y-66404896D01*
X67124389Y-66236374D01*
X67225728Y-66084709D01*
X67354709Y-65955728D01*
X67506374Y-65854389D01*
X67674896Y-65784585D01*
X67853797Y-65749000D01*
X68036203Y-65749000D01*
X68215104Y-65784585D01*
X68215104Y-65784585D01*
G37*
G36*
X59325104Y-65784585D02*
G01*
X59493626Y-65854389D01*
X59645291Y-65955728D01*
X59774272Y-66084709D01*
X59875611Y-66236374D01*
X59945415Y-66404896D01*
X59981000Y-66583797D01*
X59981000Y-66766203D01*
X59945415Y-66945104D01*
X59875611Y-67113626D01*
X59774272Y-67265291D01*
X59645291Y-67394272D01*
X59493626Y-67495611D01*
X59325104Y-67565415D01*
X59146203Y-67601000D01*
X58963797Y-67601000D01*
X58784896Y-67565415D01*
X58616374Y-67495611D01*
X58464709Y-67394272D01*
X58335728Y-67265291D01*
X58234389Y-67113626D01*
X58164585Y-66945104D01*
X58129000Y-66766203D01*
X58129000Y-66583797D01*
X58164585Y-66404896D01*
X58234389Y-66236374D01*
X58335728Y-66084709D01*
X58464709Y-65955728D01*
X58616374Y-65854389D01*
X58784896Y-65784585D01*
X58963797Y-65749000D01*
X59146203Y-65749000D01*
X59325104Y-65784585D01*
X59325104Y-65784585D01*
G37*
G36*
X49165104Y-65784585D02*
G01*
X49333626Y-65854389D01*
X49485291Y-65955728D01*
X49614272Y-66084709D01*
X49715611Y-66236374D01*
X49785415Y-66404896D01*
X49821000Y-66583797D01*
X49821000Y-66766203D01*
X49785415Y-66945104D01*
X49715611Y-67113626D01*
X49614272Y-67265291D01*
X49485291Y-67394272D01*
X49333626Y-67495611D01*
X49165104Y-67565415D01*
X48986203Y-67601000D01*
X48803797Y-67601000D01*
X48624896Y-67565415D01*
X48456374Y-67495611D01*
X48304709Y-67394272D01*
X48175728Y-67265291D01*
X48074389Y-67113626D01*
X48004585Y-66945104D01*
X47969000Y-66766203D01*
X47969000Y-66583797D01*
X48004585Y-66404896D01*
X48074389Y-66236374D01*
X48175728Y-66084709D01*
X48304709Y-65955728D01*
X48456374Y-65854389D01*
X48624896Y-65784585D01*
X48803797Y-65749000D01*
X48986203Y-65749000D01*
X49165104Y-65784585D01*
X49165104Y-65784585D01*
G37*
G36*
X116475104Y-65784585D02*
G01*
X116643626Y-65854389D01*
X116795291Y-65955728D01*
X116924272Y-66084709D01*
X117025611Y-66236374D01*
X117095415Y-66404896D01*
X117131000Y-66583797D01*
X117131000Y-66766203D01*
X117095415Y-66945104D01*
X117025611Y-67113626D01*
X116924272Y-67265291D01*
X116795291Y-67394272D01*
X116643626Y-67495611D01*
X116475104Y-67565415D01*
X116296203Y-67601000D01*
X116113797Y-67601000D01*
X115934896Y-67565415D01*
X115766374Y-67495611D01*
X115614709Y-67394272D01*
X115485728Y-67265291D01*
X115384389Y-67113626D01*
X115314585Y-66945104D01*
X115279000Y-66766203D01*
X115279000Y-66583797D01*
X115314585Y-66404896D01*
X115384389Y-66236374D01*
X115485728Y-66084709D01*
X115614709Y-65955728D01*
X115766374Y-65854389D01*
X115934896Y-65784585D01*
X116113797Y-65749000D01*
X116296203Y-65749000D01*
X116475104Y-65784585D01*
X116475104Y-65784585D01*
G37*
G36*
X88456560Y-62974064D02*
G01*
X88608027Y-63004193D01*
X88822045Y-63092842D01*
X88822046Y-63092843D01*
X89014654Y-63221539D01*
X89178461Y-63385346D01*
X89264258Y-63513751D01*
X89307158Y-63577955D01*
X89395807Y-63791973D01*
X89441000Y-64019174D01*
X89441000Y-64250826D01*
X89395807Y-64478027D01*
X89307158Y-64692045D01*
X89307157Y-64692046D01*
X89178461Y-64884654D01*
X89014654Y-65048461D01*
X88957540Y-65086623D01*
X88822045Y-65177158D01*
X88608027Y-65265807D01*
X88456560Y-65295936D01*
X88380827Y-65311000D01*
X88149173Y-65311000D01*
X88073440Y-65295936D01*
X87921973Y-65265807D01*
X87707955Y-65177158D01*
X87572460Y-65086623D01*
X87515346Y-65048461D01*
X87351539Y-64884654D01*
X87222843Y-64692046D01*
X87222842Y-64692045D01*
X87134193Y-64478027D01*
X87089000Y-64250826D01*
X87089000Y-64019174D01*
X87134193Y-63791973D01*
X87222842Y-63577955D01*
X87265742Y-63513751D01*
X87351539Y-63385346D01*
X87515346Y-63221539D01*
X87707954Y-63092843D01*
X87707955Y-63092842D01*
X87921973Y-63004193D01*
X88073440Y-62974064D01*
X88149173Y-62959000D01*
X88380827Y-62959000D01*
X88456560Y-62974064D01*
X88456560Y-62974064D01*
G37*
G36*
X107506560Y-62974064D02*
G01*
X107658027Y-63004193D01*
X107872045Y-63092842D01*
X107872046Y-63092843D01*
X108064654Y-63221539D01*
X108228461Y-63385346D01*
X108314258Y-63513751D01*
X108357158Y-63577955D01*
X108445807Y-63791973D01*
X108491000Y-64019174D01*
X108491000Y-64250826D01*
X108445807Y-64478027D01*
X108357158Y-64692045D01*
X108357157Y-64692046D01*
X108228461Y-64884654D01*
X108064654Y-65048461D01*
X108007540Y-65086623D01*
X107872045Y-65177158D01*
X107658027Y-65265807D01*
X107506560Y-65295936D01*
X107430827Y-65311000D01*
X107199173Y-65311000D01*
X107123440Y-65295936D01*
X106971973Y-65265807D01*
X106757955Y-65177158D01*
X106622460Y-65086623D01*
X106565346Y-65048461D01*
X106401539Y-64884654D01*
X106272843Y-64692046D01*
X106272842Y-64692045D01*
X106184193Y-64478027D01*
X106139000Y-64250826D01*
X106139000Y-64019174D01*
X106184193Y-63791973D01*
X106272842Y-63577955D01*
X106315742Y-63513751D01*
X106401539Y-63385346D01*
X106565346Y-63221539D01*
X106757954Y-63092843D01*
X106757955Y-63092842D01*
X106971973Y-63004193D01*
X107123440Y-62974064D01*
X107199173Y-62959000D01*
X107430827Y-62959000D01*
X107506560Y-62974064D01*
X107506560Y-62974064D01*
G37*
G36*
X69406560Y-62974064D02*
G01*
X69558027Y-63004193D01*
X69772045Y-63092842D01*
X69772046Y-63092843D01*
X69964654Y-63221539D01*
X70128461Y-63385346D01*
X70214258Y-63513751D01*
X70257158Y-63577955D01*
X70345807Y-63791973D01*
X70391000Y-64019174D01*
X70391000Y-64250826D01*
X70345807Y-64478027D01*
X70257158Y-64692045D01*
X70257157Y-64692046D01*
X70128461Y-64884654D01*
X69964654Y-65048461D01*
X69907540Y-65086623D01*
X69772045Y-65177158D01*
X69558027Y-65265807D01*
X69406560Y-65295936D01*
X69330827Y-65311000D01*
X69099173Y-65311000D01*
X69023440Y-65295936D01*
X68871973Y-65265807D01*
X68657955Y-65177158D01*
X68522460Y-65086623D01*
X68465346Y-65048461D01*
X68301539Y-64884654D01*
X68172843Y-64692046D01*
X68172842Y-64692045D01*
X68084193Y-64478027D01*
X68039000Y-64250826D01*
X68039000Y-64019174D01*
X68084193Y-63791973D01*
X68172842Y-63577955D01*
X68215742Y-63513751D01*
X68301539Y-63385346D01*
X68465346Y-63221539D01*
X68657954Y-63092843D01*
X68657955Y-63092842D01*
X68871973Y-63004193D01*
X69023440Y-62974064D01*
X69099173Y-62959000D01*
X69330827Y-62959000D01*
X69406560Y-62974064D01*
X69406560Y-62974064D01*
G37*
G36*
X50356560Y-62974064D02*
G01*
X50508027Y-63004193D01*
X50722045Y-63092842D01*
X50722046Y-63092843D01*
X50914654Y-63221539D01*
X51078461Y-63385346D01*
X51164258Y-63513751D01*
X51207158Y-63577955D01*
X51295807Y-63791973D01*
X51341000Y-64019174D01*
X51341000Y-64250826D01*
X51295807Y-64478027D01*
X51207158Y-64692045D01*
X51207157Y-64692046D01*
X51078461Y-64884654D01*
X50914654Y-65048461D01*
X50857540Y-65086623D01*
X50722045Y-65177158D01*
X50508027Y-65265807D01*
X50356560Y-65295936D01*
X50280827Y-65311000D01*
X50049173Y-65311000D01*
X49973440Y-65295936D01*
X49821973Y-65265807D01*
X49607955Y-65177158D01*
X49472460Y-65086623D01*
X49415346Y-65048461D01*
X49251539Y-64884654D01*
X49122843Y-64692046D01*
X49122842Y-64692045D01*
X49034193Y-64478027D01*
X48989000Y-64250826D01*
X48989000Y-64019174D01*
X49034193Y-63791973D01*
X49122842Y-63577955D01*
X49165742Y-63513751D01*
X49251539Y-63385346D01*
X49415346Y-63221539D01*
X49607954Y-63092843D01*
X49607955Y-63092842D01*
X49821973Y-63004193D01*
X49973440Y-62974064D01*
X50049173Y-62959000D01*
X50280827Y-62959000D01*
X50356560Y-62974064D01*
X50356560Y-62974064D01*
G37*
G36*
X113856560Y-60434064D02*
G01*
X114008027Y-60464193D01*
X114222045Y-60552842D01*
X114222046Y-60552843D01*
X114414654Y-60681539D01*
X114578461Y-60845346D01*
X114664258Y-60973751D01*
X114707158Y-61037955D01*
X114795807Y-61251973D01*
X114841000Y-61479174D01*
X114841000Y-61710826D01*
X114795807Y-61938027D01*
X114707158Y-62152045D01*
X114707157Y-62152046D01*
X114578461Y-62344654D01*
X114414654Y-62508461D01*
X114286249Y-62594258D01*
X114222045Y-62637158D01*
X114008027Y-62725807D01*
X113856560Y-62755936D01*
X113780827Y-62771000D01*
X113549173Y-62771000D01*
X113473440Y-62755936D01*
X113321973Y-62725807D01*
X113107955Y-62637158D01*
X113043751Y-62594258D01*
X112915346Y-62508461D01*
X112751539Y-62344654D01*
X112622843Y-62152046D01*
X112622842Y-62152045D01*
X112534193Y-61938027D01*
X112489000Y-61710826D01*
X112489000Y-61479174D01*
X112534193Y-61251973D01*
X112622842Y-61037955D01*
X112665742Y-60973751D01*
X112751539Y-60845346D01*
X112915346Y-60681539D01*
X113107954Y-60552843D01*
X113107955Y-60552842D01*
X113321973Y-60464193D01*
X113473440Y-60434064D01*
X113549173Y-60419000D01*
X113780827Y-60419000D01*
X113856560Y-60434064D01*
X113856560Y-60434064D01*
G37*
G36*
X94806560Y-60434064D02*
G01*
X94958027Y-60464193D01*
X95172045Y-60552842D01*
X95172046Y-60552843D01*
X95364654Y-60681539D01*
X95528461Y-60845346D01*
X95614258Y-60973751D01*
X95657158Y-61037955D01*
X95745807Y-61251973D01*
X95791000Y-61479174D01*
X95791000Y-61710826D01*
X95745807Y-61938027D01*
X95657158Y-62152045D01*
X95657157Y-62152046D01*
X95528461Y-62344654D01*
X95364654Y-62508461D01*
X95236249Y-62594258D01*
X95172045Y-62637158D01*
X94958027Y-62725807D01*
X94806560Y-62755936D01*
X94730827Y-62771000D01*
X94499173Y-62771000D01*
X94423440Y-62755936D01*
X94271973Y-62725807D01*
X94057955Y-62637158D01*
X93993751Y-62594258D01*
X93865346Y-62508461D01*
X93701539Y-62344654D01*
X93572843Y-62152046D01*
X93572842Y-62152045D01*
X93484193Y-61938027D01*
X93439000Y-61710826D01*
X93439000Y-61479174D01*
X93484193Y-61251973D01*
X93572842Y-61037955D01*
X93615742Y-60973751D01*
X93701539Y-60845346D01*
X93865346Y-60681539D01*
X94057954Y-60552843D01*
X94057955Y-60552842D01*
X94271973Y-60464193D01*
X94423440Y-60434064D01*
X94499173Y-60419000D01*
X94730827Y-60419000D01*
X94806560Y-60434064D01*
X94806560Y-60434064D01*
G37*
G36*
X75756560Y-60434064D02*
G01*
X75908027Y-60464193D01*
X76122045Y-60552842D01*
X76122046Y-60552843D01*
X76314654Y-60681539D01*
X76478461Y-60845346D01*
X76564258Y-60973751D01*
X76607158Y-61037955D01*
X76695807Y-61251973D01*
X76741000Y-61479174D01*
X76741000Y-61710826D01*
X76695807Y-61938027D01*
X76607158Y-62152045D01*
X76607157Y-62152046D01*
X76478461Y-62344654D01*
X76314654Y-62508461D01*
X76186249Y-62594258D01*
X76122045Y-62637158D01*
X75908027Y-62725807D01*
X75756560Y-62755936D01*
X75680827Y-62771000D01*
X75449173Y-62771000D01*
X75373440Y-62755936D01*
X75221973Y-62725807D01*
X75007955Y-62637158D01*
X74943751Y-62594258D01*
X74815346Y-62508461D01*
X74651539Y-62344654D01*
X74522843Y-62152046D01*
X74522842Y-62152045D01*
X74434193Y-61938027D01*
X74389000Y-61710826D01*
X74389000Y-61479174D01*
X74434193Y-61251973D01*
X74522842Y-61037955D01*
X74565742Y-60973751D01*
X74651539Y-60845346D01*
X74815346Y-60681539D01*
X75007954Y-60552843D01*
X75007955Y-60552842D01*
X75221973Y-60464193D01*
X75373440Y-60434064D01*
X75449173Y-60419000D01*
X75680827Y-60419000D01*
X75756560Y-60434064D01*
X75756560Y-60434064D01*
G37*
G36*
X56706560Y-60434064D02*
G01*
X56858027Y-60464193D01*
X57072045Y-60552842D01*
X57072046Y-60552843D01*
X57264654Y-60681539D01*
X57428461Y-60845346D01*
X57514258Y-60973751D01*
X57557158Y-61037955D01*
X57645807Y-61251973D01*
X57691000Y-61479174D01*
X57691000Y-61710826D01*
X57645807Y-61938027D01*
X57557158Y-62152045D01*
X57557157Y-62152046D01*
X57428461Y-62344654D01*
X57264654Y-62508461D01*
X57136249Y-62594258D01*
X57072045Y-62637158D01*
X56858027Y-62725807D01*
X56706560Y-62755936D01*
X56630827Y-62771000D01*
X56399173Y-62771000D01*
X56323440Y-62755936D01*
X56171973Y-62725807D01*
X55957955Y-62637158D01*
X55893751Y-62594258D01*
X55765346Y-62508461D01*
X55601539Y-62344654D01*
X55472843Y-62152046D01*
X55472842Y-62152045D01*
X55384193Y-61938027D01*
X55339000Y-61710826D01*
X55339000Y-61479174D01*
X55384193Y-61251973D01*
X55472842Y-61037955D01*
X55515742Y-60973751D01*
X55601539Y-60845346D01*
X55765346Y-60681539D01*
X55957954Y-60552843D01*
X55957955Y-60552842D01*
X56171973Y-60464193D01*
X56323440Y-60434064D01*
X56399173Y-60419000D01*
X56630827Y-60419000D01*
X56706560Y-60434064D01*
X56706560Y-60434064D01*
G37*
G36*
X111721474Y-45658684D02*
G01*
X111939474Y-45748983D01*
X112093623Y-45812833D01*
X112428548Y-46036623D01*
X112713377Y-46321452D01*
X112937167Y-46656377D01*
X112969562Y-46734586D01*
X113091316Y-47028526D01*
X113169900Y-47423594D01*
X113169900Y-47826406D01*
X113091316Y-48221474D01*
X113040451Y-48344272D01*
X112937167Y-48593623D01*
X112713377Y-48928548D01*
X112428548Y-49213377D01*
X112093623Y-49437167D01*
X111939474Y-49501017D01*
X111721474Y-49591316D01*
X111326406Y-49669900D01*
X110923594Y-49669900D01*
X110528526Y-49591316D01*
X110310526Y-49501017D01*
X110156377Y-49437167D01*
X109821452Y-49213377D01*
X109536623Y-48928548D01*
X109312833Y-48593623D01*
X109209549Y-48344272D01*
X109158684Y-48221474D01*
X109080100Y-47826406D01*
X109080100Y-47423594D01*
X109158684Y-47028526D01*
X109280438Y-46734586D01*
X109312833Y-46656377D01*
X109536623Y-46321452D01*
X109821452Y-46036623D01*
X110156377Y-45812833D01*
X110310526Y-45748983D01*
X110528526Y-45658684D01*
X110923594Y-45580100D01*
X111326406Y-45580100D01*
X111721474Y-45658684D01*
X111721474Y-45658684D01*
G37*
G36*
X54571474Y-45658684D02*
G01*
X54789474Y-45748983D01*
X54943623Y-45812833D01*
X55278548Y-46036623D01*
X55563377Y-46321452D01*
X55787167Y-46656377D01*
X55819562Y-46734586D01*
X55941316Y-47028526D01*
X56019900Y-47423594D01*
X56019900Y-47826406D01*
X55941316Y-48221474D01*
X55890451Y-48344272D01*
X55787167Y-48593623D01*
X55563377Y-48928548D01*
X55278548Y-49213377D01*
X54943623Y-49437167D01*
X54789474Y-49501017D01*
X54571474Y-49591316D01*
X54176406Y-49669900D01*
X53773594Y-49669900D01*
X53378526Y-49591316D01*
X53160526Y-49501017D01*
X53006377Y-49437167D01*
X52671452Y-49213377D01*
X52386623Y-48928548D01*
X52162833Y-48593623D01*
X52059549Y-48344272D01*
X52008684Y-48221474D01*
X51930100Y-47826406D01*
X51930100Y-47423594D01*
X52008684Y-47028526D01*
X52130438Y-46734586D01*
X52162833Y-46656377D01*
X52386623Y-46321452D01*
X52671452Y-46036623D01*
X53006377Y-45812833D01*
X53160526Y-45748983D01*
X53378526Y-45658684D01*
X53773594Y-45580100D01*
X54176406Y-45580100D01*
X54571474Y-45658684D01*
X54571474Y-45658684D01*
G37*
G36*
X92671474Y-45658684D02*
G01*
X92889474Y-45748983D01*
X93043623Y-45812833D01*
X93378548Y-46036623D01*
X93663377Y-46321452D01*
X93887167Y-46656377D01*
X93919562Y-46734586D01*
X94041316Y-47028526D01*
X94119900Y-47423594D01*
X94119900Y-47826406D01*
X94041316Y-48221474D01*
X93990451Y-48344272D01*
X93887167Y-48593623D01*
X93663377Y-48928548D01*
X93378548Y-49213377D01*
X93043623Y-49437167D01*
X92889474Y-49501017D01*
X92671474Y-49591316D01*
X92276406Y-49669900D01*
X91873594Y-49669900D01*
X91478526Y-49591316D01*
X91260526Y-49501017D01*
X91106377Y-49437167D01*
X90771452Y-49213377D01*
X90486623Y-48928548D01*
X90262833Y-48593623D01*
X90159549Y-48344272D01*
X90108684Y-48221474D01*
X90030100Y-47826406D01*
X90030100Y-47423594D01*
X90108684Y-47028526D01*
X90230438Y-46734586D01*
X90262833Y-46656377D01*
X90486623Y-46321452D01*
X90771452Y-46036623D01*
X91106377Y-45812833D01*
X91260526Y-45748983D01*
X91478526Y-45658684D01*
X91873594Y-45580100D01*
X92276406Y-45580100D01*
X92671474Y-45658684D01*
X92671474Y-45658684D01*
G37*
G36*
X73621474Y-45658684D02*
G01*
X73839474Y-45748983D01*
X73993623Y-45812833D01*
X74328548Y-46036623D01*
X74613377Y-46321452D01*
X74837167Y-46656377D01*
X74869562Y-46734586D01*
X74991316Y-47028526D01*
X75069900Y-47423594D01*
X75069900Y-47826406D01*
X74991316Y-48221474D01*
X74940451Y-48344272D01*
X74837167Y-48593623D01*
X74613377Y-48928548D01*
X74328548Y-49213377D01*
X73993623Y-49437167D01*
X73839474Y-49501017D01*
X73621474Y-49591316D01*
X73226406Y-49669900D01*
X72823594Y-49669900D01*
X72428526Y-49591316D01*
X72210526Y-49501017D01*
X72056377Y-49437167D01*
X71721452Y-49213377D01*
X71436623Y-48928548D01*
X71212833Y-48593623D01*
X71109549Y-48344272D01*
X71058684Y-48221474D01*
X70980100Y-47826406D01*
X70980100Y-47423594D01*
X71058684Y-47028526D01*
X71180438Y-46734586D01*
X71212833Y-46656377D01*
X71436623Y-46321452D01*
X71721452Y-46036623D01*
X72056377Y-45812833D01*
X72210526Y-45748983D01*
X72428526Y-45658684D01*
X72823594Y-45580100D01*
X73226406Y-45580100D01*
X73621474Y-45658684D01*
X73621474Y-45658684D01*
G37*
G36*
X78375104Y-46734585D02*
G01*
X78543626Y-46804389D01*
X78695291Y-46905728D01*
X78824272Y-47034709D01*
X78925611Y-47186374D01*
X78995415Y-47354896D01*
X79031000Y-47533797D01*
X79031000Y-47716203D01*
X78995415Y-47895104D01*
X78925611Y-48063626D01*
X78824272Y-48215291D01*
X78695291Y-48344272D01*
X78543626Y-48445611D01*
X78375104Y-48515415D01*
X78196203Y-48551000D01*
X78013797Y-48551000D01*
X77834896Y-48515415D01*
X77666374Y-48445611D01*
X77514709Y-48344272D01*
X77385728Y-48215291D01*
X77284389Y-48063626D01*
X77214585Y-47895104D01*
X77179000Y-47716203D01*
X77179000Y-47533797D01*
X77214585Y-47354896D01*
X77284389Y-47186374D01*
X77385728Y-47034709D01*
X77514709Y-46905728D01*
X77666374Y-46804389D01*
X77834896Y-46734585D01*
X78013797Y-46699000D01*
X78196203Y-46699000D01*
X78375104Y-46734585D01*
X78375104Y-46734585D01*
G37*
G36*
X87265104Y-46734585D02*
G01*
X87433626Y-46804389D01*
X87585291Y-46905728D01*
X87714272Y-47034709D01*
X87815611Y-47186374D01*
X87885415Y-47354896D01*
X87921000Y-47533797D01*
X87921000Y-47716203D01*
X87885415Y-47895104D01*
X87815611Y-48063626D01*
X87714272Y-48215291D01*
X87585291Y-48344272D01*
X87433626Y-48445611D01*
X87265104Y-48515415D01*
X87086203Y-48551000D01*
X86903797Y-48551000D01*
X86724896Y-48515415D01*
X86556374Y-48445611D01*
X86404709Y-48344272D01*
X86275728Y-48215291D01*
X86174389Y-48063626D01*
X86104585Y-47895104D01*
X86069000Y-47716203D01*
X86069000Y-47533797D01*
X86104585Y-47354896D01*
X86174389Y-47186374D01*
X86275728Y-47034709D01*
X86404709Y-46905728D01*
X86556374Y-46804389D01*
X86724896Y-46734585D01*
X86903797Y-46699000D01*
X87086203Y-46699000D01*
X87265104Y-46734585D01*
X87265104Y-46734585D01*
G37*
G36*
X97425104Y-46734585D02*
G01*
X97593626Y-46804389D01*
X97745291Y-46905728D01*
X97874272Y-47034709D01*
X97975611Y-47186374D01*
X98045415Y-47354896D01*
X98081000Y-47533797D01*
X98081000Y-47716203D01*
X98045415Y-47895104D01*
X97975611Y-48063626D01*
X97874272Y-48215291D01*
X97745291Y-48344272D01*
X97593626Y-48445611D01*
X97425104Y-48515415D01*
X97246203Y-48551000D01*
X97063797Y-48551000D01*
X96884896Y-48515415D01*
X96716374Y-48445611D01*
X96564709Y-48344272D01*
X96435728Y-48215291D01*
X96334389Y-48063626D01*
X96264585Y-47895104D01*
X96229000Y-47716203D01*
X96229000Y-47533797D01*
X96264585Y-47354896D01*
X96334389Y-47186374D01*
X96435728Y-47034709D01*
X96564709Y-46905728D01*
X96716374Y-46804389D01*
X96884896Y-46734585D01*
X97063797Y-46699000D01*
X97246203Y-46699000D01*
X97425104Y-46734585D01*
X97425104Y-46734585D01*
G37*
G36*
X68215104Y-46734585D02*
G01*
X68383626Y-46804389D01*
X68535291Y-46905728D01*
X68664272Y-47034709D01*
X68765611Y-47186374D01*
X68835415Y-47354896D01*
X68871000Y-47533797D01*
X68871000Y-47716203D01*
X68835415Y-47895104D01*
X68765611Y-48063626D01*
X68664272Y-48215291D01*
X68535291Y-48344272D01*
X68383626Y-48445611D01*
X68215104Y-48515415D01*
X68036203Y-48551000D01*
X67853797Y-48551000D01*
X67674896Y-48515415D01*
X67506374Y-48445611D01*
X67354709Y-48344272D01*
X67225728Y-48215291D01*
X67124389Y-48063626D01*
X67054585Y-47895104D01*
X67019000Y-47716203D01*
X67019000Y-47533797D01*
X67054585Y-47354896D01*
X67124389Y-47186374D01*
X67225728Y-47034709D01*
X67354709Y-46905728D01*
X67506374Y-46804389D01*
X67674896Y-46734585D01*
X67853797Y-46699000D01*
X68036203Y-46699000D01*
X68215104Y-46734585D01*
X68215104Y-46734585D01*
G37*
G36*
X49165104Y-46734585D02*
G01*
X49333626Y-46804389D01*
X49485291Y-46905728D01*
X49614272Y-47034709D01*
X49715611Y-47186374D01*
X49785415Y-47354896D01*
X49821000Y-47533797D01*
X49821000Y-47716203D01*
X49785415Y-47895104D01*
X49715611Y-48063626D01*
X49614272Y-48215291D01*
X49485291Y-48344272D01*
X49333626Y-48445611D01*
X49165104Y-48515415D01*
X48986203Y-48551000D01*
X48803797Y-48551000D01*
X48624896Y-48515415D01*
X48456374Y-48445611D01*
X48304709Y-48344272D01*
X48175728Y-48215291D01*
X48074389Y-48063626D01*
X48004585Y-47895104D01*
X47969000Y-47716203D01*
X47969000Y-47533797D01*
X48004585Y-47354896D01*
X48074389Y-47186374D01*
X48175728Y-47034709D01*
X48304709Y-46905728D01*
X48456374Y-46804389D01*
X48624896Y-46734585D01*
X48803797Y-46699000D01*
X48986203Y-46699000D01*
X49165104Y-46734585D01*
X49165104Y-46734585D01*
G37*
G36*
X59325104Y-46734585D02*
G01*
X59493626Y-46804389D01*
X59645291Y-46905728D01*
X59774272Y-47034709D01*
X59875611Y-47186374D01*
X59945415Y-47354896D01*
X59981000Y-47533797D01*
X59981000Y-47716203D01*
X59945415Y-47895104D01*
X59875611Y-48063626D01*
X59774272Y-48215291D01*
X59645291Y-48344272D01*
X59493626Y-48445611D01*
X59325104Y-48515415D01*
X59146203Y-48551000D01*
X58963797Y-48551000D01*
X58784896Y-48515415D01*
X58616374Y-48445611D01*
X58464709Y-48344272D01*
X58335728Y-48215291D01*
X58234389Y-48063626D01*
X58164585Y-47895104D01*
X58129000Y-47716203D01*
X58129000Y-47533797D01*
X58164585Y-47354896D01*
X58234389Y-47186374D01*
X58335728Y-47034709D01*
X58464709Y-46905728D01*
X58616374Y-46804389D01*
X58784896Y-46734585D01*
X58963797Y-46699000D01*
X59146203Y-46699000D01*
X59325104Y-46734585D01*
X59325104Y-46734585D01*
G37*
G36*
X106315104Y-46734585D02*
G01*
X106483626Y-46804389D01*
X106635291Y-46905728D01*
X106764272Y-47034709D01*
X106865611Y-47186374D01*
X106935415Y-47354896D01*
X106971000Y-47533797D01*
X106971000Y-47716203D01*
X106935415Y-47895104D01*
X106865611Y-48063626D01*
X106764272Y-48215291D01*
X106635291Y-48344272D01*
X106483626Y-48445611D01*
X106315104Y-48515415D01*
X106136203Y-48551000D01*
X105953797Y-48551000D01*
X105774896Y-48515415D01*
X105606374Y-48445611D01*
X105454709Y-48344272D01*
X105325728Y-48215291D01*
X105224389Y-48063626D01*
X105154585Y-47895104D01*
X105119000Y-47716203D01*
X105119000Y-47533797D01*
X105154585Y-47354896D01*
X105224389Y-47186374D01*
X105325728Y-47034709D01*
X105454709Y-46905728D01*
X105606374Y-46804389D01*
X105774896Y-46734585D01*
X105953797Y-46699000D01*
X106136203Y-46699000D01*
X106315104Y-46734585D01*
X106315104Y-46734585D01*
G37*
G36*
X116475104Y-46734585D02*
G01*
X116643626Y-46804389D01*
X116795291Y-46905728D01*
X116924272Y-47034709D01*
X117025611Y-47186374D01*
X117095415Y-47354896D01*
X117131000Y-47533797D01*
X117131000Y-47716203D01*
X117095415Y-47895104D01*
X117025611Y-48063626D01*
X116924272Y-48215291D01*
X116795291Y-48344272D01*
X116643626Y-48445611D01*
X116475104Y-48515415D01*
X116296203Y-48551000D01*
X116113797Y-48551000D01*
X115934896Y-48515415D01*
X115766374Y-48445611D01*
X115614709Y-48344272D01*
X115485728Y-48215291D01*
X115384389Y-48063626D01*
X115314585Y-47895104D01*
X115279000Y-47716203D01*
X115279000Y-47533797D01*
X115314585Y-47354896D01*
X115384389Y-47186374D01*
X115485728Y-47034709D01*
X115614709Y-46905728D01*
X115766374Y-46804389D01*
X115934896Y-46734585D01*
X116113797Y-46699000D01*
X116296203Y-46699000D01*
X116475104Y-46734585D01*
X116475104Y-46734585D01*
G37*
G36*
X50356560Y-43924064D02*
G01*
X50508027Y-43954193D01*
X50722045Y-44042842D01*
X50722046Y-44042843D01*
X50914654Y-44171539D01*
X51078461Y-44335346D01*
X51164258Y-44463751D01*
X51207158Y-44527955D01*
X51295807Y-44741973D01*
X51341000Y-44969174D01*
X51341000Y-45200826D01*
X51295807Y-45428027D01*
X51207158Y-45642045D01*
X51207157Y-45642046D01*
X51078461Y-45834654D01*
X50914654Y-45998461D01*
X50857540Y-46036623D01*
X50722045Y-46127158D01*
X50508027Y-46215807D01*
X50356560Y-46245936D01*
X50280827Y-46261000D01*
X50049173Y-46261000D01*
X49973440Y-46245936D01*
X49821973Y-46215807D01*
X49607955Y-46127158D01*
X49472460Y-46036623D01*
X49415346Y-45998461D01*
X49251539Y-45834654D01*
X49122843Y-45642046D01*
X49122842Y-45642045D01*
X49034193Y-45428027D01*
X48989000Y-45200826D01*
X48989000Y-44969174D01*
X49034193Y-44741973D01*
X49122842Y-44527955D01*
X49165742Y-44463751D01*
X49251539Y-44335346D01*
X49415346Y-44171539D01*
X49607954Y-44042843D01*
X49607955Y-44042842D01*
X49821973Y-43954193D01*
X49973440Y-43924064D01*
X50049173Y-43909000D01*
X50280827Y-43909000D01*
X50356560Y-43924064D01*
X50356560Y-43924064D01*
G37*
G36*
X88456560Y-43924064D02*
G01*
X88608027Y-43954193D01*
X88822045Y-44042842D01*
X88822046Y-44042843D01*
X89014654Y-44171539D01*
X89178461Y-44335346D01*
X89264258Y-44463751D01*
X89307158Y-44527955D01*
X89395807Y-44741973D01*
X89441000Y-44969174D01*
X89441000Y-45200826D01*
X89395807Y-45428027D01*
X89307158Y-45642045D01*
X89307157Y-45642046D01*
X89178461Y-45834654D01*
X89014654Y-45998461D01*
X88957540Y-46036623D01*
X88822045Y-46127158D01*
X88608027Y-46215807D01*
X88456560Y-46245936D01*
X88380827Y-46261000D01*
X88149173Y-46261000D01*
X88073440Y-46245936D01*
X87921973Y-46215807D01*
X87707955Y-46127158D01*
X87572460Y-46036623D01*
X87515346Y-45998461D01*
X87351539Y-45834654D01*
X87222843Y-45642046D01*
X87222842Y-45642045D01*
X87134193Y-45428027D01*
X87089000Y-45200826D01*
X87089000Y-44969174D01*
X87134193Y-44741973D01*
X87222842Y-44527955D01*
X87265742Y-44463751D01*
X87351539Y-44335346D01*
X87515346Y-44171539D01*
X87707954Y-44042843D01*
X87707955Y-44042842D01*
X87921973Y-43954193D01*
X88073440Y-43924064D01*
X88149173Y-43909000D01*
X88380827Y-43909000D01*
X88456560Y-43924064D01*
X88456560Y-43924064D01*
G37*
G36*
X107506560Y-43924064D02*
G01*
X107658027Y-43954193D01*
X107872045Y-44042842D01*
X107872046Y-44042843D01*
X108064654Y-44171539D01*
X108228461Y-44335346D01*
X108314258Y-44463751D01*
X108357158Y-44527955D01*
X108445807Y-44741973D01*
X108491000Y-44969174D01*
X108491000Y-45200826D01*
X108445807Y-45428027D01*
X108357158Y-45642045D01*
X108357157Y-45642046D01*
X108228461Y-45834654D01*
X108064654Y-45998461D01*
X108007540Y-46036623D01*
X107872045Y-46127158D01*
X107658027Y-46215807D01*
X107506560Y-46245936D01*
X107430827Y-46261000D01*
X107199173Y-46261000D01*
X107123440Y-46245936D01*
X106971973Y-46215807D01*
X106757955Y-46127158D01*
X106622460Y-46036623D01*
X106565346Y-45998461D01*
X106401539Y-45834654D01*
X106272843Y-45642046D01*
X106272842Y-45642045D01*
X106184193Y-45428027D01*
X106139000Y-45200826D01*
X106139000Y-44969174D01*
X106184193Y-44741973D01*
X106272842Y-44527955D01*
X106315742Y-44463751D01*
X106401539Y-44335346D01*
X106565346Y-44171539D01*
X106757954Y-44042843D01*
X106757955Y-44042842D01*
X106971973Y-43954193D01*
X107123440Y-43924064D01*
X107199173Y-43909000D01*
X107430827Y-43909000D01*
X107506560Y-43924064D01*
X107506560Y-43924064D01*
G37*
G36*
X69406560Y-43924064D02*
G01*
X69558027Y-43954193D01*
X69772045Y-44042842D01*
X69772046Y-44042843D01*
X69964654Y-44171539D01*
X70128461Y-44335346D01*
X70214258Y-44463751D01*
X70257158Y-44527955D01*
X70345807Y-44741973D01*
X70391000Y-44969174D01*
X70391000Y-45200826D01*
X70345807Y-45428027D01*
X70257158Y-45642045D01*
X70257157Y-45642046D01*
X70128461Y-45834654D01*
X69964654Y-45998461D01*
X69907540Y-46036623D01*
X69772045Y-46127158D01*
X69558027Y-46215807D01*
X69406560Y-46245936D01*
X69330827Y-46261000D01*
X69099173Y-46261000D01*
X69023440Y-46245936D01*
X68871973Y-46215807D01*
X68657955Y-46127158D01*
X68522460Y-46036623D01*
X68465346Y-45998461D01*
X68301539Y-45834654D01*
X68172843Y-45642046D01*
X68172842Y-45642045D01*
X68084193Y-45428027D01*
X68039000Y-45200826D01*
X68039000Y-44969174D01*
X68084193Y-44741973D01*
X68172842Y-44527955D01*
X68215742Y-44463751D01*
X68301539Y-44335346D01*
X68465346Y-44171539D01*
X68657954Y-44042843D01*
X68657955Y-44042842D01*
X68871973Y-43954193D01*
X69023440Y-43924064D01*
X69099173Y-43909000D01*
X69330827Y-43909000D01*
X69406560Y-43924064D01*
X69406560Y-43924064D01*
G37*
G36*
X78358014Y-41826973D02*
G01*
X78461878Y-41858479D01*
X78505907Y-41882013D01*
X78557599Y-41909643D01*
X78557601Y-41909644D01*
X78557600Y-41909644D01*
X78641501Y-41978499D01*
X78710356Y-42062400D01*
X78761521Y-42158121D01*
X78793027Y-42261985D01*
X78801000Y-42342933D01*
X78801000Y-43497067D01*
X78793027Y-43578015D01*
X78761521Y-43681879D01*
X78761519Y-43681882D01*
X78710357Y-43777600D01*
X78641501Y-43861501D01*
X78557600Y-43930357D01*
X78489055Y-43966995D01*
X78461879Y-43981521D01*
X78358015Y-44013027D01*
X78250000Y-44023666D01*
X78141986Y-44013027D01*
X78038122Y-43981521D01*
X78010946Y-43966995D01*
X77942401Y-43930357D01*
X77858500Y-43861501D01*
X77789644Y-43777600D01*
X77738482Y-43681882D01*
X77738480Y-43681879D01*
X77706974Y-43578015D01*
X77699001Y-43497067D01*
X77699000Y-42342934D01*
X77706973Y-42261986D01*
X77738479Y-42158122D01*
X77789644Y-42062400D01*
X77858499Y-41978499D01*
X77942400Y-41909644D01*
X77942399Y-41909644D01*
X77942401Y-41909643D01*
X77994093Y-41882013D01*
X78038121Y-41858479D01*
X78141985Y-41826973D01*
X78250000Y-41816334D01*
X78358014Y-41826973D01*
X78358014Y-41826973D01*
G37*
G36*
X86998014Y-41826973D02*
G01*
X87101878Y-41858479D01*
X87145907Y-41882013D01*
X87197599Y-41909643D01*
X87197601Y-41909644D01*
X87197600Y-41909644D01*
X87281501Y-41978499D01*
X87350356Y-42062400D01*
X87401521Y-42158121D01*
X87433027Y-42261985D01*
X87441000Y-42342933D01*
X87441000Y-43497067D01*
X87433027Y-43578015D01*
X87401521Y-43681879D01*
X87401519Y-43681882D01*
X87350357Y-43777600D01*
X87281501Y-43861501D01*
X87197600Y-43930357D01*
X87129055Y-43966995D01*
X87101879Y-43981521D01*
X86998015Y-44013027D01*
X86890000Y-44023666D01*
X86781986Y-44013027D01*
X86678122Y-43981521D01*
X86650946Y-43966995D01*
X86582401Y-43930357D01*
X86498500Y-43861501D01*
X86429644Y-43777600D01*
X86378482Y-43681882D01*
X86378480Y-43681879D01*
X86346974Y-43578015D01*
X86339001Y-43497067D01*
X86339000Y-42342934D01*
X86346973Y-42261986D01*
X86378479Y-42158122D01*
X86429644Y-42062400D01*
X86498499Y-41978499D01*
X86582400Y-41909644D01*
X86582399Y-41909644D01*
X86582401Y-41909643D01*
X86634093Y-41882013D01*
X86678121Y-41858479D01*
X86781985Y-41826973D01*
X86890000Y-41816334D01*
X86998014Y-41826973D01*
X86998014Y-41826973D01*
G37*
G36*
X94806560Y-41384064D02*
G01*
X94958027Y-41414193D01*
X95172045Y-41502842D01*
X95172046Y-41502843D01*
X95364654Y-41631539D01*
X95528461Y-41795346D01*
X95542485Y-41816335D01*
X95657158Y-41987955D01*
X95745807Y-42201973D01*
X95761392Y-42280325D01*
X95790575Y-42427034D01*
X95791000Y-42429174D01*
X95791000Y-42660826D01*
X95745807Y-42888027D01*
X95657158Y-43102045D01*
X95657157Y-43102046D01*
X95528461Y-43294654D01*
X95364654Y-43458461D01*
X95236249Y-43544258D01*
X95172045Y-43587158D01*
X94958027Y-43675807D01*
X94806560Y-43705936D01*
X94730827Y-43721000D01*
X94499173Y-43721000D01*
X94423440Y-43705936D01*
X94271973Y-43675807D01*
X94057955Y-43587158D01*
X93993751Y-43544258D01*
X93865346Y-43458461D01*
X93701539Y-43294654D01*
X93572843Y-43102046D01*
X93572842Y-43102045D01*
X93484193Y-42888027D01*
X93439000Y-42660826D01*
X93439000Y-42429174D01*
X93439426Y-42427034D01*
X93468608Y-42280325D01*
X93484193Y-42201973D01*
X93572842Y-41987955D01*
X93687515Y-41816335D01*
X93701539Y-41795346D01*
X93865346Y-41631539D01*
X94057954Y-41502843D01*
X94057955Y-41502842D01*
X94271973Y-41414193D01*
X94423440Y-41384064D01*
X94499173Y-41369000D01*
X94730827Y-41369000D01*
X94806560Y-41384064D01*
X94806560Y-41384064D01*
G37*
G36*
X113856560Y-41384064D02*
G01*
X114008027Y-41414193D01*
X114222045Y-41502842D01*
X114222046Y-41502843D01*
X114414654Y-41631539D01*
X114578461Y-41795346D01*
X114592485Y-41816335D01*
X114707158Y-41987955D01*
X114795807Y-42201973D01*
X114811392Y-42280325D01*
X114840575Y-42427034D01*
X114841000Y-42429174D01*
X114841000Y-42660826D01*
X114795807Y-42888027D01*
X114707158Y-43102045D01*
X114707157Y-43102046D01*
X114578461Y-43294654D01*
X114414654Y-43458461D01*
X114286249Y-43544258D01*
X114222045Y-43587158D01*
X114008027Y-43675807D01*
X113856560Y-43705936D01*
X113780827Y-43721000D01*
X113549173Y-43721000D01*
X113473440Y-43705936D01*
X113321973Y-43675807D01*
X113107955Y-43587158D01*
X113043751Y-43544258D01*
X112915346Y-43458461D01*
X112751539Y-43294654D01*
X112622843Y-43102046D01*
X112622842Y-43102045D01*
X112534193Y-42888027D01*
X112489000Y-42660826D01*
X112489000Y-42429174D01*
X112489426Y-42427034D01*
X112518608Y-42280325D01*
X112534193Y-42201973D01*
X112622842Y-41987955D01*
X112737515Y-41816335D01*
X112751539Y-41795346D01*
X112915346Y-41631539D01*
X113107954Y-41502843D01*
X113107955Y-41502842D01*
X113321973Y-41414193D01*
X113473440Y-41384064D01*
X113549173Y-41369000D01*
X113780827Y-41369000D01*
X113856560Y-41384064D01*
X113856560Y-41384064D01*
G37*
G36*
X56706560Y-41384064D02*
G01*
X56858027Y-41414193D01*
X57072045Y-41502842D01*
X57072046Y-41502843D01*
X57264654Y-41631539D01*
X57428461Y-41795346D01*
X57442485Y-41816335D01*
X57557158Y-41987955D01*
X57645807Y-42201973D01*
X57661392Y-42280325D01*
X57690575Y-42427034D01*
X57691000Y-42429174D01*
X57691000Y-42660826D01*
X57645807Y-42888027D01*
X57557158Y-43102045D01*
X57557157Y-43102046D01*
X57428461Y-43294654D01*
X57264654Y-43458461D01*
X57136249Y-43544258D01*
X57072045Y-43587158D01*
X56858027Y-43675807D01*
X56706560Y-43705936D01*
X56630827Y-43721000D01*
X56399173Y-43721000D01*
X56323440Y-43705936D01*
X56171973Y-43675807D01*
X55957955Y-43587158D01*
X55893751Y-43544258D01*
X55765346Y-43458461D01*
X55601539Y-43294654D01*
X55472843Y-43102046D01*
X55472842Y-43102045D01*
X55384193Y-42888027D01*
X55339000Y-42660826D01*
X55339000Y-42429174D01*
X55339426Y-42427034D01*
X55368608Y-42280325D01*
X55384193Y-42201973D01*
X55472842Y-41987955D01*
X55587515Y-41816335D01*
X55601539Y-41795346D01*
X55765346Y-41631539D01*
X55957954Y-41502843D01*
X55957955Y-41502842D01*
X56171973Y-41414193D01*
X56323440Y-41384064D01*
X56399173Y-41369000D01*
X56630827Y-41369000D01*
X56706560Y-41384064D01*
X56706560Y-41384064D01*
G37*
G36*
X75756560Y-41384064D02*
G01*
X75908027Y-41414193D01*
X76122045Y-41502842D01*
X76122046Y-41502843D01*
X76314654Y-41631539D01*
X76478461Y-41795346D01*
X76492485Y-41816335D01*
X76607158Y-41987955D01*
X76695807Y-42201973D01*
X76711392Y-42280325D01*
X76740575Y-42427034D01*
X76741000Y-42429174D01*
X76741000Y-42660826D01*
X76695807Y-42888027D01*
X76607158Y-43102045D01*
X76607157Y-43102046D01*
X76478461Y-43294654D01*
X76314654Y-43458461D01*
X76186249Y-43544258D01*
X76122045Y-43587158D01*
X75908027Y-43675807D01*
X75756560Y-43705936D01*
X75680827Y-43721000D01*
X75449173Y-43721000D01*
X75373440Y-43705936D01*
X75221973Y-43675807D01*
X75007955Y-43587158D01*
X74943751Y-43544258D01*
X74815346Y-43458461D01*
X74651539Y-43294654D01*
X74522843Y-43102046D01*
X74522842Y-43102045D01*
X74434193Y-42888027D01*
X74389000Y-42660826D01*
X74389000Y-42429174D01*
X74389426Y-42427034D01*
X74418608Y-42280325D01*
X74434193Y-42201973D01*
X74522842Y-41987955D01*
X74637515Y-41816335D01*
X74651539Y-41795346D01*
X74815346Y-41631539D01*
X75007954Y-41502843D01*
X75007955Y-41502842D01*
X75221973Y-41414193D01*
X75373440Y-41384064D01*
X75449173Y-41369000D01*
X75680827Y-41369000D01*
X75756560Y-41384064D01*
X75756560Y-41384064D01*
G37*
G36*
X79789672Y-42028449D02*
G01*
X79789674Y-42028450D01*
X79789675Y-42028450D01*
X79858103Y-42056793D01*
X79919686Y-42097942D01*
X79972058Y-42150314D01*
X80013207Y-42211897D01*
X80041550Y-42280325D01*
X80041551Y-42280328D01*
X80056000Y-42352966D01*
X80056000Y-42427034D01*
X80055575Y-42429173D01*
X80041550Y-42499675D01*
X80013207Y-42568103D01*
X79972058Y-42629686D01*
X79919686Y-42682058D01*
X79858103Y-42723207D01*
X79789675Y-42751550D01*
X79789674Y-42751550D01*
X79789672Y-42751551D01*
X79717034Y-42766000D01*
X79642966Y-42766000D01*
X79570328Y-42751551D01*
X79570326Y-42751550D01*
X79570325Y-42751550D01*
X79501897Y-42723207D01*
X79440314Y-42682058D01*
X79387942Y-42629686D01*
X79346793Y-42568103D01*
X79318450Y-42499675D01*
X79304426Y-42429173D01*
X79304000Y-42427034D01*
X79304000Y-42352966D01*
X79318449Y-42280328D01*
X79318450Y-42280325D01*
X79346793Y-42211897D01*
X79387942Y-42150314D01*
X79440314Y-42097942D01*
X79501897Y-42056793D01*
X79570325Y-42028450D01*
X79570326Y-42028450D01*
X79570328Y-42028449D01*
X79642966Y-42014000D01*
X79717034Y-42014000D01*
X79789672Y-42028449D01*
X79789672Y-42028449D01*
G37*
G36*
X85569672Y-42028449D02*
G01*
X85569674Y-42028450D01*
X85569675Y-42028450D01*
X85638103Y-42056793D01*
X85699686Y-42097942D01*
X85752058Y-42150314D01*
X85793207Y-42211897D01*
X85821550Y-42280325D01*
X85821551Y-42280328D01*
X85836000Y-42352966D01*
X85836000Y-42427034D01*
X85835575Y-42429173D01*
X85821550Y-42499675D01*
X85793207Y-42568103D01*
X85752058Y-42629686D01*
X85699686Y-42682058D01*
X85638103Y-42723207D01*
X85569675Y-42751550D01*
X85569674Y-42751550D01*
X85569672Y-42751551D01*
X85497034Y-42766000D01*
X85422966Y-42766000D01*
X85350328Y-42751551D01*
X85350326Y-42751550D01*
X85350325Y-42751550D01*
X85281897Y-42723207D01*
X85220314Y-42682058D01*
X85167942Y-42629686D01*
X85126793Y-42568103D01*
X85098450Y-42499675D01*
X85084426Y-42429173D01*
X85084000Y-42427034D01*
X85084000Y-42352966D01*
X85098449Y-42280328D01*
X85098450Y-42280325D01*
X85126793Y-42211897D01*
X85167942Y-42150314D01*
X85220314Y-42097942D01*
X85281897Y-42056793D01*
X85350325Y-42028450D01*
X85350326Y-42028450D01*
X85350328Y-42028449D01*
X85422966Y-42014000D01*
X85497034Y-42014000D01*
X85569672Y-42028449D01*
X85569672Y-42028449D01*
G37*
G36*
X78358014Y-37896973D02*
G01*
X78461878Y-37928479D01*
X78505907Y-37952013D01*
X78557599Y-37979643D01*
X78557601Y-37979644D01*
X78557600Y-37979644D01*
X78641501Y-38048499D01*
X78710356Y-38132400D01*
X78761521Y-38228121D01*
X78793027Y-38331985D01*
X78801000Y-38412933D01*
X78801000Y-39067067D01*
X78793027Y-39148015D01*
X78761521Y-39251879D01*
X78761519Y-39251882D01*
X78710357Y-39347600D01*
X78641501Y-39431501D01*
X78557600Y-39500357D01*
X78489055Y-39536995D01*
X78461879Y-39551521D01*
X78358015Y-39583027D01*
X78250000Y-39593666D01*
X78141986Y-39583027D01*
X78038122Y-39551521D01*
X78010946Y-39536995D01*
X77942401Y-39500357D01*
X77858500Y-39431501D01*
X77789645Y-39347601D01*
X77738480Y-39251879D01*
X77706973Y-39148015D01*
X77699000Y-39067067D01*
X77699000Y-38412934D01*
X77706973Y-38331986D01*
X77738479Y-38228122D01*
X77789644Y-38132400D01*
X77858499Y-38048499D01*
X77942400Y-37979644D01*
X77942399Y-37979644D01*
X77942401Y-37979643D01*
X77994093Y-37952013D01*
X78038121Y-37928479D01*
X78141985Y-37896973D01*
X78250000Y-37886334D01*
X78358014Y-37896973D01*
X78358014Y-37896973D01*
G37*
G36*
X86998014Y-37896973D02*
G01*
X87101878Y-37928479D01*
X87145907Y-37952013D01*
X87197599Y-37979643D01*
X87197601Y-37979644D01*
X87197600Y-37979644D01*
X87281501Y-38048499D01*
X87350356Y-38132400D01*
X87401521Y-38228121D01*
X87433027Y-38331985D01*
X87441000Y-38412933D01*
X87441000Y-39067067D01*
X87433027Y-39148015D01*
X87401521Y-39251879D01*
X87401519Y-39251882D01*
X87350357Y-39347600D01*
X87281501Y-39431501D01*
X87197600Y-39500357D01*
X87129055Y-39536995D01*
X87101879Y-39551521D01*
X86998015Y-39583027D01*
X86890000Y-39593666D01*
X86781986Y-39583027D01*
X86678122Y-39551521D01*
X86650946Y-39536995D01*
X86582401Y-39500357D01*
X86498500Y-39431501D01*
X86429645Y-39347601D01*
X86378480Y-39251879D01*
X86346973Y-39148015D01*
X86339000Y-39067067D01*
X86339000Y-38412934D01*
X86346973Y-38331986D01*
X86378479Y-38228122D01*
X86429644Y-38132400D01*
X86498499Y-38048499D01*
X86582400Y-37979644D01*
X86582399Y-37979644D01*
X86582401Y-37979643D01*
X86634093Y-37952013D01*
X86678121Y-37928479D01*
X86781985Y-37896973D01*
X86890000Y-37886334D01*
X86998014Y-37896973D01*
X86998014Y-37896973D01*
G37*
M02*
