M48
; DRILL file {KiCad (5.1.4)-1} date 09.01.2021 17:41:02
; FORMAT={-:-/ absolute / metric / decimal}
; #@! TF.CreationDate,2021-01-09T17:41:02+01:00
; #@! TF.GenerationSoftware,Kicad,Pcbnew,(5.1.4)-1
; #@! TF.FileFunction,Plated,1,2,PTH
FMAT,2
METRIC
T1C0.400
T2C0.600
T3C1.470
%
G90
G05
T1
X64.46Y-87.28
X64.47Y-68.96
X64.85Y-72.43
X65.176Y-90.694
X68.446Y-90.694
X69.41Y-72.43
X78.18Y-72.43
X80.37Y-109.74
X80.85Y-49.34
X80.95Y-52.67
X84.17Y-49.33
X84.566Y-109.744
X85.08Y-72.43
X85.57Y-56.36
X93.44Y-52.74
X98.93Y-100.67
X102.55Y-86.86
X104.51Y-92.21
X107.32Y-103.71
X111.125Y-94.456
X111.43Y-97.82
X112.52Y-103.07
X114.995Y-92.662
X115.71Y-90.36
X115.96Y-101.94
X119.11Y-85.84
T3
X69.215Y-102.235
X75.565Y-99.695
X88.265Y-64.135
X94.615Y-61.595
X69.215Y-83.185
X75.565Y-80.645
X88.265Y-121.285
X94.615Y-118.745
X107.315Y-83.185
X113.665Y-80.645
X107.315Y-45.085
X113.665Y-42.545
X106.045Y-111.76
X108.585Y-118.11
X88.265Y-45.085
X94.615Y-42.545
X50.165Y-64.135
X56.515Y-61.595
X69.215Y-64.135
X75.565Y-61.595
X59.69Y-121.285
X66.04Y-118.745
X88.265Y-83.185
X94.615Y-80.645
X107.315Y-64.135
X113.665Y-61.595
X50.165Y-102.235
X56.515Y-99.695
X50.165Y-45.085
X56.515Y-42.545
X88.265Y-102.235
X94.615Y-99.695
X50.165Y-83.185
X56.515Y-80.645
X69.215Y-45.085
X75.565Y-42.545
T2
G00X78.25Y-38.44
M15
G01X78.25Y-39.04
M16
G05
G00X78.25Y-42.37
M15
G01X78.25Y-43.47
M16
G05
G00X86.89Y-38.44
M15
G01X86.89Y-39.04
M16
G05
G00X86.89Y-42.37
M15
G01X86.89Y-43.47
M16
G05
T0
M30
