G04 #@! TF.GenerationSoftware,KiCad,Pcbnew,(5.1.4)-1*
G04 #@! TF.CreationDate,2021-01-09T17:41:00+01:00*
G04 #@! TF.ProjectId,numpad,6e756d70-6164-42e6-9b69-6361645f7063,1.1*
G04 #@! TF.SameCoordinates,Original*
G04 #@! TF.FileFunction,Legend,Bot*
G04 #@! TF.FilePolarity,Positive*
%FSLAX46Y46*%
G04 Gerber Fmt 4.6, Leading zero omitted, Abs format (unit mm)*
G04 Created by KiCad (PCBNEW (5.1.4)-1) date 2021-01-09 17:41:00*
%MOMM*%
%LPD*%
G04 APERTURE LIST*
%ADD10C,0.120000*%
%ADD11C,2.352000*%
%ADD12C,4.089800*%
%ADD13C,1.852000*%
%ADD14C,3.150000*%
%ADD15R,0.702000X2.552000*%
%ADD16R,0.402000X2.552000*%
%ADD17C,0.752000*%
%ADD18C,0.100000*%
%ADD19C,0.692000*%
%ADD20C,1.602000*%
%ADD21R,2.102000X2.502000*%
%ADD22R,0.902000X1.002000*%
%ADD23R,1.002000X0.902000*%
%ADD24C,0.402000*%
G04 APERTURE END LIST*
D10*
X119953750Y-88316250D02*
G75*
G03X119953750Y-88316250I-950000J0D01*
G01*
X119953750Y-90816250D02*
G75*
G03X119953750Y-90816250I-950000J0D01*
G01*
X119953750Y-93316250D02*
G75*
G03X119953750Y-93316250I-950000J0D01*
G01*
X113370000Y-107940000D02*
X107620000Y-107940000D01*
X107620000Y-107940000D02*
X107620000Y-104340000D01*
X107620000Y-104340000D02*
X113370000Y-104340000D01*
X103180000Y-109503750D02*
X103180000Y-108043750D01*
X100020000Y-109503750D02*
X100020000Y-107343750D01*
X100020000Y-109503750D02*
X100950000Y-109503750D01*
X103180000Y-109503750D02*
X102250000Y-109503750D01*
X103180000Y-90247500D02*
X103180000Y-88787500D01*
X100020000Y-90247500D02*
X100020000Y-88087500D01*
X100020000Y-90247500D02*
X100950000Y-90247500D01*
X103180000Y-90247500D02*
X102250000Y-90247500D01*
X103180000Y-72197500D02*
X103180000Y-70737500D01*
X100020000Y-72197500D02*
X100020000Y-70037500D01*
X100020000Y-72197500D02*
X100950000Y-72197500D01*
X103180000Y-72197500D02*
X102250000Y-72197500D01*
X103180000Y-52768750D02*
X103180000Y-51308750D01*
X100020000Y-52768750D02*
X100020000Y-50608750D01*
X100020000Y-52768750D02*
X100950000Y-52768750D01*
X103180000Y-52768750D02*
X102250000Y-52768750D01*
X84130000Y-126172500D02*
X84130000Y-124712500D01*
X80970000Y-126172500D02*
X80970000Y-124012500D01*
X80970000Y-126172500D02*
X81900000Y-126172500D01*
X84130000Y-126172500D02*
X83200000Y-126172500D01*
X65080000Y-109503750D02*
X65080000Y-108043750D01*
X61920000Y-109503750D02*
X61920000Y-107343750D01*
X61920000Y-109503750D02*
X62850000Y-109503750D01*
X65080000Y-109503750D02*
X64150000Y-109503750D01*
X65080000Y-90453750D02*
X65080000Y-88993750D01*
X61920000Y-90453750D02*
X61920000Y-88293750D01*
X61920000Y-90453750D02*
X62850000Y-90453750D01*
X65080000Y-90453750D02*
X64150000Y-90453750D01*
X65080000Y-72197500D02*
X65080000Y-70737500D01*
X61920000Y-72197500D02*
X61920000Y-70037500D01*
X61920000Y-72197500D02*
X62850000Y-72197500D01*
X65080000Y-72197500D02*
X64150000Y-72197500D01*
X65080000Y-52353750D02*
X65080000Y-50893750D01*
X61920000Y-52353750D02*
X61920000Y-50193750D01*
X61920000Y-52353750D02*
X62850000Y-52353750D01*
X65080000Y-52353750D02*
X64150000Y-52353750D01*
X88030000Y-59450000D02*
X88030000Y-58520000D01*
X88030000Y-56290000D02*
X88030000Y-57220000D01*
X88030000Y-56290000D02*
X90190000Y-56290000D01*
X88030000Y-59450000D02*
X89490000Y-59450000D01*
X113333821Y-100646588D02*
X113333821Y-101936588D01*
X113783821Y-100646588D02*
X113333821Y-100646588D01*
X113783821Y-100196588D02*
X113783821Y-100646588D01*
X113783821Y-93426588D02*
X113333821Y-93426588D01*
X113783821Y-93876588D02*
X113783821Y-93426588D01*
X106563821Y-100646588D02*
X107013821Y-100646588D01*
X106563821Y-100196588D02*
X106563821Y-100646588D01*
X106563821Y-93426588D02*
X107013821Y-93426588D01*
X106563821Y-93876588D02*
X106563821Y-93426588D01*
%LPC*%
D11*
X66040000Y-118745000D03*
D12*
X63500000Y-123825000D03*
D11*
X59690000Y-121285000D03*
D13*
X58420000Y-123825000D03*
X68580000Y-123825000D03*
D14*
X51593750Y-130810000D03*
X75406250Y-130810000D03*
D12*
X51593750Y-115570000D03*
X75406250Y-115570000D03*
D15*
X85795000Y-44335000D03*
X79345000Y-44335000D03*
X85020000Y-44335000D03*
X80120000Y-44335000D03*
D16*
X80820000Y-44335000D03*
X84320000Y-44335000D03*
X81320000Y-44335000D03*
X83820000Y-44335000D03*
X81820000Y-44335000D03*
X83320000Y-44335000D03*
X82820000Y-44335000D03*
X82320000Y-44335000D03*
D17*
X85460000Y-42390000D03*
X79680000Y-42390000D03*
D18*
G36*
X117024957Y-97419833D02*
G01*
X117041751Y-97422324D01*
X117058219Y-97426449D01*
X117074204Y-97432169D01*
X117089552Y-97439428D01*
X117104114Y-97448156D01*
X117117750Y-97458269D01*
X117130329Y-97469671D01*
X117141731Y-97482250D01*
X117151844Y-97495886D01*
X117160572Y-97510448D01*
X117167831Y-97525796D01*
X117173551Y-97541781D01*
X117177676Y-97558249D01*
X117180167Y-97575043D01*
X117181000Y-97592000D01*
X117181000Y-97988000D01*
X117180167Y-98004957D01*
X117177676Y-98021751D01*
X117173551Y-98038219D01*
X117167831Y-98054204D01*
X117160572Y-98069552D01*
X117151844Y-98084114D01*
X117141731Y-98097750D01*
X117130329Y-98110329D01*
X117117750Y-98121731D01*
X117104114Y-98131844D01*
X117089552Y-98140572D01*
X117074204Y-98147831D01*
X117058219Y-98153551D01*
X117041751Y-98157676D01*
X117024957Y-98160167D01*
X117008000Y-98161000D01*
X116662000Y-98161000D01*
X116645043Y-98160167D01*
X116628249Y-98157676D01*
X116611781Y-98153551D01*
X116595796Y-98147831D01*
X116580448Y-98140572D01*
X116565886Y-98131844D01*
X116552250Y-98121731D01*
X116539671Y-98110329D01*
X116528269Y-98097750D01*
X116518156Y-98084114D01*
X116509428Y-98069552D01*
X116502169Y-98054204D01*
X116496449Y-98038219D01*
X116492324Y-98021751D01*
X116489833Y-98004957D01*
X116489000Y-97988000D01*
X116489000Y-97592000D01*
X116489833Y-97575043D01*
X116492324Y-97558249D01*
X116496449Y-97541781D01*
X116502169Y-97525796D01*
X116509428Y-97510448D01*
X116518156Y-97495886D01*
X116528269Y-97482250D01*
X116539671Y-97469671D01*
X116552250Y-97458269D01*
X116565886Y-97448156D01*
X116580448Y-97439428D01*
X116595796Y-97432169D01*
X116611781Y-97426449D01*
X116628249Y-97422324D01*
X116645043Y-97419833D01*
X116662000Y-97419000D01*
X117008000Y-97419000D01*
X117024957Y-97419833D01*
X117024957Y-97419833D01*
G37*
D19*
X116835000Y-97790000D03*
D18*
G36*
X116054957Y-97419833D02*
G01*
X116071751Y-97422324D01*
X116088219Y-97426449D01*
X116104204Y-97432169D01*
X116119552Y-97439428D01*
X116134114Y-97448156D01*
X116147750Y-97458269D01*
X116160329Y-97469671D01*
X116171731Y-97482250D01*
X116181844Y-97495886D01*
X116190572Y-97510448D01*
X116197831Y-97525796D01*
X116203551Y-97541781D01*
X116207676Y-97558249D01*
X116210167Y-97575043D01*
X116211000Y-97592000D01*
X116211000Y-97988000D01*
X116210167Y-98004957D01*
X116207676Y-98021751D01*
X116203551Y-98038219D01*
X116197831Y-98054204D01*
X116190572Y-98069552D01*
X116181844Y-98084114D01*
X116171731Y-98097750D01*
X116160329Y-98110329D01*
X116147750Y-98121731D01*
X116134114Y-98131844D01*
X116119552Y-98140572D01*
X116104204Y-98147831D01*
X116088219Y-98153551D01*
X116071751Y-98157676D01*
X116054957Y-98160167D01*
X116038000Y-98161000D01*
X115692000Y-98161000D01*
X115675043Y-98160167D01*
X115658249Y-98157676D01*
X115641781Y-98153551D01*
X115625796Y-98147831D01*
X115610448Y-98140572D01*
X115595886Y-98131844D01*
X115582250Y-98121731D01*
X115569671Y-98110329D01*
X115558269Y-98097750D01*
X115548156Y-98084114D01*
X115539428Y-98069552D01*
X115532169Y-98054204D01*
X115526449Y-98038219D01*
X115522324Y-98021751D01*
X115519833Y-98004957D01*
X115519000Y-97988000D01*
X115519000Y-97592000D01*
X115519833Y-97575043D01*
X115522324Y-97558249D01*
X115526449Y-97541781D01*
X115532169Y-97525796D01*
X115539428Y-97510448D01*
X115548156Y-97495886D01*
X115558269Y-97482250D01*
X115569671Y-97469671D01*
X115582250Y-97458269D01*
X115595886Y-97448156D01*
X115610448Y-97439428D01*
X115625796Y-97432169D01*
X115641781Y-97426449D01*
X115658249Y-97422324D01*
X115675043Y-97419833D01*
X115692000Y-97419000D01*
X116038000Y-97419000D01*
X116054957Y-97419833D01*
X116054957Y-97419833D01*
G37*
D19*
X115865000Y-97790000D03*
D18*
G36*
X113684957Y-89969833D02*
G01*
X113701751Y-89972324D01*
X113718219Y-89976449D01*
X113734204Y-89982169D01*
X113749552Y-89989428D01*
X113764114Y-89998156D01*
X113777750Y-90008269D01*
X113790329Y-90019671D01*
X113801731Y-90032250D01*
X113811844Y-90045886D01*
X113820572Y-90060448D01*
X113827831Y-90075796D01*
X113833551Y-90091781D01*
X113837676Y-90108249D01*
X113840167Y-90125043D01*
X113841000Y-90142000D01*
X113841000Y-90538000D01*
X113840167Y-90554957D01*
X113837676Y-90571751D01*
X113833551Y-90588219D01*
X113827831Y-90604204D01*
X113820572Y-90619552D01*
X113811844Y-90634114D01*
X113801731Y-90647750D01*
X113790329Y-90660329D01*
X113777750Y-90671731D01*
X113764114Y-90681844D01*
X113749552Y-90690572D01*
X113734204Y-90697831D01*
X113718219Y-90703551D01*
X113701751Y-90707676D01*
X113684957Y-90710167D01*
X113668000Y-90711000D01*
X113322000Y-90711000D01*
X113305043Y-90710167D01*
X113288249Y-90707676D01*
X113271781Y-90703551D01*
X113255796Y-90697831D01*
X113240448Y-90690572D01*
X113225886Y-90681844D01*
X113212250Y-90671731D01*
X113199671Y-90660329D01*
X113188269Y-90647750D01*
X113178156Y-90634114D01*
X113169428Y-90619552D01*
X113162169Y-90604204D01*
X113156449Y-90588219D01*
X113152324Y-90571751D01*
X113149833Y-90554957D01*
X113149000Y-90538000D01*
X113149000Y-90142000D01*
X113149833Y-90125043D01*
X113152324Y-90108249D01*
X113156449Y-90091781D01*
X113162169Y-90075796D01*
X113169428Y-90060448D01*
X113178156Y-90045886D01*
X113188269Y-90032250D01*
X113199671Y-90019671D01*
X113212250Y-90008269D01*
X113225886Y-89998156D01*
X113240448Y-89989428D01*
X113255796Y-89982169D01*
X113271781Y-89976449D01*
X113288249Y-89972324D01*
X113305043Y-89969833D01*
X113322000Y-89969000D01*
X113668000Y-89969000D01*
X113684957Y-89969833D01*
X113684957Y-89969833D01*
G37*
D19*
X113495000Y-90340000D03*
D18*
G36*
X114654957Y-89969833D02*
G01*
X114671751Y-89972324D01*
X114688219Y-89976449D01*
X114704204Y-89982169D01*
X114719552Y-89989428D01*
X114734114Y-89998156D01*
X114747750Y-90008269D01*
X114760329Y-90019671D01*
X114771731Y-90032250D01*
X114781844Y-90045886D01*
X114790572Y-90060448D01*
X114797831Y-90075796D01*
X114803551Y-90091781D01*
X114807676Y-90108249D01*
X114810167Y-90125043D01*
X114811000Y-90142000D01*
X114811000Y-90538000D01*
X114810167Y-90554957D01*
X114807676Y-90571751D01*
X114803551Y-90588219D01*
X114797831Y-90604204D01*
X114790572Y-90619552D01*
X114781844Y-90634114D01*
X114771731Y-90647750D01*
X114760329Y-90660329D01*
X114747750Y-90671731D01*
X114734114Y-90681844D01*
X114719552Y-90690572D01*
X114704204Y-90697831D01*
X114688219Y-90703551D01*
X114671751Y-90707676D01*
X114654957Y-90710167D01*
X114638000Y-90711000D01*
X114292000Y-90711000D01*
X114275043Y-90710167D01*
X114258249Y-90707676D01*
X114241781Y-90703551D01*
X114225796Y-90697831D01*
X114210448Y-90690572D01*
X114195886Y-90681844D01*
X114182250Y-90671731D01*
X114169671Y-90660329D01*
X114158269Y-90647750D01*
X114148156Y-90634114D01*
X114139428Y-90619552D01*
X114132169Y-90604204D01*
X114126449Y-90588219D01*
X114122324Y-90571751D01*
X114119833Y-90554957D01*
X114119000Y-90538000D01*
X114119000Y-90142000D01*
X114119833Y-90125043D01*
X114122324Y-90108249D01*
X114126449Y-90091781D01*
X114132169Y-90075796D01*
X114139428Y-90060448D01*
X114148156Y-90045886D01*
X114158269Y-90032250D01*
X114169671Y-90019671D01*
X114182250Y-90008269D01*
X114195886Y-89998156D01*
X114210448Y-89989428D01*
X114225796Y-89982169D01*
X114241781Y-89976449D01*
X114258249Y-89972324D01*
X114275043Y-89969833D01*
X114292000Y-89969000D01*
X114638000Y-89969000D01*
X114654957Y-89969833D01*
X114654957Y-89969833D01*
G37*
D19*
X114465000Y-90340000D03*
D18*
G36*
X81034957Y-46839833D02*
G01*
X81051751Y-46842324D01*
X81068219Y-46846449D01*
X81084204Y-46852169D01*
X81099552Y-46859428D01*
X81114114Y-46868156D01*
X81127750Y-46878269D01*
X81140329Y-46889671D01*
X81151731Y-46902250D01*
X81161844Y-46915886D01*
X81170572Y-46930448D01*
X81177831Y-46945796D01*
X81183551Y-46961781D01*
X81187676Y-46978249D01*
X81190167Y-46995043D01*
X81191000Y-47012000D01*
X81191000Y-47358000D01*
X81190167Y-47374957D01*
X81187676Y-47391751D01*
X81183551Y-47408219D01*
X81177831Y-47424204D01*
X81170572Y-47439552D01*
X81161844Y-47454114D01*
X81151731Y-47467750D01*
X81140329Y-47480329D01*
X81127750Y-47491731D01*
X81114114Y-47501844D01*
X81099552Y-47510572D01*
X81084204Y-47517831D01*
X81068219Y-47523551D01*
X81051751Y-47527676D01*
X81034957Y-47530167D01*
X81018000Y-47531000D01*
X80622000Y-47531000D01*
X80605043Y-47530167D01*
X80588249Y-47527676D01*
X80571781Y-47523551D01*
X80555796Y-47517831D01*
X80540448Y-47510572D01*
X80525886Y-47501844D01*
X80512250Y-47491731D01*
X80499671Y-47480329D01*
X80488269Y-47467750D01*
X80478156Y-47454114D01*
X80469428Y-47439552D01*
X80462169Y-47424204D01*
X80456449Y-47408219D01*
X80452324Y-47391751D01*
X80449833Y-47374957D01*
X80449000Y-47358000D01*
X80449000Y-47012000D01*
X80449833Y-46995043D01*
X80452324Y-46978249D01*
X80456449Y-46961781D01*
X80462169Y-46945796D01*
X80469428Y-46930448D01*
X80478156Y-46915886D01*
X80488269Y-46902250D01*
X80499671Y-46889671D01*
X80512250Y-46878269D01*
X80525886Y-46868156D01*
X80540448Y-46859428D01*
X80555796Y-46852169D01*
X80571781Y-46846449D01*
X80588249Y-46842324D01*
X80605043Y-46839833D01*
X80622000Y-46839000D01*
X81018000Y-46839000D01*
X81034957Y-46839833D01*
X81034957Y-46839833D01*
G37*
D19*
X80820000Y-47185000D03*
D18*
G36*
X81034957Y-47809833D02*
G01*
X81051751Y-47812324D01*
X81068219Y-47816449D01*
X81084204Y-47822169D01*
X81099552Y-47829428D01*
X81114114Y-47838156D01*
X81127750Y-47848269D01*
X81140329Y-47859671D01*
X81151731Y-47872250D01*
X81161844Y-47885886D01*
X81170572Y-47900448D01*
X81177831Y-47915796D01*
X81183551Y-47931781D01*
X81187676Y-47948249D01*
X81190167Y-47965043D01*
X81191000Y-47982000D01*
X81191000Y-48328000D01*
X81190167Y-48344957D01*
X81187676Y-48361751D01*
X81183551Y-48378219D01*
X81177831Y-48394204D01*
X81170572Y-48409552D01*
X81161844Y-48424114D01*
X81151731Y-48437750D01*
X81140329Y-48450329D01*
X81127750Y-48461731D01*
X81114114Y-48471844D01*
X81099552Y-48480572D01*
X81084204Y-48487831D01*
X81068219Y-48493551D01*
X81051751Y-48497676D01*
X81034957Y-48500167D01*
X81018000Y-48501000D01*
X80622000Y-48501000D01*
X80605043Y-48500167D01*
X80588249Y-48497676D01*
X80571781Y-48493551D01*
X80555796Y-48487831D01*
X80540448Y-48480572D01*
X80525886Y-48471844D01*
X80512250Y-48461731D01*
X80499671Y-48450329D01*
X80488269Y-48437750D01*
X80478156Y-48424114D01*
X80469428Y-48409552D01*
X80462169Y-48394204D01*
X80456449Y-48378219D01*
X80452324Y-48361751D01*
X80449833Y-48344957D01*
X80449000Y-48328000D01*
X80449000Y-47982000D01*
X80449833Y-47965043D01*
X80452324Y-47948249D01*
X80456449Y-47931781D01*
X80462169Y-47915796D01*
X80469428Y-47900448D01*
X80478156Y-47885886D01*
X80488269Y-47872250D01*
X80499671Y-47859671D01*
X80512250Y-47848269D01*
X80525886Y-47838156D01*
X80540448Y-47829428D01*
X80555796Y-47822169D01*
X80571781Y-47816449D01*
X80588249Y-47812324D01*
X80605043Y-47809833D01*
X80622000Y-47809000D01*
X81018000Y-47809000D01*
X81034957Y-47809833D01*
X81034957Y-47809833D01*
G37*
D19*
X80820000Y-48155000D03*
D18*
G36*
X84444957Y-46689833D02*
G01*
X84461751Y-46692324D01*
X84478219Y-46696449D01*
X84494204Y-46702169D01*
X84509552Y-46709428D01*
X84524114Y-46718156D01*
X84537750Y-46728269D01*
X84550329Y-46739671D01*
X84561731Y-46752250D01*
X84571844Y-46765886D01*
X84580572Y-46780448D01*
X84587831Y-46795796D01*
X84593551Y-46811781D01*
X84597676Y-46828249D01*
X84600167Y-46845043D01*
X84601000Y-46862000D01*
X84601000Y-47208000D01*
X84600167Y-47224957D01*
X84597676Y-47241751D01*
X84593551Y-47258219D01*
X84587831Y-47274204D01*
X84580572Y-47289552D01*
X84571844Y-47304114D01*
X84561731Y-47317750D01*
X84550329Y-47330329D01*
X84537750Y-47341731D01*
X84524114Y-47351844D01*
X84509552Y-47360572D01*
X84494204Y-47367831D01*
X84478219Y-47373551D01*
X84461751Y-47377676D01*
X84444957Y-47380167D01*
X84428000Y-47381000D01*
X84032000Y-47381000D01*
X84015043Y-47380167D01*
X83998249Y-47377676D01*
X83981781Y-47373551D01*
X83965796Y-47367831D01*
X83950448Y-47360572D01*
X83935886Y-47351844D01*
X83922250Y-47341731D01*
X83909671Y-47330329D01*
X83898269Y-47317750D01*
X83888156Y-47304114D01*
X83879428Y-47289552D01*
X83872169Y-47274204D01*
X83866449Y-47258219D01*
X83862324Y-47241751D01*
X83859833Y-47224957D01*
X83859000Y-47208000D01*
X83859000Y-46862000D01*
X83859833Y-46845043D01*
X83862324Y-46828249D01*
X83866449Y-46811781D01*
X83872169Y-46795796D01*
X83879428Y-46780448D01*
X83888156Y-46765886D01*
X83898269Y-46752250D01*
X83909671Y-46739671D01*
X83922250Y-46728269D01*
X83935886Y-46718156D01*
X83950448Y-46709428D01*
X83965796Y-46702169D01*
X83981781Y-46696449D01*
X83998249Y-46692324D01*
X84015043Y-46689833D01*
X84032000Y-46689000D01*
X84428000Y-46689000D01*
X84444957Y-46689833D01*
X84444957Y-46689833D01*
G37*
D19*
X84230000Y-47035000D03*
D18*
G36*
X84444957Y-47659833D02*
G01*
X84461751Y-47662324D01*
X84478219Y-47666449D01*
X84494204Y-47672169D01*
X84509552Y-47679428D01*
X84524114Y-47688156D01*
X84537750Y-47698269D01*
X84550329Y-47709671D01*
X84561731Y-47722250D01*
X84571844Y-47735886D01*
X84580572Y-47750448D01*
X84587831Y-47765796D01*
X84593551Y-47781781D01*
X84597676Y-47798249D01*
X84600167Y-47815043D01*
X84601000Y-47832000D01*
X84601000Y-48178000D01*
X84600167Y-48194957D01*
X84597676Y-48211751D01*
X84593551Y-48228219D01*
X84587831Y-48244204D01*
X84580572Y-48259552D01*
X84571844Y-48274114D01*
X84561731Y-48287750D01*
X84550329Y-48300329D01*
X84537750Y-48311731D01*
X84524114Y-48321844D01*
X84509552Y-48330572D01*
X84494204Y-48337831D01*
X84478219Y-48343551D01*
X84461751Y-48347676D01*
X84444957Y-48350167D01*
X84428000Y-48351000D01*
X84032000Y-48351000D01*
X84015043Y-48350167D01*
X83998249Y-48347676D01*
X83981781Y-48343551D01*
X83965796Y-48337831D01*
X83950448Y-48330572D01*
X83935886Y-48321844D01*
X83922250Y-48311731D01*
X83909671Y-48300329D01*
X83898269Y-48287750D01*
X83888156Y-48274114D01*
X83879428Y-48259552D01*
X83872169Y-48244204D01*
X83866449Y-48228219D01*
X83862324Y-48211751D01*
X83859833Y-48194957D01*
X83859000Y-48178000D01*
X83859000Y-47832000D01*
X83859833Y-47815043D01*
X83862324Y-47798249D01*
X83866449Y-47781781D01*
X83872169Y-47765796D01*
X83879428Y-47750448D01*
X83888156Y-47735886D01*
X83898269Y-47722250D01*
X83909671Y-47709671D01*
X83922250Y-47698269D01*
X83935886Y-47688156D01*
X83950448Y-47679428D01*
X83965796Y-47672169D01*
X83981781Y-47666449D01*
X83998249Y-47662324D01*
X84015043Y-47659833D01*
X84032000Y-47659000D01*
X84428000Y-47659000D01*
X84444957Y-47659833D01*
X84444957Y-47659833D01*
G37*
D19*
X84230000Y-48005000D03*
D18*
G36*
X91714957Y-57504833D02*
G01*
X91731751Y-57507324D01*
X91748219Y-57511449D01*
X91764204Y-57517169D01*
X91779552Y-57524428D01*
X91794114Y-57533156D01*
X91807750Y-57543269D01*
X91820329Y-57554671D01*
X91831731Y-57567250D01*
X91841844Y-57580886D01*
X91850572Y-57595448D01*
X91857831Y-57610796D01*
X91863551Y-57626781D01*
X91867676Y-57643249D01*
X91870167Y-57660043D01*
X91871000Y-57677000D01*
X91871000Y-58023000D01*
X91870167Y-58039957D01*
X91867676Y-58056751D01*
X91863551Y-58073219D01*
X91857831Y-58089204D01*
X91850572Y-58104552D01*
X91841844Y-58119114D01*
X91831731Y-58132750D01*
X91820329Y-58145329D01*
X91807750Y-58156731D01*
X91794114Y-58166844D01*
X91779552Y-58175572D01*
X91764204Y-58182831D01*
X91748219Y-58188551D01*
X91731751Y-58192676D01*
X91714957Y-58195167D01*
X91698000Y-58196000D01*
X91302000Y-58196000D01*
X91285043Y-58195167D01*
X91268249Y-58192676D01*
X91251781Y-58188551D01*
X91235796Y-58182831D01*
X91220448Y-58175572D01*
X91205886Y-58166844D01*
X91192250Y-58156731D01*
X91179671Y-58145329D01*
X91168269Y-58132750D01*
X91158156Y-58119114D01*
X91149428Y-58104552D01*
X91142169Y-58089204D01*
X91136449Y-58073219D01*
X91132324Y-58056751D01*
X91129833Y-58039957D01*
X91129000Y-58023000D01*
X91129000Y-57677000D01*
X91129833Y-57660043D01*
X91132324Y-57643249D01*
X91136449Y-57626781D01*
X91142169Y-57610796D01*
X91149428Y-57595448D01*
X91158156Y-57580886D01*
X91168269Y-57567250D01*
X91179671Y-57554671D01*
X91192250Y-57543269D01*
X91205886Y-57533156D01*
X91220448Y-57524428D01*
X91235796Y-57517169D01*
X91251781Y-57511449D01*
X91268249Y-57507324D01*
X91285043Y-57504833D01*
X91302000Y-57504000D01*
X91698000Y-57504000D01*
X91714957Y-57504833D01*
X91714957Y-57504833D01*
G37*
D19*
X91500000Y-57850000D03*
D18*
G36*
X91714957Y-58474833D02*
G01*
X91731751Y-58477324D01*
X91748219Y-58481449D01*
X91764204Y-58487169D01*
X91779552Y-58494428D01*
X91794114Y-58503156D01*
X91807750Y-58513269D01*
X91820329Y-58524671D01*
X91831731Y-58537250D01*
X91841844Y-58550886D01*
X91850572Y-58565448D01*
X91857831Y-58580796D01*
X91863551Y-58596781D01*
X91867676Y-58613249D01*
X91870167Y-58630043D01*
X91871000Y-58647000D01*
X91871000Y-58993000D01*
X91870167Y-59009957D01*
X91867676Y-59026751D01*
X91863551Y-59043219D01*
X91857831Y-59059204D01*
X91850572Y-59074552D01*
X91841844Y-59089114D01*
X91831731Y-59102750D01*
X91820329Y-59115329D01*
X91807750Y-59126731D01*
X91794114Y-59136844D01*
X91779552Y-59145572D01*
X91764204Y-59152831D01*
X91748219Y-59158551D01*
X91731751Y-59162676D01*
X91714957Y-59165167D01*
X91698000Y-59166000D01*
X91302000Y-59166000D01*
X91285043Y-59165167D01*
X91268249Y-59162676D01*
X91251781Y-59158551D01*
X91235796Y-59152831D01*
X91220448Y-59145572D01*
X91205886Y-59136844D01*
X91192250Y-59126731D01*
X91179671Y-59115329D01*
X91168269Y-59102750D01*
X91158156Y-59089114D01*
X91149428Y-59074552D01*
X91142169Y-59059204D01*
X91136449Y-59043219D01*
X91132324Y-59026751D01*
X91129833Y-59009957D01*
X91129000Y-58993000D01*
X91129000Y-58647000D01*
X91129833Y-58630043D01*
X91132324Y-58613249D01*
X91136449Y-58596781D01*
X91142169Y-58580796D01*
X91149428Y-58565448D01*
X91158156Y-58550886D01*
X91168269Y-58537250D01*
X91179671Y-58524671D01*
X91192250Y-58513269D01*
X91205886Y-58503156D01*
X91220448Y-58494428D01*
X91235796Y-58487169D01*
X91251781Y-58481449D01*
X91268249Y-58477324D01*
X91285043Y-58474833D01*
X91302000Y-58474000D01*
X91698000Y-58474000D01*
X91714957Y-58474833D01*
X91714957Y-58474833D01*
G37*
D19*
X91500000Y-58820000D03*
D18*
G36*
X86984957Y-55139833D02*
G01*
X87001751Y-55142324D01*
X87018219Y-55146449D01*
X87034204Y-55152169D01*
X87049552Y-55159428D01*
X87064114Y-55168156D01*
X87077750Y-55178269D01*
X87090329Y-55189671D01*
X87101731Y-55202250D01*
X87111844Y-55215886D01*
X87120572Y-55230448D01*
X87127831Y-55245796D01*
X87133551Y-55261781D01*
X87137676Y-55278249D01*
X87140167Y-55295043D01*
X87141000Y-55312000D01*
X87141000Y-55708000D01*
X87140167Y-55724957D01*
X87137676Y-55741751D01*
X87133551Y-55758219D01*
X87127831Y-55774204D01*
X87120572Y-55789552D01*
X87111844Y-55804114D01*
X87101731Y-55817750D01*
X87090329Y-55830329D01*
X87077750Y-55841731D01*
X87064114Y-55851844D01*
X87049552Y-55860572D01*
X87034204Y-55867831D01*
X87018219Y-55873551D01*
X87001751Y-55877676D01*
X86984957Y-55880167D01*
X86968000Y-55881000D01*
X86622000Y-55881000D01*
X86605043Y-55880167D01*
X86588249Y-55877676D01*
X86571781Y-55873551D01*
X86555796Y-55867831D01*
X86540448Y-55860572D01*
X86525886Y-55851844D01*
X86512250Y-55841731D01*
X86499671Y-55830329D01*
X86488269Y-55817750D01*
X86478156Y-55804114D01*
X86469428Y-55789552D01*
X86462169Y-55774204D01*
X86456449Y-55758219D01*
X86452324Y-55741751D01*
X86449833Y-55724957D01*
X86449000Y-55708000D01*
X86449000Y-55312000D01*
X86449833Y-55295043D01*
X86452324Y-55278249D01*
X86456449Y-55261781D01*
X86462169Y-55245796D01*
X86469428Y-55230448D01*
X86478156Y-55215886D01*
X86488269Y-55202250D01*
X86499671Y-55189671D01*
X86512250Y-55178269D01*
X86525886Y-55168156D01*
X86540448Y-55159428D01*
X86555796Y-55152169D01*
X86571781Y-55146449D01*
X86588249Y-55142324D01*
X86605043Y-55139833D01*
X86622000Y-55139000D01*
X86968000Y-55139000D01*
X86984957Y-55139833D01*
X86984957Y-55139833D01*
G37*
D19*
X86795000Y-55510000D03*
D18*
G36*
X87954957Y-55139833D02*
G01*
X87971751Y-55142324D01*
X87988219Y-55146449D01*
X88004204Y-55152169D01*
X88019552Y-55159428D01*
X88034114Y-55168156D01*
X88047750Y-55178269D01*
X88060329Y-55189671D01*
X88071731Y-55202250D01*
X88081844Y-55215886D01*
X88090572Y-55230448D01*
X88097831Y-55245796D01*
X88103551Y-55261781D01*
X88107676Y-55278249D01*
X88110167Y-55295043D01*
X88111000Y-55312000D01*
X88111000Y-55708000D01*
X88110167Y-55724957D01*
X88107676Y-55741751D01*
X88103551Y-55758219D01*
X88097831Y-55774204D01*
X88090572Y-55789552D01*
X88081844Y-55804114D01*
X88071731Y-55817750D01*
X88060329Y-55830329D01*
X88047750Y-55841731D01*
X88034114Y-55851844D01*
X88019552Y-55860572D01*
X88004204Y-55867831D01*
X87988219Y-55873551D01*
X87971751Y-55877676D01*
X87954957Y-55880167D01*
X87938000Y-55881000D01*
X87592000Y-55881000D01*
X87575043Y-55880167D01*
X87558249Y-55877676D01*
X87541781Y-55873551D01*
X87525796Y-55867831D01*
X87510448Y-55860572D01*
X87495886Y-55851844D01*
X87482250Y-55841731D01*
X87469671Y-55830329D01*
X87458269Y-55817750D01*
X87448156Y-55804114D01*
X87439428Y-55789552D01*
X87432169Y-55774204D01*
X87426449Y-55758219D01*
X87422324Y-55741751D01*
X87419833Y-55724957D01*
X87419000Y-55708000D01*
X87419000Y-55312000D01*
X87419833Y-55295043D01*
X87422324Y-55278249D01*
X87426449Y-55261781D01*
X87432169Y-55245796D01*
X87439428Y-55230448D01*
X87448156Y-55215886D01*
X87458269Y-55202250D01*
X87469671Y-55189671D01*
X87482250Y-55178269D01*
X87495886Y-55168156D01*
X87510448Y-55159428D01*
X87525796Y-55152169D01*
X87541781Y-55146449D01*
X87558249Y-55142324D01*
X87575043Y-55139833D01*
X87592000Y-55139000D01*
X87938000Y-55139000D01*
X87954957Y-55139833D01*
X87954957Y-55139833D01*
G37*
D19*
X87765000Y-55510000D03*
D18*
G36*
X92834957Y-57509833D02*
G01*
X92851751Y-57512324D01*
X92868219Y-57516449D01*
X92884204Y-57522169D01*
X92899552Y-57529428D01*
X92914114Y-57538156D01*
X92927750Y-57548269D01*
X92940329Y-57559671D01*
X92951731Y-57572250D01*
X92961844Y-57585886D01*
X92970572Y-57600448D01*
X92977831Y-57615796D01*
X92983551Y-57631781D01*
X92987676Y-57648249D01*
X92990167Y-57665043D01*
X92991000Y-57682000D01*
X92991000Y-58028000D01*
X92990167Y-58044957D01*
X92987676Y-58061751D01*
X92983551Y-58078219D01*
X92977831Y-58094204D01*
X92970572Y-58109552D01*
X92961844Y-58124114D01*
X92951731Y-58137750D01*
X92940329Y-58150329D01*
X92927750Y-58161731D01*
X92914114Y-58171844D01*
X92899552Y-58180572D01*
X92884204Y-58187831D01*
X92868219Y-58193551D01*
X92851751Y-58197676D01*
X92834957Y-58200167D01*
X92818000Y-58201000D01*
X92422000Y-58201000D01*
X92405043Y-58200167D01*
X92388249Y-58197676D01*
X92371781Y-58193551D01*
X92355796Y-58187831D01*
X92340448Y-58180572D01*
X92325886Y-58171844D01*
X92312250Y-58161731D01*
X92299671Y-58150329D01*
X92288269Y-58137750D01*
X92278156Y-58124114D01*
X92269428Y-58109552D01*
X92262169Y-58094204D01*
X92256449Y-58078219D01*
X92252324Y-58061751D01*
X92249833Y-58044957D01*
X92249000Y-58028000D01*
X92249000Y-57682000D01*
X92249833Y-57665043D01*
X92252324Y-57648249D01*
X92256449Y-57631781D01*
X92262169Y-57615796D01*
X92269428Y-57600448D01*
X92278156Y-57585886D01*
X92288269Y-57572250D01*
X92299671Y-57559671D01*
X92312250Y-57548269D01*
X92325886Y-57538156D01*
X92340448Y-57529428D01*
X92355796Y-57522169D01*
X92371781Y-57516449D01*
X92388249Y-57512324D01*
X92405043Y-57509833D01*
X92422000Y-57509000D01*
X92818000Y-57509000D01*
X92834957Y-57509833D01*
X92834957Y-57509833D01*
G37*
D19*
X92620000Y-57855000D03*
D18*
G36*
X92834957Y-58479833D02*
G01*
X92851751Y-58482324D01*
X92868219Y-58486449D01*
X92884204Y-58492169D01*
X92899552Y-58499428D01*
X92914114Y-58508156D01*
X92927750Y-58518269D01*
X92940329Y-58529671D01*
X92951731Y-58542250D01*
X92961844Y-58555886D01*
X92970572Y-58570448D01*
X92977831Y-58585796D01*
X92983551Y-58601781D01*
X92987676Y-58618249D01*
X92990167Y-58635043D01*
X92991000Y-58652000D01*
X92991000Y-58998000D01*
X92990167Y-59014957D01*
X92987676Y-59031751D01*
X92983551Y-59048219D01*
X92977831Y-59064204D01*
X92970572Y-59079552D01*
X92961844Y-59094114D01*
X92951731Y-59107750D01*
X92940329Y-59120329D01*
X92927750Y-59131731D01*
X92914114Y-59141844D01*
X92899552Y-59150572D01*
X92884204Y-59157831D01*
X92868219Y-59163551D01*
X92851751Y-59167676D01*
X92834957Y-59170167D01*
X92818000Y-59171000D01*
X92422000Y-59171000D01*
X92405043Y-59170167D01*
X92388249Y-59167676D01*
X92371781Y-59163551D01*
X92355796Y-59157831D01*
X92340448Y-59150572D01*
X92325886Y-59141844D01*
X92312250Y-59131731D01*
X92299671Y-59120329D01*
X92288269Y-59107750D01*
X92278156Y-59094114D01*
X92269428Y-59079552D01*
X92262169Y-59064204D01*
X92256449Y-59048219D01*
X92252324Y-59031751D01*
X92249833Y-59014957D01*
X92249000Y-58998000D01*
X92249000Y-58652000D01*
X92249833Y-58635043D01*
X92252324Y-58618249D01*
X92256449Y-58601781D01*
X92262169Y-58585796D01*
X92269428Y-58570448D01*
X92278156Y-58555886D01*
X92288269Y-58542250D01*
X92299671Y-58529671D01*
X92312250Y-58518269D01*
X92325886Y-58508156D01*
X92340448Y-58499428D01*
X92355796Y-58492169D01*
X92371781Y-58486449D01*
X92388249Y-58482324D01*
X92405043Y-58479833D01*
X92422000Y-58479000D01*
X92818000Y-58479000D01*
X92834957Y-58479833D01*
X92834957Y-58479833D01*
G37*
D19*
X92620000Y-58825000D03*
D18*
G36*
X109524957Y-103339833D02*
G01*
X109541751Y-103342324D01*
X109558219Y-103346449D01*
X109574204Y-103352169D01*
X109589552Y-103359428D01*
X109604114Y-103368156D01*
X109617750Y-103378269D01*
X109630329Y-103389671D01*
X109641731Y-103402250D01*
X109651844Y-103415886D01*
X109660572Y-103430448D01*
X109667831Y-103445796D01*
X109673551Y-103461781D01*
X109677676Y-103478249D01*
X109680167Y-103495043D01*
X109681000Y-103512000D01*
X109681000Y-103908000D01*
X109680167Y-103924957D01*
X109677676Y-103941751D01*
X109673551Y-103958219D01*
X109667831Y-103974204D01*
X109660572Y-103989552D01*
X109651844Y-104004114D01*
X109641731Y-104017750D01*
X109630329Y-104030329D01*
X109617750Y-104041731D01*
X109604114Y-104051844D01*
X109589552Y-104060572D01*
X109574204Y-104067831D01*
X109558219Y-104073551D01*
X109541751Y-104077676D01*
X109524957Y-104080167D01*
X109508000Y-104081000D01*
X109162000Y-104081000D01*
X109145043Y-104080167D01*
X109128249Y-104077676D01*
X109111781Y-104073551D01*
X109095796Y-104067831D01*
X109080448Y-104060572D01*
X109065886Y-104051844D01*
X109052250Y-104041731D01*
X109039671Y-104030329D01*
X109028269Y-104017750D01*
X109018156Y-104004114D01*
X109009428Y-103989552D01*
X109002169Y-103974204D01*
X108996449Y-103958219D01*
X108992324Y-103941751D01*
X108989833Y-103924957D01*
X108989000Y-103908000D01*
X108989000Y-103512000D01*
X108989833Y-103495043D01*
X108992324Y-103478249D01*
X108996449Y-103461781D01*
X109002169Y-103445796D01*
X109009428Y-103430448D01*
X109018156Y-103415886D01*
X109028269Y-103402250D01*
X109039671Y-103389671D01*
X109052250Y-103378269D01*
X109065886Y-103368156D01*
X109080448Y-103359428D01*
X109095796Y-103352169D01*
X109111781Y-103346449D01*
X109128249Y-103342324D01*
X109145043Y-103339833D01*
X109162000Y-103339000D01*
X109508000Y-103339000D01*
X109524957Y-103339833D01*
X109524957Y-103339833D01*
G37*
D19*
X109335000Y-103710000D03*
D18*
G36*
X108554957Y-103339833D02*
G01*
X108571751Y-103342324D01*
X108588219Y-103346449D01*
X108604204Y-103352169D01*
X108619552Y-103359428D01*
X108634114Y-103368156D01*
X108647750Y-103378269D01*
X108660329Y-103389671D01*
X108671731Y-103402250D01*
X108681844Y-103415886D01*
X108690572Y-103430448D01*
X108697831Y-103445796D01*
X108703551Y-103461781D01*
X108707676Y-103478249D01*
X108710167Y-103495043D01*
X108711000Y-103512000D01*
X108711000Y-103908000D01*
X108710167Y-103924957D01*
X108707676Y-103941751D01*
X108703551Y-103958219D01*
X108697831Y-103974204D01*
X108690572Y-103989552D01*
X108681844Y-104004114D01*
X108671731Y-104017750D01*
X108660329Y-104030329D01*
X108647750Y-104041731D01*
X108634114Y-104051844D01*
X108619552Y-104060572D01*
X108604204Y-104067831D01*
X108588219Y-104073551D01*
X108571751Y-104077676D01*
X108554957Y-104080167D01*
X108538000Y-104081000D01*
X108192000Y-104081000D01*
X108175043Y-104080167D01*
X108158249Y-104077676D01*
X108141781Y-104073551D01*
X108125796Y-104067831D01*
X108110448Y-104060572D01*
X108095886Y-104051844D01*
X108082250Y-104041731D01*
X108069671Y-104030329D01*
X108058269Y-104017750D01*
X108048156Y-104004114D01*
X108039428Y-103989552D01*
X108032169Y-103974204D01*
X108026449Y-103958219D01*
X108022324Y-103941751D01*
X108019833Y-103924957D01*
X108019000Y-103908000D01*
X108019000Y-103512000D01*
X108019833Y-103495043D01*
X108022324Y-103478249D01*
X108026449Y-103461781D01*
X108032169Y-103445796D01*
X108039428Y-103430448D01*
X108048156Y-103415886D01*
X108058269Y-103402250D01*
X108069671Y-103389671D01*
X108082250Y-103378269D01*
X108095886Y-103368156D01*
X108110448Y-103359428D01*
X108125796Y-103352169D01*
X108141781Y-103346449D01*
X108158249Y-103342324D01*
X108175043Y-103339833D01*
X108192000Y-103339000D01*
X108538000Y-103339000D01*
X108554957Y-103339833D01*
X108554957Y-103339833D01*
G37*
D19*
X108365000Y-103710000D03*
D18*
G36*
X109524957Y-102339833D02*
G01*
X109541751Y-102342324D01*
X109558219Y-102346449D01*
X109574204Y-102352169D01*
X109589552Y-102359428D01*
X109604114Y-102368156D01*
X109617750Y-102378269D01*
X109630329Y-102389671D01*
X109641731Y-102402250D01*
X109651844Y-102415886D01*
X109660572Y-102430448D01*
X109667831Y-102445796D01*
X109673551Y-102461781D01*
X109677676Y-102478249D01*
X109680167Y-102495043D01*
X109681000Y-102512000D01*
X109681000Y-102908000D01*
X109680167Y-102924957D01*
X109677676Y-102941751D01*
X109673551Y-102958219D01*
X109667831Y-102974204D01*
X109660572Y-102989552D01*
X109651844Y-103004114D01*
X109641731Y-103017750D01*
X109630329Y-103030329D01*
X109617750Y-103041731D01*
X109604114Y-103051844D01*
X109589552Y-103060572D01*
X109574204Y-103067831D01*
X109558219Y-103073551D01*
X109541751Y-103077676D01*
X109524957Y-103080167D01*
X109508000Y-103081000D01*
X109162000Y-103081000D01*
X109145043Y-103080167D01*
X109128249Y-103077676D01*
X109111781Y-103073551D01*
X109095796Y-103067831D01*
X109080448Y-103060572D01*
X109065886Y-103051844D01*
X109052250Y-103041731D01*
X109039671Y-103030329D01*
X109028269Y-103017750D01*
X109018156Y-103004114D01*
X109009428Y-102989552D01*
X109002169Y-102974204D01*
X108996449Y-102958219D01*
X108992324Y-102941751D01*
X108989833Y-102924957D01*
X108989000Y-102908000D01*
X108989000Y-102512000D01*
X108989833Y-102495043D01*
X108992324Y-102478249D01*
X108996449Y-102461781D01*
X109002169Y-102445796D01*
X109009428Y-102430448D01*
X109018156Y-102415886D01*
X109028269Y-102402250D01*
X109039671Y-102389671D01*
X109052250Y-102378269D01*
X109065886Y-102368156D01*
X109080448Y-102359428D01*
X109095796Y-102352169D01*
X109111781Y-102346449D01*
X109128249Y-102342324D01*
X109145043Y-102339833D01*
X109162000Y-102339000D01*
X109508000Y-102339000D01*
X109524957Y-102339833D01*
X109524957Y-102339833D01*
G37*
D19*
X109335000Y-102710000D03*
D18*
G36*
X108554957Y-102339833D02*
G01*
X108571751Y-102342324D01*
X108588219Y-102346449D01*
X108604204Y-102352169D01*
X108619552Y-102359428D01*
X108634114Y-102368156D01*
X108647750Y-102378269D01*
X108660329Y-102389671D01*
X108671731Y-102402250D01*
X108681844Y-102415886D01*
X108690572Y-102430448D01*
X108697831Y-102445796D01*
X108703551Y-102461781D01*
X108707676Y-102478249D01*
X108710167Y-102495043D01*
X108711000Y-102512000D01*
X108711000Y-102908000D01*
X108710167Y-102924957D01*
X108707676Y-102941751D01*
X108703551Y-102958219D01*
X108697831Y-102974204D01*
X108690572Y-102989552D01*
X108681844Y-103004114D01*
X108671731Y-103017750D01*
X108660329Y-103030329D01*
X108647750Y-103041731D01*
X108634114Y-103051844D01*
X108619552Y-103060572D01*
X108604204Y-103067831D01*
X108588219Y-103073551D01*
X108571751Y-103077676D01*
X108554957Y-103080167D01*
X108538000Y-103081000D01*
X108192000Y-103081000D01*
X108175043Y-103080167D01*
X108158249Y-103077676D01*
X108141781Y-103073551D01*
X108125796Y-103067831D01*
X108110448Y-103060572D01*
X108095886Y-103051844D01*
X108082250Y-103041731D01*
X108069671Y-103030329D01*
X108058269Y-103017750D01*
X108048156Y-103004114D01*
X108039428Y-102989552D01*
X108032169Y-102974204D01*
X108026449Y-102958219D01*
X108022324Y-102941751D01*
X108019833Y-102924957D01*
X108019000Y-102908000D01*
X108019000Y-102512000D01*
X108019833Y-102495043D01*
X108022324Y-102478249D01*
X108026449Y-102461781D01*
X108032169Y-102445796D01*
X108039428Y-102430448D01*
X108048156Y-102415886D01*
X108058269Y-102402250D01*
X108069671Y-102389671D01*
X108082250Y-102378269D01*
X108095886Y-102368156D01*
X108110448Y-102359428D01*
X108125796Y-102352169D01*
X108141781Y-102346449D01*
X108158249Y-102342324D01*
X108175043Y-102339833D01*
X108192000Y-102339000D01*
X108538000Y-102339000D01*
X108554957Y-102339833D01*
X108554957Y-102339833D01*
G37*
D19*
X108365000Y-102710000D03*
D18*
G36*
X116354957Y-100349833D02*
G01*
X116371751Y-100352324D01*
X116388219Y-100356449D01*
X116404204Y-100362169D01*
X116419552Y-100369428D01*
X116434114Y-100378156D01*
X116447750Y-100388269D01*
X116460329Y-100399671D01*
X116471731Y-100412250D01*
X116481844Y-100425886D01*
X116490572Y-100440448D01*
X116497831Y-100455796D01*
X116503551Y-100471781D01*
X116507676Y-100488249D01*
X116510167Y-100505043D01*
X116511000Y-100522000D01*
X116511000Y-100918000D01*
X116510167Y-100934957D01*
X116507676Y-100951751D01*
X116503551Y-100968219D01*
X116497831Y-100984204D01*
X116490572Y-100999552D01*
X116481844Y-101014114D01*
X116471731Y-101027750D01*
X116460329Y-101040329D01*
X116447750Y-101051731D01*
X116434114Y-101061844D01*
X116419552Y-101070572D01*
X116404204Y-101077831D01*
X116388219Y-101083551D01*
X116371751Y-101087676D01*
X116354957Y-101090167D01*
X116338000Y-101091000D01*
X115992000Y-101091000D01*
X115975043Y-101090167D01*
X115958249Y-101087676D01*
X115941781Y-101083551D01*
X115925796Y-101077831D01*
X115910448Y-101070572D01*
X115895886Y-101061844D01*
X115882250Y-101051731D01*
X115869671Y-101040329D01*
X115858269Y-101027750D01*
X115848156Y-101014114D01*
X115839428Y-100999552D01*
X115832169Y-100984204D01*
X115826449Y-100968219D01*
X115822324Y-100951751D01*
X115819833Y-100934957D01*
X115819000Y-100918000D01*
X115819000Y-100522000D01*
X115819833Y-100505043D01*
X115822324Y-100488249D01*
X115826449Y-100471781D01*
X115832169Y-100455796D01*
X115839428Y-100440448D01*
X115848156Y-100425886D01*
X115858269Y-100412250D01*
X115869671Y-100399671D01*
X115882250Y-100388269D01*
X115895886Y-100378156D01*
X115910448Y-100369428D01*
X115925796Y-100362169D01*
X115941781Y-100356449D01*
X115958249Y-100352324D01*
X115975043Y-100349833D01*
X115992000Y-100349000D01*
X116338000Y-100349000D01*
X116354957Y-100349833D01*
X116354957Y-100349833D01*
G37*
D19*
X116165000Y-100720000D03*
D18*
G36*
X115384957Y-100349833D02*
G01*
X115401751Y-100352324D01*
X115418219Y-100356449D01*
X115434204Y-100362169D01*
X115449552Y-100369428D01*
X115464114Y-100378156D01*
X115477750Y-100388269D01*
X115490329Y-100399671D01*
X115501731Y-100412250D01*
X115511844Y-100425886D01*
X115520572Y-100440448D01*
X115527831Y-100455796D01*
X115533551Y-100471781D01*
X115537676Y-100488249D01*
X115540167Y-100505043D01*
X115541000Y-100522000D01*
X115541000Y-100918000D01*
X115540167Y-100934957D01*
X115537676Y-100951751D01*
X115533551Y-100968219D01*
X115527831Y-100984204D01*
X115520572Y-100999552D01*
X115511844Y-101014114D01*
X115501731Y-101027750D01*
X115490329Y-101040329D01*
X115477750Y-101051731D01*
X115464114Y-101061844D01*
X115449552Y-101070572D01*
X115434204Y-101077831D01*
X115418219Y-101083551D01*
X115401751Y-101087676D01*
X115384957Y-101090167D01*
X115368000Y-101091000D01*
X115022000Y-101091000D01*
X115005043Y-101090167D01*
X114988249Y-101087676D01*
X114971781Y-101083551D01*
X114955796Y-101077831D01*
X114940448Y-101070572D01*
X114925886Y-101061844D01*
X114912250Y-101051731D01*
X114899671Y-101040329D01*
X114888269Y-101027750D01*
X114878156Y-101014114D01*
X114869428Y-100999552D01*
X114862169Y-100984204D01*
X114856449Y-100968219D01*
X114852324Y-100951751D01*
X114849833Y-100934957D01*
X114849000Y-100918000D01*
X114849000Y-100522000D01*
X114849833Y-100505043D01*
X114852324Y-100488249D01*
X114856449Y-100471781D01*
X114862169Y-100455796D01*
X114869428Y-100440448D01*
X114878156Y-100425886D01*
X114888269Y-100412250D01*
X114899671Y-100399671D01*
X114912250Y-100388269D01*
X114925886Y-100378156D01*
X114940448Y-100369428D01*
X114955796Y-100362169D01*
X114971781Y-100356449D01*
X114988249Y-100352324D01*
X115005043Y-100349833D01*
X115022000Y-100349000D01*
X115368000Y-100349000D01*
X115384957Y-100349833D01*
X115384957Y-100349833D01*
G37*
D19*
X115195000Y-100720000D03*
D18*
G36*
X113684957Y-90969833D02*
G01*
X113701751Y-90972324D01*
X113718219Y-90976449D01*
X113734204Y-90982169D01*
X113749552Y-90989428D01*
X113764114Y-90998156D01*
X113777750Y-91008269D01*
X113790329Y-91019671D01*
X113801731Y-91032250D01*
X113811844Y-91045886D01*
X113820572Y-91060448D01*
X113827831Y-91075796D01*
X113833551Y-91091781D01*
X113837676Y-91108249D01*
X113840167Y-91125043D01*
X113841000Y-91142000D01*
X113841000Y-91538000D01*
X113840167Y-91554957D01*
X113837676Y-91571751D01*
X113833551Y-91588219D01*
X113827831Y-91604204D01*
X113820572Y-91619552D01*
X113811844Y-91634114D01*
X113801731Y-91647750D01*
X113790329Y-91660329D01*
X113777750Y-91671731D01*
X113764114Y-91681844D01*
X113749552Y-91690572D01*
X113734204Y-91697831D01*
X113718219Y-91703551D01*
X113701751Y-91707676D01*
X113684957Y-91710167D01*
X113668000Y-91711000D01*
X113322000Y-91711000D01*
X113305043Y-91710167D01*
X113288249Y-91707676D01*
X113271781Y-91703551D01*
X113255796Y-91697831D01*
X113240448Y-91690572D01*
X113225886Y-91681844D01*
X113212250Y-91671731D01*
X113199671Y-91660329D01*
X113188269Y-91647750D01*
X113178156Y-91634114D01*
X113169428Y-91619552D01*
X113162169Y-91604204D01*
X113156449Y-91588219D01*
X113152324Y-91571751D01*
X113149833Y-91554957D01*
X113149000Y-91538000D01*
X113149000Y-91142000D01*
X113149833Y-91125043D01*
X113152324Y-91108249D01*
X113156449Y-91091781D01*
X113162169Y-91075796D01*
X113169428Y-91060448D01*
X113178156Y-91045886D01*
X113188269Y-91032250D01*
X113199671Y-91019671D01*
X113212250Y-91008269D01*
X113225886Y-90998156D01*
X113240448Y-90989428D01*
X113255796Y-90982169D01*
X113271781Y-90976449D01*
X113288249Y-90972324D01*
X113305043Y-90969833D01*
X113322000Y-90969000D01*
X113668000Y-90969000D01*
X113684957Y-90969833D01*
X113684957Y-90969833D01*
G37*
D19*
X113495000Y-91340000D03*
D18*
G36*
X114654957Y-90969833D02*
G01*
X114671751Y-90972324D01*
X114688219Y-90976449D01*
X114704204Y-90982169D01*
X114719552Y-90989428D01*
X114734114Y-90998156D01*
X114747750Y-91008269D01*
X114760329Y-91019671D01*
X114771731Y-91032250D01*
X114781844Y-91045886D01*
X114790572Y-91060448D01*
X114797831Y-91075796D01*
X114803551Y-91091781D01*
X114807676Y-91108249D01*
X114810167Y-91125043D01*
X114811000Y-91142000D01*
X114811000Y-91538000D01*
X114810167Y-91554957D01*
X114807676Y-91571751D01*
X114803551Y-91588219D01*
X114797831Y-91604204D01*
X114790572Y-91619552D01*
X114781844Y-91634114D01*
X114771731Y-91647750D01*
X114760329Y-91660329D01*
X114747750Y-91671731D01*
X114734114Y-91681844D01*
X114719552Y-91690572D01*
X114704204Y-91697831D01*
X114688219Y-91703551D01*
X114671751Y-91707676D01*
X114654957Y-91710167D01*
X114638000Y-91711000D01*
X114292000Y-91711000D01*
X114275043Y-91710167D01*
X114258249Y-91707676D01*
X114241781Y-91703551D01*
X114225796Y-91697831D01*
X114210448Y-91690572D01*
X114195886Y-91681844D01*
X114182250Y-91671731D01*
X114169671Y-91660329D01*
X114158269Y-91647750D01*
X114148156Y-91634114D01*
X114139428Y-91619552D01*
X114132169Y-91604204D01*
X114126449Y-91588219D01*
X114122324Y-91571751D01*
X114119833Y-91554957D01*
X114119000Y-91538000D01*
X114119000Y-91142000D01*
X114119833Y-91125043D01*
X114122324Y-91108249D01*
X114126449Y-91091781D01*
X114132169Y-91075796D01*
X114139428Y-91060448D01*
X114148156Y-91045886D01*
X114158269Y-91032250D01*
X114169671Y-91019671D01*
X114182250Y-91008269D01*
X114195886Y-90998156D01*
X114210448Y-90989428D01*
X114225796Y-90982169D01*
X114241781Y-90976449D01*
X114258249Y-90972324D01*
X114275043Y-90969833D01*
X114292000Y-90969000D01*
X114638000Y-90969000D01*
X114654957Y-90969833D01*
X114654957Y-90969833D01*
G37*
D19*
X114465000Y-91340000D03*
D18*
G36*
X104384957Y-92969833D02*
G01*
X104401751Y-92972324D01*
X104418219Y-92976449D01*
X104434204Y-92982169D01*
X104449552Y-92989428D01*
X104464114Y-92998156D01*
X104477750Y-93008269D01*
X104490329Y-93019671D01*
X104501731Y-93032250D01*
X104511844Y-93045886D01*
X104520572Y-93060448D01*
X104527831Y-93075796D01*
X104533551Y-93091781D01*
X104537676Y-93108249D01*
X104540167Y-93125043D01*
X104541000Y-93142000D01*
X104541000Y-93538000D01*
X104540167Y-93554957D01*
X104537676Y-93571751D01*
X104533551Y-93588219D01*
X104527831Y-93604204D01*
X104520572Y-93619552D01*
X104511844Y-93634114D01*
X104501731Y-93647750D01*
X104490329Y-93660329D01*
X104477750Y-93671731D01*
X104464114Y-93681844D01*
X104449552Y-93690572D01*
X104434204Y-93697831D01*
X104418219Y-93703551D01*
X104401751Y-93707676D01*
X104384957Y-93710167D01*
X104368000Y-93711000D01*
X104022000Y-93711000D01*
X104005043Y-93710167D01*
X103988249Y-93707676D01*
X103971781Y-93703551D01*
X103955796Y-93697831D01*
X103940448Y-93690572D01*
X103925886Y-93681844D01*
X103912250Y-93671731D01*
X103899671Y-93660329D01*
X103888269Y-93647750D01*
X103878156Y-93634114D01*
X103869428Y-93619552D01*
X103862169Y-93604204D01*
X103856449Y-93588219D01*
X103852324Y-93571751D01*
X103849833Y-93554957D01*
X103849000Y-93538000D01*
X103849000Y-93142000D01*
X103849833Y-93125043D01*
X103852324Y-93108249D01*
X103856449Y-93091781D01*
X103862169Y-93075796D01*
X103869428Y-93060448D01*
X103878156Y-93045886D01*
X103888269Y-93032250D01*
X103899671Y-93019671D01*
X103912250Y-93008269D01*
X103925886Y-92998156D01*
X103940448Y-92989428D01*
X103955796Y-92982169D01*
X103971781Y-92976449D01*
X103988249Y-92972324D01*
X104005043Y-92969833D01*
X104022000Y-92969000D01*
X104368000Y-92969000D01*
X104384957Y-92969833D01*
X104384957Y-92969833D01*
G37*
D19*
X104195000Y-93340000D03*
D18*
G36*
X105354957Y-92969833D02*
G01*
X105371751Y-92972324D01*
X105388219Y-92976449D01*
X105404204Y-92982169D01*
X105419552Y-92989428D01*
X105434114Y-92998156D01*
X105447750Y-93008269D01*
X105460329Y-93019671D01*
X105471731Y-93032250D01*
X105481844Y-93045886D01*
X105490572Y-93060448D01*
X105497831Y-93075796D01*
X105503551Y-93091781D01*
X105507676Y-93108249D01*
X105510167Y-93125043D01*
X105511000Y-93142000D01*
X105511000Y-93538000D01*
X105510167Y-93554957D01*
X105507676Y-93571751D01*
X105503551Y-93588219D01*
X105497831Y-93604204D01*
X105490572Y-93619552D01*
X105481844Y-93634114D01*
X105471731Y-93647750D01*
X105460329Y-93660329D01*
X105447750Y-93671731D01*
X105434114Y-93681844D01*
X105419552Y-93690572D01*
X105404204Y-93697831D01*
X105388219Y-93703551D01*
X105371751Y-93707676D01*
X105354957Y-93710167D01*
X105338000Y-93711000D01*
X104992000Y-93711000D01*
X104975043Y-93710167D01*
X104958249Y-93707676D01*
X104941781Y-93703551D01*
X104925796Y-93697831D01*
X104910448Y-93690572D01*
X104895886Y-93681844D01*
X104882250Y-93671731D01*
X104869671Y-93660329D01*
X104858269Y-93647750D01*
X104848156Y-93634114D01*
X104839428Y-93619552D01*
X104832169Y-93604204D01*
X104826449Y-93588219D01*
X104822324Y-93571751D01*
X104819833Y-93554957D01*
X104819000Y-93538000D01*
X104819000Y-93142000D01*
X104819833Y-93125043D01*
X104822324Y-93108249D01*
X104826449Y-93091781D01*
X104832169Y-93075796D01*
X104839428Y-93060448D01*
X104848156Y-93045886D01*
X104858269Y-93032250D01*
X104869671Y-93019671D01*
X104882250Y-93008269D01*
X104895886Y-92998156D01*
X104910448Y-92989428D01*
X104925796Y-92982169D01*
X104941781Y-92976449D01*
X104958249Y-92972324D01*
X104975043Y-92969833D01*
X104992000Y-92969000D01*
X105338000Y-92969000D01*
X105354957Y-92969833D01*
X105354957Y-92969833D01*
G37*
D19*
X105165000Y-93340000D03*
D18*
G36*
X114104957Y-102709833D02*
G01*
X114121751Y-102712324D01*
X114138219Y-102716449D01*
X114154204Y-102722169D01*
X114169552Y-102729428D01*
X114184114Y-102738156D01*
X114197750Y-102748269D01*
X114210329Y-102759671D01*
X114221731Y-102772250D01*
X114231844Y-102785886D01*
X114240572Y-102800448D01*
X114247831Y-102815796D01*
X114253551Y-102831781D01*
X114257676Y-102848249D01*
X114260167Y-102865043D01*
X114261000Y-102882000D01*
X114261000Y-103228000D01*
X114260167Y-103244957D01*
X114257676Y-103261751D01*
X114253551Y-103278219D01*
X114247831Y-103294204D01*
X114240572Y-103309552D01*
X114231844Y-103324114D01*
X114221731Y-103337750D01*
X114210329Y-103350329D01*
X114197750Y-103361731D01*
X114184114Y-103371844D01*
X114169552Y-103380572D01*
X114154204Y-103387831D01*
X114138219Y-103393551D01*
X114121751Y-103397676D01*
X114104957Y-103400167D01*
X114088000Y-103401000D01*
X113692000Y-103401000D01*
X113675043Y-103400167D01*
X113658249Y-103397676D01*
X113641781Y-103393551D01*
X113625796Y-103387831D01*
X113610448Y-103380572D01*
X113595886Y-103371844D01*
X113582250Y-103361731D01*
X113569671Y-103350329D01*
X113558269Y-103337750D01*
X113548156Y-103324114D01*
X113539428Y-103309552D01*
X113532169Y-103294204D01*
X113526449Y-103278219D01*
X113522324Y-103261751D01*
X113519833Y-103244957D01*
X113519000Y-103228000D01*
X113519000Y-102882000D01*
X113519833Y-102865043D01*
X113522324Y-102848249D01*
X113526449Y-102831781D01*
X113532169Y-102815796D01*
X113539428Y-102800448D01*
X113548156Y-102785886D01*
X113558269Y-102772250D01*
X113569671Y-102759671D01*
X113582250Y-102748269D01*
X113595886Y-102738156D01*
X113610448Y-102729428D01*
X113625796Y-102722169D01*
X113641781Y-102716449D01*
X113658249Y-102712324D01*
X113675043Y-102709833D01*
X113692000Y-102709000D01*
X114088000Y-102709000D01*
X114104957Y-102709833D01*
X114104957Y-102709833D01*
G37*
D19*
X113890000Y-103055000D03*
D18*
G36*
X114104957Y-101739833D02*
G01*
X114121751Y-101742324D01*
X114138219Y-101746449D01*
X114154204Y-101752169D01*
X114169552Y-101759428D01*
X114184114Y-101768156D01*
X114197750Y-101778269D01*
X114210329Y-101789671D01*
X114221731Y-101802250D01*
X114231844Y-101815886D01*
X114240572Y-101830448D01*
X114247831Y-101845796D01*
X114253551Y-101861781D01*
X114257676Y-101878249D01*
X114260167Y-101895043D01*
X114261000Y-101912000D01*
X114261000Y-102258000D01*
X114260167Y-102274957D01*
X114257676Y-102291751D01*
X114253551Y-102308219D01*
X114247831Y-102324204D01*
X114240572Y-102339552D01*
X114231844Y-102354114D01*
X114221731Y-102367750D01*
X114210329Y-102380329D01*
X114197750Y-102391731D01*
X114184114Y-102401844D01*
X114169552Y-102410572D01*
X114154204Y-102417831D01*
X114138219Y-102423551D01*
X114121751Y-102427676D01*
X114104957Y-102430167D01*
X114088000Y-102431000D01*
X113692000Y-102431000D01*
X113675043Y-102430167D01*
X113658249Y-102427676D01*
X113641781Y-102423551D01*
X113625796Y-102417831D01*
X113610448Y-102410572D01*
X113595886Y-102401844D01*
X113582250Y-102391731D01*
X113569671Y-102380329D01*
X113558269Y-102367750D01*
X113548156Y-102354114D01*
X113539428Y-102339552D01*
X113532169Y-102324204D01*
X113526449Y-102308219D01*
X113522324Y-102291751D01*
X113519833Y-102274957D01*
X113519000Y-102258000D01*
X113519000Y-101912000D01*
X113519833Y-101895043D01*
X113522324Y-101878249D01*
X113526449Y-101861781D01*
X113532169Y-101845796D01*
X113539428Y-101830448D01*
X113548156Y-101815886D01*
X113558269Y-101802250D01*
X113569671Y-101789671D01*
X113582250Y-101778269D01*
X113595886Y-101768156D01*
X113610448Y-101759428D01*
X113625796Y-101752169D01*
X113641781Y-101746449D01*
X113658249Y-101742324D01*
X113675043Y-101739833D01*
X113692000Y-101739000D01*
X114088000Y-101739000D01*
X114104957Y-101739833D01*
X114104957Y-101739833D01*
G37*
D19*
X113890000Y-102085000D03*
D18*
G36*
X107204957Y-106779833D02*
G01*
X107221751Y-106782324D01*
X107238219Y-106786449D01*
X107254204Y-106792169D01*
X107269552Y-106799428D01*
X107284114Y-106808156D01*
X107297750Y-106818269D01*
X107310329Y-106829671D01*
X107321731Y-106842250D01*
X107331844Y-106855886D01*
X107340572Y-106870448D01*
X107347831Y-106885796D01*
X107353551Y-106901781D01*
X107357676Y-106918249D01*
X107360167Y-106935043D01*
X107361000Y-106952000D01*
X107361000Y-107298000D01*
X107360167Y-107314957D01*
X107357676Y-107331751D01*
X107353551Y-107348219D01*
X107347831Y-107364204D01*
X107340572Y-107379552D01*
X107331844Y-107394114D01*
X107321731Y-107407750D01*
X107310329Y-107420329D01*
X107297750Y-107431731D01*
X107284114Y-107441844D01*
X107269552Y-107450572D01*
X107254204Y-107457831D01*
X107238219Y-107463551D01*
X107221751Y-107467676D01*
X107204957Y-107470167D01*
X107188000Y-107471000D01*
X106792000Y-107471000D01*
X106775043Y-107470167D01*
X106758249Y-107467676D01*
X106741781Y-107463551D01*
X106725796Y-107457831D01*
X106710448Y-107450572D01*
X106695886Y-107441844D01*
X106682250Y-107431731D01*
X106669671Y-107420329D01*
X106658269Y-107407750D01*
X106648156Y-107394114D01*
X106639428Y-107379552D01*
X106632169Y-107364204D01*
X106626449Y-107348219D01*
X106622324Y-107331751D01*
X106619833Y-107314957D01*
X106619000Y-107298000D01*
X106619000Y-106952000D01*
X106619833Y-106935043D01*
X106622324Y-106918249D01*
X106626449Y-106901781D01*
X106632169Y-106885796D01*
X106639428Y-106870448D01*
X106648156Y-106855886D01*
X106658269Y-106842250D01*
X106669671Y-106829671D01*
X106682250Y-106818269D01*
X106695886Y-106808156D01*
X106710448Y-106799428D01*
X106725796Y-106792169D01*
X106741781Y-106786449D01*
X106758249Y-106782324D01*
X106775043Y-106779833D01*
X106792000Y-106779000D01*
X107188000Y-106779000D01*
X107204957Y-106779833D01*
X107204957Y-106779833D01*
G37*
D19*
X106990000Y-107125000D03*
D18*
G36*
X107204957Y-105809833D02*
G01*
X107221751Y-105812324D01*
X107238219Y-105816449D01*
X107254204Y-105822169D01*
X107269552Y-105829428D01*
X107284114Y-105838156D01*
X107297750Y-105848269D01*
X107310329Y-105859671D01*
X107321731Y-105872250D01*
X107331844Y-105885886D01*
X107340572Y-105900448D01*
X107347831Y-105915796D01*
X107353551Y-105931781D01*
X107357676Y-105948249D01*
X107360167Y-105965043D01*
X107361000Y-105982000D01*
X107361000Y-106328000D01*
X107360167Y-106344957D01*
X107357676Y-106361751D01*
X107353551Y-106378219D01*
X107347831Y-106394204D01*
X107340572Y-106409552D01*
X107331844Y-106424114D01*
X107321731Y-106437750D01*
X107310329Y-106450329D01*
X107297750Y-106461731D01*
X107284114Y-106471844D01*
X107269552Y-106480572D01*
X107254204Y-106487831D01*
X107238219Y-106493551D01*
X107221751Y-106497676D01*
X107204957Y-106500167D01*
X107188000Y-106501000D01*
X106792000Y-106501000D01*
X106775043Y-106500167D01*
X106758249Y-106497676D01*
X106741781Y-106493551D01*
X106725796Y-106487831D01*
X106710448Y-106480572D01*
X106695886Y-106471844D01*
X106682250Y-106461731D01*
X106669671Y-106450329D01*
X106658269Y-106437750D01*
X106648156Y-106424114D01*
X106639428Y-106409552D01*
X106632169Y-106394204D01*
X106626449Y-106378219D01*
X106622324Y-106361751D01*
X106619833Y-106344957D01*
X106619000Y-106328000D01*
X106619000Y-105982000D01*
X106619833Y-105965043D01*
X106622324Y-105948249D01*
X106626449Y-105931781D01*
X106632169Y-105915796D01*
X106639428Y-105900448D01*
X106648156Y-105885886D01*
X106658269Y-105872250D01*
X106669671Y-105859671D01*
X106682250Y-105848269D01*
X106695886Y-105838156D01*
X106710448Y-105829428D01*
X106725796Y-105822169D01*
X106741781Y-105816449D01*
X106758249Y-105812324D01*
X106775043Y-105809833D01*
X106792000Y-105809000D01*
X107188000Y-105809000D01*
X107204957Y-105809833D01*
X107204957Y-105809833D01*
G37*
D19*
X106990000Y-106155000D03*
D18*
G36*
X114574957Y-105809833D02*
G01*
X114591751Y-105812324D01*
X114608219Y-105816449D01*
X114624204Y-105822169D01*
X114639552Y-105829428D01*
X114654114Y-105838156D01*
X114667750Y-105848269D01*
X114680329Y-105859671D01*
X114691731Y-105872250D01*
X114701844Y-105885886D01*
X114710572Y-105900448D01*
X114717831Y-105915796D01*
X114723551Y-105931781D01*
X114727676Y-105948249D01*
X114730167Y-105965043D01*
X114731000Y-105982000D01*
X114731000Y-106328000D01*
X114730167Y-106344957D01*
X114727676Y-106361751D01*
X114723551Y-106378219D01*
X114717831Y-106394204D01*
X114710572Y-106409552D01*
X114701844Y-106424114D01*
X114691731Y-106437750D01*
X114680329Y-106450329D01*
X114667750Y-106461731D01*
X114654114Y-106471844D01*
X114639552Y-106480572D01*
X114624204Y-106487831D01*
X114608219Y-106493551D01*
X114591751Y-106497676D01*
X114574957Y-106500167D01*
X114558000Y-106501000D01*
X114162000Y-106501000D01*
X114145043Y-106500167D01*
X114128249Y-106497676D01*
X114111781Y-106493551D01*
X114095796Y-106487831D01*
X114080448Y-106480572D01*
X114065886Y-106471844D01*
X114052250Y-106461731D01*
X114039671Y-106450329D01*
X114028269Y-106437750D01*
X114018156Y-106424114D01*
X114009428Y-106409552D01*
X114002169Y-106394204D01*
X113996449Y-106378219D01*
X113992324Y-106361751D01*
X113989833Y-106344957D01*
X113989000Y-106328000D01*
X113989000Y-105982000D01*
X113989833Y-105965043D01*
X113992324Y-105948249D01*
X113996449Y-105931781D01*
X114002169Y-105915796D01*
X114009428Y-105900448D01*
X114018156Y-105885886D01*
X114028269Y-105872250D01*
X114039671Y-105859671D01*
X114052250Y-105848269D01*
X114065886Y-105838156D01*
X114080448Y-105829428D01*
X114095796Y-105822169D01*
X114111781Y-105816449D01*
X114128249Y-105812324D01*
X114145043Y-105809833D01*
X114162000Y-105809000D01*
X114558000Y-105809000D01*
X114574957Y-105809833D01*
X114574957Y-105809833D01*
G37*
D19*
X114360000Y-106155000D03*
D18*
G36*
X114574957Y-106779833D02*
G01*
X114591751Y-106782324D01*
X114608219Y-106786449D01*
X114624204Y-106792169D01*
X114639552Y-106799428D01*
X114654114Y-106808156D01*
X114667750Y-106818269D01*
X114680329Y-106829671D01*
X114691731Y-106842250D01*
X114701844Y-106855886D01*
X114710572Y-106870448D01*
X114717831Y-106885796D01*
X114723551Y-106901781D01*
X114727676Y-106918249D01*
X114730167Y-106935043D01*
X114731000Y-106952000D01*
X114731000Y-107298000D01*
X114730167Y-107314957D01*
X114727676Y-107331751D01*
X114723551Y-107348219D01*
X114717831Y-107364204D01*
X114710572Y-107379552D01*
X114701844Y-107394114D01*
X114691731Y-107407750D01*
X114680329Y-107420329D01*
X114667750Y-107431731D01*
X114654114Y-107441844D01*
X114639552Y-107450572D01*
X114624204Y-107457831D01*
X114608219Y-107463551D01*
X114591751Y-107467676D01*
X114574957Y-107470167D01*
X114558000Y-107471000D01*
X114162000Y-107471000D01*
X114145043Y-107470167D01*
X114128249Y-107467676D01*
X114111781Y-107463551D01*
X114095796Y-107457831D01*
X114080448Y-107450572D01*
X114065886Y-107441844D01*
X114052250Y-107431731D01*
X114039671Y-107420329D01*
X114028269Y-107407750D01*
X114018156Y-107394114D01*
X114009428Y-107379552D01*
X114002169Y-107364204D01*
X113996449Y-107348219D01*
X113992324Y-107331751D01*
X113989833Y-107314957D01*
X113989000Y-107298000D01*
X113989000Y-106952000D01*
X113989833Y-106935043D01*
X113992324Y-106918249D01*
X113996449Y-106901781D01*
X114002169Y-106885796D01*
X114009428Y-106870448D01*
X114018156Y-106855886D01*
X114028269Y-106842250D01*
X114039671Y-106829671D01*
X114052250Y-106818269D01*
X114065886Y-106808156D01*
X114080448Y-106799428D01*
X114095796Y-106792169D01*
X114111781Y-106786449D01*
X114128249Y-106782324D01*
X114145043Y-106779833D01*
X114162000Y-106779000D01*
X114558000Y-106779000D01*
X114574957Y-106779833D01*
X114574957Y-106779833D01*
G37*
D19*
X114360000Y-107125000D03*
D18*
G36*
X105324957Y-106159833D02*
G01*
X105341751Y-106162324D01*
X105358219Y-106166449D01*
X105374204Y-106172169D01*
X105389552Y-106179428D01*
X105404114Y-106188156D01*
X105417750Y-106198269D01*
X105430329Y-106209671D01*
X105441731Y-106222250D01*
X105451844Y-106235886D01*
X105460572Y-106250448D01*
X105467831Y-106265796D01*
X105473551Y-106281781D01*
X105477676Y-106298249D01*
X105480167Y-106315043D01*
X105481000Y-106332000D01*
X105481000Y-106678000D01*
X105480167Y-106694957D01*
X105477676Y-106711751D01*
X105473551Y-106728219D01*
X105467831Y-106744204D01*
X105460572Y-106759552D01*
X105451844Y-106774114D01*
X105441731Y-106787750D01*
X105430329Y-106800329D01*
X105417750Y-106811731D01*
X105404114Y-106821844D01*
X105389552Y-106830572D01*
X105374204Y-106837831D01*
X105358219Y-106843551D01*
X105341751Y-106847676D01*
X105324957Y-106850167D01*
X105308000Y-106851000D01*
X104912000Y-106851000D01*
X104895043Y-106850167D01*
X104878249Y-106847676D01*
X104861781Y-106843551D01*
X104845796Y-106837831D01*
X104830448Y-106830572D01*
X104815886Y-106821844D01*
X104802250Y-106811731D01*
X104789671Y-106800329D01*
X104778269Y-106787750D01*
X104768156Y-106774114D01*
X104759428Y-106759552D01*
X104752169Y-106744204D01*
X104746449Y-106728219D01*
X104742324Y-106711751D01*
X104739833Y-106694957D01*
X104739000Y-106678000D01*
X104739000Y-106332000D01*
X104739833Y-106315043D01*
X104742324Y-106298249D01*
X104746449Y-106281781D01*
X104752169Y-106265796D01*
X104759428Y-106250448D01*
X104768156Y-106235886D01*
X104778269Y-106222250D01*
X104789671Y-106209671D01*
X104802250Y-106198269D01*
X104815886Y-106188156D01*
X104830448Y-106179428D01*
X104845796Y-106172169D01*
X104861781Y-106166449D01*
X104878249Y-106162324D01*
X104895043Y-106159833D01*
X104912000Y-106159000D01*
X105308000Y-106159000D01*
X105324957Y-106159833D01*
X105324957Y-106159833D01*
G37*
D19*
X105110000Y-106505000D03*
D18*
G36*
X105324957Y-105189833D02*
G01*
X105341751Y-105192324D01*
X105358219Y-105196449D01*
X105374204Y-105202169D01*
X105389552Y-105209428D01*
X105404114Y-105218156D01*
X105417750Y-105228269D01*
X105430329Y-105239671D01*
X105441731Y-105252250D01*
X105451844Y-105265886D01*
X105460572Y-105280448D01*
X105467831Y-105295796D01*
X105473551Y-105311781D01*
X105477676Y-105328249D01*
X105480167Y-105345043D01*
X105481000Y-105362000D01*
X105481000Y-105708000D01*
X105480167Y-105724957D01*
X105477676Y-105741751D01*
X105473551Y-105758219D01*
X105467831Y-105774204D01*
X105460572Y-105789552D01*
X105451844Y-105804114D01*
X105441731Y-105817750D01*
X105430329Y-105830329D01*
X105417750Y-105841731D01*
X105404114Y-105851844D01*
X105389552Y-105860572D01*
X105374204Y-105867831D01*
X105358219Y-105873551D01*
X105341751Y-105877676D01*
X105324957Y-105880167D01*
X105308000Y-105881000D01*
X104912000Y-105881000D01*
X104895043Y-105880167D01*
X104878249Y-105877676D01*
X104861781Y-105873551D01*
X104845796Y-105867831D01*
X104830448Y-105860572D01*
X104815886Y-105851844D01*
X104802250Y-105841731D01*
X104789671Y-105830329D01*
X104778269Y-105817750D01*
X104768156Y-105804114D01*
X104759428Y-105789552D01*
X104752169Y-105774204D01*
X104746449Y-105758219D01*
X104742324Y-105741751D01*
X104739833Y-105724957D01*
X104739000Y-105708000D01*
X104739000Y-105362000D01*
X104739833Y-105345043D01*
X104742324Y-105328249D01*
X104746449Y-105311781D01*
X104752169Y-105295796D01*
X104759428Y-105280448D01*
X104768156Y-105265886D01*
X104778269Y-105252250D01*
X104789671Y-105239671D01*
X104802250Y-105228269D01*
X104815886Y-105218156D01*
X104830448Y-105209428D01*
X104845796Y-105202169D01*
X104861781Y-105196449D01*
X104878249Y-105192324D01*
X104895043Y-105189833D01*
X104912000Y-105189000D01*
X105308000Y-105189000D01*
X105324957Y-105189833D01*
X105324957Y-105189833D01*
G37*
D19*
X105110000Y-105535000D03*
D11*
X106045000Y-111760000D03*
D12*
X111125000Y-114300000D03*
D11*
X108585000Y-118110000D03*
D13*
X111125000Y-119380000D03*
X111125000Y-109220000D03*
D14*
X118110000Y-126206250D03*
X118110000Y-102393750D03*
D12*
X102870000Y-126206250D03*
X102870000Y-102393750D03*
D11*
X94615000Y-118745000D03*
D12*
X92075000Y-123825000D03*
D11*
X88265000Y-121285000D03*
D13*
X86995000Y-123825000D03*
X97155000Y-123825000D03*
D11*
X56515000Y-99695000D03*
D12*
X53975000Y-104775000D03*
D11*
X50165000Y-102235000D03*
D13*
X48895000Y-104775000D03*
X59055000Y-104775000D03*
D11*
X56515000Y-80645000D03*
D12*
X53975000Y-85725000D03*
D11*
X50165000Y-83185000D03*
D13*
X48895000Y-85725000D03*
X59055000Y-85725000D03*
D11*
X56515000Y-61595000D03*
D12*
X53975000Y-66675000D03*
D11*
X50165000Y-64135000D03*
D13*
X48895000Y-66675000D03*
X59055000Y-66675000D03*
D20*
X119003750Y-88316250D03*
X119003750Y-90816250D03*
X119003750Y-93316250D03*
D21*
X108820000Y-106140000D03*
X112520000Y-106140000D03*
D22*
X101600000Y-109743750D03*
X102550000Y-107743750D03*
X100650000Y-107743750D03*
X101600000Y-90487500D03*
X102550000Y-88487500D03*
X100650000Y-88487500D03*
X101600000Y-72437500D03*
X102550000Y-70437500D03*
X100650000Y-70437500D03*
X101600000Y-53008750D03*
X102550000Y-51008750D03*
X100650000Y-51008750D03*
X82550000Y-126412500D03*
X83500000Y-124412500D03*
X81600000Y-124412500D03*
X63500000Y-109743750D03*
X64450000Y-107743750D03*
X62550000Y-107743750D03*
X63500000Y-90693750D03*
X64450000Y-88693750D03*
X62550000Y-88693750D03*
X63500000Y-72437500D03*
X64450000Y-70437500D03*
X62550000Y-70437500D03*
X63500000Y-52593750D03*
X64450000Y-50593750D03*
X62550000Y-50593750D03*
D11*
X75565000Y-99695000D03*
D12*
X73025000Y-104775000D03*
D11*
X69215000Y-102235000D03*
D13*
X67945000Y-104775000D03*
X78105000Y-104775000D03*
D23*
X89790000Y-56920000D03*
X89790000Y-58820000D03*
X87790000Y-57870000D03*
D18*
G36*
X115034172Y-99586072D02*
G01*
X115043928Y-99587519D01*
X115053495Y-99589915D01*
X115062781Y-99593238D01*
X115071696Y-99597455D01*
X115080156Y-99602525D01*
X115088078Y-99608400D01*
X115095385Y-99615024D01*
X115102009Y-99622331D01*
X115107884Y-99630253D01*
X115112954Y-99638713D01*
X115117171Y-99647628D01*
X115120494Y-99656914D01*
X115122890Y-99666481D01*
X115124337Y-99676237D01*
X115124821Y-99686088D01*
X115124821Y-99887088D01*
X115124337Y-99896939D01*
X115122890Y-99906695D01*
X115120494Y-99916262D01*
X115117171Y-99925548D01*
X115112954Y-99934463D01*
X115107884Y-99942923D01*
X115102009Y-99950845D01*
X115095385Y-99958152D01*
X115088078Y-99964776D01*
X115080156Y-99970651D01*
X115071696Y-99975721D01*
X115062781Y-99979938D01*
X115053495Y-99983261D01*
X115043928Y-99985657D01*
X115034172Y-99987104D01*
X115024321Y-99987588D01*
X113648321Y-99987588D01*
X113638470Y-99987104D01*
X113628714Y-99985657D01*
X113619147Y-99983261D01*
X113609861Y-99979938D01*
X113600946Y-99975721D01*
X113592486Y-99970651D01*
X113584564Y-99964776D01*
X113577257Y-99958152D01*
X113570633Y-99950845D01*
X113564758Y-99942923D01*
X113559688Y-99934463D01*
X113555471Y-99925548D01*
X113552148Y-99916262D01*
X113549752Y-99906695D01*
X113548305Y-99896939D01*
X113547821Y-99887088D01*
X113547821Y-99686088D01*
X113548305Y-99676237D01*
X113549752Y-99666481D01*
X113552148Y-99656914D01*
X113555471Y-99647628D01*
X113559688Y-99638713D01*
X113564758Y-99630253D01*
X113570633Y-99622331D01*
X113577257Y-99615024D01*
X113584564Y-99608400D01*
X113592486Y-99602525D01*
X113600946Y-99597455D01*
X113609861Y-99593238D01*
X113619147Y-99589915D01*
X113628714Y-99587519D01*
X113638470Y-99586072D01*
X113648321Y-99585588D01*
X115024321Y-99585588D01*
X115034172Y-99586072D01*
X115034172Y-99586072D01*
G37*
D24*
X114336321Y-99786588D03*
D18*
G36*
X115034172Y-99086072D02*
G01*
X115043928Y-99087519D01*
X115053495Y-99089915D01*
X115062781Y-99093238D01*
X115071696Y-99097455D01*
X115080156Y-99102525D01*
X115088078Y-99108400D01*
X115095385Y-99115024D01*
X115102009Y-99122331D01*
X115107884Y-99130253D01*
X115112954Y-99138713D01*
X115117171Y-99147628D01*
X115120494Y-99156914D01*
X115122890Y-99166481D01*
X115124337Y-99176237D01*
X115124821Y-99186088D01*
X115124821Y-99387088D01*
X115124337Y-99396939D01*
X115122890Y-99406695D01*
X115120494Y-99416262D01*
X115117171Y-99425548D01*
X115112954Y-99434463D01*
X115107884Y-99442923D01*
X115102009Y-99450845D01*
X115095385Y-99458152D01*
X115088078Y-99464776D01*
X115080156Y-99470651D01*
X115071696Y-99475721D01*
X115062781Y-99479938D01*
X115053495Y-99483261D01*
X115043928Y-99485657D01*
X115034172Y-99487104D01*
X115024321Y-99487588D01*
X113648321Y-99487588D01*
X113638470Y-99487104D01*
X113628714Y-99485657D01*
X113619147Y-99483261D01*
X113609861Y-99479938D01*
X113600946Y-99475721D01*
X113592486Y-99470651D01*
X113584564Y-99464776D01*
X113577257Y-99458152D01*
X113570633Y-99450845D01*
X113564758Y-99442923D01*
X113559688Y-99434463D01*
X113555471Y-99425548D01*
X113552148Y-99416262D01*
X113549752Y-99406695D01*
X113548305Y-99396939D01*
X113547821Y-99387088D01*
X113547821Y-99186088D01*
X113548305Y-99176237D01*
X113549752Y-99166481D01*
X113552148Y-99156914D01*
X113555471Y-99147628D01*
X113559688Y-99138713D01*
X113564758Y-99130253D01*
X113570633Y-99122331D01*
X113577257Y-99115024D01*
X113584564Y-99108400D01*
X113592486Y-99102525D01*
X113600946Y-99097455D01*
X113609861Y-99093238D01*
X113619147Y-99089915D01*
X113628714Y-99087519D01*
X113638470Y-99086072D01*
X113648321Y-99085588D01*
X115024321Y-99085588D01*
X115034172Y-99086072D01*
X115034172Y-99086072D01*
G37*
D24*
X114336321Y-99286588D03*
D18*
G36*
X115034172Y-98586072D02*
G01*
X115043928Y-98587519D01*
X115053495Y-98589915D01*
X115062781Y-98593238D01*
X115071696Y-98597455D01*
X115080156Y-98602525D01*
X115088078Y-98608400D01*
X115095385Y-98615024D01*
X115102009Y-98622331D01*
X115107884Y-98630253D01*
X115112954Y-98638713D01*
X115117171Y-98647628D01*
X115120494Y-98656914D01*
X115122890Y-98666481D01*
X115124337Y-98676237D01*
X115124821Y-98686088D01*
X115124821Y-98887088D01*
X115124337Y-98896939D01*
X115122890Y-98906695D01*
X115120494Y-98916262D01*
X115117171Y-98925548D01*
X115112954Y-98934463D01*
X115107884Y-98942923D01*
X115102009Y-98950845D01*
X115095385Y-98958152D01*
X115088078Y-98964776D01*
X115080156Y-98970651D01*
X115071696Y-98975721D01*
X115062781Y-98979938D01*
X115053495Y-98983261D01*
X115043928Y-98985657D01*
X115034172Y-98987104D01*
X115024321Y-98987588D01*
X113648321Y-98987588D01*
X113638470Y-98987104D01*
X113628714Y-98985657D01*
X113619147Y-98983261D01*
X113609861Y-98979938D01*
X113600946Y-98975721D01*
X113592486Y-98970651D01*
X113584564Y-98964776D01*
X113577257Y-98958152D01*
X113570633Y-98950845D01*
X113564758Y-98942923D01*
X113559688Y-98934463D01*
X113555471Y-98925548D01*
X113552148Y-98916262D01*
X113549752Y-98906695D01*
X113548305Y-98896939D01*
X113547821Y-98887088D01*
X113547821Y-98686088D01*
X113548305Y-98676237D01*
X113549752Y-98666481D01*
X113552148Y-98656914D01*
X113555471Y-98647628D01*
X113559688Y-98638713D01*
X113564758Y-98630253D01*
X113570633Y-98622331D01*
X113577257Y-98615024D01*
X113584564Y-98608400D01*
X113592486Y-98602525D01*
X113600946Y-98597455D01*
X113609861Y-98593238D01*
X113619147Y-98589915D01*
X113628714Y-98587519D01*
X113638470Y-98586072D01*
X113648321Y-98585588D01*
X115024321Y-98585588D01*
X115034172Y-98586072D01*
X115034172Y-98586072D01*
G37*
D24*
X114336321Y-98786588D03*
D18*
G36*
X115034172Y-98086072D02*
G01*
X115043928Y-98087519D01*
X115053495Y-98089915D01*
X115062781Y-98093238D01*
X115071696Y-98097455D01*
X115080156Y-98102525D01*
X115088078Y-98108400D01*
X115095385Y-98115024D01*
X115102009Y-98122331D01*
X115107884Y-98130253D01*
X115112954Y-98138713D01*
X115117171Y-98147628D01*
X115120494Y-98156914D01*
X115122890Y-98166481D01*
X115124337Y-98176237D01*
X115124821Y-98186088D01*
X115124821Y-98387088D01*
X115124337Y-98396939D01*
X115122890Y-98406695D01*
X115120494Y-98416262D01*
X115117171Y-98425548D01*
X115112954Y-98434463D01*
X115107884Y-98442923D01*
X115102009Y-98450845D01*
X115095385Y-98458152D01*
X115088078Y-98464776D01*
X115080156Y-98470651D01*
X115071696Y-98475721D01*
X115062781Y-98479938D01*
X115053495Y-98483261D01*
X115043928Y-98485657D01*
X115034172Y-98487104D01*
X115024321Y-98487588D01*
X113648321Y-98487588D01*
X113638470Y-98487104D01*
X113628714Y-98485657D01*
X113619147Y-98483261D01*
X113609861Y-98479938D01*
X113600946Y-98475721D01*
X113592486Y-98470651D01*
X113584564Y-98464776D01*
X113577257Y-98458152D01*
X113570633Y-98450845D01*
X113564758Y-98442923D01*
X113559688Y-98434463D01*
X113555471Y-98425548D01*
X113552148Y-98416262D01*
X113549752Y-98406695D01*
X113548305Y-98396939D01*
X113547821Y-98387088D01*
X113547821Y-98186088D01*
X113548305Y-98176237D01*
X113549752Y-98166481D01*
X113552148Y-98156914D01*
X113555471Y-98147628D01*
X113559688Y-98138713D01*
X113564758Y-98130253D01*
X113570633Y-98122331D01*
X113577257Y-98115024D01*
X113584564Y-98108400D01*
X113592486Y-98102525D01*
X113600946Y-98097455D01*
X113609861Y-98093238D01*
X113619147Y-98089915D01*
X113628714Y-98087519D01*
X113638470Y-98086072D01*
X113648321Y-98085588D01*
X115024321Y-98085588D01*
X115034172Y-98086072D01*
X115034172Y-98086072D01*
G37*
D24*
X114336321Y-98286588D03*
D18*
G36*
X115034172Y-97586072D02*
G01*
X115043928Y-97587519D01*
X115053495Y-97589915D01*
X115062781Y-97593238D01*
X115071696Y-97597455D01*
X115080156Y-97602525D01*
X115088078Y-97608400D01*
X115095385Y-97615024D01*
X115102009Y-97622331D01*
X115107884Y-97630253D01*
X115112954Y-97638713D01*
X115117171Y-97647628D01*
X115120494Y-97656914D01*
X115122890Y-97666481D01*
X115124337Y-97676237D01*
X115124821Y-97686088D01*
X115124821Y-97887088D01*
X115124337Y-97896939D01*
X115122890Y-97906695D01*
X115120494Y-97916262D01*
X115117171Y-97925548D01*
X115112954Y-97934463D01*
X115107884Y-97942923D01*
X115102009Y-97950845D01*
X115095385Y-97958152D01*
X115088078Y-97964776D01*
X115080156Y-97970651D01*
X115071696Y-97975721D01*
X115062781Y-97979938D01*
X115053495Y-97983261D01*
X115043928Y-97985657D01*
X115034172Y-97987104D01*
X115024321Y-97987588D01*
X113648321Y-97987588D01*
X113638470Y-97987104D01*
X113628714Y-97985657D01*
X113619147Y-97983261D01*
X113609861Y-97979938D01*
X113600946Y-97975721D01*
X113592486Y-97970651D01*
X113584564Y-97964776D01*
X113577257Y-97958152D01*
X113570633Y-97950845D01*
X113564758Y-97942923D01*
X113559688Y-97934463D01*
X113555471Y-97925548D01*
X113552148Y-97916262D01*
X113549752Y-97906695D01*
X113548305Y-97896939D01*
X113547821Y-97887088D01*
X113547821Y-97686088D01*
X113548305Y-97676237D01*
X113549752Y-97666481D01*
X113552148Y-97656914D01*
X113555471Y-97647628D01*
X113559688Y-97638713D01*
X113564758Y-97630253D01*
X113570633Y-97622331D01*
X113577257Y-97615024D01*
X113584564Y-97608400D01*
X113592486Y-97602525D01*
X113600946Y-97597455D01*
X113609861Y-97593238D01*
X113619147Y-97589915D01*
X113628714Y-97587519D01*
X113638470Y-97586072D01*
X113648321Y-97585588D01*
X115024321Y-97585588D01*
X115034172Y-97586072D01*
X115034172Y-97586072D01*
G37*
D24*
X114336321Y-97786588D03*
D18*
G36*
X115034172Y-97086072D02*
G01*
X115043928Y-97087519D01*
X115053495Y-97089915D01*
X115062781Y-97093238D01*
X115071696Y-97097455D01*
X115080156Y-97102525D01*
X115088078Y-97108400D01*
X115095385Y-97115024D01*
X115102009Y-97122331D01*
X115107884Y-97130253D01*
X115112954Y-97138713D01*
X115117171Y-97147628D01*
X115120494Y-97156914D01*
X115122890Y-97166481D01*
X115124337Y-97176237D01*
X115124821Y-97186088D01*
X115124821Y-97387088D01*
X115124337Y-97396939D01*
X115122890Y-97406695D01*
X115120494Y-97416262D01*
X115117171Y-97425548D01*
X115112954Y-97434463D01*
X115107884Y-97442923D01*
X115102009Y-97450845D01*
X115095385Y-97458152D01*
X115088078Y-97464776D01*
X115080156Y-97470651D01*
X115071696Y-97475721D01*
X115062781Y-97479938D01*
X115053495Y-97483261D01*
X115043928Y-97485657D01*
X115034172Y-97487104D01*
X115024321Y-97487588D01*
X113648321Y-97487588D01*
X113638470Y-97487104D01*
X113628714Y-97485657D01*
X113619147Y-97483261D01*
X113609861Y-97479938D01*
X113600946Y-97475721D01*
X113592486Y-97470651D01*
X113584564Y-97464776D01*
X113577257Y-97458152D01*
X113570633Y-97450845D01*
X113564758Y-97442923D01*
X113559688Y-97434463D01*
X113555471Y-97425548D01*
X113552148Y-97416262D01*
X113549752Y-97406695D01*
X113548305Y-97396939D01*
X113547821Y-97387088D01*
X113547821Y-97186088D01*
X113548305Y-97176237D01*
X113549752Y-97166481D01*
X113552148Y-97156914D01*
X113555471Y-97147628D01*
X113559688Y-97138713D01*
X113564758Y-97130253D01*
X113570633Y-97122331D01*
X113577257Y-97115024D01*
X113584564Y-97108400D01*
X113592486Y-97102525D01*
X113600946Y-97097455D01*
X113609861Y-97093238D01*
X113619147Y-97089915D01*
X113628714Y-97087519D01*
X113638470Y-97086072D01*
X113648321Y-97085588D01*
X115024321Y-97085588D01*
X115034172Y-97086072D01*
X115034172Y-97086072D01*
G37*
D24*
X114336321Y-97286588D03*
D18*
G36*
X115034172Y-96586072D02*
G01*
X115043928Y-96587519D01*
X115053495Y-96589915D01*
X115062781Y-96593238D01*
X115071696Y-96597455D01*
X115080156Y-96602525D01*
X115088078Y-96608400D01*
X115095385Y-96615024D01*
X115102009Y-96622331D01*
X115107884Y-96630253D01*
X115112954Y-96638713D01*
X115117171Y-96647628D01*
X115120494Y-96656914D01*
X115122890Y-96666481D01*
X115124337Y-96676237D01*
X115124821Y-96686088D01*
X115124821Y-96887088D01*
X115124337Y-96896939D01*
X115122890Y-96906695D01*
X115120494Y-96916262D01*
X115117171Y-96925548D01*
X115112954Y-96934463D01*
X115107884Y-96942923D01*
X115102009Y-96950845D01*
X115095385Y-96958152D01*
X115088078Y-96964776D01*
X115080156Y-96970651D01*
X115071696Y-96975721D01*
X115062781Y-96979938D01*
X115053495Y-96983261D01*
X115043928Y-96985657D01*
X115034172Y-96987104D01*
X115024321Y-96987588D01*
X113648321Y-96987588D01*
X113638470Y-96987104D01*
X113628714Y-96985657D01*
X113619147Y-96983261D01*
X113609861Y-96979938D01*
X113600946Y-96975721D01*
X113592486Y-96970651D01*
X113584564Y-96964776D01*
X113577257Y-96958152D01*
X113570633Y-96950845D01*
X113564758Y-96942923D01*
X113559688Y-96934463D01*
X113555471Y-96925548D01*
X113552148Y-96916262D01*
X113549752Y-96906695D01*
X113548305Y-96896939D01*
X113547821Y-96887088D01*
X113547821Y-96686088D01*
X113548305Y-96676237D01*
X113549752Y-96666481D01*
X113552148Y-96656914D01*
X113555471Y-96647628D01*
X113559688Y-96638713D01*
X113564758Y-96630253D01*
X113570633Y-96622331D01*
X113577257Y-96615024D01*
X113584564Y-96608400D01*
X113592486Y-96602525D01*
X113600946Y-96597455D01*
X113609861Y-96593238D01*
X113619147Y-96589915D01*
X113628714Y-96587519D01*
X113638470Y-96586072D01*
X113648321Y-96585588D01*
X115024321Y-96585588D01*
X115034172Y-96586072D01*
X115034172Y-96586072D01*
G37*
D24*
X114336321Y-96786588D03*
D18*
G36*
X115034172Y-96086072D02*
G01*
X115043928Y-96087519D01*
X115053495Y-96089915D01*
X115062781Y-96093238D01*
X115071696Y-96097455D01*
X115080156Y-96102525D01*
X115088078Y-96108400D01*
X115095385Y-96115024D01*
X115102009Y-96122331D01*
X115107884Y-96130253D01*
X115112954Y-96138713D01*
X115117171Y-96147628D01*
X115120494Y-96156914D01*
X115122890Y-96166481D01*
X115124337Y-96176237D01*
X115124821Y-96186088D01*
X115124821Y-96387088D01*
X115124337Y-96396939D01*
X115122890Y-96406695D01*
X115120494Y-96416262D01*
X115117171Y-96425548D01*
X115112954Y-96434463D01*
X115107884Y-96442923D01*
X115102009Y-96450845D01*
X115095385Y-96458152D01*
X115088078Y-96464776D01*
X115080156Y-96470651D01*
X115071696Y-96475721D01*
X115062781Y-96479938D01*
X115053495Y-96483261D01*
X115043928Y-96485657D01*
X115034172Y-96487104D01*
X115024321Y-96487588D01*
X113648321Y-96487588D01*
X113638470Y-96487104D01*
X113628714Y-96485657D01*
X113619147Y-96483261D01*
X113609861Y-96479938D01*
X113600946Y-96475721D01*
X113592486Y-96470651D01*
X113584564Y-96464776D01*
X113577257Y-96458152D01*
X113570633Y-96450845D01*
X113564758Y-96442923D01*
X113559688Y-96434463D01*
X113555471Y-96425548D01*
X113552148Y-96416262D01*
X113549752Y-96406695D01*
X113548305Y-96396939D01*
X113547821Y-96387088D01*
X113547821Y-96186088D01*
X113548305Y-96176237D01*
X113549752Y-96166481D01*
X113552148Y-96156914D01*
X113555471Y-96147628D01*
X113559688Y-96138713D01*
X113564758Y-96130253D01*
X113570633Y-96122331D01*
X113577257Y-96115024D01*
X113584564Y-96108400D01*
X113592486Y-96102525D01*
X113600946Y-96097455D01*
X113609861Y-96093238D01*
X113619147Y-96089915D01*
X113628714Y-96087519D01*
X113638470Y-96086072D01*
X113648321Y-96085588D01*
X115024321Y-96085588D01*
X115034172Y-96086072D01*
X115034172Y-96086072D01*
G37*
D24*
X114336321Y-96286588D03*
D18*
G36*
X115034172Y-95586072D02*
G01*
X115043928Y-95587519D01*
X115053495Y-95589915D01*
X115062781Y-95593238D01*
X115071696Y-95597455D01*
X115080156Y-95602525D01*
X115088078Y-95608400D01*
X115095385Y-95615024D01*
X115102009Y-95622331D01*
X115107884Y-95630253D01*
X115112954Y-95638713D01*
X115117171Y-95647628D01*
X115120494Y-95656914D01*
X115122890Y-95666481D01*
X115124337Y-95676237D01*
X115124821Y-95686088D01*
X115124821Y-95887088D01*
X115124337Y-95896939D01*
X115122890Y-95906695D01*
X115120494Y-95916262D01*
X115117171Y-95925548D01*
X115112954Y-95934463D01*
X115107884Y-95942923D01*
X115102009Y-95950845D01*
X115095385Y-95958152D01*
X115088078Y-95964776D01*
X115080156Y-95970651D01*
X115071696Y-95975721D01*
X115062781Y-95979938D01*
X115053495Y-95983261D01*
X115043928Y-95985657D01*
X115034172Y-95987104D01*
X115024321Y-95987588D01*
X113648321Y-95987588D01*
X113638470Y-95987104D01*
X113628714Y-95985657D01*
X113619147Y-95983261D01*
X113609861Y-95979938D01*
X113600946Y-95975721D01*
X113592486Y-95970651D01*
X113584564Y-95964776D01*
X113577257Y-95958152D01*
X113570633Y-95950845D01*
X113564758Y-95942923D01*
X113559688Y-95934463D01*
X113555471Y-95925548D01*
X113552148Y-95916262D01*
X113549752Y-95906695D01*
X113548305Y-95896939D01*
X113547821Y-95887088D01*
X113547821Y-95686088D01*
X113548305Y-95676237D01*
X113549752Y-95666481D01*
X113552148Y-95656914D01*
X113555471Y-95647628D01*
X113559688Y-95638713D01*
X113564758Y-95630253D01*
X113570633Y-95622331D01*
X113577257Y-95615024D01*
X113584564Y-95608400D01*
X113592486Y-95602525D01*
X113600946Y-95597455D01*
X113609861Y-95593238D01*
X113619147Y-95589915D01*
X113628714Y-95587519D01*
X113638470Y-95586072D01*
X113648321Y-95585588D01*
X115024321Y-95585588D01*
X115034172Y-95586072D01*
X115034172Y-95586072D01*
G37*
D24*
X114336321Y-95786588D03*
D18*
G36*
X115034172Y-95086072D02*
G01*
X115043928Y-95087519D01*
X115053495Y-95089915D01*
X115062781Y-95093238D01*
X115071696Y-95097455D01*
X115080156Y-95102525D01*
X115088078Y-95108400D01*
X115095385Y-95115024D01*
X115102009Y-95122331D01*
X115107884Y-95130253D01*
X115112954Y-95138713D01*
X115117171Y-95147628D01*
X115120494Y-95156914D01*
X115122890Y-95166481D01*
X115124337Y-95176237D01*
X115124821Y-95186088D01*
X115124821Y-95387088D01*
X115124337Y-95396939D01*
X115122890Y-95406695D01*
X115120494Y-95416262D01*
X115117171Y-95425548D01*
X115112954Y-95434463D01*
X115107884Y-95442923D01*
X115102009Y-95450845D01*
X115095385Y-95458152D01*
X115088078Y-95464776D01*
X115080156Y-95470651D01*
X115071696Y-95475721D01*
X115062781Y-95479938D01*
X115053495Y-95483261D01*
X115043928Y-95485657D01*
X115034172Y-95487104D01*
X115024321Y-95487588D01*
X113648321Y-95487588D01*
X113638470Y-95487104D01*
X113628714Y-95485657D01*
X113619147Y-95483261D01*
X113609861Y-95479938D01*
X113600946Y-95475721D01*
X113592486Y-95470651D01*
X113584564Y-95464776D01*
X113577257Y-95458152D01*
X113570633Y-95450845D01*
X113564758Y-95442923D01*
X113559688Y-95434463D01*
X113555471Y-95425548D01*
X113552148Y-95416262D01*
X113549752Y-95406695D01*
X113548305Y-95396939D01*
X113547821Y-95387088D01*
X113547821Y-95186088D01*
X113548305Y-95176237D01*
X113549752Y-95166481D01*
X113552148Y-95156914D01*
X113555471Y-95147628D01*
X113559688Y-95138713D01*
X113564758Y-95130253D01*
X113570633Y-95122331D01*
X113577257Y-95115024D01*
X113584564Y-95108400D01*
X113592486Y-95102525D01*
X113600946Y-95097455D01*
X113609861Y-95093238D01*
X113619147Y-95089915D01*
X113628714Y-95087519D01*
X113638470Y-95086072D01*
X113648321Y-95085588D01*
X115024321Y-95085588D01*
X115034172Y-95086072D01*
X115034172Y-95086072D01*
G37*
D24*
X114336321Y-95286588D03*
D18*
G36*
X115034172Y-94586072D02*
G01*
X115043928Y-94587519D01*
X115053495Y-94589915D01*
X115062781Y-94593238D01*
X115071696Y-94597455D01*
X115080156Y-94602525D01*
X115088078Y-94608400D01*
X115095385Y-94615024D01*
X115102009Y-94622331D01*
X115107884Y-94630253D01*
X115112954Y-94638713D01*
X115117171Y-94647628D01*
X115120494Y-94656914D01*
X115122890Y-94666481D01*
X115124337Y-94676237D01*
X115124821Y-94686088D01*
X115124821Y-94887088D01*
X115124337Y-94896939D01*
X115122890Y-94906695D01*
X115120494Y-94916262D01*
X115117171Y-94925548D01*
X115112954Y-94934463D01*
X115107884Y-94942923D01*
X115102009Y-94950845D01*
X115095385Y-94958152D01*
X115088078Y-94964776D01*
X115080156Y-94970651D01*
X115071696Y-94975721D01*
X115062781Y-94979938D01*
X115053495Y-94983261D01*
X115043928Y-94985657D01*
X115034172Y-94987104D01*
X115024321Y-94987588D01*
X113648321Y-94987588D01*
X113638470Y-94987104D01*
X113628714Y-94985657D01*
X113619147Y-94983261D01*
X113609861Y-94979938D01*
X113600946Y-94975721D01*
X113592486Y-94970651D01*
X113584564Y-94964776D01*
X113577257Y-94958152D01*
X113570633Y-94950845D01*
X113564758Y-94942923D01*
X113559688Y-94934463D01*
X113555471Y-94925548D01*
X113552148Y-94916262D01*
X113549752Y-94906695D01*
X113548305Y-94896939D01*
X113547821Y-94887088D01*
X113547821Y-94686088D01*
X113548305Y-94676237D01*
X113549752Y-94666481D01*
X113552148Y-94656914D01*
X113555471Y-94647628D01*
X113559688Y-94638713D01*
X113564758Y-94630253D01*
X113570633Y-94622331D01*
X113577257Y-94615024D01*
X113584564Y-94608400D01*
X113592486Y-94602525D01*
X113600946Y-94597455D01*
X113609861Y-94593238D01*
X113619147Y-94589915D01*
X113628714Y-94587519D01*
X113638470Y-94586072D01*
X113648321Y-94585588D01*
X115024321Y-94585588D01*
X115034172Y-94586072D01*
X115034172Y-94586072D01*
G37*
D24*
X114336321Y-94786588D03*
D18*
G36*
X115034172Y-94086072D02*
G01*
X115043928Y-94087519D01*
X115053495Y-94089915D01*
X115062781Y-94093238D01*
X115071696Y-94097455D01*
X115080156Y-94102525D01*
X115088078Y-94108400D01*
X115095385Y-94115024D01*
X115102009Y-94122331D01*
X115107884Y-94130253D01*
X115112954Y-94138713D01*
X115117171Y-94147628D01*
X115120494Y-94156914D01*
X115122890Y-94166481D01*
X115124337Y-94176237D01*
X115124821Y-94186088D01*
X115124821Y-94387088D01*
X115124337Y-94396939D01*
X115122890Y-94406695D01*
X115120494Y-94416262D01*
X115117171Y-94425548D01*
X115112954Y-94434463D01*
X115107884Y-94442923D01*
X115102009Y-94450845D01*
X115095385Y-94458152D01*
X115088078Y-94464776D01*
X115080156Y-94470651D01*
X115071696Y-94475721D01*
X115062781Y-94479938D01*
X115053495Y-94483261D01*
X115043928Y-94485657D01*
X115034172Y-94487104D01*
X115024321Y-94487588D01*
X113648321Y-94487588D01*
X113638470Y-94487104D01*
X113628714Y-94485657D01*
X113619147Y-94483261D01*
X113609861Y-94479938D01*
X113600946Y-94475721D01*
X113592486Y-94470651D01*
X113584564Y-94464776D01*
X113577257Y-94458152D01*
X113570633Y-94450845D01*
X113564758Y-94442923D01*
X113559688Y-94434463D01*
X113555471Y-94425548D01*
X113552148Y-94416262D01*
X113549752Y-94406695D01*
X113548305Y-94396939D01*
X113547821Y-94387088D01*
X113547821Y-94186088D01*
X113548305Y-94176237D01*
X113549752Y-94166481D01*
X113552148Y-94156914D01*
X113555471Y-94147628D01*
X113559688Y-94138713D01*
X113564758Y-94130253D01*
X113570633Y-94122331D01*
X113577257Y-94115024D01*
X113584564Y-94108400D01*
X113592486Y-94102525D01*
X113600946Y-94097455D01*
X113609861Y-94093238D01*
X113619147Y-94089915D01*
X113628714Y-94087519D01*
X113638470Y-94086072D01*
X113648321Y-94085588D01*
X115024321Y-94085588D01*
X115034172Y-94086072D01*
X115034172Y-94086072D01*
G37*
D24*
X114336321Y-94286588D03*
D18*
G36*
X113034172Y-92086072D02*
G01*
X113043928Y-92087519D01*
X113053495Y-92089915D01*
X113062781Y-92093238D01*
X113071696Y-92097455D01*
X113080156Y-92102525D01*
X113088078Y-92108400D01*
X113095385Y-92115024D01*
X113102009Y-92122331D01*
X113107884Y-92130253D01*
X113112954Y-92138713D01*
X113117171Y-92147628D01*
X113120494Y-92156914D01*
X113122890Y-92166481D01*
X113124337Y-92176237D01*
X113124821Y-92186088D01*
X113124821Y-93562088D01*
X113124337Y-93571939D01*
X113122890Y-93581695D01*
X113120494Y-93591262D01*
X113117171Y-93600548D01*
X113112954Y-93609463D01*
X113107884Y-93617923D01*
X113102009Y-93625845D01*
X113095385Y-93633152D01*
X113088078Y-93639776D01*
X113080156Y-93645651D01*
X113071696Y-93650721D01*
X113062781Y-93654938D01*
X113053495Y-93658261D01*
X113043928Y-93660657D01*
X113034172Y-93662104D01*
X113024321Y-93662588D01*
X112823321Y-93662588D01*
X112813470Y-93662104D01*
X112803714Y-93660657D01*
X112794147Y-93658261D01*
X112784861Y-93654938D01*
X112775946Y-93650721D01*
X112767486Y-93645651D01*
X112759564Y-93639776D01*
X112752257Y-93633152D01*
X112745633Y-93625845D01*
X112739758Y-93617923D01*
X112734688Y-93609463D01*
X112730471Y-93600548D01*
X112727148Y-93591262D01*
X112724752Y-93581695D01*
X112723305Y-93571939D01*
X112722821Y-93562088D01*
X112722821Y-92186088D01*
X112723305Y-92176237D01*
X112724752Y-92166481D01*
X112727148Y-92156914D01*
X112730471Y-92147628D01*
X112734688Y-92138713D01*
X112739758Y-92130253D01*
X112745633Y-92122331D01*
X112752257Y-92115024D01*
X112759564Y-92108400D01*
X112767486Y-92102525D01*
X112775946Y-92097455D01*
X112784861Y-92093238D01*
X112794147Y-92089915D01*
X112803714Y-92087519D01*
X112813470Y-92086072D01*
X112823321Y-92085588D01*
X113024321Y-92085588D01*
X113034172Y-92086072D01*
X113034172Y-92086072D01*
G37*
D24*
X112923821Y-92874088D03*
D18*
G36*
X112534172Y-92086072D02*
G01*
X112543928Y-92087519D01*
X112553495Y-92089915D01*
X112562781Y-92093238D01*
X112571696Y-92097455D01*
X112580156Y-92102525D01*
X112588078Y-92108400D01*
X112595385Y-92115024D01*
X112602009Y-92122331D01*
X112607884Y-92130253D01*
X112612954Y-92138713D01*
X112617171Y-92147628D01*
X112620494Y-92156914D01*
X112622890Y-92166481D01*
X112624337Y-92176237D01*
X112624821Y-92186088D01*
X112624821Y-93562088D01*
X112624337Y-93571939D01*
X112622890Y-93581695D01*
X112620494Y-93591262D01*
X112617171Y-93600548D01*
X112612954Y-93609463D01*
X112607884Y-93617923D01*
X112602009Y-93625845D01*
X112595385Y-93633152D01*
X112588078Y-93639776D01*
X112580156Y-93645651D01*
X112571696Y-93650721D01*
X112562781Y-93654938D01*
X112553495Y-93658261D01*
X112543928Y-93660657D01*
X112534172Y-93662104D01*
X112524321Y-93662588D01*
X112323321Y-93662588D01*
X112313470Y-93662104D01*
X112303714Y-93660657D01*
X112294147Y-93658261D01*
X112284861Y-93654938D01*
X112275946Y-93650721D01*
X112267486Y-93645651D01*
X112259564Y-93639776D01*
X112252257Y-93633152D01*
X112245633Y-93625845D01*
X112239758Y-93617923D01*
X112234688Y-93609463D01*
X112230471Y-93600548D01*
X112227148Y-93591262D01*
X112224752Y-93581695D01*
X112223305Y-93571939D01*
X112222821Y-93562088D01*
X112222821Y-92186088D01*
X112223305Y-92176237D01*
X112224752Y-92166481D01*
X112227148Y-92156914D01*
X112230471Y-92147628D01*
X112234688Y-92138713D01*
X112239758Y-92130253D01*
X112245633Y-92122331D01*
X112252257Y-92115024D01*
X112259564Y-92108400D01*
X112267486Y-92102525D01*
X112275946Y-92097455D01*
X112284861Y-92093238D01*
X112294147Y-92089915D01*
X112303714Y-92087519D01*
X112313470Y-92086072D01*
X112323321Y-92085588D01*
X112524321Y-92085588D01*
X112534172Y-92086072D01*
X112534172Y-92086072D01*
G37*
D24*
X112423821Y-92874088D03*
D18*
G36*
X112034172Y-92086072D02*
G01*
X112043928Y-92087519D01*
X112053495Y-92089915D01*
X112062781Y-92093238D01*
X112071696Y-92097455D01*
X112080156Y-92102525D01*
X112088078Y-92108400D01*
X112095385Y-92115024D01*
X112102009Y-92122331D01*
X112107884Y-92130253D01*
X112112954Y-92138713D01*
X112117171Y-92147628D01*
X112120494Y-92156914D01*
X112122890Y-92166481D01*
X112124337Y-92176237D01*
X112124821Y-92186088D01*
X112124821Y-93562088D01*
X112124337Y-93571939D01*
X112122890Y-93581695D01*
X112120494Y-93591262D01*
X112117171Y-93600548D01*
X112112954Y-93609463D01*
X112107884Y-93617923D01*
X112102009Y-93625845D01*
X112095385Y-93633152D01*
X112088078Y-93639776D01*
X112080156Y-93645651D01*
X112071696Y-93650721D01*
X112062781Y-93654938D01*
X112053495Y-93658261D01*
X112043928Y-93660657D01*
X112034172Y-93662104D01*
X112024321Y-93662588D01*
X111823321Y-93662588D01*
X111813470Y-93662104D01*
X111803714Y-93660657D01*
X111794147Y-93658261D01*
X111784861Y-93654938D01*
X111775946Y-93650721D01*
X111767486Y-93645651D01*
X111759564Y-93639776D01*
X111752257Y-93633152D01*
X111745633Y-93625845D01*
X111739758Y-93617923D01*
X111734688Y-93609463D01*
X111730471Y-93600548D01*
X111727148Y-93591262D01*
X111724752Y-93581695D01*
X111723305Y-93571939D01*
X111722821Y-93562088D01*
X111722821Y-92186088D01*
X111723305Y-92176237D01*
X111724752Y-92166481D01*
X111727148Y-92156914D01*
X111730471Y-92147628D01*
X111734688Y-92138713D01*
X111739758Y-92130253D01*
X111745633Y-92122331D01*
X111752257Y-92115024D01*
X111759564Y-92108400D01*
X111767486Y-92102525D01*
X111775946Y-92097455D01*
X111784861Y-92093238D01*
X111794147Y-92089915D01*
X111803714Y-92087519D01*
X111813470Y-92086072D01*
X111823321Y-92085588D01*
X112024321Y-92085588D01*
X112034172Y-92086072D01*
X112034172Y-92086072D01*
G37*
D24*
X111923821Y-92874088D03*
D18*
G36*
X111534172Y-92086072D02*
G01*
X111543928Y-92087519D01*
X111553495Y-92089915D01*
X111562781Y-92093238D01*
X111571696Y-92097455D01*
X111580156Y-92102525D01*
X111588078Y-92108400D01*
X111595385Y-92115024D01*
X111602009Y-92122331D01*
X111607884Y-92130253D01*
X111612954Y-92138713D01*
X111617171Y-92147628D01*
X111620494Y-92156914D01*
X111622890Y-92166481D01*
X111624337Y-92176237D01*
X111624821Y-92186088D01*
X111624821Y-93562088D01*
X111624337Y-93571939D01*
X111622890Y-93581695D01*
X111620494Y-93591262D01*
X111617171Y-93600548D01*
X111612954Y-93609463D01*
X111607884Y-93617923D01*
X111602009Y-93625845D01*
X111595385Y-93633152D01*
X111588078Y-93639776D01*
X111580156Y-93645651D01*
X111571696Y-93650721D01*
X111562781Y-93654938D01*
X111553495Y-93658261D01*
X111543928Y-93660657D01*
X111534172Y-93662104D01*
X111524321Y-93662588D01*
X111323321Y-93662588D01*
X111313470Y-93662104D01*
X111303714Y-93660657D01*
X111294147Y-93658261D01*
X111284861Y-93654938D01*
X111275946Y-93650721D01*
X111267486Y-93645651D01*
X111259564Y-93639776D01*
X111252257Y-93633152D01*
X111245633Y-93625845D01*
X111239758Y-93617923D01*
X111234688Y-93609463D01*
X111230471Y-93600548D01*
X111227148Y-93591262D01*
X111224752Y-93581695D01*
X111223305Y-93571939D01*
X111222821Y-93562088D01*
X111222821Y-92186088D01*
X111223305Y-92176237D01*
X111224752Y-92166481D01*
X111227148Y-92156914D01*
X111230471Y-92147628D01*
X111234688Y-92138713D01*
X111239758Y-92130253D01*
X111245633Y-92122331D01*
X111252257Y-92115024D01*
X111259564Y-92108400D01*
X111267486Y-92102525D01*
X111275946Y-92097455D01*
X111284861Y-92093238D01*
X111294147Y-92089915D01*
X111303714Y-92087519D01*
X111313470Y-92086072D01*
X111323321Y-92085588D01*
X111524321Y-92085588D01*
X111534172Y-92086072D01*
X111534172Y-92086072D01*
G37*
D24*
X111423821Y-92874088D03*
D18*
G36*
X111034172Y-92086072D02*
G01*
X111043928Y-92087519D01*
X111053495Y-92089915D01*
X111062781Y-92093238D01*
X111071696Y-92097455D01*
X111080156Y-92102525D01*
X111088078Y-92108400D01*
X111095385Y-92115024D01*
X111102009Y-92122331D01*
X111107884Y-92130253D01*
X111112954Y-92138713D01*
X111117171Y-92147628D01*
X111120494Y-92156914D01*
X111122890Y-92166481D01*
X111124337Y-92176237D01*
X111124821Y-92186088D01*
X111124821Y-93562088D01*
X111124337Y-93571939D01*
X111122890Y-93581695D01*
X111120494Y-93591262D01*
X111117171Y-93600548D01*
X111112954Y-93609463D01*
X111107884Y-93617923D01*
X111102009Y-93625845D01*
X111095385Y-93633152D01*
X111088078Y-93639776D01*
X111080156Y-93645651D01*
X111071696Y-93650721D01*
X111062781Y-93654938D01*
X111053495Y-93658261D01*
X111043928Y-93660657D01*
X111034172Y-93662104D01*
X111024321Y-93662588D01*
X110823321Y-93662588D01*
X110813470Y-93662104D01*
X110803714Y-93660657D01*
X110794147Y-93658261D01*
X110784861Y-93654938D01*
X110775946Y-93650721D01*
X110767486Y-93645651D01*
X110759564Y-93639776D01*
X110752257Y-93633152D01*
X110745633Y-93625845D01*
X110739758Y-93617923D01*
X110734688Y-93609463D01*
X110730471Y-93600548D01*
X110727148Y-93591262D01*
X110724752Y-93581695D01*
X110723305Y-93571939D01*
X110722821Y-93562088D01*
X110722821Y-92186088D01*
X110723305Y-92176237D01*
X110724752Y-92166481D01*
X110727148Y-92156914D01*
X110730471Y-92147628D01*
X110734688Y-92138713D01*
X110739758Y-92130253D01*
X110745633Y-92122331D01*
X110752257Y-92115024D01*
X110759564Y-92108400D01*
X110767486Y-92102525D01*
X110775946Y-92097455D01*
X110784861Y-92093238D01*
X110794147Y-92089915D01*
X110803714Y-92087519D01*
X110813470Y-92086072D01*
X110823321Y-92085588D01*
X111024321Y-92085588D01*
X111034172Y-92086072D01*
X111034172Y-92086072D01*
G37*
D24*
X110923821Y-92874088D03*
D18*
G36*
X110534172Y-92086072D02*
G01*
X110543928Y-92087519D01*
X110553495Y-92089915D01*
X110562781Y-92093238D01*
X110571696Y-92097455D01*
X110580156Y-92102525D01*
X110588078Y-92108400D01*
X110595385Y-92115024D01*
X110602009Y-92122331D01*
X110607884Y-92130253D01*
X110612954Y-92138713D01*
X110617171Y-92147628D01*
X110620494Y-92156914D01*
X110622890Y-92166481D01*
X110624337Y-92176237D01*
X110624821Y-92186088D01*
X110624821Y-93562088D01*
X110624337Y-93571939D01*
X110622890Y-93581695D01*
X110620494Y-93591262D01*
X110617171Y-93600548D01*
X110612954Y-93609463D01*
X110607884Y-93617923D01*
X110602009Y-93625845D01*
X110595385Y-93633152D01*
X110588078Y-93639776D01*
X110580156Y-93645651D01*
X110571696Y-93650721D01*
X110562781Y-93654938D01*
X110553495Y-93658261D01*
X110543928Y-93660657D01*
X110534172Y-93662104D01*
X110524321Y-93662588D01*
X110323321Y-93662588D01*
X110313470Y-93662104D01*
X110303714Y-93660657D01*
X110294147Y-93658261D01*
X110284861Y-93654938D01*
X110275946Y-93650721D01*
X110267486Y-93645651D01*
X110259564Y-93639776D01*
X110252257Y-93633152D01*
X110245633Y-93625845D01*
X110239758Y-93617923D01*
X110234688Y-93609463D01*
X110230471Y-93600548D01*
X110227148Y-93591262D01*
X110224752Y-93581695D01*
X110223305Y-93571939D01*
X110222821Y-93562088D01*
X110222821Y-92186088D01*
X110223305Y-92176237D01*
X110224752Y-92166481D01*
X110227148Y-92156914D01*
X110230471Y-92147628D01*
X110234688Y-92138713D01*
X110239758Y-92130253D01*
X110245633Y-92122331D01*
X110252257Y-92115024D01*
X110259564Y-92108400D01*
X110267486Y-92102525D01*
X110275946Y-92097455D01*
X110284861Y-92093238D01*
X110294147Y-92089915D01*
X110303714Y-92087519D01*
X110313470Y-92086072D01*
X110323321Y-92085588D01*
X110524321Y-92085588D01*
X110534172Y-92086072D01*
X110534172Y-92086072D01*
G37*
D24*
X110423821Y-92874088D03*
D18*
G36*
X110034172Y-92086072D02*
G01*
X110043928Y-92087519D01*
X110053495Y-92089915D01*
X110062781Y-92093238D01*
X110071696Y-92097455D01*
X110080156Y-92102525D01*
X110088078Y-92108400D01*
X110095385Y-92115024D01*
X110102009Y-92122331D01*
X110107884Y-92130253D01*
X110112954Y-92138713D01*
X110117171Y-92147628D01*
X110120494Y-92156914D01*
X110122890Y-92166481D01*
X110124337Y-92176237D01*
X110124821Y-92186088D01*
X110124821Y-93562088D01*
X110124337Y-93571939D01*
X110122890Y-93581695D01*
X110120494Y-93591262D01*
X110117171Y-93600548D01*
X110112954Y-93609463D01*
X110107884Y-93617923D01*
X110102009Y-93625845D01*
X110095385Y-93633152D01*
X110088078Y-93639776D01*
X110080156Y-93645651D01*
X110071696Y-93650721D01*
X110062781Y-93654938D01*
X110053495Y-93658261D01*
X110043928Y-93660657D01*
X110034172Y-93662104D01*
X110024321Y-93662588D01*
X109823321Y-93662588D01*
X109813470Y-93662104D01*
X109803714Y-93660657D01*
X109794147Y-93658261D01*
X109784861Y-93654938D01*
X109775946Y-93650721D01*
X109767486Y-93645651D01*
X109759564Y-93639776D01*
X109752257Y-93633152D01*
X109745633Y-93625845D01*
X109739758Y-93617923D01*
X109734688Y-93609463D01*
X109730471Y-93600548D01*
X109727148Y-93591262D01*
X109724752Y-93581695D01*
X109723305Y-93571939D01*
X109722821Y-93562088D01*
X109722821Y-92186088D01*
X109723305Y-92176237D01*
X109724752Y-92166481D01*
X109727148Y-92156914D01*
X109730471Y-92147628D01*
X109734688Y-92138713D01*
X109739758Y-92130253D01*
X109745633Y-92122331D01*
X109752257Y-92115024D01*
X109759564Y-92108400D01*
X109767486Y-92102525D01*
X109775946Y-92097455D01*
X109784861Y-92093238D01*
X109794147Y-92089915D01*
X109803714Y-92087519D01*
X109813470Y-92086072D01*
X109823321Y-92085588D01*
X110024321Y-92085588D01*
X110034172Y-92086072D01*
X110034172Y-92086072D01*
G37*
D24*
X109923821Y-92874088D03*
D18*
G36*
X109534172Y-92086072D02*
G01*
X109543928Y-92087519D01*
X109553495Y-92089915D01*
X109562781Y-92093238D01*
X109571696Y-92097455D01*
X109580156Y-92102525D01*
X109588078Y-92108400D01*
X109595385Y-92115024D01*
X109602009Y-92122331D01*
X109607884Y-92130253D01*
X109612954Y-92138713D01*
X109617171Y-92147628D01*
X109620494Y-92156914D01*
X109622890Y-92166481D01*
X109624337Y-92176237D01*
X109624821Y-92186088D01*
X109624821Y-93562088D01*
X109624337Y-93571939D01*
X109622890Y-93581695D01*
X109620494Y-93591262D01*
X109617171Y-93600548D01*
X109612954Y-93609463D01*
X109607884Y-93617923D01*
X109602009Y-93625845D01*
X109595385Y-93633152D01*
X109588078Y-93639776D01*
X109580156Y-93645651D01*
X109571696Y-93650721D01*
X109562781Y-93654938D01*
X109553495Y-93658261D01*
X109543928Y-93660657D01*
X109534172Y-93662104D01*
X109524321Y-93662588D01*
X109323321Y-93662588D01*
X109313470Y-93662104D01*
X109303714Y-93660657D01*
X109294147Y-93658261D01*
X109284861Y-93654938D01*
X109275946Y-93650721D01*
X109267486Y-93645651D01*
X109259564Y-93639776D01*
X109252257Y-93633152D01*
X109245633Y-93625845D01*
X109239758Y-93617923D01*
X109234688Y-93609463D01*
X109230471Y-93600548D01*
X109227148Y-93591262D01*
X109224752Y-93581695D01*
X109223305Y-93571939D01*
X109222821Y-93562088D01*
X109222821Y-92186088D01*
X109223305Y-92176237D01*
X109224752Y-92166481D01*
X109227148Y-92156914D01*
X109230471Y-92147628D01*
X109234688Y-92138713D01*
X109239758Y-92130253D01*
X109245633Y-92122331D01*
X109252257Y-92115024D01*
X109259564Y-92108400D01*
X109267486Y-92102525D01*
X109275946Y-92097455D01*
X109284861Y-92093238D01*
X109294147Y-92089915D01*
X109303714Y-92087519D01*
X109313470Y-92086072D01*
X109323321Y-92085588D01*
X109524321Y-92085588D01*
X109534172Y-92086072D01*
X109534172Y-92086072D01*
G37*
D24*
X109423821Y-92874088D03*
D18*
G36*
X109034172Y-92086072D02*
G01*
X109043928Y-92087519D01*
X109053495Y-92089915D01*
X109062781Y-92093238D01*
X109071696Y-92097455D01*
X109080156Y-92102525D01*
X109088078Y-92108400D01*
X109095385Y-92115024D01*
X109102009Y-92122331D01*
X109107884Y-92130253D01*
X109112954Y-92138713D01*
X109117171Y-92147628D01*
X109120494Y-92156914D01*
X109122890Y-92166481D01*
X109124337Y-92176237D01*
X109124821Y-92186088D01*
X109124821Y-93562088D01*
X109124337Y-93571939D01*
X109122890Y-93581695D01*
X109120494Y-93591262D01*
X109117171Y-93600548D01*
X109112954Y-93609463D01*
X109107884Y-93617923D01*
X109102009Y-93625845D01*
X109095385Y-93633152D01*
X109088078Y-93639776D01*
X109080156Y-93645651D01*
X109071696Y-93650721D01*
X109062781Y-93654938D01*
X109053495Y-93658261D01*
X109043928Y-93660657D01*
X109034172Y-93662104D01*
X109024321Y-93662588D01*
X108823321Y-93662588D01*
X108813470Y-93662104D01*
X108803714Y-93660657D01*
X108794147Y-93658261D01*
X108784861Y-93654938D01*
X108775946Y-93650721D01*
X108767486Y-93645651D01*
X108759564Y-93639776D01*
X108752257Y-93633152D01*
X108745633Y-93625845D01*
X108739758Y-93617923D01*
X108734688Y-93609463D01*
X108730471Y-93600548D01*
X108727148Y-93591262D01*
X108724752Y-93581695D01*
X108723305Y-93571939D01*
X108722821Y-93562088D01*
X108722821Y-92186088D01*
X108723305Y-92176237D01*
X108724752Y-92166481D01*
X108727148Y-92156914D01*
X108730471Y-92147628D01*
X108734688Y-92138713D01*
X108739758Y-92130253D01*
X108745633Y-92122331D01*
X108752257Y-92115024D01*
X108759564Y-92108400D01*
X108767486Y-92102525D01*
X108775946Y-92097455D01*
X108784861Y-92093238D01*
X108794147Y-92089915D01*
X108803714Y-92087519D01*
X108813470Y-92086072D01*
X108823321Y-92085588D01*
X109024321Y-92085588D01*
X109034172Y-92086072D01*
X109034172Y-92086072D01*
G37*
D24*
X108923821Y-92874088D03*
D18*
G36*
X108534172Y-92086072D02*
G01*
X108543928Y-92087519D01*
X108553495Y-92089915D01*
X108562781Y-92093238D01*
X108571696Y-92097455D01*
X108580156Y-92102525D01*
X108588078Y-92108400D01*
X108595385Y-92115024D01*
X108602009Y-92122331D01*
X108607884Y-92130253D01*
X108612954Y-92138713D01*
X108617171Y-92147628D01*
X108620494Y-92156914D01*
X108622890Y-92166481D01*
X108624337Y-92176237D01*
X108624821Y-92186088D01*
X108624821Y-93562088D01*
X108624337Y-93571939D01*
X108622890Y-93581695D01*
X108620494Y-93591262D01*
X108617171Y-93600548D01*
X108612954Y-93609463D01*
X108607884Y-93617923D01*
X108602009Y-93625845D01*
X108595385Y-93633152D01*
X108588078Y-93639776D01*
X108580156Y-93645651D01*
X108571696Y-93650721D01*
X108562781Y-93654938D01*
X108553495Y-93658261D01*
X108543928Y-93660657D01*
X108534172Y-93662104D01*
X108524321Y-93662588D01*
X108323321Y-93662588D01*
X108313470Y-93662104D01*
X108303714Y-93660657D01*
X108294147Y-93658261D01*
X108284861Y-93654938D01*
X108275946Y-93650721D01*
X108267486Y-93645651D01*
X108259564Y-93639776D01*
X108252257Y-93633152D01*
X108245633Y-93625845D01*
X108239758Y-93617923D01*
X108234688Y-93609463D01*
X108230471Y-93600548D01*
X108227148Y-93591262D01*
X108224752Y-93581695D01*
X108223305Y-93571939D01*
X108222821Y-93562088D01*
X108222821Y-92186088D01*
X108223305Y-92176237D01*
X108224752Y-92166481D01*
X108227148Y-92156914D01*
X108230471Y-92147628D01*
X108234688Y-92138713D01*
X108239758Y-92130253D01*
X108245633Y-92122331D01*
X108252257Y-92115024D01*
X108259564Y-92108400D01*
X108267486Y-92102525D01*
X108275946Y-92097455D01*
X108284861Y-92093238D01*
X108294147Y-92089915D01*
X108303714Y-92087519D01*
X108313470Y-92086072D01*
X108323321Y-92085588D01*
X108524321Y-92085588D01*
X108534172Y-92086072D01*
X108534172Y-92086072D01*
G37*
D24*
X108423821Y-92874088D03*
D18*
G36*
X108034172Y-92086072D02*
G01*
X108043928Y-92087519D01*
X108053495Y-92089915D01*
X108062781Y-92093238D01*
X108071696Y-92097455D01*
X108080156Y-92102525D01*
X108088078Y-92108400D01*
X108095385Y-92115024D01*
X108102009Y-92122331D01*
X108107884Y-92130253D01*
X108112954Y-92138713D01*
X108117171Y-92147628D01*
X108120494Y-92156914D01*
X108122890Y-92166481D01*
X108124337Y-92176237D01*
X108124821Y-92186088D01*
X108124821Y-93562088D01*
X108124337Y-93571939D01*
X108122890Y-93581695D01*
X108120494Y-93591262D01*
X108117171Y-93600548D01*
X108112954Y-93609463D01*
X108107884Y-93617923D01*
X108102009Y-93625845D01*
X108095385Y-93633152D01*
X108088078Y-93639776D01*
X108080156Y-93645651D01*
X108071696Y-93650721D01*
X108062781Y-93654938D01*
X108053495Y-93658261D01*
X108043928Y-93660657D01*
X108034172Y-93662104D01*
X108024321Y-93662588D01*
X107823321Y-93662588D01*
X107813470Y-93662104D01*
X107803714Y-93660657D01*
X107794147Y-93658261D01*
X107784861Y-93654938D01*
X107775946Y-93650721D01*
X107767486Y-93645651D01*
X107759564Y-93639776D01*
X107752257Y-93633152D01*
X107745633Y-93625845D01*
X107739758Y-93617923D01*
X107734688Y-93609463D01*
X107730471Y-93600548D01*
X107727148Y-93591262D01*
X107724752Y-93581695D01*
X107723305Y-93571939D01*
X107722821Y-93562088D01*
X107722821Y-92186088D01*
X107723305Y-92176237D01*
X107724752Y-92166481D01*
X107727148Y-92156914D01*
X107730471Y-92147628D01*
X107734688Y-92138713D01*
X107739758Y-92130253D01*
X107745633Y-92122331D01*
X107752257Y-92115024D01*
X107759564Y-92108400D01*
X107767486Y-92102525D01*
X107775946Y-92097455D01*
X107784861Y-92093238D01*
X107794147Y-92089915D01*
X107803714Y-92087519D01*
X107813470Y-92086072D01*
X107823321Y-92085588D01*
X108024321Y-92085588D01*
X108034172Y-92086072D01*
X108034172Y-92086072D01*
G37*
D24*
X107923821Y-92874088D03*
D18*
G36*
X107534172Y-92086072D02*
G01*
X107543928Y-92087519D01*
X107553495Y-92089915D01*
X107562781Y-92093238D01*
X107571696Y-92097455D01*
X107580156Y-92102525D01*
X107588078Y-92108400D01*
X107595385Y-92115024D01*
X107602009Y-92122331D01*
X107607884Y-92130253D01*
X107612954Y-92138713D01*
X107617171Y-92147628D01*
X107620494Y-92156914D01*
X107622890Y-92166481D01*
X107624337Y-92176237D01*
X107624821Y-92186088D01*
X107624821Y-93562088D01*
X107624337Y-93571939D01*
X107622890Y-93581695D01*
X107620494Y-93591262D01*
X107617171Y-93600548D01*
X107612954Y-93609463D01*
X107607884Y-93617923D01*
X107602009Y-93625845D01*
X107595385Y-93633152D01*
X107588078Y-93639776D01*
X107580156Y-93645651D01*
X107571696Y-93650721D01*
X107562781Y-93654938D01*
X107553495Y-93658261D01*
X107543928Y-93660657D01*
X107534172Y-93662104D01*
X107524321Y-93662588D01*
X107323321Y-93662588D01*
X107313470Y-93662104D01*
X107303714Y-93660657D01*
X107294147Y-93658261D01*
X107284861Y-93654938D01*
X107275946Y-93650721D01*
X107267486Y-93645651D01*
X107259564Y-93639776D01*
X107252257Y-93633152D01*
X107245633Y-93625845D01*
X107239758Y-93617923D01*
X107234688Y-93609463D01*
X107230471Y-93600548D01*
X107227148Y-93591262D01*
X107224752Y-93581695D01*
X107223305Y-93571939D01*
X107222821Y-93562088D01*
X107222821Y-92186088D01*
X107223305Y-92176237D01*
X107224752Y-92166481D01*
X107227148Y-92156914D01*
X107230471Y-92147628D01*
X107234688Y-92138713D01*
X107239758Y-92130253D01*
X107245633Y-92122331D01*
X107252257Y-92115024D01*
X107259564Y-92108400D01*
X107267486Y-92102525D01*
X107275946Y-92097455D01*
X107284861Y-92093238D01*
X107294147Y-92089915D01*
X107303714Y-92087519D01*
X107313470Y-92086072D01*
X107323321Y-92085588D01*
X107524321Y-92085588D01*
X107534172Y-92086072D01*
X107534172Y-92086072D01*
G37*
D24*
X107423821Y-92874088D03*
D18*
G36*
X106709172Y-94086072D02*
G01*
X106718928Y-94087519D01*
X106728495Y-94089915D01*
X106737781Y-94093238D01*
X106746696Y-94097455D01*
X106755156Y-94102525D01*
X106763078Y-94108400D01*
X106770385Y-94115024D01*
X106777009Y-94122331D01*
X106782884Y-94130253D01*
X106787954Y-94138713D01*
X106792171Y-94147628D01*
X106795494Y-94156914D01*
X106797890Y-94166481D01*
X106799337Y-94176237D01*
X106799821Y-94186088D01*
X106799821Y-94387088D01*
X106799337Y-94396939D01*
X106797890Y-94406695D01*
X106795494Y-94416262D01*
X106792171Y-94425548D01*
X106787954Y-94434463D01*
X106782884Y-94442923D01*
X106777009Y-94450845D01*
X106770385Y-94458152D01*
X106763078Y-94464776D01*
X106755156Y-94470651D01*
X106746696Y-94475721D01*
X106737781Y-94479938D01*
X106728495Y-94483261D01*
X106718928Y-94485657D01*
X106709172Y-94487104D01*
X106699321Y-94487588D01*
X105323321Y-94487588D01*
X105313470Y-94487104D01*
X105303714Y-94485657D01*
X105294147Y-94483261D01*
X105284861Y-94479938D01*
X105275946Y-94475721D01*
X105267486Y-94470651D01*
X105259564Y-94464776D01*
X105252257Y-94458152D01*
X105245633Y-94450845D01*
X105239758Y-94442923D01*
X105234688Y-94434463D01*
X105230471Y-94425548D01*
X105227148Y-94416262D01*
X105224752Y-94406695D01*
X105223305Y-94396939D01*
X105222821Y-94387088D01*
X105222821Y-94186088D01*
X105223305Y-94176237D01*
X105224752Y-94166481D01*
X105227148Y-94156914D01*
X105230471Y-94147628D01*
X105234688Y-94138713D01*
X105239758Y-94130253D01*
X105245633Y-94122331D01*
X105252257Y-94115024D01*
X105259564Y-94108400D01*
X105267486Y-94102525D01*
X105275946Y-94097455D01*
X105284861Y-94093238D01*
X105294147Y-94089915D01*
X105303714Y-94087519D01*
X105313470Y-94086072D01*
X105323321Y-94085588D01*
X106699321Y-94085588D01*
X106709172Y-94086072D01*
X106709172Y-94086072D01*
G37*
D24*
X106011321Y-94286588D03*
D18*
G36*
X106709172Y-94586072D02*
G01*
X106718928Y-94587519D01*
X106728495Y-94589915D01*
X106737781Y-94593238D01*
X106746696Y-94597455D01*
X106755156Y-94602525D01*
X106763078Y-94608400D01*
X106770385Y-94615024D01*
X106777009Y-94622331D01*
X106782884Y-94630253D01*
X106787954Y-94638713D01*
X106792171Y-94647628D01*
X106795494Y-94656914D01*
X106797890Y-94666481D01*
X106799337Y-94676237D01*
X106799821Y-94686088D01*
X106799821Y-94887088D01*
X106799337Y-94896939D01*
X106797890Y-94906695D01*
X106795494Y-94916262D01*
X106792171Y-94925548D01*
X106787954Y-94934463D01*
X106782884Y-94942923D01*
X106777009Y-94950845D01*
X106770385Y-94958152D01*
X106763078Y-94964776D01*
X106755156Y-94970651D01*
X106746696Y-94975721D01*
X106737781Y-94979938D01*
X106728495Y-94983261D01*
X106718928Y-94985657D01*
X106709172Y-94987104D01*
X106699321Y-94987588D01*
X105323321Y-94987588D01*
X105313470Y-94987104D01*
X105303714Y-94985657D01*
X105294147Y-94983261D01*
X105284861Y-94979938D01*
X105275946Y-94975721D01*
X105267486Y-94970651D01*
X105259564Y-94964776D01*
X105252257Y-94958152D01*
X105245633Y-94950845D01*
X105239758Y-94942923D01*
X105234688Y-94934463D01*
X105230471Y-94925548D01*
X105227148Y-94916262D01*
X105224752Y-94906695D01*
X105223305Y-94896939D01*
X105222821Y-94887088D01*
X105222821Y-94686088D01*
X105223305Y-94676237D01*
X105224752Y-94666481D01*
X105227148Y-94656914D01*
X105230471Y-94647628D01*
X105234688Y-94638713D01*
X105239758Y-94630253D01*
X105245633Y-94622331D01*
X105252257Y-94615024D01*
X105259564Y-94608400D01*
X105267486Y-94602525D01*
X105275946Y-94597455D01*
X105284861Y-94593238D01*
X105294147Y-94589915D01*
X105303714Y-94587519D01*
X105313470Y-94586072D01*
X105323321Y-94585588D01*
X106699321Y-94585588D01*
X106709172Y-94586072D01*
X106709172Y-94586072D01*
G37*
D24*
X106011321Y-94786588D03*
D18*
G36*
X106709172Y-95086072D02*
G01*
X106718928Y-95087519D01*
X106728495Y-95089915D01*
X106737781Y-95093238D01*
X106746696Y-95097455D01*
X106755156Y-95102525D01*
X106763078Y-95108400D01*
X106770385Y-95115024D01*
X106777009Y-95122331D01*
X106782884Y-95130253D01*
X106787954Y-95138713D01*
X106792171Y-95147628D01*
X106795494Y-95156914D01*
X106797890Y-95166481D01*
X106799337Y-95176237D01*
X106799821Y-95186088D01*
X106799821Y-95387088D01*
X106799337Y-95396939D01*
X106797890Y-95406695D01*
X106795494Y-95416262D01*
X106792171Y-95425548D01*
X106787954Y-95434463D01*
X106782884Y-95442923D01*
X106777009Y-95450845D01*
X106770385Y-95458152D01*
X106763078Y-95464776D01*
X106755156Y-95470651D01*
X106746696Y-95475721D01*
X106737781Y-95479938D01*
X106728495Y-95483261D01*
X106718928Y-95485657D01*
X106709172Y-95487104D01*
X106699321Y-95487588D01*
X105323321Y-95487588D01*
X105313470Y-95487104D01*
X105303714Y-95485657D01*
X105294147Y-95483261D01*
X105284861Y-95479938D01*
X105275946Y-95475721D01*
X105267486Y-95470651D01*
X105259564Y-95464776D01*
X105252257Y-95458152D01*
X105245633Y-95450845D01*
X105239758Y-95442923D01*
X105234688Y-95434463D01*
X105230471Y-95425548D01*
X105227148Y-95416262D01*
X105224752Y-95406695D01*
X105223305Y-95396939D01*
X105222821Y-95387088D01*
X105222821Y-95186088D01*
X105223305Y-95176237D01*
X105224752Y-95166481D01*
X105227148Y-95156914D01*
X105230471Y-95147628D01*
X105234688Y-95138713D01*
X105239758Y-95130253D01*
X105245633Y-95122331D01*
X105252257Y-95115024D01*
X105259564Y-95108400D01*
X105267486Y-95102525D01*
X105275946Y-95097455D01*
X105284861Y-95093238D01*
X105294147Y-95089915D01*
X105303714Y-95087519D01*
X105313470Y-95086072D01*
X105323321Y-95085588D01*
X106699321Y-95085588D01*
X106709172Y-95086072D01*
X106709172Y-95086072D01*
G37*
D24*
X106011321Y-95286588D03*
D18*
G36*
X106709172Y-95586072D02*
G01*
X106718928Y-95587519D01*
X106728495Y-95589915D01*
X106737781Y-95593238D01*
X106746696Y-95597455D01*
X106755156Y-95602525D01*
X106763078Y-95608400D01*
X106770385Y-95615024D01*
X106777009Y-95622331D01*
X106782884Y-95630253D01*
X106787954Y-95638713D01*
X106792171Y-95647628D01*
X106795494Y-95656914D01*
X106797890Y-95666481D01*
X106799337Y-95676237D01*
X106799821Y-95686088D01*
X106799821Y-95887088D01*
X106799337Y-95896939D01*
X106797890Y-95906695D01*
X106795494Y-95916262D01*
X106792171Y-95925548D01*
X106787954Y-95934463D01*
X106782884Y-95942923D01*
X106777009Y-95950845D01*
X106770385Y-95958152D01*
X106763078Y-95964776D01*
X106755156Y-95970651D01*
X106746696Y-95975721D01*
X106737781Y-95979938D01*
X106728495Y-95983261D01*
X106718928Y-95985657D01*
X106709172Y-95987104D01*
X106699321Y-95987588D01*
X105323321Y-95987588D01*
X105313470Y-95987104D01*
X105303714Y-95985657D01*
X105294147Y-95983261D01*
X105284861Y-95979938D01*
X105275946Y-95975721D01*
X105267486Y-95970651D01*
X105259564Y-95964776D01*
X105252257Y-95958152D01*
X105245633Y-95950845D01*
X105239758Y-95942923D01*
X105234688Y-95934463D01*
X105230471Y-95925548D01*
X105227148Y-95916262D01*
X105224752Y-95906695D01*
X105223305Y-95896939D01*
X105222821Y-95887088D01*
X105222821Y-95686088D01*
X105223305Y-95676237D01*
X105224752Y-95666481D01*
X105227148Y-95656914D01*
X105230471Y-95647628D01*
X105234688Y-95638713D01*
X105239758Y-95630253D01*
X105245633Y-95622331D01*
X105252257Y-95615024D01*
X105259564Y-95608400D01*
X105267486Y-95602525D01*
X105275946Y-95597455D01*
X105284861Y-95593238D01*
X105294147Y-95589915D01*
X105303714Y-95587519D01*
X105313470Y-95586072D01*
X105323321Y-95585588D01*
X106699321Y-95585588D01*
X106709172Y-95586072D01*
X106709172Y-95586072D01*
G37*
D24*
X106011321Y-95786588D03*
D18*
G36*
X106709172Y-96086072D02*
G01*
X106718928Y-96087519D01*
X106728495Y-96089915D01*
X106737781Y-96093238D01*
X106746696Y-96097455D01*
X106755156Y-96102525D01*
X106763078Y-96108400D01*
X106770385Y-96115024D01*
X106777009Y-96122331D01*
X106782884Y-96130253D01*
X106787954Y-96138713D01*
X106792171Y-96147628D01*
X106795494Y-96156914D01*
X106797890Y-96166481D01*
X106799337Y-96176237D01*
X106799821Y-96186088D01*
X106799821Y-96387088D01*
X106799337Y-96396939D01*
X106797890Y-96406695D01*
X106795494Y-96416262D01*
X106792171Y-96425548D01*
X106787954Y-96434463D01*
X106782884Y-96442923D01*
X106777009Y-96450845D01*
X106770385Y-96458152D01*
X106763078Y-96464776D01*
X106755156Y-96470651D01*
X106746696Y-96475721D01*
X106737781Y-96479938D01*
X106728495Y-96483261D01*
X106718928Y-96485657D01*
X106709172Y-96487104D01*
X106699321Y-96487588D01*
X105323321Y-96487588D01*
X105313470Y-96487104D01*
X105303714Y-96485657D01*
X105294147Y-96483261D01*
X105284861Y-96479938D01*
X105275946Y-96475721D01*
X105267486Y-96470651D01*
X105259564Y-96464776D01*
X105252257Y-96458152D01*
X105245633Y-96450845D01*
X105239758Y-96442923D01*
X105234688Y-96434463D01*
X105230471Y-96425548D01*
X105227148Y-96416262D01*
X105224752Y-96406695D01*
X105223305Y-96396939D01*
X105222821Y-96387088D01*
X105222821Y-96186088D01*
X105223305Y-96176237D01*
X105224752Y-96166481D01*
X105227148Y-96156914D01*
X105230471Y-96147628D01*
X105234688Y-96138713D01*
X105239758Y-96130253D01*
X105245633Y-96122331D01*
X105252257Y-96115024D01*
X105259564Y-96108400D01*
X105267486Y-96102525D01*
X105275946Y-96097455D01*
X105284861Y-96093238D01*
X105294147Y-96089915D01*
X105303714Y-96087519D01*
X105313470Y-96086072D01*
X105323321Y-96085588D01*
X106699321Y-96085588D01*
X106709172Y-96086072D01*
X106709172Y-96086072D01*
G37*
D24*
X106011321Y-96286588D03*
D18*
G36*
X106709172Y-96586072D02*
G01*
X106718928Y-96587519D01*
X106728495Y-96589915D01*
X106737781Y-96593238D01*
X106746696Y-96597455D01*
X106755156Y-96602525D01*
X106763078Y-96608400D01*
X106770385Y-96615024D01*
X106777009Y-96622331D01*
X106782884Y-96630253D01*
X106787954Y-96638713D01*
X106792171Y-96647628D01*
X106795494Y-96656914D01*
X106797890Y-96666481D01*
X106799337Y-96676237D01*
X106799821Y-96686088D01*
X106799821Y-96887088D01*
X106799337Y-96896939D01*
X106797890Y-96906695D01*
X106795494Y-96916262D01*
X106792171Y-96925548D01*
X106787954Y-96934463D01*
X106782884Y-96942923D01*
X106777009Y-96950845D01*
X106770385Y-96958152D01*
X106763078Y-96964776D01*
X106755156Y-96970651D01*
X106746696Y-96975721D01*
X106737781Y-96979938D01*
X106728495Y-96983261D01*
X106718928Y-96985657D01*
X106709172Y-96987104D01*
X106699321Y-96987588D01*
X105323321Y-96987588D01*
X105313470Y-96987104D01*
X105303714Y-96985657D01*
X105294147Y-96983261D01*
X105284861Y-96979938D01*
X105275946Y-96975721D01*
X105267486Y-96970651D01*
X105259564Y-96964776D01*
X105252257Y-96958152D01*
X105245633Y-96950845D01*
X105239758Y-96942923D01*
X105234688Y-96934463D01*
X105230471Y-96925548D01*
X105227148Y-96916262D01*
X105224752Y-96906695D01*
X105223305Y-96896939D01*
X105222821Y-96887088D01*
X105222821Y-96686088D01*
X105223305Y-96676237D01*
X105224752Y-96666481D01*
X105227148Y-96656914D01*
X105230471Y-96647628D01*
X105234688Y-96638713D01*
X105239758Y-96630253D01*
X105245633Y-96622331D01*
X105252257Y-96615024D01*
X105259564Y-96608400D01*
X105267486Y-96602525D01*
X105275946Y-96597455D01*
X105284861Y-96593238D01*
X105294147Y-96589915D01*
X105303714Y-96587519D01*
X105313470Y-96586072D01*
X105323321Y-96585588D01*
X106699321Y-96585588D01*
X106709172Y-96586072D01*
X106709172Y-96586072D01*
G37*
D24*
X106011321Y-96786588D03*
D18*
G36*
X106709172Y-97086072D02*
G01*
X106718928Y-97087519D01*
X106728495Y-97089915D01*
X106737781Y-97093238D01*
X106746696Y-97097455D01*
X106755156Y-97102525D01*
X106763078Y-97108400D01*
X106770385Y-97115024D01*
X106777009Y-97122331D01*
X106782884Y-97130253D01*
X106787954Y-97138713D01*
X106792171Y-97147628D01*
X106795494Y-97156914D01*
X106797890Y-97166481D01*
X106799337Y-97176237D01*
X106799821Y-97186088D01*
X106799821Y-97387088D01*
X106799337Y-97396939D01*
X106797890Y-97406695D01*
X106795494Y-97416262D01*
X106792171Y-97425548D01*
X106787954Y-97434463D01*
X106782884Y-97442923D01*
X106777009Y-97450845D01*
X106770385Y-97458152D01*
X106763078Y-97464776D01*
X106755156Y-97470651D01*
X106746696Y-97475721D01*
X106737781Y-97479938D01*
X106728495Y-97483261D01*
X106718928Y-97485657D01*
X106709172Y-97487104D01*
X106699321Y-97487588D01*
X105323321Y-97487588D01*
X105313470Y-97487104D01*
X105303714Y-97485657D01*
X105294147Y-97483261D01*
X105284861Y-97479938D01*
X105275946Y-97475721D01*
X105267486Y-97470651D01*
X105259564Y-97464776D01*
X105252257Y-97458152D01*
X105245633Y-97450845D01*
X105239758Y-97442923D01*
X105234688Y-97434463D01*
X105230471Y-97425548D01*
X105227148Y-97416262D01*
X105224752Y-97406695D01*
X105223305Y-97396939D01*
X105222821Y-97387088D01*
X105222821Y-97186088D01*
X105223305Y-97176237D01*
X105224752Y-97166481D01*
X105227148Y-97156914D01*
X105230471Y-97147628D01*
X105234688Y-97138713D01*
X105239758Y-97130253D01*
X105245633Y-97122331D01*
X105252257Y-97115024D01*
X105259564Y-97108400D01*
X105267486Y-97102525D01*
X105275946Y-97097455D01*
X105284861Y-97093238D01*
X105294147Y-97089915D01*
X105303714Y-97087519D01*
X105313470Y-97086072D01*
X105323321Y-97085588D01*
X106699321Y-97085588D01*
X106709172Y-97086072D01*
X106709172Y-97086072D01*
G37*
D24*
X106011321Y-97286588D03*
D18*
G36*
X106709172Y-97586072D02*
G01*
X106718928Y-97587519D01*
X106728495Y-97589915D01*
X106737781Y-97593238D01*
X106746696Y-97597455D01*
X106755156Y-97602525D01*
X106763078Y-97608400D01*
X106770385Y-97615024D01*
X106777009Y-97622331D01*
X106782884Y-97630253D01*
X106787954Y-97638713D01*
X106792171Y-97647628D01*
X106795494Y-97656914D01*
X106797890Y-97666481D01*
X106799337Y-97676237D01*
X106799821Y-97686088D01*
X106799821Y-97887088D01*
X106799337Y-97896939D01*
X106797890Y-97906695D01*
X106795494Y-97916262D01*
X106792171Y-97925548D01*
X106787954Y-97934463D01*
X106782884Y-97942923D01*
X106777009Y-97950845D01*
X106770385Y-97958152D01*
X106763078Y-97964776D01*
X106755156Y-97970651D01*
X106746696Y-97975721D01*
X106737781Y-97979938D01*
X106728495Y-97983261D01*
X106718928Y-97985657D01*
X106709172Y-97987104D01*
X106699321Y-97987588D01*
X105323321Y-97987588D01*
X105313470Y-97987104D01*
X105303714Y-97985657D01*
X105294147Y-97983261D01*
X105284861Y-97979938D01*
X105275946Y-97975721D01*
X105267486Y-97970651D01*
X105259564Y-97964776D01*
X105252257Y-97958152D01*
X105245633Y-97950845D01*
X105239758Y-97942923D01*
X105234688Y-97934463D01*
X105230471Y-97925548D01*
X105227148Y-97916262D01*
X105224752Y-97906695D01*
X105223305Y-97896939D01*
X105222821Y-97887088D01*
X105222821Y-97686088D01*
X105223305Y-97676237D01*
X105224752Y-97666481D01*
X105227148Y-97656914D01*
X105230471Y-97647628D01*
X105234688Y-97638713D01*
X105239758Y-97630253D01*
X105245633Y-97622331D01*
X105252257Y-97615024D01*
X105259564Y-97608400D01*
X105267486Y-97602525D01*
X105275946Y-97597455D01*
X105284861Y-97593238D01*
X105294147Y-97589915D01*
X105303714Y-97587519D01*
X105313470Y-97586072D01*
X105323321Y-97585588D01*
X106699321Y-97585588D01*
X106709172Y-97586072D01*
X106709172Y-97586072D01*
G37*
D24*
X106011321Y-97786588D03*
D18*
G36*
X106709172Y-98086072D02*
G01*
X106718928Y-98087519D01*
X106728495Y-98089915D01*
X106737781Y-98093238D01*
X106746696Y-98097455D01*
X106755156Y-98102525D01*
X106763078Y-98108400D01*
X106770385Y-98115024D01*
X106777009Y-98122331D01*
X106782884Y-98130253D01*
X106787954Y-98138713D01*
X106792171Y-98147628D01*
X106795494Y-98156914D01*
X106797890Y-98166481D01*
X106799337Y-98176237D01*
X106799821Y-98186088D01*
X106799821Y-98387088D01*
X106799337Y-98396939D01*
X106797890Y-98406695D01*
X106795494Y-98416262D01*
X106792171Y-98425548D01*
X106787954Y-98434463D01*
X106782884Y-98442923D01*
X106777009Y-98450845D01*
X106770385Y-98458152D01*
X106763078Y-98464776D01*
X106755156Y-98470651D01*
X106746696Y-98475721D01*
X106737781Y-98479938D01*
X106728495Y-98483261D01*
X106718928Y-98485657D01*
X106709172Y-98487104D01*
X106699321Y-98487588D01*
X105323321Y-98487588D01*
X105313470Y-98487104D01*
X105303714Y-98485657D01*
X105294147Y-98483261D01*
X105284861Y-98479938D01*
X105275946Y-98475721D01*
X105267486Y-98470651D01*
X105259564Y-98464776D01*
X105252257Y-98458152D01*
X105245633Y-98450845D01*
X105239758Y-98442923D01*
X105234688Y-98434463D01*
X105230471Y-98425548D01*
X105227148Y-98416262D01*
X105224752Y-98406695D01*
X105223305Y-98396939D01*
X105222821Y-98387088D01*
X105222821Y-98186088D01*
X105223305Y-98176237D01*
X105224752Y-98166481D01*
X105227148Y-98156914D01*
X105230471Y-98147628D01*
X105234688Y-98138713D01*
X105239758Y-98130253D01*
X105245633Y-98122331D01*
X105252257Y-98115024D01*
X105259564Y-98108400D01*
X105267486Y-98102525D01*
X105275946Y-98097455D01*
X105284861Y-98093238D01*
X105294147Y-98089915D01*
X105303714Y-98087519D01*
X105313470Y-98086072D01*
X105323321Y-98085588D01*
X106699321Y-98085588D01*
X106709172Y-98086072D01*
X106709172Y-98086072D01*
G37*
D24*
X106011321Y-98286588D03*
D18*
G36*
X106709172Y-98586072D02*
G01*
X106718928Y-98587519D01*
X106728495Y-98589915D01*
X106737781Y-98593238D01*
X106746696Y-98597455D01*
X106755156Y-98602525D01*
X106763078Y-98608400D01*
X106770385Y-98615024D01*
X106777009Y-98622331D01*
X106782884Y-98630253D01*
X106787954Y-98638713D01*
X106792171Y-98647628D01*
X106795494Y-98656914D01*
X106797890Y-98666481D01*
X106799337Y-98676237D01*
X106799821Y-98686088D01*
X106799821Y-98887088D01*
X106799337Y-98896939D01*
X106797890Y-98906695D01*
X106795494Y-98916262D01*
X106792171Y-98925548D01*
X106787954Y-98934463D01*
X106782884Y-98942923D01*
X106777009Y-98950845D01*
X106770385Y-98958152D01*
X106763078Y-98964776D01*
X106755156Y-98970651D01*
X106746696Y-98975721D01*
X106737781Y-98979938D01*
X106728495Y-98983261D01*
X106718928Y-98985657D01*
X106709172Y-98987104D01*
X106699321Y-98987588D01*
X105323321Y-98987588D01*
X105313470Y-98987104D01*
X105303714Y-98985657D01*
X105294147Y-98983261D01*
X105284861Y-98979938D01*
X105275946Y-98975721D01*
X105267486Y-98970651D01*
X105259564Y-98964776D01*
X105252257Y-98958152D01*
X105245633Y-98950845D01*
X105239758Y-98942923D01*
X105234688Y-98934463D01*
X105230471Y-98925548D01*
X105227148Y-98916262D01*
X105224752Y-98906695D01*
X105223305Y-98896939D01*
X105222821Y-98887088D01*
X105222821Y-98686088D01*
X105223305Y-98676237D01*
X105224752Y-98666481D01*
X105227148Y-98656914D01*
X105230471Y-98647628D01*
X105234688Y-98638713D01*
X105239758Y-98630253D01*
X105245633Y-98622331D01*
X105252257Y-98615024D01*
X105259564Y-98608400D01*
X105267486Y-98602525D01*
X105275946Y-98597455D01*
X105284861Y-98593238D01*
X105294147Y-98589915D01*
X105303714Y-98587519D01*
X105313470Y-98586072D01*
X105323321Y-98585588D01*
X106699321Y-98585588D01*
X106709172Y-98586072D01*
X106709172Y-98586072D01*
G37*
D24*
X106011321Y-98786588D03*
D18*
G36*
X106709172Y-99086072D02*
G01*
X106718928Y-99087519D01*
X106728495Y-99089915D01*
X106737781Y-99093238D01*
X106746696Y-99097455D01*
X106755156Y-99102525D01*
X106763078Y-99108400D01*
X106770385Y-99115024D01*
X106777009Y-99122331D01*
X106782884Y-99130253D01*
X106787954Y-99138713D01*
X106792171Y-99147628D01*
X106795494Y-99156914D01*
X106797890Y-99166481D01*
X106799337Y-99176237D01*
X106799821Y-99186088D01*
X106799821Y-99387088D01*
X106799337Y-99396939D01*
X106797890Y-99406695D01*
X106795494Y-99416262D01*
X106792171Y-99425548D01*
X106787954Y-99434463D01*
X106782884Y-99442923D01*
X106777009Y-99450845D01*
X106770385Y-99458152D01*
X106763078Y-99464776D01*
X106755156Y-99470651D01*
X106746696Y-99475721D01*
X106737781Y-99479938D01*
X106728495Y-99483261D01*
X106718928Y-99485657D01*
X106709172Y-99487104D01*
X106699321Y-99487588D01*
X105323321Y-99487588D01*
X105313470Y-99487104D01*
X105303714Y-99485657D01*
X105294147Y-99483261D01*
X105284861Y-99479938D01*
X105275946Y-99475721D01*
X105267486Y-99470651D01*
X105259564Y-99464776D01*
X105252257Y-99458152D01*
X105245633Y-99450845D01*
X105239758Y-99442923D01*
X105234688Y-99434463D01*
X105230471Y-99425548D01*
X105227148Y-99416262D01*
X105224752Y-99406695D01*
X105223305Y-99396939D01*
X105222821Y-99387088D01*
X105222821Y-99186088D01*
X105223305Y-99176237D01*
X105224752Y-99166481D01*
X105227148Y-99156914D01*
X105230471Y-99147628D01*
X105234688Y-99138713D01*
X105239758Y-99130253D01*
X105245633Y-99122331D01*
X105252257Y-99115024D01*
X105259564Y-99108400D01*
X105267486Y-99102525D01*
X105275946Y-99097455D01*
X105284861Y-99093238D01*
X105294147Y-99089915D01*
X105303714Y-99087519D01*
X105313470Y-99086072D01*
X105323321Y-99085588D01*
X106699321Y-99085588D01*
X106709172Y-99086072D01*
X106709172Y-99086072D01*
G37*
D24*
X106011321Y-99286588D03*
D18*
G36*
X106709172Y-99586072D02*
G01*
X106718928Y-99587519D01*
X106728495Y-99589915D01*
X106737781Y-99593238D01*
X106746696Y-99597455D01*
X106755156Y-99602525D01*
X106763078Y-99608400D01*
X106770385Y-99615024D01*
X106777009Y-99622331D01*
X106782884Y-99630253D01*
X106787954Y-99638713D01*
X106792171Y-99647628D01*
X106795494Y-99656914D01*
X106797890Y-99666481D01*
X106799337Y-99676237D01*
X106799821Y-99686088D01*
X106799821Y-99887088D01*
X106799337Y-99896939D01*
X106797890Y-99906695D01*
X106795494Y-99916262D01*
X106792171Y-99925548D01*
X106787954Y-99934463D01*
X106782884Y-99942923D01*
X106777009Y-99950845D01*
X106770385Y-99958152D01*
X106763078Y-99964776D01*
X106755156Y-99970651D01*
X106746696Y-99975721D01*
X106737781Y-99979938D01*
X106728495Y-99983261D01*
X106718928Y-99985657D01*
X106709172Y-99987104D01*
X106699321Y-99987588D01*
X105323321Y-99987588D01*
X105313470Y-99987104D01*
X105303714Y-99985657D01*
X105294147Y-99983261D01*
X105284861Y-99979938D01*
X105275946Y-99975721D01*
X105267486Y-99970651D01*
X105259564Y-99964776D01*
X105252257Y-99958152D01*
X105245633Y-99950845D01*
X105239758Y-99942923D01*
X105234688Y-99934463D01*
X105230471Y-99925548D01*
X105227148Y-99916262D01*
X105224752Y-99906695D01*
X105223305Y-99896939D01*
X105222821Y-99887088D01*
X105222821Y-99686088D01*
X105223305Y-99676237D01*
X105224752Y-99666481D01*
X105227148Y-99656914D01*
X105230471Y-99647628D01*
X105234688Y-99638713D01*
X105239758Y-99630253D01*
X105245633Y-99622331D01*
X105252257Y-99615024D01*
X105259564Y-99608400D01*
X105267486Y-99602525D01*
X105275946Y-99597455D01*
X105284861Y-99593238D01*
X105294147Y-99589915D01*
X105303714Y-99587519D01*
X105313470Y-99586072D01*
X105323321Y-99585588D01*
X106699321Y-99585588D01*
X106709172Y-99586072D01*
X106709172Y-99586072D01*
G37*
D24*
X106011321Y-99786588D03*
D18*
G36*
X107534172Y-100411072D02*
G01*
X107543928Y-100412519D01*
X107553495Y-100414915D01*
X107562781Y-100418238D01*
X107571696Y-100422455D01*
X107580156Y-100427525D01*
X107588078Y-100433400D01*
X107595385Y-100440024D01*
X107602009Y-100447331D01*
X107607884Y-100455253D01*
X107612954Y-100463713D01*
X107617171Y-100472628D01*
X107620494Y-100481914D01*
X107622890Y-100491481D01*
X107624337Y-100501237D01*
X107624821Y-100511088D01*
X107624821Y-101887088D01*
X107624337Y-101896939D01*
X107622890Y-101906695D01*
X107620494Y-101916262D01*
X107617171Y-101925548D01*
X107612954Y-101934463D01*
X107607884Y-101942923D01*
X107602009Y-101950845D01*
X107595385Y-101958152D01*
X107588078Y-101964776D01*
X107580156Y-101970651D01*
X107571696Y-101975721D01*
X107562781Y-101979938D01*
X107553495Y-101983261D01*
X107543928Y-101985657D01*
X107534172Y-101987104D01*
X107524321Y-101987588D01*
X107323321Y-101987588D01*
X107313470Y-101987104D01*
X107303714Y-101985657D01*
X107294147Y-101983261D01*
X107284861Y-101979938D01*
X107275946Y-101975721D01*
X107267486Y-101970651D01*
X107259564Y-101964776D01*
X107252257Y-101958152D01*
X107245633Y-101950845D01*
X107239758Y-101942923D01*
X107234688Y-101934463D01*
X107230471Y-101925548D01*
X107227148Y-101916262D01*
X107224752Y-101906695D01*
X107223305Y-101896939D01*
X107222821Y-101887088D01*
X107222821Y-100511088D01*
X107223305Y-100501237D01*
X107224752Y-100491481D01*
X107227148Y-100481914D01*
X107230471Y-100472628D01*
X107234688Y-100463713D01*
X107239758Y-100455253D01*
X107245633Y-100447331D01*
X107252257Y-100440024D01*
X107259564Y-100433400D01*
X107267486Y-100427525D01*
X107275946Y-100422455D01*
X107284861Y-100418238D01*
X107294147Y-100414915D01*
X107303714Y-100412519D01*
X107313470Y-100411072D01*
X107323321Y-100410588D01*
X107524321Y-100410588D01*
X107534172Y-100411072D01*
X107534172Y-100411072D01*
G37*
D24*
X107423821Y-101199088D03*
D18*
G36*
X108034172Y-100411072D02*
G01*
X108043928Y-100412519D01*
X108053495Y-100414915D01*
X108062781Y-100418238D01*
X108071696Y-100422455D01*
X108080156Y-100427525D01*
X108088078Y-100433400D01*
X108095385Y-100440024D01*
X108102009Y-100447331D01*
X108107884Y-100455253D01*
X108112954Y-100463713D01*
X108117171Y-100472628D01*
X108120494Y-100481914D01*
X108122890Y-100491481D01*
X108124337Y-100501237D01*
X108124821Y-100511088D01*
X108124821Y-101887088D01*
X108124337Y-101896939D01*
X108122890Y-101906695D01*
X108120494Y-101916262D01*
X108117171Y-101925548D01*
X108112954Y-101934463D01*
X108107884Y-101942923D01*
X108102009Y-101950845D01*
X108095385Y-101958152D01*
X108088078Y-101964776D01*
X108080156Y-101970651D01*
X108071696Y-101975721D01*
X108062781Y-101979938D01*
X108053495Y-101983261D01*
X108043928Y-101985657D01*
X108034172Y-101987104D01*
X108024321Y-101987588D01*
X107823321Y-101987588D01*
X107813470Y-101987104D01*
X107803714Y-101985657D01*
X107794147Y-101983261D01*
X107784861Y-101979938D01*
X107775946Y-101975721D01*
X107767486Y-101970651D01*
X107759564Y-101964776D01*
X107752257Y-101958152D01*
X107745633Y-101950845D01*
X107739758Y-101942923D01*
X107734688Y-101934463D01*
X107730471Y-101925548D01*
X107727148Y-101916262D01*
X107724752Y-101906695D01*
X107723305Y-101896939D01*
X107722821Y-101887088D01*
X107722821Y-100511088D01*
X107723305Y-100501237D01*
X107724752Y-100491481D01*
X107727148Y-100481914D01*
X107730471Y-100472628D01*
X107734688Y-100463713D01*
X107739758Y-100455253D01*
X107745633Y-100447331D01*
X107752257Y-100440024D01*
X107759564Y-100433400D01*
X107767486Y-100427525D01*
X107775946Y-100422455D01*
X107784861Y-100418238D01*
X107794147Y-100414915D01*
X107803714Y-100412519D01*
X107813470Y-100411072D01*
X107823321Y-100410588D01*
X108024321Y-100410588D01*
X108034172Y-100411072D01*
X108034172Y-100411072D01*
G37*
D24*
X107923821Y-101199088D03*
D18*
G36*
X108534172Y-100411072D02*
G01*
X108543928Y-100412519D01*
X108553495Y-100414915D01*
X108562781Y-100418238D01*
X108571696Y-100422455D01*
X108580156Y-100427525D01*
X108588078Y-100433400D01*
X108595385Y-100440024D01*
X108602009Y-100447331D01*
X108607884Y-100455253D01*
X108612954Y-100463713D01*
X108617171Y-100472628D01*
X108620494Y-100481914D01*
X108622890Y-100491481D01*
X108624337Y-100501237D01*
X108624821Y-100511088D01*
X108624821Y-101887088D01*
X108624337Y-101896939D01*
X108622890Y-101906695D01*
X108620494Y-101916262D01*
X108617171Y-101925548D01*
X108612954Y-101934463D01*
X108607884Y-101942923D01*
X108602009Y-101950845D01*
X108595385Y-101958152D01*
X108588078Y-101964776D01*
X108580156Y-101970651D01*
X108571696Y-101975721D01*
X108562781Y-101979938D01*
X108553495Y-101983261D01*
X108543928Y-101985657D01*
X108534172Y-101987104D01*
X108524321Y-101987588D01*
X108323321Y-101987588D01*
X108313470Y-101987104D01*
X108303714Y-101985657D01*
X108294147Y-101983261D01*
X108284861Y-101979938D01*
X108275946Y-101975721D01*
X108267486Y-101970651D01*
X108259564Y-101964776D01*
X108252257Y-101958152D01*
X108245633Y-101950845D01*
X108239758Y-101942923D01*
X108234688Y-101934463D01*
X108230471Y-101925548D01*
X108227148Y-101916262D01*
X108224752Y-101906695D01*
X108223305Y-101896939D01*
X108222821Y-101887088D01*
X108222821Y-100511088D01*
X108223305Y-100501237D01*
X108224752Y-100491481D01*
X108227148Y-100481914D01*
X108230471Y-100472628D01*
X108234688Y-100463713D01*
X108239758Y-100455253D01*
X108245633Y-100447331D01*
X108252257Y-100440024D01*
X108259564Y-100433400D01*
X108267486Y-100427525D01*
X108275946Y-100422455D01*
X108284861Y-100418238D01*
X108294147Y-100414915D01*
X108303714Y-100412519D01*
X108313470Y-100411072D01*
X108323321Y-100410588D01*
X108524321Y-100410588D01*
X108534172Y-100411072D01*
X108534172Y-100411072D01*
G37*
D24*
X108423821Y-101199088D03*
D18*
G36*
X109034172Y-100411072D02*
G01*
X109043928Y-100412519D01*
X109053495Y-100414915D01*
X109062781Y-100418238D01*
X109071696Y-100422455D01*
X109080156Y-100427525D01*
X109088078Y-100433400D01*
X109095385Y-100440024D01*
X109102009Y-100447331D01*
X109107884Y-100455253D01*
X109112954Y-100463713D01*
X109117171Y-100472628D01*
X109120494Y-100481914D01*
X109122890Y-100491481D01*
X109124337Y-100501237D01*
X109124821Y-100511088D01*
X109124821Y-101887088D01*
X109124337Y-101896939D01*
X109122890Y-101906695D01*
X109120494Y-101916262D01*
X109117171Y-101925548D01*
X109112954Y-101934463D01*
X109107884Y-101942923D01*
X109102009Y-101950845D01*
X109095385Y-101958152D01*
X109088078Y-101964776D01*
X109080156Y-101970651D01*
X109071696Y-101975721D01*
X109062781Y-101979938D01*
X109053495Y-101983261D01*
X109043928Y-101985657D01*
X109034172Y-101987104D01*
X109024321Y-101987588D01*
X108823321Y-101987588D01*
X108813470Y-101987104D01*
X108803714Y-101985657D01*
X108794147Y-101983261D01*
X108784861Y-101979938D01*
X108775946Y-101975721D01*
X108767486Y-101970651D01*
X108759564Y-101964776D01*
X108752257Y-101958152D01*
X108745633Y-101950845D01*
X108739758Y-101942923D01*
X108734688Y-101934463D01*
X108730471Y-101925548D01*
X108727148Y-101916262D01*
X108724752Y-101906695D01*
X108723305Y-101896939D01*
X108722821Y-101887088D01*
X108722821Y-100511088D01*
X108723305Y-100501237D01*
X108724752Y-100491481D01*
X108727148Y-100481914D01*
X108730471Y-100472628D01*
X108734688Y-100463713D01*
X108739758Y-100455253D01*
X108745633Y-100447331D01*
X108752257Y-100440024D01*
X108759564Y-100433400D01*
X108767486Y-100427525D01*
X108775946Y-100422455D01*
X108784861Y-100418238D01*
X108794147Y-100414915D01*
X108803714Y-100412519D01*
X108813470Y-100411072D01*
X108823321Y-100410588D01*
X109024321Y-100410588D01*
X109034172Y-100411072D01*
X109034172Y-100411072D01*
G37*
D24*
X108923821Y-101199088D03*
D18*
G36*
X109534172Y-100411072D02*
G01*
X109543928Y-100412519D01*
X109553495Y-100414915D01*
X109562781Y-100418238D01*
X109571696Y-100422455D01*
X109580156Y-100427525D01*
X109588078Y-100433400D01*
X109595385Y-100440024D01*
X109602009Y-100447331D01*
X109607884Y-100455253D01*
X109612954Y-100463713D01*
X109617171Y-100472628D01*
X109620494Y-100481914D01*
X109622890Y-100491481D01*
X109624337Y-100501237D01*
X109624821Y-100511088D01*
X109624821Y-101887088D01*
X109624337Y-101896939D01*
X109622890Y-101906695D01*
X109620494Y-101916262D01*
X109617171Y-101925548D01*
X109612954Y-101934463D01*
X109607884Y-101942923D01*
X109602009Y-101950845D01*
X109595385Y-101958152D01*
X109588078Y-101964776D01*
X109580156Y-101970651D01*
X109571696Y-101975721D01*
X109562781Y-101979938D01*
X109553495Y-101983261D01*
X109543928Y-101985657D01*
X109534172Y-101987104D01*
X109524321Y-101987588D01*
X109323321Y-101987588D01*
X109313470Y-101987104D01*
X109303714Y-101985657D01*
X109294147Y-101983261D01*
X109284861Y-101979938D01*
X109275946Y-101975721D01*
X109267486Y-101970651D01*
X109259564Y-101964776D01*
X109252257Y-101958152D01*
X109245633Y-101950845D01*
X109239758Y-101942923D01*
X109234688Y-101934463D01*
X109230471Y-101925548D01*
X109227148Y-101916262D01*
X109224752Y-101906695D01*
X109223305Y-101896939D01*
X109222821Y-101887088D01*
X109222821Y-100511088D01*
X109223305Y-100501237D01*
X109224752Y-100491481D01*
X109227148Y-100481914D01*
X109230471Y-100472628D01*
X109234688Y-100463713D01*
X109239758Y-100455253D01*
X109245633Y-100447331D01*
X109252257Y-100440024D01*
X109259564Y-100433400D01*
X109267486Y-100427525D01*
X109275946Y-100422455D01*
X109284861Y-100418238D01*
X109294147Y-100414915D01*
X109303714Y-100412519D01*
X109313470Y-100411072D01*
X109323321Y-100410588D01*
X109524321Y-100410588D01*
X109534172Y-100411072D01*
X109534172Y-100411072D01*
G37*
D24*
X109423821Y-101199088D03*
D18*
G36*
X110034172Y-100411072D02*
G01*
X110043928Y-100412519D01*
X110053495Y-100414915D01*
X110062781Y-100418238D01*
X110071696Y-100422455D01*
X110080156Y-100427525D01*
X110088078Y-100433400D01*
X110095385Y-100440024D01*
X110102009Y-100447331D01*
X110107884Y-100455253D01*
X110112954Y-100463713D01*
X110117171Y-100472628D01*
X110120494Y-100481914D01*
X110122890Y-100491481D01*
X110124337Y-100501237D01*
X110124821Y-100511088D01*
X110124821Y-101887088D01*
X110124337Y-101896939D01*
X110122890Y-101906695D01*
X110120494Y-101916262D01*
X110117171Y-101925548D01*
X110112954Y-101934463D01*
X110107884Y-101942923D01*
X110102009Y-101950845D01*
X110095385Y-101958152D01*
X110088078Y-101964776D01*
X110080156Y-101970651D01*
X110071696Y-101975721D01*
X110062781Y-101979938D01*
X110053495Y-101983261D01*
X110043928Y-101985657D01*
X110034172Y-101987104D01*
X110024321Y-101987588D01*
X109823321Y-101987588D01*
X109813470Y-101987104D01*
X109803714Y-101985657D01*
X109794147Y-101983261D01*
X109784861Y-101979938D01*
X109775946Y-101975721D01*
X109767486Y-101970651D01*
X109759564Y-101964776D01*
X109752257Y-101958152D01*
X109745633Y-101950845D01*
X109739758Y-101942923D01*
X109734688Y-101934463D01*
X109730471Y-101925548D01*
X109727148Y-101916262D01*
X109724752Y-101906695D01*
X109723305Y-101896939D01*
X109722821Y-101887088D01*
X109722821Y-100511088D01*
X109723305Y-100501237D01*
X109724752Y-100491481D01*
X109727148Y-100481914D01*
X109730471Y-100472628D01*
X109734688Y-100463713D01*
X109739758Y-100455253D01*
X109745633Y-100447331D01*
X109752257Y-100440024D01*
X109759564Y-100433400D01*
X109767486Y-100427525D01*
X109775946Y-100422455D01*
X109784861Y-100418238D01*
X109794147Y-100414915D01*
X109803714Y-100412519D01*
X109813470Y-100411072D01*
X109823321Y-100410588D01*
X110024321Y-100410588D01*
X110034172Y-100411072D01*
X110034172Y-100411072D01*
G37*
D24*
X109923821Y-101199088D03*
D18*
G36*
X110534172Y-100411072D02*
G01*
X110543928Y-100412519D01*
X110553495Y-100414915D01*
X110562781Y-100418238D01*
X110571696Y-100422455D01*
X110580156Y-100427525D01*
X110588078Y-100433400D01*
X110595385Y-100440024D01*
X110602009Y-100447331D01*
X110607884Y-100455253D01*
X110612954Y-100463713D01*
X110617171Y-100472628D01*
X110620494Y-100481914D01*
X110622890Y-100491481D01*
X110624337Y-100501237D01*
X110624821Y-100511088D01*
X110624821Y-101887088D01*
X110624337Y-101896939D01*
X110622890Y-101906695D01*
X110620494Y-101916262D01*
X110617171Y-101925548D01*
X110612954Y-101934463D01*
X110607884Y-101942923D01*
X110602009Y-101950845D01*
X110595385Y-101958152D01*
X110588078Y-101964776D01*
X110580156Y-101970651D01*
X110571696Y-101975721D01*
X110562781Y-101979938D01*
X110553495Y-101983261D01*
X110543928Y-101985657D01*
X110534172Y-101987104D01*
X110524321Y-101987588D01*
X110323321Y-101987588D01*
X110313470Y-101987104D01*
X110303714Y-101985657D01*
X110294147Y-101983261D01*
X110284861Y-101979938D01*
X110275946Y-101975721D01*
X110267486Y-101970651D01*
X110259564Y-101964776D01*
X110252257Y-101958152D01*
X110245633Y-101950845D01*
X110239758Y-101942923D01*
X110234688Y-101934463D01*
X110230471Y-101925548D01*
X110227148Y-101916262D01*
X110224752Y-101906695D01*
X110223305Y-101896939D01*
X110222821Y-101887088D01*
X110222821Y-100511088D01*
X110223305Y-100501237D01*
X110224752Y-100491481D01*
X110227148Y-100481914D01*
X110230471Y-100472628D01*
X110234688Y-100463713D01*
X110239758Y-100455253D01*
X110245633Y-100447331D01*
X110252257Y-100440024D01*
X110259564Y-100433400D01*
X110267486Y-100427525D01*
X110275946Y-100422455D01*
X110284861Y-100418238D01*
X110294147Y-100414915D01*
X110303714Y-100412519D01*
X110313470Y-100411072D01*
X110323321Y-100410588D01*
X110524321Y-100410588D01*
X110534172Y-100411072D01*
X110534172Y-100411072D01*
G37*
D24*
X110423821Y-101199088D03*
D18*
G36*
X111034172Y-100411072D02*
G01*
X111043928Y-100412519D01*
X111053495Y-100414915D01*
X111062781Y-100418238D01*
X111071696Y-100422455D01*
X111080156Y-100427525D01*
X111088078Y-100433400D01*
X111095385Y-100440024D01*
X111102009Y-100447331D01*
X111107884Y-100455253D01*
X111112954Y-100463713D01*
X111117171Y-100472628D01*
X111120494Y-100481914D01*
X111122890Y-100491481D01*
X111124337Y-100501237D01*
X111124821Y-100511088D01*
X111124821Y-101887088D01*
X111124337Y-101896939D01*
X111122890Y-101906695D01*
X111120494Y-101916262D01*
X111117171Y-101925548D01*
X111112954Y-101934463D01*
X111107884Y-101942923D01*
X111102009Y-101950845D01*
X111095385Y-101958152D01*
X111088078Y-101964776D01*
X111080156Y-101970651D01*
X111071696Y-101975721D01*
X111062781Y-101979938D01*
X111053495Y-101983261D01*
X111043928Y-101985657D01*
X111034172Y-101987104D01*
X111024321Y-101987588D01*
X110823321Y-101987588D01*
X110813470Y-101987104D01*
X110803714Y-101985657D01*
X110794147Y-101983261D01*
X110784861Y-101979938D01*
X110775946Y-101975721D01*
X110767486Y-101970651D01*
X110759564Y-101964776D01*
X110752257Y-101958152D01*
X110745633Y-101950845D01*
X110739758Y-101942923D01*
X110734688Y-101934463D01*
X110730471Y-101925548D01*
X110727148Y-101916262D01*
X110724752Y-101906695D01*
X110723305Y-101896939D01*
X110722821Y-101887088D01*
X110722821Y-100511088D01*
X110723305Y-100501237D01*
X110724752Y-100491481D01*
X110727148Y-100481914D01*
X110730471Y-100472628D01*
X110734688Y-100463713D01*
X110739758Y-100455253D01*
X110745633Y-100447331D01*
X110752257Y-100440024D01*
X110759564Y-100433400D01*
X110767486Y-100427525D01*
X110775946Y-100422455D01*
X110784861Y-100418238D01*
X110794147Y-100414915D01*
X110803714Y-100412519D01*
X110813470Y-100411072D01*
X110823321Y-100410588D01*
X111024321Y-100410588D01*
X111034172Y-100411072D01*
X111034172Y-100411072D01*
G37*
D24*
X110923821Y-101199088D03*
D18*
G36*
X111534172Y-100411072D02*
G01*
X111543928Y-100412519D01*
X111553495Y-100414915D01*
X111562781Y-100418238D01*
X111571696Y-100422455D01*
X111580156Y-100427525D01*
X111588078Y-100433400D01*
X111595385Y-100440024D01*
X111602009Y-100447331D01*
X111607884Y-100455253D01*
X111612954Y-100463713D01*
X111617171Y-100472628D01*
X111620494Y-100481914D01*
X111622890Y-100491481D01*
X111624337Y-100501237D01*
X111624821Y-100511088D01*
X111624821Y-101887088D01*
X111624337Y-101896939D01*
X111622890Y-101906695D01*
X111620494Y-101916262D01*
X111617171Y-101925548D01*
X111612954Y-101934463D01*
X111607884Y-101942923D01*
X111602009Y-101950845D01*
X111595385Y-101958152D01*
X111588078Y-101964776D01*
X111580156Y-101970651D01*
X111571696Y-101975721D01*
X111562781Y-101979938D01*
X111553495Y-101983261D01*
X111543928Y-101985657D01*
X111534172Y-101987104D01*
X111524321Y-101987588D01*
X111323321Y-101987588D01*
X111313470Y-101987104D01*
X111303714Y-101985657D01*
X111294147Y-101983261D01*
X111284861Y-101979938D01*
X111275946Y-101975721D01*
X111267486Y-101970651D01*
X111259564Y-101964776D01*
X111252257Y-101958152D01*
X111245633Y-101950845D01*
X111239758Y-101942923D01*
X111234688Y-101934463D01*
X111230471Y-101925548D01*
X111227148Y-101916262D01*
X111224752Y-101906695D01*
X111223305Y-101896939D01*
X111222821Y-101887088D01*
X111222821Y-100511088D01*
X111223305Y-100501237D01*
X111224752Y-100491481D01*
X111227148Y-100481914D01*
X111230471Y-100472628D01*
X111234688Y-100463713D01*
X111239758Y-100455253D01*
X111245633Y-100447331D01*
X111252257Y-100440024D01*
X111259564Y-100433400D01*
X111267486Y-100427525D01*
X111275946Y-100422455D01*
X111284861Y-100418238D01*
X111294147Y-100414915D01*
X111303714Y-100412519D01*
X111313470Y-100411072D01*
X111323321Y-100410588D01*
X111524321Y-100410588D01*
X111534172Y-100411072D01*
X111534172Y-100411072D01*
G37*
D24*
X111423821Y-101199088D03*
D18*
G36*
X112034172Y-100411072D02*
G01*
X112043928Y-100412519D01*
X112053495Y-100414915D01*
X112062781Y-100418238D01*
X112071696Y-100422455D01*
X112080156Y-100427525D01*
X112088078Y-100433400D01*
X112095385Y-100440024D01*
X112102009Y-100447331D01*
X112107884Y-100455253D01*
X112112954Y-100463713D01*
X112117171Y-100472628D01*
X112120494Y-100481914D01*
X112122890Y-100491481D01*
X112124337Y-100501237D01*
X112124821Y-100511088D01*
X112124821Y-101887088D01*
X112124337Y-101896939D01*
X112122890Y-101906695D01*
X112120494Y-101916262D01*
X112117171Y-101925548D01*
X112112954Y-101934463D01*
X112107884Y-101942923D01*
X112102009Y-101950845D01*
X112095385Y-101958152D01*
X112088078Y-101964776D01*
X112080156Y-101970651D01*
X112071696Y-101975721D01*
X112062781Y-101979938D01*
X112053495Y-101983261D01*
X112043928Y-101985657D01*
X112034172Y-101987104D01*
X112024321Y-101987588D01*
X111823321Y-101987588D01*
X111813470Y-101987104D01*
X111803714Y-101985657D01*
X111794147Y-101983261D01*
X111784861Y-101979938D01*
X111775946Y-101975721D01*
X111767486Y-101970651D01*
X111759564Y-101964776D01*
X111752257Y-101958152D01*
X111745633Y-101950845D01*
X111739758Y-101942923D01*
X111734688Y-101934463D01*
X111730471Y-101925548D01*
X111727148Y-101916262D01*
X111724752Y-101906695D01*
X111723305Y-101896939D01*
X111722821Y-101887088D01*
X111722821Y-100511088D01*
X111723305Y-100501237D01*
X111724752Y-100491481D01*
X111727148Y-100481914D01*
X111730471Y-100472628D01*
X111734688Y-100463713D01*
X111739758Y-100455253D01*
X111745633Y-100447331D01*
X111752257Y-100440024D01*
X111759564Y-100433400D01*
X111767486Y-100427525D01*
X111775946Y-100422455D01*
X111784861Y-100418238D01*
X111794147Y-100414915D01*
X111803714Y-100412519D01*
X111813470Y-100411072D01*
X111823321Y-100410588D01*
X112024321Y-100410588D01*
X112034172Y-100411072D01*
X112034172Y-100411072D01*
G37*
D24*
X111923821Y-101199088D03*
D18*
G36*
X112534172Y-100411072D02*
G01*
X112543928Y-100412519D01*
X112553495Y-100414915D01*
X112562781Y-100418238D01*
X112571696Y-100422455D01*
X112580156Y-100427525D01*
X112588078Y-100433400D01*
X112595385Y-100440024D01*
X112602009Y-100447331D01*
X112607884Y-100455253D01*
X112612954Y-100463713D01*
X112617171Y-100472628D01*
X112620494Y-100481914D01*
X112622890Y-100491481D01*
X112624337Y-100501237D01*
X112624821Y-100511088D01*
X112624821Y-101887088D01*
X112624337Y-101896939D01*
X112622890Y-101906695D01*
X112620494Y-101916262D01*
X112617171Y-101925548D01*
X112612954Y-101934463D01*
X112607884Y-101942923D01*
X112602009Y-101950845D01*
X112595385Y-101958152D01*
X112588078Y-101964776D01*
X112580156Y-101970651D01*
X112571696Y-101975721D01*
X112562781Y-101979938D01*
X112553495Y-101983261D01*
X112543928Y-101985657D01*
X112534172Y-101987104D01*
X112524321Y-101987588D01*
X112323321Y-101987588D01*
X112313470Y-101987104D01*
X112303714Y-101985657D01*
X112294147Y-101983261D01*
X112284861Y-101979938D01*
X112275946Y-101975721D01*
X112267486Y-101970651D01*
X112259564Y-101964776D01*
X112252257Y-101958152D01*
X112245633Y-101950845D01*
X112239758Y-101942923D01*
X112234688Y-101934463D01*
X112230471Y-101925548D01*
X112227148Y-101916262D01*
X112224752Y-101906695D01*
X112223305Y-101896939D01*
X112222821Y-101887088D01*
X112222821Y-100511088D01*
X112223305Y-100501237D01*
X112224752Y-100491481D01*
X112227148Y-100481914D01*
X112230471Y-100472628D01*
X112234688Y-100463713D01*
X112239758Y-100455253D01*
X112245633Y-100447331D01*
X112252257Y-100440024D01*
X112259564Y-100433400D01*
X112267486Y-100427525D01*
X112275946Y-100422455D01*
X112284861Y-100418238D01*
X112294147Y-100414915D01*
X112303714Y-100412519D01*
X112313470Y-100411072D01*
X112323321Y-100410588D01*
X112524321Y-100410588D01*
X112534172Y-100411072D01*
X112534172Y-100411072D01*
G37*
D24*
X112423821Y-101199088D03*
D18*
G36*
X113034172Y-100411072D02*
G01*
X113043928Y-100412519D01*
X113053495Y-100414915D01*
X113062781Y-100418238D01*
X113071696Y-100422455D01*
X113080156Y-100427525D01*
X113088078Y-100433400D01*
X113095385Y-100440024D01*
X113102009Y-100447331D01*
X113107884Y-100455253D01*
X113112954Y-100463713D01*
X113117171Y-100472628D01*
X113120494Y-100481914D01*
X113122890Y-100491481D01*
X113124337Y-100501237D01*
X113124821Y-100511088D01*
X113124821Y-101887088D01*
X113124337Y-101896939D01*
X113122890Y-101906695D01*
X113120494Y-101916262D01*
X113117171Y-101925548D01*
X113112954Y-101934463D01*
X113107884Y-101942923D01*
X113102009Y-101950845D01*
X113095385Y-101958152D01*
X113088078Y-101964776D01*
X113080156Y-101970651D01*
X113071696Y-101975721D01*
X113062781Y-101979938D01*
X113053495Y-101983261D01*
X113043928Y-101985657D01*
X113034172Y-101987104D01*
X113024321Y-101987588D01*
X112823321Y-101987588D01*
X112813470Y-101987104D01*
X112803714Y-101985657D01*
X112794147Y-101983261D01*
X112784861Y-101979938D01*
X112775946Y-101975721D01*
X112767486Y-101970651D01*
X112759564Y-101964776D01*
X112752257Y-101958152D01*
X112745633Y-101950845D01*
X112739758Y-101942923D01*
X112734688Y-101934463D01*
X112730471Y-101925548D01*
X112727148Y-101916262D01*
X112724752Y-101906695D01*
X112723305Y-101896939D01*
X112722821Y-101887088D01*
X112722821Y-100511088D01*
X112723305Y-100501237D01*
X112724752Y-100491481D01*
X112727148Y-100481914D01*
X112730471Y-100472628D01*
X112734688Y-100463713D01*
X112739758Y-100455253D01*
X112745633Y-100447331D01*
X112752257Y-100440024D01*
X112759564Y-100433400D01*
X112767486Y-100427525D01*
X112775946Y-100422455D01*
X112784861Y-100418238D01*
X112794147Y-100414915D01*
X112803714Y-100412519D01*
X112813470Y-100411072D01*
X112823321Y-100410588D01*
X113024321Y-100410588D01*
X113034172Y-100411072D01*
X113034172Y-100411072D01*
G37*
D24*
X112923821Y-101199088D03*
D11*
X113665000Y-80645000D03*
D12*
X111125000Y-85725000D03*
D11*
X107315000Y-83185000D03*
D13*
X106045000Y-85725000D03*
X116205000Y-85725000D03*
D11*
X113665000Y-61595000D03*
D12*
X111125000Y-66675000D03*
D11*
X107315000Y-64135000D03*
D13*
X106045000Y-66675000D03*
X116205000Y-66675000D03*
D11*
X113665000Y-42545000D03*
D12*
X111125000Y-47625000D03*
D11*
X107315000Y-45085000D03*
D13*
X106045000Y-47625000D03*
X116205000Y-47625000D03*
D11*
X94615000Y-80645000D03*
D12*
X92075000Y-85725000D03*
D11*
X88265000Y-83185000D03*
D13*
X86995000Y-85725000D03*
X97155000Y-85725000D03*
X97155000Y-66675000D03*
X86995000Y-66675000D03*
D11*
X88265000Y-64135000D03*
D12*
X92075000Y-66675000D03*
D11*
X94615000Y-61595000D03*
X94615000Y-42545000D03*
D12*
X92075000Y-47625000D03*
D11*
X88265000Y-45085000D03*
D13*
X86995000Y-47625000D03*
X97155000Y-47625000D03*
D11*
X94615000Y-99695000D03*
D12*
X92075000Y-104775000D03*
D11*
X88265000Y-102235000D03*
D13*
X86995000Y-104775000D03*
X97155000Y-104775000D03*
D11*
X75565000Y-80645000D03*
D12*
X73025000Y-85725000D03*
D11*
X69215000Y-83185000D03*
D13*
X67945000Y-85725000D03*
X78105000Y-85725000D03*
D11*
X75565000Y-61595000D03*
D12*
X73025000Y-66675000D03*
D11*
X69215000Y-64135000D03*
D13*
X67945000Y-66675000D03*
X78105000Y-66675000D03*
D11*
X75565000Y-42545000D03*
D12*
X73025000Y-47625000D03*
D11*
X69215000Y-45085000D03*
D13*
X67945000Y-47625000D03*
X78105000Y-47625000D03*
D11*
X56515000Y-42545000D03*
D12*
X53975000Y-47625000D03*
D11*
X50165000Y-45085000D03*
D13*
X48895000Y-47625000D03*
X59055000Y-47625000D03*
M02*
